<svg xmlns="http://www.w3.org/2000/svg" viewBox="0 0 64 64"><defs><style>.cls-1{fill:#b6bbbe;stroke:#b6bbbe;stroke-miterlimit:10;stroke-width:2.5px;}</style></defs><title>ICON</title><g id="V1_G1000_ALL"><g id="_10_US_Highway" data-name="10/US Highway"><path class="cls-1" d="M14.75,32.54a21,21,0,0,0-1.62,4.28l-.12.54a8.71,8.71,0,0,0-.14,1.53,8,8,0,0,0,1.44,4.65,7.83,7.83,0,0,0,3.6,3.07,13.8,13.8,0,0,0,3.61.65c.88.08,1.73.23,2.56.37l.13,0a26.86,26.86,0,0,1,3.1.73,15.11,15.11,0,0,1,3,1.23A10.94,10.94,0,0,1,32,51c.36-.31.73-.6.94-.75a13.18,13.18,0,0,1,2.59-1.38,22.27,22.27,0,0,1,4.14-1.17c.86-.16,1.8-.31,2.88-.46l1-.1.89-.09a9,9,0,0,0,1.45-.39,8.69,8.69,0,0,0,1-.41A6.33,6.33,0,0,0,48.52,45a8.72,8.72,0,0,0,2.24-3.63,9.09,9.09,0,0,0,.37-2.48,7.69,7.69,0,0,0-.06-1A14.3,14.3,0,0,0,50,34.19l0-.06a15.06,15.06,0,0,0-.87-1.85,10.31,10.31,0,0,1-1.52-5.41,10.41,10.41,0,0,1,3-7.31L44.7,13.67a9.61,9.61,0,0,1-6,2.07,9.71,9.71,0,0,1-6.36-2.37l0,0s-.15-.13-.3-.29a2.39,2.39,0,0,1-.32.32,9.7,9.7,0,0,1-12.28.35l-6,6a10.34,10.34,0,0,1,2.79,7.1A10.79,10.79,0,0,1,14.75,32.54Z"/></g></g></svg>