<svg xmlns="http://www.w3.org/2000/svg" viewBox="0 0 64 64"><defs><style>.cls-1{fill:#0b4ca1;}.cls-2{fill:#b6bbbe;}</style></defs><title>ICON</title><g id="V1_G1000_ALL"><g id="_12_Interstate_Highway" data-name="12/Interstate Highway"><path class="cls-1" d="M13.55,42.12A31.11,31.11,0,0,0,26.19,52.51c1.39.64,4.36,1.9,5.81,1.9s4.42-1.26,5.81-1.9A31.11,31.11,0,0,0,50.45,42.12a31,31,0,0,0,4.54-24H9A31,31,0,0,0,13.55,42.12Z"/><path class="cls-2" d="M50.39,9.59a34.09,34.09,0,0,1-13.91.89c-1.54-.2-3.08-.89-4.46-.89s-2.92.69-4.46.89a34.05,34.05,0,0,1-13.9-.89A24.53,24.53,0,0,0,9,18.14H55A24.67,24.67,0,0,0,50.39,9.59Z"/></g></g></svg>