{"accessors":[{"bufferView":0,"componentType":5126,"count":4,"min":[-0.0555090606212616,-0.03104165941476822,-0.03804390877485275],"max":[0.0555090606212616,0.03104165568947792,0.03804390877485275],"type":"VEC3","name":"Plane.005_vertices#0_POSITION"},{"bufferView":0,"byteOffset":12,"componentType":5120,"count":4,"type":"VEC4","name":"Plane.005_vertices#0_TANGENT"},{"bufferView":0,"byteOffset":16,"componentType":5120,"count":4,"type":"VEC4","name":"Plane.005_vertices#0_NORMAL"},{"bufferView":0,"byteOffset":20,"componentType":5122,"count":4,"type":"VEC2","name":"Plane.005_vertices#0_TEXCOORD_0"},{"bufferView":0,"byteOffset":24,"componentType":5122,"count":4,"type":"VEC2","name":"Plane.005_vertices#0_TEXCOORD_1"},{"bufferView":0,"byteOffset":28,"componentType":5123,"count":4,"type":"VEC4","name":"Plane.005_vertices#0_COLOR_0"},{"bufferView":1,"componentType":5123,"count":6,"type":"SCALAR","name":"Plane.005_indices#0"},{"bufferView":0,"byteOffset":144,"componentType":5126,"count":4,"min":[-0.0555090606212616,-0.03104165941476822,-0.03804390877485275],"max":[0.0555090606212616,0.03104165568947792,0.03804390877485275],"type":"VEC3","name":"Plane.006_vertices#0_POSITION"},{"bufferView":0,"byteOffset":156,"componentType":5120,"count":4,"type":"VEC4","name":"Plane.006_vertices#0_TANGENT"},{"bufferView":0,"byteOffset":160,"componentType":5120,"count":4,"type":"VEC4","name":"Plane.006_vertices#0_NORMAL"},{"bufferView":0,"byteOffset":164,"componentType":5122,"count":4,"type":"VEC2","name":"Plane.006_vertices#0_TEXCOORD_0"},{"bufferView":0,"byteOffset":168,"componentType":5122,"count":4,"type":"VEC2","name":"Plane.006_vertices#0_TEXCOORD_1"},{"bufferView":0,"byteOffset":172,"componentType":5123,"count":4,"type":"VEC4","name":"Plane.006_vertices#0_COLOR_0"},{"bufferView":1,"byteOffset":12,"componentType":5123,"count":6,"type":"SCALAR","name":"Plane.006_indices#0"},{"bufferView":0,"byteOffset":288,"componentType":5126,"count":4,"min":[-0.0555090606212616,-0.03104165941476822,-0.03804390877485275],"max":[0.0555090606212616,0.03104165568947792,0.03804390877485275],"type":"VEC3","name":"Plane.007_vertices#0_POSITION"},{"bufferView":0,"byteOffset":300,"componentType":5120,"count":4,"type":"VEC4","name":"Plane.007_vertices#0_TANGENT"},{"bufferView":0,"byteOffset":304,"componentType":5120,"count":4,"type":"VEC4","name":"Plane.007_vertices#0_NORMAL"},{"bufferView":0,"byteOffset":308,"componentType":5122,"count":4,"type":"VEC2","name":"Plane.007_vertices#0_TEXCOORD_0"},{"bufferView":0,"byteOffset":312,"componentType":5122,"count":4,"type":"VEC2","name":"Plane.007_vertices#0_TEXCOORD_1"},{"bufferView":0,"byteOffset":316,"componentType":5123,"count":4,"type":"VEC4","name":"Plane.007_vertices#0_COLOR_0"},{"bufferView":1,"byteOffset":24,"componentType":5123,"count":6,"type":"SCALAR","name":"Plane.007_indices#0"},{"bufferView":0,"byteOffset":432,"componentType":5126,"count":4,"min":[-0.0555090606212616,-0.03104165941476822,-0.03804390877485275],"max":[0.0555090606212616,0.03104165568947792,0.03804390877485275],"type":"VEC3","name":"Plane.009_vertices#0_POSITION"},{"bufferView":0,"byteOffset":444,"componentType":5120,"count":4,"type":"VEC4","name":"Plane.009_vertices#0_TANGENT"},{"bufferView":0,"byteOffset":448,"componentType":5120,"count":4,"type":"VEC4","name":"Plane.009_vertices#0_NORMAL"},{"bufferView":0,"byteOffset":452,"componentType":5122,"count":4,"type":"VEC2","name":"Plane.009_vertices#0_TEXCOORD_0"},{"bufferView":0,"byteOffset":456,"componentType":5122,"count":4,"type":"VEC2","name":"Plane.009_vertices#0_TEXCOORD_1"},{"bufferView":0,"byteOffset":460,"componentType":5123,"count":4,"type":"VEC4","name":"Plane.009_vertices#0_COLOR_0"},{"bufferView":1,"byteOffset":36,"componentType":5123,"count":6,"type":"SCALAR","name":"Plane.009_indices#0"},{"bufferView":0,"byteOffset":576,"componentType":5126,"count":24,"min":[-0.012413792312145234,-0.0010344827314838768,-0.016551723703742029],"max":[0.012413792312145234,0.0010344827314838768,0.016551723703742029],"type":"VEC3","name":"Cube_vertices#0_POSITION"},{"bufferView":0,"byteOffset":588,"componentType":5120,"count":24,"type":"VEC4","name":"Cube_vertices#0_TANGENT"},{"bufferView":0,"byteOffset":592,"componentType":5120,"count":24,"type":"VEC4","name":"Cube_vertices#0_NORMAL"},{"bufferView":0,"byteOffset":596,"componentType":5122,"count":24,"type":"VEC2","name":"Cube_vertices#0_TEXCOORD_0"},{"bufferView":0,"byteOffset":600,"componentType":5122,"count":24,"type":"VEC2","name":"Cube_vertices#0_TEXCOORD_1"},{"bufferView":0,"byteOffset":604,"componentType":5123,"count":24,"type":"VEC4","name":"Cube_vertices#0_COLOR_0"},{"bufferView":1,"byteOffset":48,"componentType":5123,"count":36,"type":"SCALAR","name":"Cube_indices#0"},{"bufferView":0,"byteOffset":1440,"componentType":5126,"count":24,"min":[-0.012413792312145234,-0.0010344827314838768,-0.016551723703742029],"max":[0.012413792312145234,0.0010344827314838768,0.016551723703742029],"type":"VEC3","name":"Cube.001_vertices#0_POSITION"},{"bufferView":0,"byteOffset":1452,"componentType":5120,"count":24,"type":"VEC4","name":"Cube.001_vertices#0_TANGENT"},{"bufferView":0,"byteOffset":1456,"componentType":5120,"count":24,"type":"VEC4","name":"Cube.001_vertices#0_NORMAL"},{"bufferView":0,"byteOffset":1460,"componentType":5122,"count":24,"type":"VEC2","name":"Cube.001_vertices#0_TEXCOORD_0"},{"bufferView":0,"byteOffset":1464,"componentType":5122,"count":24,"type":"VEC2","name":"Cube.001_vertices#0_TEXCOORD_1"},{"bufferView":0,"byteOffset":1468,"componentType":5123,"count":24,"type":"VEC4","name":"Cube.001_vertices#0_COLOR_0"},{"bufferView":1,"byteOffset":120,"componentType":5123,"count":36,"type":"SCALAR","name":"Cube.001_indices#0"},{"bufferView":0,"byteOffset":2304,"componentType":5126,"count":24,"min":[-0.024827584624290468,-0.0010344827314838768,-0.004137930925935507],"max":[0.024827584624290468,0.0010344827314838768,0.004137930925935507],"type":"VEC3","name":"Cube.002_vertices#0_POSITION"},{"bufferView":0,"byteOffset":2316,"componentType":5120,"count":24,"type":"VEC4","name":"Cube.002_vertices#0_TANGENT"},{"bufferView":0,"byteOffset":2320,"componentType":5120,"count":24,"type":"VEC4","name":"Cube.002_vertices#0_NORMAL"},{"bufferView":0,"byteOffset":2324,"componentType":5122,"count":24,"type":"VEC2","name":"Cube.002_vertices#0_TEXCOORD_0"},{"bufferView":0,"byteOffset":2328,"componentType":5122,"count":24,"type":"VEC2","name":"Cube.002_vertices#0_TEXCOORD_1"},{"bufferView":0,"byteOffset":2332,"componentType":5123,"count":24,"type":"VEC4","name":"Cube.002_vertices#0_COLOR_0"},{"bufferView":1,"byteOffset":192,"componentType":5123,"count":36,"type":"SCALAR","name":"Cube.002_indices#0"}],"asset":{"generator":"Extended Khronos glTF Blender I/O v1.0.0","version":"2.0","extensions":{"ASOBO_asset_optimized":{"BoundingBoxMax":[0.061640895903110507,0.03104165568947792,0.03804390877485275],"BoundingBoxMin":[-0.061640895903110507,-0.03104165941476822,-0.03804390877485275],"MajorVersion":4,"MinorVersion":2},"ASOBO_normal_map_convention":{"tangent_space_convention":"DirectX"}}},"bufferViews":[{"buffer":0,"byteLength":3168,"byteStride":36,"target":34962,"name":"BufferViewVertexND"},{"buffer":0,"byteLength":264,"byteOffset":3168,"target":34963,"name":"BufferViewIndex"}],"extensionsUsed":["ASOBO_normal_map_convention","ASOBO_material_invisible","ASOBO_asset_optimized"],"materials":[{"name":"$PRINT_STATIC","pbrMetallicRoughness":{"baseColorFactor":[0.6038274168968201,0.6038274168968201,0.6038274168968201,1.0],"metallicFactor":0.0,"roughnessFactor":0.8999999761581421}},{"name":"Invisible","pbrMetallicRoughness":{"baseColorFactor":[0.800000011920929,0.0,0.0,1.0]},"extensions":{"ASOBO_material_invisible":{}}}],"meshes":[{"primitives":[{"attributes":{"COLOR_0":5,"NORMAL":2,"POSITION":0,"TANGENT":1,"TEXCOORD_0":3,"TEXCOORD_1":4},"indices":6,"material":0,"mode":4,"extras":{"ASOBO_primitive":{"PrimitiveCount":2,"VertexType":"VTX","VertexVersion":2}}}],"name":"Plane.005"},{"primitives":[{"attributes":{"COLOR_0":12,"NORMAL":9,"POSITION":7,"TANGENT":8,"TEXCOORD_0":10,"TEXCOORD_1":11},"indices":13,"material":0,"mode":4,"extras":{"ASOBO_primitive":{"PrimitiveCount":2,"VertexType":"VTX","VertexVersion":2}}}],"name":"Plane.006"},{"primitives":[{"attributes":{"COLOR_0":19,"NORMAL":16,"POSITION":14,"TANGENT":15,"TEXCOORD_0":17,"TEXCOORD_1":18},"indices":20,"material":0,"mode":4,"extras":{"ASOBO_primitive":{"PrimitiveCount":2,"VertexType":"VTX","VertexVersion":2}}}],"name":"Plane.007"},{"primitives":[{"attributes":{"COLOR_0":26,"NORMAL":23,"POSITION":21,"TANGENT":22,"TEXCOORD_0":24,"TEXCOORD_1":25},"indices":27,"material":0,"mode":4,"extras":{"ASOBO_primitive":{"PrimitiveCount":2,"VertexType":"VTX","VertexVersion":2}}}],"name":"Plane.009"},{"primitives":[{"attributes":{"COLOR_0":33,"NORMAL":30,"POSITION":28,"TANGENT":29,"TEXCOORD_0":31,"TEXCOORD_1":32},"indices":34,"material":1,"mode":4,"extras":{"ASOBO_primitive":{"PrimitiveCount":12,"VertexType":"VTX","VertexVersion":2}}}],"name":"Cube"},{"primitives":[{"attributes":{"COLOR_0":40,"NORMAL":37,"POSITION":35,"TANGENT":36,"TEXCOORD_0":38,"TEXCOORD_1":39},"indices":41,"material":1,"mode":4,"extras":{"ASOBO_primitive":{"PrimitiveCount":12,"VertexType":"VTX","VertexVersion":2}}}],"name":"Cube.001"},{"primitives":[{"attributes":{"COLOR_0":47,"NORMAL":44,"POSITION":42,"TANGENT":43,"TEXCOORD_0":45,"TEXCOORD_1":46},"indices":48,"material":1,"mode":4,"extras":{"ASOBO_primitive":{"PrimitiveCount":12,"VertexType":"VTX","VertexVersion":2}}}],"name":"Cube.002"}],"nodes":[{"translation":[0.001335909590125084,1.2975085973739625,11.577852249145508],"rotation":[0.41676977276802065,0.0011769086122512816,0.0007307895575650036,-0.9090110063552856],"mesh":0,"name":"PAPER_1"},{"translation":[-0.0005532000213861465,1.2977312803268433,11.57708740234375],"rotation":[0.41674843430519106,0.010568095371127129,0.0031737477984279396,-0.9089548587799072],"mesh":1,"name":"PAPER_2"},{"translation":[-0.0014196988195180894,1.2979693412780762,11.577078819274903],"rotation":[0.4167603254318238,0.004527716897428036,0.0004043204244226217,-0.909005045890808],"mesh":2,"name":"PAPER_3"},{"translation":[-0.0014196988195180894,1.2981735467910769,11.577021598815918],"rotation":[0.4167475402355194,-0.0035303588956594469,-0.003290077904239297,-0.9090094566345216],"mesh":3,"name":"PAPER_4"},{"translation":[0.03095131367444992,1.2978686094284058,11.586735725402832],"rotation":[-0.08715573698282242,0.0,0.0,0.9961947202682496],"scale":[3.0,0.25,4.0],"mesh":4,"name":"PAPER_PREV"},{"translation":[-0.029495634138584138,1.2978228330612185,11.58647632598877],"rotation":[-0.08715573698282242,0.0,0.0,0.9961947202682496],"scale":[3.0,0.25,4.0],"mesh":5,"name":"PAPER_NEXT"},{"translation":[0.0,1.2890552282333375,11.537102699279784],"rotation":[-0.08715573698282242,0.0,0.0,0.9961947202682496],"scale":[6.0,0.25,1.0],"mesh":6,"name":"PAPER_DISCARD"}],"scene":0,"scenes":[{"nodes":[0,1,2,3,4,5,6],"name":"Scene"}],"buffers":[{"byteLength":3432,"uri":"print-static.bin"}]}
