{"accessors":[{"bufferView":0,"componentType":5126,"count":6,"min":[-0.19355399906635285,11.062909126281739,-1.2166939973831177],"max":[-0.0825359970331192,11.066048622131348,-1.1973869800567628],"type":"VEC3","name":"x0_PRINT_TORN_vertices#0_POSITION"},{"bufferView":0,"byteOffset":12,"componentType":5120,"count":6,"type":"VEC4","name":"x0_PRINT_TORN_vertices#0_TANGENT"},{"bufferView":0,"byteOffset":16,"componentType":5120,"count":6,"type":"VEC4","name":"x0_PRINT_TORN_vertices#0_NORMAL"},{"bufferView":0,"byteOffset":20,"componentType":5122,"count":6,"type":"VEC2","name":"x0_PRINT_TORN_vertices#0_TEXCOORD_0"},{"bufferView":0,"byteOffset":24,"componentType":5122,"count":6,"type":"VEC2","name":"x0_PRINT_TORN_vertices#0_TEXCOORD_1"},{"bufferView":0,"byteOffset":28,"componentType":5123,"count":6,"type":"VEC4","name":"x0_PRINT_TORN_vertices#0_COLOR_0"},{"bufferView":1,"componentType":5123,"count":12,"type":"SCALAR","name":"x0_PRINT_TORN_indices#0"}],"asset":{"generator":"Extended Khronos glTF Blender I/O v1.0.0","version":"2.0","extensions":{"ASOBO_asset_optimized":{"BoundingBoxMax":[-0.0825359970331192,11.066048622131348,-1.1973869800567628],"BoundingBoxMin":[-0.19355399906635285,11.062909126281739,-1.2166939973831177],"MajorVersion":4,"MinorVersion":2},"ASOBO_normal_map_convention":{"tangent_space_convention":"DirectX"}}},"bufferViews":[{"buffer":0,"byteLength":216,"byteStride":36,"target":34962,"name":"BufferViewVertexND"},{"buffer":0,"byteLength":24,"byteOffset":216,"target":34963,"name":"BufferViewIndex"}],"extensionsUsed":["ASOBO_normal_map_convention","ASOBO_asset_optimized"],"materials":[{"name":"PrintTorn","doubleSided":true,"pbrMetallicRoughness":{"baseColorFactor":[0.7874122262001038,0.7874122262001038,0.7874122262001038,1.0],"metallicFactor":0.0,"roughnessFactor":0.800000011920929}}],"meshes":[{"primitives":[{"attributes":{"COLOR_0":5,"NORMAL":2,"POSITION":0,"TANGENT":1,"TEXCOORD_0":3,"TEXCOORD_1":4},"indices":6,"material":0,"mode":4,"extras":{"ASOBO_primitive":{"PrimitiveCount":4,"VertexType":"VTX","VertexVersion":2}}}],"name":"x0_PRINT_TORN"}],"nodes":[{"rotation":[0.7071068286895752,0.0,0.0,0.7071067094802856],"mesh":0,"name":"PRINT_TORN"}],"scene":0,"scenes":[{"nodes":[0],"name":"Scene"}],"buffers":[{"byteLength":240,"uri":"print-torn.bin"}]}
