{
    "accessors": [
        {
            "bufferView": 0,
            "componentType": 5126,
            "count": 20,
            "min": [
                0.041666666666666664
            ],
            "max": [
                0.8333333333333334
            ],
            "type": "SCALAR"
        },
        {
            "bufferView": 1,
            "componentType": 5126,
            "count": 20,
            "type": "VEC3"
        },
        {
            "bufferView": 2,
            "componentType": 5126,
            "count": 20,
            "type": "VEC4"
        },
        {
            "bufferView": 3,
            "componentType": 5126,
            "count": 20,
            "type": "VEC3"
        },
        {
            "bufferView": 4,
            "componentType": 5126,
            "count": 26,
            "min": [
                -0.055509064346551895,
                -0.04910804703831673,
                -0.05860355868935585
            ],
            "max": [
                0.055509068071842194,
                0.015356363728642464,
                0.017484258860349655
            ],
            "type": "VEC3",
            "name": "x0_Print_vertices#0_POSITION"
        },
        {
            "bufferView": 4,
            "byteOffset": 12,
            "componentType": 5120,
            "count": 26,
            "type": "VEC4",
            "name": "x0_Print_vertices#0_TANGENT"
        },
        {
            "bufferView": 4,
            "byteOffset": 16,
            "componentType": 5120,
            "count": 26,
            "type": "VEC4",
            "name": "x0_Print_vertices#0_NORMAL"
        },
        {
            "bufferView": 4,
            "byteOffset": 20,
            "componentType": 5122,
            "count": 26,
            "type": "VEC2",
            "name": "x0_Print_vertices#0_TEXCOORD_0"
        },
        {
            "bufferView": 4,
            "byteOffset": 24,
            "componentType": 5122,
            "count": 26,
            "type": "VEC2",
            "name": "x0_Print_vertices#0_TEXCOORD_1"
        },
        {
            "bufferView": 4,
            "byteOffset": 28,
            "componentType": 5123,
            "count": 26,
            "type": "VEC4",
            "name": "x0_Print_vertices#0_COLOR_0"
        },
        {
            "bufferView": 5,
            "componentType": 5123,
            "count": 72,
            "type": "SCALAR",
            "name": "x0_Print_indices#0"
        }
    ],
    "animations": [
        {
            "name": "PrintAnim",
            "channels": [
                {
                    "sampler": 0,
                    "target": {
                        "node": 0,
                        "path": "translation"
                    }
                },
                {
                    "sampler": 1,
                    "target": {
                        "node": 0,
                        "path": "rotation"
                    }
                },
                {
                    "sampler": 2,
                    "target": {
                        "node": 0,
                        "path": "scale"
                    }
                }
            ],
            "samplers": [
                {
                    "input": 0,
                    "output": 1,
                    "interpolation": "LINEAR"
                },
                {
                    "input": 0,
                    "output": 2,
                    "interpolation": "LINEAR"
                },
                {
                    "input": 0,
                    "output": 3,
                    "interpolation": "LINEAR"
                }
            ]
        }
    ],
    "asset": {
        "generator": "Extended Khronos glTF Blender I/O v1.0.0",
        "version": "2.0",
        "extensions": {
            "ASOBO_asset_optimized": {
                "BoundingBoxMax": [
                    0.055509068071842194,
                    0.015356363728642464,
                    0.017484258860349655
                ],
                "BoundingBoxMin": [
                    -0.055509064346551895,
                    -0.04910804703831673,
                    -0.05860355868935585
                ],
                "MajorVersion": 4,
                "MinorVersion": 2
            },
            "ASOBO_normal_map_convention": {
                "tangent_space_convention": "DirectX"
            }
        }
    },
    "bufferViews": [
        {
            "buffer": 0,
            "byteLength": 80
        },
        {
            "buffer": 0,
            "byteLength": 240,
            "byteOffset": 80
        },
        {
            "buffer": 0,
            "byteLength": 320,
            "byteOffset": 320
        },
        {
            "buffer": 0,
            "byteLength": 240,
            "byteOffset": 640
        },
        {
            "buffer": 0,
            "byteLength": 936,
            "byteStride": 36,
            "byteOffset": 880,
            "target": 34962,
            "name": "BufferViewVertexND"
        },
        {
            "buffer": 0,
            "byteLength": 144,
            "byteOffset": 1816,
            "target": 34963,
            "name": "BufferViewIndex"
        }
    ],
    "extensionsUsed": [
        "ASOBO_normal_map_convention",
        "ASOBO_asset_optimized"
    ],
    "materials": [
        {
            "name": "$PRINT",
            "doubleSided": true,
            "pbrMetallicRoughness": {
                "baseColorFactor": [
                    0.8,
                    0.8,
                    0.8,
                    1
                ],
                "metallicFactor": 0,
                "roughnessFactor": 0.9
            }
        }
    ],
    "meshes": [
        {
            "primitives": [
                {
                    "attributes": {
                        "COLOR_0": 9,
                        "NORMAL": 6,
                        "POSITION": 4,
                        "TANGENT": 5,
                        "TEXCOORD_0": 7,
                        "TEXCOORD_1": 8
                    },
                    "indices": 10,
                    "material": 0,
                    "mode": 4,
                    "extras": {
                        "ASOBO_primitive": {
                            "PrimitiveCount": 24,
                            "VertexType": "VTX",
                            "VertexVersion": 2
                        }
                    }
                }
            ],
            "name": "x0_Print"
        }
    ],
    "nodes": [
        {
            "translation": [
                -0.13804487884044647,
                1.147197723388672,
                11.059783935546877
            ],
            "rotation": [
                0,
                -0.12374431639909744,
                -0.9923141598701476,
                4.856831310462439e-7
            ],
            "mesh": 0,
            "name": "Print"
        }
    ],
    "scene": 0,
    "scenes": [
        {
            "nodes": [
                0
            ],
            "name": "Scene"
        }
    ],
    "buffers": [
        {
            "byteLength": 1960,
            "uri": "printer.bin"
        }
    ]
}