{"accessors":[{"bufferView":0,"componentType":5126,"count":4,"min":[-0.09292063117027283,-0.08646500110626221,-0.0254364013671875],"max":[0.09292063117027283,0.08646512031555176,0.0254364013671875],"type":"VEC3","name":"x0_SCREEN_EICAS1.001_vertices#0_POSITION"},{"bufferView":0,"byteOffset":12,"componentType":5120,"count":4,"type":"VEC4","name":"x0_SCREEN_EICAS1.001_vertices#0_TANGENT"},{"bufferView":0,"byteOffset":16,"componentType":5120,"count":4,"type":"VEC4","name":"x0_SCREEN_EICAS1.001_vertices#0_NORMAL"},{"bufferView":0,"byteOffset":20,"componentType":5122,"count":4,"type":"VEC2","name":"x0_SCREEN_EICAS1.001_vertices#0_TEXCOORD_0"},{"bufferView":0,"byteOffset":24,"componentType":5122,"count":4,"type":"VEC2","name":"x0_SCREEN_EICAS1.001_vertices#0_TEXCOORD_1"},{"bufferView":0,"byteOffset":28,"componentType":5123,"count":4,"type":"VEC4","name":"x0_SCREEN_EICAS1.001_vertices#0_COLOR_0"},{"bufferView":1,"componentType":5123,"count":6,"type":"SCALAR","name":"x0_SCREEN_EICAS1.001_indices#0"},{"bufferView":0,"byteOffset":144,"componentType":5126,"count":4,"min":[-0.09278365969657898,-0.08424854278564453,-0.024705886840820314],"max":[0.09278365969657898,0.08424866199493408,0.0247039794921875],"type":"VEC3","name":"x0_SCREEN_EICAS2.001_vertices#0_POSITION"},{"bufferView":0,"byteOffset":156,"componentType":5120,"count":4,"type":"VEC4","name":"x0_SCREEN_EICAS2.001_vertices#0_TANGENT"},{"bufferView":0,"byteOffset":160,"componentType":5120,"count":4,"type":"VEC4","name":"x0_SCREEN_EICAS2.001_vertices#0_NORMAL"},{"bufferView":0,"byteOffset":164,"componentType":5122,"count":4,"type":"VEC2","name":"x0_SCREEN_EICAS2.001_vertices#0_TEXCOORD_0"},{"bufferView":0,"byteOffset":168,"componentType":5122,"count":4,"type":"VEC2","name":"x0_SCREEN_EICAS2.001_vertices#0_TEXCOORD_1"},{"bufferView":0,"byteOffset":172,"componentType":5123,"count":4,"type":"VEC4","name":"x0_SCREEN_EICAS2.001_vertices#0_COLOR_0"},{"bufferView":1,"byteOffset":12,"componentType":5123,"count":6,"type":"SCALAR","name":"x0_SCREEN_EICAS2.001_indices#0"},{"bufferView":0,"byteOffset":288,"componentType":5126,"count":4,"min":[-0.08587649464607239,-0.08515644073486328,-0.0253143310546875],"max":[0.08587646484375,0.08515644073486328,0.025312423706054689],"type":"VEC3","name":"x0_SCREEN_MFD_L.001_vertices#0_POSITION"},{"bufferView":0,"byteOffset":300,"componentType":5120,"count":4,"type":"VEC4","name":"x0_SCREEN_MFD_L.001_vertices#0_TANGENT"},{"bufferView":0,"byteOffset":304,"componentType":5120,"count":4,"type":"VEC4","name":"x0_SCREEN_MFD_L.001_vertices#0_NORMAL"},{"bufferView":0,"byteOffset":308,"componentType":5122,"count":4,"type":"VEC2","name":"x0_SCREEN_MFD_L.001_vertices#0_TEXCOORD_0"},{"bufferView":0,"byteOffset":312,"componentType":5122,"count":4,"type":"VEC2","name":"x0_SCREEN_MFD_L.001_vertices#0_TEXCOORD_1"},{"bufferView":0,"byteOffset":316,"componentType":5123,"count":4,"type":"VEC4","name":"x0_SCREEN_MFD_L.001_vertices#0_COLOR_0"},{"bufferView":1,"byteOffset":24,"componentType":5123,"count":6,"type":"SCALAR","name":"x0_SCREEN_MFD_L.001_indices#0"},{"bufferView":0,"byteOffset":432,"componentType":5126,"count":4,"min":[-0.08587652444839478,-0.08515644073486328,-0.0253143310546875],"max":[0.08587652444839478,0.08515644073486328,0.025312423706054689],"type":"VEC3","name":"x0_SCREEN_MFD_R.001_vertices#0_POSITION"},{"bufferView":0,"byteOffset":444,"componentType":5120,"count":4,"type":"VEC4","name":"x0_SCREEN_MFD_R.001_vertices#0_TANGENT"},{"bufferView":0,"byteOffset":448,"componentType":5120,"count":4,"type":"VEC4","name":"x0_SCREEN_MFD_R.001_vertices#0_NORMAL"},{"bufferView":0,"byteOffset":452,"componentType":5122,"count":4,"type":"VEC2","name":"x0_SCREEN_MFD_R.001_vertices#0_TEXCOORD_0"},{"bufferView":0,"byteOffset":456,"componentType":5122,"count":4,"type":"VEC2","name":"x0_SCREEN_MFD_R.001_vertices#0_TEXCOORD_1"},{"bufferView":0,"byteOffset":460,"componentType":5123,"count":4,"type":"VEC4","name":"x0_SCREEN_MFD_R.001_vertices#0_COLOR_0"},{"bufferView":1,"byteOffset":36,"componentType":5123,"count":6,"type":"SCALAR","name":"x0_SCREEN_MFD_R.001_indices#0"},{"bufferView":0,"byteOffset":576,"componentType":5126,"count":4,"min":[-0.08763313293457031,-0.08515644073486328,-0.0253143310546875],"max":[0.08763313293457031,0.08515644073486328,0.025312423706054689],"type":"VEC3","name":"x0_SCREEN_PFD_L.001_vertices#0_POSITION"},{"bufferView":0,"byteOffset":588,"componentType":5120,"count":4,"type":"VEC4","name":"x0_SCREEN_PFD_L.001_vertices#0_TANGENT"},{"bufferView":0,"byteOffset":592,"componentType":5120,"count":4,"type":"VEC4","name":"x0_SCREEN_PFD_L.001_vertices#0_NORMAL"},{"bufferView":0,"byteOffset":596,"componentType":5122,"count":4,"type":"VEC2","name":"x0_SCREEN_PFD_L.001_vertices#0_TEXCOORD_0"},{"bufferView":0,"byteOffset":600,"componentType":5122,"count":4,"type":"VEC2","name":"x0_SCREEN_PFD_L.001_vertices#0_TEXCOORD_1"},{"bufferView":0,"byteOffset":604,"componentType":5123,"count":4,"type":"VEC4","name":"x0_SCREEN_PFD_L.001_vertices#0_COLOR_0"},{"bufferView":1,"byteOffset":48,"componentType":5123,"count":6,"type":"SCALAR","name":"x0_SCREEN_PFD_L.001_indices#0"},{"bufferView":0,"byteOffset":720,"componentType":5126,"count":4,"min":[-0.08763307332992554,-0.08515644073486328,-0.0253143310546875],"max":[0.08763319253921509,0.08515644073486328,0.025312423706054689],"type":"VEC3","name":"x0_SCREEN_PFD_R.001_vertices#0_POSITION"},{"bufferView":0,"byteOffset":732,"componentType":5120,"count":4,"type":"VEC4","name":"x0_SCREEN_PFD_R.001_vertices#0_TANGENT"},{"bufferView":0,"byteOffset":736,"componentType":5120,"count":4,"type":"VEC4","name":"x0_SCREEN_PFD_R.001_vertices#0_NORMAL"},{"bufferView":0,"byteOffset":740,"componentType":5122,"count":4,"type":"VEC2","name":"x0_SCREEN_PFD_R.001_vertices#0_TEXCOORD_0"},{"bufferView":0,"byteOffset":744,"componentType":5122,"count":4,"type":"VEC2","name":"x0_SCREEN_PFD_R.001_vertices#0_TEXCOORD_1"},{"bufferView":0,"byteOffset":748,"componentType":5123,"count":4,"type":"VEC4","name":"x0_SCREEN_PFD_R.001_vertices#0_COLOR_0"},{"bufferView":1,"byteOffset":60,"componentType":5123,"count":6,"type":"SCALAR","name":"x0_SCREEN_PFD_R.001_indices#0"},{"bufferView":0,"byteOffset":864,"componentType":5126,"count":4,"min":[-0.04843716323375702,-0.03564190864562988,-0.010433197021484375],"max":[0.04843716323375702,0.03564190864562988,0.010433197021484375],"type":"VEC3","name":"x0_SCREEN_COM_L.001_vertices#0_POSITION"},{"bufferView":0,"byteOffset":876,"componentType":5120,"count":4,"type":"VEC4","name":"x0_SCREEN_COM_L.001_vertices#0_TANGENT"},{"bufferView":0,"byteOffset":880,"componentType":5120,"count":4,"type":"VEC4","name":"x0_SCREEN_COM_L.001_vertices#0_NORMAL"},{"bufferView":0,"byteOffset":884,"componentType":5122,"count":4,"type":"VEC2","name":"x0_SCREEN_COM_L.001_vertices#0_TEXCOORD_0"},{"bufferView":0,"byteOffset":888,"componentType":5122,"count":4,"type":"VEC2","name":"x0_SCREEN_COM_L.001_vertices#0_TEXCOORD_1"},{"bufferView":0,"byteOffset":892,"componentType":5123,"count":4,"type":"VEC4","name":"x0_SCREEN_COM_L.001_vertices#0_COLOR_0"},{"bufferView":1,"byteOffset":72,"componentType":5123,"count":6,"type":"SCALAR","name":"x0_SCREEN_COM_L.001_indices#0"},{"bufferView":0,"byteOffset":1008,"componentType":5126,"count":4,"min":[-0.048437148332595828,-0.03564190864562988,-0.010433197021484375],"max":[0.04843716323375702,0.03564190864562988,0.010433197021484375],"type":"VEC3","name":"x0_SCREEN_COM_R.001_vertices#0_POSITION"},{"bufferView":0,"byteOffset":1020,"componentType":5120,"count":4,"type":"VEC4","name":"x0_SCREEN_COM_R.001_vertices#0_TANGENT"},{"bufferView":0,"byteOffset":1024,"componentType":5120,"count":4,"type":"VEC4","name":"x0_SCREEN_COM_R.001_vertices#0_NORMAL"},{"bufferView":0,"byteOffset":1028,"componentType":5122,"count":4,"type":"VEC2","name":"x0_SCREEN_COM_R.001_vertices#0_TEXCOORD_0"},{"bufferView":0,"byteOffset":1032,"componentType":5122,"count":4,"type":"VEC2","name":"x0_SCREEN_COM_R.001_vertices#0_TEXCOORD_1"},{"bufferView":0,"byteOffset":1036,"componentType":5123,"count":4,"type":"VEC4","name":"x0_SCREEN_COM_R.001_vertices#0_COLOR_0"},{"bufferView":1,"byteOffset":84,"componentType":5123,"count":6,"type":"SCALAR","name":"x0_SCREEN_COM_R.001_indices#0"},{"bufferView":0,"byteOffset":1152,"componentType":5126,"count":4,"min":[0.14426949620246888,-0.6160883903503418,0.3574104309082031],"max":[0.26265791058540347,-0.5942392349243164,0.45499420166015627],"type":"VEC3","name":"x0_SCREEN_MCDUL.001_vertices#0_POSITION"},{"bufferView":0,"byteOffset":1164,"componentType":5120,"count":4,"type":"VEC4","name":"x0_SCREEN_MCDUL.001_vertices#0_TANGENT"},{"bufferView":0,"byteOffset":1168,"componentType":5120,"count":4,"type":"VEC4","name":"x0_SCREEN_MCDUL.001_vertices#0_NORMAL"},{"bufferView":0,"byteOffset":1172,"componentType":5122,"count":4,"type":"VEC2","name":"x0_SCREEN_MCDUL.001_vertices#0_TEXCOORD_0"},{"bufferView":0,"byteOffset":1176,"componentType":5122,"count":4,"type":"VEC2","name":"x0_SCREEN_MCDUL.001_vertices#0_TEXCOORD_1"},{"bufferView":0,"byteOffset":1180,"componentType":5123,"count":4,"type":"VEC4","name":"x0_SCREEN_MCDUL.001_vertices#0_COLOR_0"},{"bufferView":1,"byteOffset":96,"componentType":5123,"count":6,"type":"SCALAR","name":"x0_SCREEN_MCDUL.001_indices#0"},{"bufferView":0,"byteOffset":1296,"componentType":5126,"count":4,"min":[-0.263099730014801,-0.6160883903503418,0.3574104309082031],"max":[-0.14471130073070527,-0.5942392349243164,0.45499420166015627],"type":"VEC3","name":"x0_SCREEN_MCDUR.001_vertices#0_POSITION"},{"bufferView":0,"byteOffset":1308,"componentType":5120,"count":4,"type":"VEC4","name":"x0_SCREEN_MCDUR.001_vertices#0_TANGENT"},{"bufferView":0,"byteOffset":1312,"componentType":5120,"count":4,"type":"VEC4","name":"x0_SCREEN_MCDUR.001_vertices#0_NORMAL"},{"bufferView":0,"byteOffset":1316,"componentType":5122,"count":4,"type":"VEC2","name":"x0_SCREEN_MCDUR.001_vertices#0_TEXCOORD_0"},{"bufferView":0,"byteOffset":1320,"componentType":5122,"count":4,"type":"VEC2","name":"x0_SCREEN_MCDUR.001_vertices#0_TEXCOORD_1"},{"bufferView":0,"byteOffset":1324,"componentType":5123,"count":4,"type":"VEC4","name":"x0_SCREEN_MCDUR.001_vertices#0_COLOR_0"},{"bufferView":1,"byteOffset":108,"componentType":5123,"count":6,"type":"SCALAR","name":"x0_SCREEN_MCDUR.001_indices#0"},{"bufferView":0,"byteOffset":1440,"componentType":5126,"count":76,"min":[-0.21458978950977326,-0.7165407538414002,-0.2112560272216797],"max":[0.3184993863105774,0.5573280453681946,0.5866753458976746],"type":"VEC3","name":"x0_DYN_SCREEN.001_vertices#0_POSITION"},{"bufferView":0,"byteOffset":1452,"componentType":5120,"count":76,"type":"VEC4","name":"x0_DYN_SCREEN.001_vertices#0_TANGENT"},{"bufferView":0,"byteOffset":1456,"componentType":5120,"count":76,"type":"VEC4","name":"x0_DYN_SCREEN.001_vertices#0_NORMAL"},{"bufferView":0,"byteOffset":1460,"componentType":5122,"count":76,"type":"VEC2","name":"x0_DYN_SCREEN.001_vertices#0_TEXCOORD_0"},{"bufferView":0,"byteOffset":1464,"componentType":5122,"count":76,"type":"VEC2","name":"x0_DYN_SCREEN.001_vertices#0_TEXCOORD_1"},{"bufferView":0,"byteOffset":1468,"componentType":5123,"count":76,"type":"VEC4","name":"x0_DYN_SCREEN.001_vertices#0_COLOR_0"},{"bufferView":1,"byteOffset":120,"componentType":5123,"count":156,"type":"SCALAR","name":"x0_DYN_SCREEN.001_indices#0"}],"asset":{"generator":"Extended Khronos glTF Blender I/O v1.0.0","version":"2.0","extensions":{"ASOBO_asset_optimized":{"BoundingBoxMax":[0.3184993863105774,0.5573280453681946,0.5866753458976746],"BoundingBoxMin":[-0.263099730014801,-0.7165407538414002,-0.2112560272216797],"MajorVersion":4,"MinorVersion":2},"ASOBO_normal_map_convention":{"tangent_space_convention":"DirectX"}}},"bufferViews":[{"buffer":0,"byteLength":4176,"byteStride":36,"target":34962,"name":"BufferViewVertexND"},{"buffer":0,"byteLength":432,"byteOffset":4176,"target":34963,"name":"BufferViewIndex"}],"extensionsUsed":["ASOBO_normal_map_convention","MSFT_texture_dds","ASOBO_asset_optimized"],"extensionsRequired":["MSFT_texture_dds"],"materials":[{"name":"Material","alphaMode":"BLEND","pbrMetallicRoughness":{"metallicFactor":0.0,"roughnessFactor":0.15000000596046449,"baseColorTexture":{"index":0}}}],"meshes":[{"primitives":[{"attributes":{"COLOR_0":5,"NORMAL":2,"POSITION":0,"TANGENT":1,"TEXCOORD_0":3,"TEXCOORD_1":4},"indices":6,"material":0,"mode":4,"extras":{"ASOBO_primitive":{"PrimitiveCount":2,"VertexType":"VTX","VertexVersion":2}}}],"name":"x0_SCREEN_EICAS1.001"},{"primitives":[{"attributes":{"COLOR_0":12,"NORMAL":9,"POSITION":7,"TANGENT":8,"TEXCOORD_0":10,"TEXCOORD_1":11},"indices":13,"material":0,"mode":4,"extras":{"ASOBO_primitive":{"PrimitiveCount":2,"VertexType":"VTX","VertexVersion":2}}}],"name":"x0_SCREEN_EICAS2.001"},{"primitives":[{"attributes":{"COLOR_0":19,"NORMAL":16,"POSITION":14,"TANGENT":15,"TEXCOORD_0":17,"TEXCOORD_1":18},"indices":20,"material":0,"mode":4,"extras":{"ASOBO_primitive":{"PrimitiveCount":2,"VertexType":"VTX","VertexVersion":2}}}],"name":"x0_SCREEN_MFD_L.001"},{"primitives":[{"attributes":{"COLOR_0":26,"NORMAL":23,"POSITION":21,"TANGENT":22,"TEXCOORD_0":24,"TEXCOORD_1":25},"indices":27,"material":0,"mode":4,"extras":{"ASOBO_primitive":{"PrimitiveCount":2,"VertexType":"VTX","VertexVersion":2}}}],"name":"x0_SCREEN_MFD_R.001"},{"primitives":[{"attributes":{"COLOR_0":33,"NORMAL":30,"POSITION":28,"TANGENT":29,"TEXCOORD_0":31,"TEXCOORD_1":32},"indices":34,"material":0,"mode":4,"extras":{"ASOBO_primitive":{"PrimitiveCount":2,"VertexType":"VTX","VertexVersion":2}}}],"name":"x0_SCREEN_PFD_L.001"},{"primitives":[{"attributes":{"COLOR_0":40,"NORMAL":37,"POSITION":35,"TANGENT":36,"TEXCOORD_0":38,"TEXCOORD_1":39},"indices":41,"material":0,"mode":4,"extras":{"ASOBO_primitive":{"PrimitiveCount":2,"VertexType":"VTX","VertexVersion":2}}}],"name":"x0_SCREEN_PFD_R.001"},{"primitives":[{"attributes":{"COLOR_0":47,"NORMAL":44,"POSITION":42,"TANGENT":43,"TEXCOORD_0":45,"TEXCOORD_1":46},"indices":48,"material":0,"mode":4,"extras":{"ASOBO_primitive":{"PrimitiveCount":2,"VertexType":"VTX","VertexVersion":2}}}],"name":"x0_SCREEN_COM_L.001"},{"primitives":[{"attributes":{"COLOR_0":54,"NORMAL":51,"POSITION":49,"TANGENT":50,"TEXCOORD_0":52,"TEXCOORD_1":53},"indices":55,"material":0,"mode":4,"extras":{"ASOBO_primitive":{"PrimitiveCount":2,"VertexType":"VTX","VertexVersion":2}}}],"name":"x0_SCREEN_COM_R.001"},{"primitives":[{"attributes":{"COLOR_0":61,"NORMAL":58,"POSITION":56,"TANGENT":57,"TEXCOORD_0":59,"TEXCOORD_1":60},"indices":62,"material":0,"mode":4,"extras":{"ASOBO_primitive":{"PrimitiveCount":2,"VertexType":"VTX","VertexVersion":2}}}],"name":"x0_SCREEN_MCDUL.001"},{"primitives":[{"attributes":{"COLOR_0":68,"NORMAL":65,"POSITION":63,"TANGENT":64,"TEXCOORD_0":66,"TEXCOORD_1":67},"indices":69,"material":0,"mode":4,"extras":{"ASOBO_primitive":{"PrimitiveCount":2,"VertexType":"VTX","VertexVersion":2}}}],"name":"x0_SCREEN_MCDUR.001"},{"primitives":[{"attributes":{"COLOR_0":75,"NORMAL":72,"POSITION":70,"TANGENT":71,"TEXCOORD_0":73,"TEXCOORD_1":74},"indices":76,"material":0,"mode":4,"extras":{"ASOBO_primitive":{"PrimitiveCount":52,"VertexType":"VTX","VertexVersion":2}}}],"name":"x0_DYN_SCREEN.001"}],"nodes":[{"translation":[-0.014431431889533997,1.6384034156799317,11.887070655822754],"mesh":0,"name":"SCREEN_EICAS1_GLASS"},{"translation":[-0.014430835843086245,1.4397540092468262,11.829455375671389],"mesh":1,"name":"SCREEN_EICAS2_GLASS"},{"translation":[0.3882025480270386,1.6286269426345824,11.884631156921389],"mesh":2,"name":"SCREEN_MFD_L_GLASS"},{"translation":[-0.3882025480270386,1.6286269426345824,11.884631156921389],"mesh":3,"name":"SCREEN_MFD_R_GLASS"},{"translation":[0.6033670902252197,1.6286269426345824,11.884631156921389],"mesh":4,"name":"SCREEN_PFD_L_GLASS"},{"translation":[-0.6033670902252197,1.6286269426345824,11.884631156921389],"mesh":5,"name":"SCREEN_PFD_R_GLASS"},{"translation":[0.19680491089820865,1.3991281986236573,11.80618953704834],"mesh":6,"name":"SCREEN_COM_L_GLASS"},{"translation":[-0.20454701781272889,1.3984568119049073,11.80618953704834],"mesh":7,"name":"SCREEN_COM_R_GLASS"},{"translation":[0.0,1.927682876586914,11.312582969665528],"mesh":8,"name":"SCREEN_MCDUL_GLASS"},{"translation":[0.0,1.927682876586914,11.312582969665528],"mesh":9,"name":"SCREEN_MCDUR_GLASS"},{"translation":[-0.050700411200523379,1.927182912826538,11.299336433410645],"mesh":10,"name":"DYN_SCREEN_GLASS"}],"scene":0,"scenes":[{"nodes":[0,1,2,3,4,5,6,7,8,9,10],"name":"Scene"}],"textures":[{"extensions":{"MSFT_texture_dds":{"source":0}}}],"buffers":[{"byteLength":4608,"uri":"glass.bin"}],"images":[{"uri":"GLASS.PNG.DDS","name":"GLASS","extras":"ASOBO_image_converted_meta"}]}
