<?xml version="1.0" encoding="UTF-8"?>
<!-- Copyright (c) 2023-2024 FlyByWire Simulations -->
<!-- SPDX-License-Identifier: GPL-3.0 -->

<svg id="A380_Wireframe" data-name="A380 Wireframe" xmlns="http://www.w3.org/2000/svg" viewBox="0 0 1000 1000">
  <defs>
    <style>
      .cls-1, .cls-2, .cls-3, .cls-4, .cls-5, .cls-6, .cls-7, .cls-8, .cls-9, .cls-10, .cls-11, .cls-12, .cls-13 {
        stroke: #fff;
        stroke-miterlimit: 10;
      }

      .cls-1, .cls-2, .cls-3, .cls-4, .cls-5, .cls-6, .cls-7, .cls-8, .cls-9, .cls-11, .cls-12, .cls-13 {
        fill: none;
      }

      .cls-2, .cls-3 {
        stroke-width: .75px;
      }

      .cls-3, .cls-5, .cls-6, .cls-11 {
        stroke-linecap: square;
      }

      .cls-4 {
        stroke-width: 5px;
      }

      .cls-5, .cls-13 {
        stroke-width: 2.5px;
      }

      .cls-6, .cls-12 {
        stroke-width: 1.5px;
      }

      .cls-7 {
        stroke-width: 3px;
      }

      .cls-8, .cls-10 {
        stroke-linecap: round;
      }

      .cls-9 {
        stroke-width: 2px;
      }

      .cls-10 {
        fill: #fff;
      }
    </style>
  </defs>
  <g id="Airframe_Detail_Lines" data-name="Airframe Detail Lines">
    <path id="Nose_Cone" data-name="Nose Cone" class="cls-1" d="m835.13,457.12c-51.19,1.38-82.54,260.03-17.83,319.15"/>
    <g id="Front_lines" data-name="Front lines">
      <path id="Connection_to_nose_bottom_" data-name="Connection to nose (bottom)" class="cls-1" d="m475.99,723.68c123.87-14.97,201.49-32.84,305.11-70.69"/>
      <line id="Connection_to_nose_top_" data-name="Connection to nose (top)" class="cls-1" x1="709.75" y1="517.48" x2="795.92" y2="517.48"/>
      <path id="Gear_Doors_to_top_of_nose" data-name="Gear Doors to top of nose" class="cls-1" d="m759.02,402.75c-19.93,2.31-41.27,69.06-49.27,114.74h-157.73c-23.16,0-52.91,14.55-58.72,39.57-23.65,89.37-25.18,179.67.27,267.1l.86.12"/>
    </g>
    <path id="Bottom_Airframe" data-name="Bottom Airframe" class="cls-1" d="m476.29,728.1c-217.2,18.39-402.2,23.19-477.15,23.42h-.06"/>
    <path id="Line_under_door" data-name="Line under door" class="cls-1" d="m108.69,595.85c-1.36,36.51-1.88,97.84,1.48,153.51"/>
    <path id="Line_in_front_door" data-name="Line in front door" class="cls-1" d="m299.24,740.78c-14.25-434.5,57.55-607.04,100.36-617.09"/>
    <path id="Line_over_door" data-name="Line over door" class="cls-2" d="m333.88,248.18C216.54,217.3,94,201.62-.39,196.83h-.5"/>
  </g>
  <ellipse id="Bottom_Drain_Port" data-name="Bottom Drain Port" class="cls-1" cx="328.66" cy="854.19" rx="5.7" ry="2.04" transform="translate(-51.4 21.6) rotate(-3.49)"/>
  <g id="Landing_Gear_Bay" data-name="Landing Gear Bay">
    <path id="AFT_NGL" data-name="AFT NGL" class="cls-1" d="m515.87,850.63l-171.14,18.97c-4.44.49-9.11,2.55-12.24,5.23"/>
    <path id="Retracting_NG_Door" data-name="Retracting NG Door" class="cls-13" d="m800.22,785.99c-15.29-.64-38.58-23.44-47.96-35.04-3.39-4.19-9.49-5.55-13.99-2.58-54.04,35.69-179.95,65.93-241.43,71.92-2.01.2-3.23,2.3-2.4,4.13,3.17,6.96,12.81,22.91,28.92,30.66"/>
  </g>
  <g id="Static_Port" data-name="Static Port">
    <rect class="cls-1" x="577.32" y="559.83" width="37.53" height="34.98" transform="translate(1 -1.03) rotate(.1)"/>
    <circle class="cls-1" cx="595.8" cy="577.22" r="11.01"/>
  </g>
  <g id="Front_instruments" data-name="Front instruments">
    <line id="Ice_Indicator" data-name="Ice Indicator" class="cls-1" x1="687.6" y1="342.7" x2="690.3" y2="339.96"/>
    <path id="Communication_Antenna" data-name="Communication Antenna" class="cls-10" d="m683.49,338.38l2.84-3.87c.14-.18-.07-.42-.26-.3l-4.2,2.47"/>
  </g>
  <g id="SSA_Probes" data-name="SSA Probes">
    <g id="SSA_3" data-name="SSA 3">
      <path id="Indicator_Circle" data-name="Indicator Circle" class="cls-12" d="m778.99,429.17c1.64.44,3.41,1.12,5.1,2,6.96,3.63,11.03,9.59,9.09,13.32s-9.16,3.82-16.13.19c-6.96-3.63-11.03-9.59-9.09-13.32,1.09-2.1,3.92-3.04,7.37-2.82"/>
      <path id="Probe" class="cls-1" d="m784.94,440.72c-.7,1.34-3.28,1.37-5.77.07s-3.95-3.43-3.25-4.77c.13-.26.6-.63.6-.63l-1.69-9.8c-.03-.32.28-.57.58-.46l1.31.46c.64.23,1.14.75,1.33,1.4l3.93,9.14.31.16c2.49,1.3,3.34,3.09,2.64,4.43Z"/>
    </g>
    <path id="SSA_2" data-name="SSA 2" class="cls-8" d="m795.28,425.54l1-8.68c.02-.21.3-.27.41-.09l1.33,2.12c.13.21.2.46.2.71l.78,8.56"/>
    <path id="SSA_1" data-name="SSA 1" class="cls-8" d="m811.65,437.43l1.85-6.43c.11-.38.61-.47.84-.14l1.02,1.44c.39.55.55,1.23.43,1.9l-1.01,5.64"/>
  </g>
  <g id="MFP_Ice_Probes" data-name="MFP/Ice Probes">
    <g id="MFP_3" data-name="MFP 3">
      <path id="Anchor_Bottom_Path_" data-name="Anchor (Bottom Path)" class="cls-1" d="m426.98,614.53c-.64,2.08-2.59,3.61-4.88,3.61s-4.38-1.63-4.94-3.83c0,0,0,0,0,0"/>
      <path id="Anchor_Top_Path_" data-name="Anchor (Top Path)" class="cls-1" d="m417.02,612.49s0,0,0-.01c.28-2.56,2.44-4.55,5.08-4.55,2.82,0,5.11,2.29,5.11,5.11,0,0,0,0,0,0"/>
      <circle id="Indicator_Circule" data-name="Indicator Circule" class="cls-12" cx="422.1" cy="613.03" r="14.02"/>
      <polygon id="Tube" class="cls-2" points="410.36 612.49 422.1 612.49 430.79 613.43 430.79 614.53 420.57 614.53 410.36 613.85 410.36 613.03 410.36 612.49"/>
    </g>
    <g id="MFP_2" data-name="MFP 2">
      <path id="Anchor_Bottom_Path_-2" data-name="Anchor (Bottom Path)" class="cls-1" d="m428.43,558.74s0,.1,0,.14c0,3.06-2.48,5.53-5.53,5.53s-5.53-2.48-5.53-5.53c0-.64.12-1.3.32-1.87"/>
      <path id="Anchor_Top_Path_-2" data-name="Anchor (Top Path)" class="cls-1" d="m418.37,555.68c1-1.4,2.67-2.34,4.52-2.34,2.52,0,4.64,1.69,5.32,3.99"/>
      <circle id="Indicator_Circle-2" data-name="Indicator Circle" class="cls-12" cx="422.89" cy="558.72" r="14.02"/>
      <polygon id="Tube-2" data-name="Tube" class="cls-2" points="411.49 555.55 423.39 555.78 428 557.31 431.15 557.76 431.15 558.87 423.52 558.49 417.94 557.02 411.49 556.57 411.49 555.55"/>
    </g>
    <g id="Ice_Probe_Right_" data-name="Ice Probe (Right)">
      <path id="Anchor_Bottom_Path_-3" data-name="Anchor (Bottom Path)" class="cls-1" d="m427.72,461.35c.37,2.45,2.49,4.33,5.05,4.33s4.53-1.75,5-4.09"/>
      <path id="Anchor_Top_Path_-3" data-name="Anchor (Top Path)" class="cls-1" d="m437.84,459.97c-.3-2.54-2.45-4.51-5.07-4.51-2.47,0-4.53,1.75-5,4.08"/>
      <ellipse id="Indicator_Circle-3" data-name="Indicator Circle" class="cls-12" cx="432.77" cy="460.57" rx="14.02" ry="13.02"/>
      <polygon id="Tube-3" data-name="Tube" class="cls-2" points="441.74 461.6 430.01 461.6 421.32 460.66 421.32 459.55 431.53 459.55 441.74 460.23 441.74 461.05 441.74 461.6"/>
    </g>
  </g>
  <g id="Door_Elements" data-name="Door Elements">
    <g id="Door_Frame" data-name="Door Frame">
      <g id="Cover_Plates" data-name="Cover Plates">
        <path id="Bottom" class="cls-3" d="m178.46,562.77l3.22.34c.53.06.94.51.93,1.05-.38,16.88-11.01,31.48-26.71,31.48l-92.64,1c-15.71,0-26.33-15.57-26.71-32.49-.01-.53.39-.98.92-1.04l2.5-.27"/>
        <g id="Top">
          <line id="Connection_Right_" data-name="Connection (Right)" class="cls-3" x1="186.79" y1="376.23" x2="184.61" y2="376.23"/>
          <line id="Connection_Left_" data-name="Connection (Left)" class="cls-3" x1="42.36" y1="379.46" x2="44.44" y2="379.46"/>
          <path id="Top_Cover" data-name="Top Cover" class="cls-3" d="m190.7,375.18v-8.07c0-14.99-12.31-27.05-27.3-26.75l-98,1.97c-15.03.3-27.05,12.57-27.05,27.6v8.48c0,.58.47,1.05,1.05,1.05h2.95v-5.83c0-12.6,10.05-22.89,22.64-23.2l98.7-2.4c12.66-.31,23.08,9.87,23.08,22.53v5.68h2.86c.58,0,1.05-.47,1.05-1.05Z"/>
        </g>
      </g>
      <g id="Whole_Door" data-name="Whole Door">
        <g id="Actual_Door" data-name="Actual Door">
          <path id="Window" class="cls-9" d="m77.81,442.18l.24-12.32c.09-4.82-3.79-8.78-8.61-8.77h-3.19c-4.59,0-8.37,3.61-8.59,8.19l-.59,12.32c-.24,4.91,3.68,9.02,8.6,9.02h3.55c4.69,0,8.51-3.76,8.6-8.44Z"/>
          <path id="Door_Frame-2" data-name="Door Frame" class="cls-12" d="m63.24,586.43c-6.33,0-12.25-2.5-16.67-7.03-4.4-4.51-6.74-10.46-6.6-16.75,0-61.59,1.77-132.49,4.55-183.18.12-2.25.25-4.46.38-6.63.27-7.65,6.44-13.73,14.11-13.87l111.37-1.98c3.85,0,7.59,1.59,10.27,4.37,2.71,2.81,4.12,6.51,3.97,10.42-.26,6.74-.69,16.22-1.19,27.19-1.85,40.77-4.96,109.02-4.96,164.28,0,12.79-10.6,23.19-23.64,23.19H63.24Z"/>
          <path id="Door" class="cls-7" d="m171.46,563.23c0-70.23,4.93-159.88,6.15-191.74.16-4.16-3.21-7.59-7.37-7.51l-111.11,1.98c-3.95.07-7.14,3.24-7.24,7.19-3.31,56.36-4.92,131.91-4.92,189.58-.24,9.15,7.12,16.7,16.27,16.7h91.58c9.02,0,16.64-7.17,16.64-16.19Z"/>
        </g>
        <g id="Handle_and_Arrow" data-name="Handle and Arrow">
          <polygon id="Arrow" class="cls-3" points="104.99 441.61 102.32 446.92 103.81 446.95 103.5 464.56 105.67 464.6 105.98 447.03 107.47 447.05 104.99 441.61"/>
          <g id="Handle">
            <path id="PUSH" class="cls-3" d="m119.51,473.26v-1.74l-1.4-1.4h-8.77l-1.4,1.4v1.4c0,.78.63,1.4,1.4,1.4h9.11c.59,0,1.06-.48,1.06-1.06Z"/>
            <circle id="Circle" class="cls-3" cx="114.84" cy="437.58" r="2.07"/>
            <path id="Handle-2" data-name="Handle" class="cls-11" d="m110.36,435.34l-.1,8.03.9,2.18-.37,18.11-3.79,2.37c-.27.17-.43.44-.43.73l-.11,11.33c0,.5.44.9,1,.9h12.55c.55,0,1-.4,1-.9v-11.32c0-.28-.14-.54-.39-.72l-3.44-2.44.52-18.08,1.03-2.14.13-8.04c0-.5-.44-.91-1-.91h-6.49c-.55,0-1,.4-1,.89Z"/>
          </g>
        </g>
      </g>
    </g>
    <line id="Door_Gutter" data-name="Door Gutter" class="cls-5" x1="13" y1="320.49" x2="218.28" y2="333.26"/>
  </g>
  <g id="Top_Drain_Port" data-name="Top Drain Port">
    <ellipse id="Port" class="cls-2" cx="11.22" cy="297.43" rx="2.58" ry="1.91" transform="translate(-127.53 34.11) rotate(-25.63)"/>
    <ellipse id="Indicator_Circle-4" data-name="Indicator Circle" class="cls-1" cx="11.16" cy="297.73" rx="6.26" ry="4.79" transform="translate(-127.67 34.11) rotate(-25.63)"/>
  </g>
  <g id="Cockpit_Windows" data-name="Cockpit Windows">
    <path id="Back_Window" data-name="Back Window" class="cls-7" d="m508.32,387.75l12.63-54.9c1.38-5.98-3.17-11.68-9.3-11.68h-13.09c-8.7,0-17.31,5.11-20.9,9.45l-41.47,48.13c-4.09,5.02-3.32,12.89,5.49,13.66l51.35,6.1c7.09.84,13.68-3.79,15.29-10.76Z"/>
    <g id="Middle_Window" data-name="Middle Window">
      <path id="Seal" class="cls-2" d="m537.04,401.34c-4.87,0-9.43-2.2-12.51-6.04-3.06-3.81-4.21-8.74-3.15-13.53l12.24-55.4c1.02-4.61,5.03-7.92,9.74-8.04l14.12-.38c6.65.07,12.25.41,19.74,1.85l.1.02.18.05c3.52.95,7.41,2.52,9.6,6.96l15.6,31.72c1.06,2.26.75,4.43.55,5.87l-.06.38-3.3,17.41-.12.33c-.9,2.37-2.91,4.14-5.37,4.75l-53.45,13.59c-1.3.32-2.61.48-3.91.48Z"/>
      <path id="Window-2" data-name="Window" class="cls-7" d="m537.52,327.22l-12.24,55.4c-1.93,8.74,5.98,16.48,14.68,14.36l53.49-13.6c1.18-.29,2.15-1.14,2.58-2.28l3.23-17.03c.18-1.26.41-2.59-.15-3.78l-15.6-31.72c-1.35-2.74-3.7-3.96-7.05-4.86-7.56-1.46-13.05-1.71-18.99-1.78l-14,.38c-2.87.08-5.33,2.1-5.95,4.91Z"/>
    </g>
    <g id="Front_Window" data-name="Front Window">
      <path id="Wiper" class="cls-6" d="m637,381.17c23.42-.4,46.46.84,69.02,4.17"/>
      <path id="Trace_Element" data-name="Trace Element" class="cls-11" d="m708.69,374.92l-8.78,3.66c-2.77,1.16-5.73,1.82-8.73,1.95l-15.96.72"/>
      <path id="Window-3" data-name="Window" class="cls-7" d="m597.71,329.47l17.83,34.55c1.52,2.95,4.23,5.1,7.45,5.92l37.72,9.6c1.25.32,2.53.54,3.82.67l37.05,3.58c.82.08,1.64-.1,2.35-.52l5.11-2.55c1.72-.86,2.14-3.14.82-4.55l-39.59-42.57c-1.59-1.71-3.75-2.78-6.07-3.01l-63.07-6.17c-2.74-.27-4.68,2.6-3.42,5.04Z"/>
    </g>
  </g>
  <path id="Airframe_Outline" data-name="Airframe Outline" class="cls-4" d="m0,889.75h.5c171.07-.61,601.45-22.14,762.63-87.14,93.54-37.72,166.47-96.68,166.47-161.02s-31.66-170.04-204.26-257.36C584.21,222.79,370.52,46.21.5,12.05h-.5"/>
</svg>
