<?xml version="1.0" encoding="UTF-8" standalone="no"?>
<!-- Copyright (c) 2023-2024 FlyByWire Simulations -->
<!-- SPDX-License-Identifier: GPL-3.0 -->

<svg
   width="100%"
   height="100%"
   viewBox="0 0 657 150"
   version="1.1"
   xml:space="preserve"
   style="fill-rule:evenodd;clip-rule:evenodd;stroke-linecap:round;stroke-linejoin:round;stroke-miterlimit:10;"
   id="svg6012"
   sodipodi:docname="a380-outline-payload-upper.svg"
   inkscape:version="1.2.1 (9c6d41e410, 2022-07-14)"
   xmlns:inkscape="http://www.inkscape.org/namespaces/inkscape"
   xmlns:sodipodi="http://sodipodi.sourceforge.net/DTD/sodipodi-0.dtd"
   xmlns="http://www.w3.org/2000/svg"
   xmlns:svg="http://www.w3.org/2000/svg"><defs
   id="defs6016" /><sodipodi:namedview
   id="namedview6014"
   pagecolor="#ffffff"
   bordercolor="#000000"
   borderopacity="0.25"
   inkscape:showpageshadow="2"
   inkscape:pageopacity="0.0"
   inkscape:pagecheckerboard="0"
   inkscape:deskcolor="#d1d1d1"
   showgrid="false"
   inkscape:zoom="0.92085236"
   inkscape:cx="841.06859"
   inkscape:cy="-107.50909"
   inkscape:window-width="2560"
   inkscape:window-height="1377"
   inkscape:window-x="1912"
   inkscape:window-y="-8"
   inkscape:window-maximized="1"
   inkscape:current-layer="Plane" />
    <g
   id="Plane">
    <g
   id="BASE_SVG-4"
   data-name="BASE SVG"
   transform="rotate(-90,232.02035,273.88408)"
   style="fill-rule:evenodd;clip-rule:evenodd;stroke-linecap:round;stroke-linejoin:round;stroke-miterlimit:10"><path
     id="Fuselage-4"
     class="cls-1"
     d="m 431.03,789.53 h -2.69 c -3.94,-12.17 -9.25,-29.88 -11.11,-41.86 -1.86,-11.98 -4.22,-48.22 -10.44,-72.44 -11.33,-39.33 -12.89,-79.56 -12.89,-98.67 0,0 0,-401.75 0,-401.78 0,-8.18 2.13,-45.6 8.44,-76.22 6.22,-30.25 21.04,-53.67 31.08,-53.67 h 0.05 c 10.04,0 24.87,23.42 31.09,53.67 6.3,30.63 8.44,68.04 8.44,76.22 0,0.03 0,401.78 0,401.78 0,19.11 -1.56,59.33 -12.89,98.67 -6.22,24.22 -8.52,60.1 -10.44,72.44 -1.87,11.98 -7.17,29.69 -11.11,41.86 h -2.69"
     style="fill:none;stroke:#ffffff;stroke-miterlimit:10" /><g
     id="Wide_Fuselage-1"
     data-name="Wide Fuselage"><path
       id="L_Wide_Fuselage-5"
       data-name="L Wide Fuselage"
       class="cls-2"
       d="m 393.89,503.17 c -0.68,-3.22 -1.76,-7.84 -2.48,-13.47 -2.91,-22.78 -3.39,-37.64 -3.36,-48.04 0.08,-30.96 0.12,-46.44 0.95,-66.21 0.89,-21.14 2.35,-48.81 4.89,-81.51"
       style="fill:none;stroke:#ffffff;stroke-width:0.75px;stroke-miterlimit:10" /><path
       id="R_Wide_Fuselage-1"
       data-name="R Wide Fuselage"
       class="cls-2"
       d="m 473,503.17 c 0.68,-3.22 1.76,-7.84 2.48,-13.47 2.91,-22.78 3.39,-37.64 3.36,-48.04 -0.08,-30.96 -0.12,-46.44 -0.95,-66.21 C 477,354.31 475.54,326.64 473,293.94"
       style="fill:none;stroke:#ffffff;stroke-width:0.75px;stroke-miterlimit:10" /></g><path
     id="Rudder-2"
     class="cls-1"
     d="m 437.01,624.56 c 2.44,9.92 4.99,27.84 4.99,51.11 0,18.11 -8.47,151.2 -8.47,151.2 h -0.18 c 0,0 -8.47,-133.09 -8.47,-151.2 0,-23.27 2.55,-41.2 4.99,-51.11 H 437 Z"
     style="fill:none;stroke:#ffffff;stroke-miterlimit:10" /><g
     id="Horizontal_Stablizer-6"
     data-name="Horizontal Stablizer"><g
       id="Left_Horizontal_Stablizer-8"
       data-name="Left Horizontal Stablizer"><polyline
         id="Walk"
         class="cls-6"
         points="410.5 695.5 333.33 751.17 344.17 770.67 414.83 728.5"
         style="fill:none;stroke:#ffffff;stroke-width:0.25px;stroke-miterlimit:10" /><g
         id="Left_Elevator-4"
         data-name="Left Elevator"><line
           id="Left_Elevator_Seperator"
           data-name="Left Elevator Seperator"
           class="cls-6"
           x1="376.57999"
           y1="760.58002"
           x2="376.57999"
           y2="784.28003"
           style="fill:none;stroke:#ffffff;stroke-width:0.25px;stroke-miterlimit:10" /><polyline
           id="Left_Elevator_Box"
           data-name="Left Elevator Box"
           class="cls-4"
           points="416 741.56 287.78 803.44 286.62 817.41"
           style="fill:none;stroke:#ffffff;stroke-width:0.5px;stroke-miterlimit:10" /></g><path
         id="Left_Stablizer-7"
         data-name="Left Stablizer"
         class="cls-2"
         d="M 421.08,767.89 271.44,823 l 4.61,-26.83 c 2.22,-8.17 5.44,-16.39 11.83,-21.94 l 114,-88.11 c 3,-2.33 5.05,-4.67 5.24,-9.49"
         style="fill:none;stroke:#ffffff;stroke-width:0.75px;stroke-miterlimit:10" /></g><g
       id="Right_Horizontal_Stablizer-1"
       data-name="Right Horizontal Stablizer"><polyline
         id="Walk-2"
         data-name="Walk"
         class="cls-6"
         points="456.39 695.5 533.56 751.17 522.72 770.67 452.06 728.5"
         style="fill:none;stroke:#ffffff;stroke-width:0.25px;stroke-miterlimit:10" /><g
         id="Right_Elevator-3"
         data-name="Right Elevator"><line
           id="Right_Elevator_Seperator"
           data-name="Right Elevator Seperator"
           class="cls-6"
           x1="490.31"
           y1="760.58002"
           x2="490.31"
           y2="784.28003"
           style="fill:none;stroke:#ffffff;stroke-width:0.25px;stroke-miterlimit:10" /><polyline
           id="Right_Elevator_Box"
           data-name="Right Elevator Box"
           class="cls-4"
           points="450.89 741.56 579.11 803.44 580.26 817.41"
           style="fill:none;stroke:#ffffff;stroke-width:0.5px;stroke-miterlimit:10" /></g><path
         id="Right_Stablizer-0"
         data-name="Right Stablizer"
         class="cls-2"
         d="M 445.81,767.89 595.45,823 590.84,796.17 C 588.62,788 585.4,779.78 579.01,774.23 l -114,-88.11 c -3,-2.33 -5.05,-4.67 -5.24,-9.49"
         style="fill:none;stroke:#ffffff;stroke-width:0.75px;stroke-miterlimit:10" /></g></g><g
     id="Wings-9"><g
       id="Left_Wing-8"
       data-name="Left Wing"><g
         id="ENG_2-6"
         data-name="ENG 2"><path
           id="Exhaust_Nozzle"
           data-name="Exhaust Nozzle"
           class="cls-4"
           d="m 264.02,350.22 c 0.28,3.12 0.67,5.52 1.36,7.22"
           style="fill:none;stroke:#ffffff;stroke-width:0.5px;stroke-miterlimit:10" /><path
           id="Inlet_Leading_Edge"
           data-name="Inlet Leading Edge"
           class="cls-4"
           d="m 257,293.94 c 0,-0.95 38.11,-0.95 38.11,0"
           style="fill:none;stroke:#ffffff;stroke-width:0.5px;stroke-miterlimit:10" /><g
           id="Cowling"><path
             id="Cowling_L_Rear_Edge"
             data-name="Cowling L Rear Edge"
             class="cls-6"
             d="m 255.36,330.38 c 5.22,0.2 8.93,0.29 16.03,0.29"
             style="fill:none;stroke:#ffffff;stroke-width:0.25px;stroke-miterlimit:10" /><path
             id="Cowling_R_Rear_Edge"
             data-name="Cowling R Rear Edge"
             class="cls-6"
             d="m 296.51,330.34 c -5.67,0.22 -10.86,0.34 -17.54,0.33"
             style="fill:none;stroke:#ffffff;stroke-width:0.25px;stroke-miterlimit:10" /><path
             id="Cowling_L_Froward_Edge"
             data-name="Cowling L Froward Edge"
             class="cls-6"
             d="m 255.09,307.94 c 5.1,-0.26 10.73,-0.42 17.15,-0.42"
             style="fill:none;stroke:#ffffff;stroke-width:0.25px;stroke-miterlimit:10" /><path
             id="Cowling_R_Foward_Edge"
             data-name="Cowling R Foward Edge"
             class="cls-6"
             d="m 297.05,307.97 c -5.1,-0.26 -12.05,-0.45 -18.48,-0.46"
             style="fill:none;stroke:#ffffff;stroke-width:0.25px;stroke-miterlimit:10" /></g><path
           id="Strake"
           class="cls-6"
           d="m 289.95,312.93 c -0.31,2.6 -1.15,12.29 -1.56,13.85 0.1,0.1 3.64,0.21 3.64,0.21 0.1,-2.29 -0.83,-12.08 -2.08,-14.06 z"
           style="fill:none;stroke:#ffffff;stroke-width:0.25px;stroke-miterlimit:10" /><g
           id="Pylon"><line
             id="Pylon_Beam_Rear"
             data-name="Pylon Beam Rear"
             class="cls-6"
             x1="278.81"
             y1="326.42001"
             x2="271.5"
             y2="326.42001"
             style="fill:none;stroke:#ffffff;stroke-width:0.25px;stroke-miterlimit:10" /><line
             id="Pylon_Beam_Front"
             data-name="Pylon Beam Front"
             class="cls-6"
             x1="278.81"
             y1="313.73999"
             x2="271.85999"
             y2="313.73999"
             style="fill:none;stroke:#ffffff;stroke-width:0.25px;stroke-miterlimit:10" /><path
             id="Pylon-2"
             data-name="Pylon"
             class="cls-4"
             d="m 278.97,346.89 c 0,0 -0.17,-33.71 -0.17,-33.8 0,-3.82 -0.21,-10.05 -3.43,-10.05 v 0 c -3.22,0 -3.51,6.23 -3.51,10.05 0,0.08 -1.11,40.73 -1.11,40.73"
             style="fill:none;stroke:#ffffff;stroke-width:0.5px;stroke-miterlimit:10" /></g><path
           id="Housing"
           class="cls-2"
           d="m 296.14,332.83 c 0.46,-4.24 1.17,-10.9 1.17,-15.55 0,-19.22 -3.01,-26.97 -4.15,-27.47 -3.69,-1.19 -29.97,-1.08 -34.17,0 -1.32,0.43 -4.15,8.25 -4.15,27.47 0,19.22 3.39,32.89 4.06,32.89 0.08,0.08 12.46,0.04 12.46,0.04"
           style="fill:none;stroke:#ffffff;stroke-width:0.75px;stroke-miterlimit:10" /></g><g
         id="ENG_1-8"
         data-name="ENG 1"><path
           id="Exhaust_Nozzle-2"
           data-name="Exhaust Nozzle"
           class="cls-4"
           d="m 146.75,433.33 c 0.28,3.12 1.43,7.96 2.12,9.66"
           style="fill:none;stroke:#ffffff;stroke-width:0.5px;stroke-miterlimit:10" /><path
           id="Inlet_Leading_Edge-2"
           data-name="Inlet Leading Edge"
           class="cls-4"
           d="m 139.73,377.05 c 0,-0.95 38.11,-0.95 38.11,0"
           style="fill:none;stroke:#ffffff;stroke-width:0.5px;stroke-miterlimit:10" /><g
           id="Cowling-2"
           data-name="Cowling"><path
             id="Cowling_L_Rear_Edge-2"
             data-name="Cowling L Rear Edge"
             class="cls-6"
             d="m 138.09,413.49 c 5.22,0.2 8.93,0.29 16.03,0.29"
             style="fill:none;stroke:#ffffff;stroke-width:0.25px;stroke-miterlimit:10" /><path
             id="Cowling_R_Rear_Edge-2"
             data-name="Cowling R Rear Edge"
             class="cls-6"
             d="m 179.23,413.45 c -5.67,0.22 -10.86,0.34 -17.54,0.33"
             style="fill:none;stroke:#ffffff;stroke-width:0.25px;stroke-miterlimit:10" /><path
             id="Cowling_L_Froward_Edge-2"
             data-name="Cowling L Froward Edge"
             class="cls-6"
             d="m 137.81,391.05 c 5.1,-0.26 10.73,-0.42 17.15,-0.42"
             style="fill:none;stroke:#ffffff;stroke-width:0.25px;stroke-miterlimit:10" /><path
             id="Cowling_R_Foward_Edge-2"
             data-name="Cowling R Foward Edge"
             class="cls-6"
             d="m 179.77,391.08 c -5.1,-0.26 -12.05,-0.45 -18.48,-0.46"
             style="fill:none;stroke:#ffffff;stroke-width:0.25px;stroke-miterlimit:10" /></g><path
           id="Strake-2"
           data-name="Strake"
           class="cls-6"
           d="m 172.67,396.04 c -0.31,2.6 -1.15,12.29 -1.56,13.85 0.1,0.1 3.64,0.21 3.64,0.21 0.1,-2.29 -0.83,-12.08 -2.08,-14.06 z"
           style="fill:none;stroke:#ffffff;stroke-width:0.25px;stroke-miterlimit:10" /><g
           id="Pylon-3"
           data-name="Pylon"><line
             id="Pylon_Beam_Rear-2"
             data-name="Pylon Beam Rear"
             class="cls-6"
             x1="161.53"
             y1="409.53"
             x2="154.23"
             y2="409.53"
             style="fill:none;stroke:#ffffff;stroke-width:0.25px;stroke-miterlimit:10" /><line
             id="Pylon_Beam_Front-2"
             data-name="Pylon Beam Front"
             class="cls-6"
             x1="161.53"
             y1="396.85001"
             x2="154.58"
             y2="396.85001"
             style="fill:none;stroke:#ffffff;stroke-width:0.25px;stroke-miterlimit:10" /><path
             id="Pylon-4"
             data-name="Pylon"
             class="cls-4"
             d="m 161.7,433.56 c 0,0 -0.17,-37.27 -0.17,-37.36 0,-3.82 -0.21,-10.05 -3.43,-10.05 v 0 c -3.22,0 -3.51,6.23 -3.51,10.05 0,0.08 -1.19,43.44 -1.19,43.44"
             style="fill:none;stroke:#ffffff;stroke-width:0.5px;stroke-miterlimit:10" /></g><path
           id="Housing-2"
           data-name="Housing"
           class="cls-2"
           d="m 178.27,421.39 c 0,0 1.76,-12.18 1.76,-21 0,-19.22 -3.01,-26.97 -4.15,-27.47 -3.69,-1.19 -29.97,-1.08 -34.17,0 -1.32,0.43 -4.15,8.25 -4.15,27.47 0,19.22 3.39,32.89 4.06,32.89 0.08,0.08 12.46,0.04 12.46,0.04"
           style="fill:none;stroke:#ffffff;stroke-width:0.75px;stroke-miterlimit:10" /></g><g
         id="Slats_Droop-0"
         data-name="Slats &amp;amp; Droop"><g
           id="Droop_Flaps"
           data-name="Droop Flaps"><polyline
             id="Droop_Box"
             data-name="Droop Box"
             class="cls-6"
             points="353.77 285.62 353.96 296.71 284.25 353.33 279.43 346.52"
             style="fill:none;stroke:#ffffff;stroke-width:0.25px;stroke-miterlimit:10" /><line
             id="Line"
             class="cls-6"
             x1="317.07999"
             y1="315.57999"
             x2="322.07001"
             y2="322.60999"
             style="fill:none;stroke:#ffffff;stroke-width:0.25px;stroke-miterlimit:10" /></g><g
           id="L_Slats_Right"
           data-name="L Slats Right"><polyline
             id="Right_Slats_Box"
             data-name="Right Slats Box"
             class="cls-6"
             points="265.38 357.44 265.38 370.22 169.83 440.42 163.83 432"
             style="fill:none;stroke:#ffffff;stroke-width:0.25px;stroke-miterlimit:10" /><line
             id="Left_Line"
             data-name="Left Line"
             class="cls-6"
             x1="196.67"
             y1="408.07999"
             x2="202.53"
             y2="416.39999"
             style="fill:none;stroke:#ffffff;stroke-width:0.25px;stroke-miterlimit:10" /><line
             id="Right_Line"
             data-name="Right Line"
             class="cls-6"
             x1="229.42"
             y1="383.82999"
             x2="235.75999"
             y2="391.98999"
             style="fill:none;stroke:#ffffff;stroke-width:0.25px;stroke-miterlimit:10" /></g><g
           id="L_Slats_Left"
           data-name="L Slats Left"><polyline
             id="Left_Slats_Box"
             data-name="Left Slats Box"
             class="cls-6"
             points="147.81 443.76 147.81 456.25 26.56 542.94 21.89 536.11"
             style="fill:none;stroke:#ffffff;stroke-width:0.25px;stroke-miterlimit:10" /><line
             id="Left_Line-2"
             data-name="Left Line"
             class="cls-6"
             x1="66.220001"
             y1="503.94"
             x2="71.160004"
             y2="511.04999"
             style="fill:none;stroke:#ffffff;stroke-width:0.25px;stroke-miterlimit:10" /><line
             id="Right_Line-2"
             data-name="Right Line"
             class="cls-6"
             x1="104.72"
             y1="475.56"
             x2="110.65"
             y2="482.82001"
             style="fill:none;stroke:#ffffff;stroke-width:0.25px;stroke-miterlimit:10" /></g></g><g
         id="Ailerons-6"><polyline
           id="Box"
           class="cls-4"
           points="60.25 566.78 60.25 556.5 147.81 511.05 150.76 515.08 150.76 527.15"
           style="fill:none;stroke:#ffffff;stroke-width:0.5px;stroke-miterlimit:10" /><polyline
           id="Left_Line-3"
           data-name="Left Line"
           class="cls-6"
           points="100.44 549.18 100.44 538.92 99.15 536.31"
           style="fill:none;stroke:#ffffff;stroke-width:0.25px;stroke-miterlimit:10" /><polyline
           id="Right_Line-3"
           data-name="Right Line"
           class="cls-6"
           points="129.06 536.65 128.96 525.67 126.88 521.92"
           style="fill:none;stroke:#ffffff;stroke-width:0.25px;stroke-miterlimit:10" /></g><g
         id="Flap_Fairings-7"
         data-name="Flap Fairings"><path
           id="Left_Flap_Fairing_5"
           data-name="Left Flap Fairing 5"
           class="cls-4"
           d="m 328.22,457.77 c 0.51,6.22 2.29,9.62 3.06,10.83 0.16,0.25 0.54,0.24 0.67,-0.03 0.62,-1.21 1.98,-4.65 2.7,-12.53"
           style="fill:none;stroke:#ffffff;stroke-width:0.5px;stroke-miterlimit:10" /><path
           id="Left_Flap_Fairing_4"
           data-name="Left Flap Fairing 4"
           class="cls-4"
           d="m 285.33,472.71 c 0.43,6.81 1.92,9.99 2.56,11.07 0.15,0.25 0.5,0.28 0.68,0.05 0.88,-1.07 2.94,-4.55 2.48,-13.42"
           style="fill:none;stroke:#ffffff;stroke-width:0.5px;stroke-miterlimit:10" /><path
           id="Left_Flap_Fairing_3"
           data-name="Left Flap Fairing 3"
           class="cls-4"
           d="m 241.3,490.37 c 0.29,15.36 2.22,23.87 2.96,26.6 0.09,0.34 0.57,0.37 0.7,0.04 1.15,-2.83 4.29,-12.18 4.29,-29.83"
           style="fill:none;stroke:#ffffff;stroke-width:0.5px;stroke-miterlimit:10" /><path
           id="Left_Flap_Fairing_2"
           data-name="Left Flap Fairing 2"
           class="cls-4"
           d="m 196.69,508.46 c -0.3,15.88 1.6,22.51 2.24,24.88 0.11,0.42 0.68,0.47 0.88,0.08 1.3,-2.67 3.47,-8.69 3.8,-27.93"
           style="fill:none;stroke:#ffffff;stroke-width:0.5px;stroke-miterlimit:10" /><path
           id="Left_Flap_Fairing_1"
           data-name="Left Flap Fairing 1"
           class="cls-4"
           d="m 150.76,527.15 c 0.74,11.93 2.2,14.39 2.81,15.27 0.13,0.19 0.42,0.21 0.57,0.04 0.73,-0.84 2.31,-6.08 2.69,-17.97"
           style="fill:none;stroke:#ffffff;stroke-width:0.5px;stroke-miterlimit:10" /></g><g
         id="Flaps_Spoilers-7"
         data-name="Flaps &amp;amp; Spoilers"><polyline
           id="Spoilers_Box-8"
           data-name="Spoilers Box"
           class="cls-4"
           points="385.42 442.37 385.42 409.67 309.67 430.42 160.5 503.75 159.37 523.38"
           style="fill:none;stroke:#ffffff;stroke-width:0.5px;stroke-miterlimit:10" /><polyline
           id="Flaps_Box-6"
           data-name="Flaps Box"
           class="cls-4"
           points="160.02 512.1 309.53 444.65 385.42 425.22"
           style="fill:none;stroke:#ffffff;stroke-width:0.5px;stroke-miterlimit:10" /><line
           id="Left_Spoiler_Line_1"
           data-name="Left Spoiler Line 1"
           class="cls-6"
           x1="193.75999"
           y1="487.39999"
           x2="196.57001"
           y2="495.60999"
           style="fill:none;stroke:#ffffff;stroke-width:0.25px;stroke-miterlimit:10" /><polyline
           id="Left_Spoiler_and_Flap_Line"
           data-name="Left Spoiler and Flap Line"
           class="cls-6"
           points="219.64 474.67 223.9 483.28 223.9 497.34"
           style="fill:none;stroke:#ffffff;stroke-width:0.25px;stroke-miterlimit:10" /><line
           id="Left_Spoiler_Line_2"
           data-name="Left Spoiler Line 2"
           class="cls-6"
           x1="245.28"
           y1="462.07001"
           x2="249.46001"
           y2="471.75"
           style="fill:none;stroke:#ffffff;stroke-width:0.25px;stroke-miterlimit:10" /><line
           id="Left_Spoiler_Line_3"
           data-name="Left Spoiler Line 3"
           class="cls-6"
           x1="265.60001"
           y1="452.07999"
           x2="270.39999"
           y2="462.29999"
           style="fill:none;stroke:#ffffff;stroke-width:0.25px;stroke-miterlimit:10" /><line
           id="Left_Spoiler_Line_4"
           data-name="Left Spoiler Line 4"
           class="cls-6"
           x1="289.82999"
           y1="440.17001"
           x2="295.64999"
           y2="450.91"
           style="fill:none;stroke:#ffffff;stroke-width:0.25px;stroke-miterlimit:10" /><polyline
           id="Right_Spoiler_and_Flap_Line"
           data-name="Right Spoiler and Flap Line"
           class="cls-6"
           points="309.67 430.42 309.53 444.65 309.53 462.95"
           style="fill:none;stroke:#ffffff;stroke-width:0.25px;stroke-miterlimit:10" /><line
           id="Left_Spoiler_Line_5"
           data-name="Left Spoiler Line 5"
           class="cls-6"
           x1="332.32999"
           y1="424.20999"
           x2="335.97"
           y2="437.95001"
           style="fill:none;stroke:#ffffff;stroke-width:0.25px;stroke-miterlimit:10" /><line
           id="Left_Spoiler_Line_6-6"
           data-name="Left Spoiler Line 6"
           class="cls-6"
           x1="358.67001"
           y1="416.98999"
           x2="362.85999"
           y2="431.03"
           style="fill:none;stroke:#ffffff;stroke-width:0.25px;stroke-miterlimit:10" /></g><path
         id="Walk_Zone-8"
         data-name="Walk Zone"
         class="cls-6"
         d="m 393.89,268.25 -28.31,22.08 v 29.25 l -79.42,39.67 -266.91,190.92 8.33,15.17 276.33,-141.32 63.83,-17.85 c -3.17,-11.42 -0.64,-18.81 21.1,-26.86"
         style="fill:none;stroke:#ffffff;stroke-width:0.25px;stroke-miterlimit:10" /><path
         id="Left_Wing-2-5"
         data-name="Left Wing"
         class="cls-2"
         d="M 387.83,441.72 311.08,462.39 163.67,521.5 9.11,589.17 c -1.53,7.08 -2.78,20.56 -3,20.56 -0.47,0 0.15,-18.57 1.64,-46.72 0.39,-6.33 4.08,-19.17 11.25,-24.67 l 253.33,-186 104.17,-85.33 15.11,-15.72 2.28,-9.61"
         style="fill:none;stroke:#ffffff;stroke-width:0.75px;stroke-miterlimit:10" /></g><g
       id="Right_Wing-6"
       data-name="Right Wing"><g
         id="ENG_3-8"
         data-name="ENG 3"><path
           id="Exhaust_Nozzle-3"
           data-name="Exhaust Nozzle"
           class="cls-4"
           d="m 602.86,350.22 c -0.28,3.12 -0.67,5.52 -1.36,7.22"
           style="fill:none;stroke:#ffffff;stroke-width:0.5px;stroke-miterlimit:10" /><path
           id="Inlet_Leading_Edge-3"
           data-name="Inlet Leading Edge"
           class="cls-4"
           d="m 609.88,293.94 c 0,-0.95 -38.11,-0.95 -38.11,0"
           style="fill:none;stroke:#ffffff;stroke-width:0.5px;stroke-miterlimit:10" /><g
           id="Cowling-3"
           data-name="Cowling"><path
             id="Cowling_R_Rear_Edge-3"
             data-name="Cowling R Rear Edge"
             class="cls-6"
             d="m 611.53,330.38 c -5.22,0.2 -8.93,0.29 -16.03,0.29"
             style="fill:none;stroke:#ffffff;stroke-width:0.25px;stroke-miterlimit:10" /><path
             id="Cowling_L_Rear_Edge-3"
             data-name="Cowling L Rear Edge"
             class="cls-6"
             d="m 570.38,330.34 c 5.67,0.22 10.86,0.34 17.54,0.33"
             style="fill:none;stroke:#ffffff;stroke-width:0.25px;stroke-miterlimit:10" /><path
             id="Cowling_R_Froward_Edge"
             data-name="Cowling R Froward Edge"
             class="cls-6"
             d="m 611.8,307.94 c -5.1,-0.26 -10.73,-0.42 -17.15,-0.42"
             style="fill:none;stroke:#ffffff;stroke-width:0.25px;stroke-miterlimit:10" /><path
             id="Cowling_L_Foward_Edge"
             data-name="Cowling L Foward Edge"
             class="cls-6"
             d="m 569.84,307.97 c 5.1,-0.26 12.05,-0.45 18.48,-0.46"
             style="fill:none;stroke:#ffffff;stroke-width:0.25px;stroke-miterlimit:10" /></g><path
           id="Strake-3"
           data-name="Strake"
           class="cls-6"
           d="m 576.94,312.93 c 0.31,2.6 1.15,12.29 1.56,13.85 -0.1,0.1 -3.64,0.21 -3.64,0.21 -0.1,-2.29 0.83,-12.08 2.08,-14.06 z"
           style="fill:none;stroke:#ffffff;stroke-width:0.25px;stroke-miterlimit:10" /><g
           id="Pylon-5"
           data-name="Pylon"><line
             id="Pylon_Beam_Rear-3"
             data-name="Pylon Beam Rear"
             class="cls-6"
             x1="588.08002"
             y1="326.42001"
             x2="595.38"
             y2="326.42001"
             style="fill:none;stroke:#ffffff;stroke-width:0.25px;stroke-miterlimit:10" /><line
             id="Pylon_Beam_Front-3"
             data-name="Pylon Beam Front"
             class="cls-6"
             x1="588.08002"
             y1="313.73999"
             x2="595.03003"
             y2="313.73999"
             style="fill:none;stroke:#ffffff;stroke-width:0.25px;stroke-miterlimit:10" /><path
             id="Pylon-6"
             data-name="Pylon"
             class="cls-2"
             d="m 587.91,346.89 c 0,0 0.17,-33.71 0.17,-33.8 0,-3.82 0.21,-10.05 3.43,-10.05 v 0 c 3.22,0 3.51,6.23 3.51,10.05 0,0.08 1.11,40.73 1.11,40.73"
             style="fill:none;stroke:#ffffff;stroke-width:0.75px;stroke-miterlimit:10" /></g><path
           id="Housing-3"
           data-name="Housing"
           class="cls-2"
           d="m 570.75,332.83 c -0.46,-4.24 -1.17,-10.9 -1.17,-15.55 0,-19.22 3.01,-26.97 4.15,-27.47 3.69,-1.19 29.97,-1.08 34.17,0 1.32,0.43 4.15,8.25 4.15,27.47 0,19.22 -3.39,32.89 -4.06,32.89 -0.08,0.08 -12.46,0.04 -12.46,0.04"
           style="fill:none;stroke:#ffffff;stroke-width:0.75px;stroke-miterlimit:10" /></g><g
         id="ENG_4-0"
         data-name="ENG 4"><path
           id="Exhaust_Nozzle-4"
           data-name="Exhaust Nozzle"
           class="cls-4"
           d="m 720.14,433.33 c -0.28,3.12 -1.43,7.96 -2.12,9.66"
           style="fill:none;stroke:#ffffff;stroke-width:0.5px;stroke-miterlimit:10" /><path
           id="Inlet_Leading_Edge-4"
           data-name="Inlet Leading Edge"
           class="cls-4"
           d="m 727.16,377.05 c 0,-0.95 -38.11,-0.95 -38.11,0"
           style="fill:none;stroke:#ffffff;stroke-width:0.5px;stroke-miterlimit:10" /><g
           id="Cowling-4"
           data-name="Cowling"><path
             id="Cowling_R_Rear_Edge-4"
             data-name="Cowling R Rear Edge"
             class="cls-6"
             d="m 728.8,413.49 c -5.22,0.2 -8.93,0.29 -16.03,0.29"
             style="fill:none;stroke:#ffffff;stroke-width:0.25px;stroke-miterlimit:10" /><path
             id="Cowling_L_Rear_Edge-4"
             data-name="Cowling L Rear Edge"
             class="cls-6"
             d="m 687.66,413.45 c 5.67,0.22 10.86,0.34 17.54,0.33"
             style="fill:none;stroke:#ffffff;stroke-width:0.25px;stroke-miterlimit:10" /><path
             id="Cowling_R_Froward_Edge-2"
             data-name="Cowling R Froward Edge"
             class="cls-6"
             d="m 729.08,391.05 c -5.1,-0.26 -10.73,-0.42 -17.15,-0.42"
             style="fill:none;stroke:#ffffff;stroke-width:0.25px;stroke-miterlimit:10" /><path
             id="Cowling_L_Foward_Edge-2"
             data-name="Cowling L Foward Edge"
             class="cls-6"
             d="m 687.12,391.08 c 5.1,-0.26 12.05,-0.45 18.48,-0.46"
             style="fill:none;stroke:#ffffff;stroke-width:0.25px;stroke-miterlimit:10" /></g><path
           id="Strake-4"
           data-name="Strake"
           class="cls-6"
           d="m 694.22,396.04 c 0.31,2.6 1.15,12.29 1.56,13.85 -0.1,0.1 -3.64,0.21 -3.64,0.21 -0.1,-2.29 0.83,-12.08 2.08,-14.06 z"
           style="fill:none;stroke:#ffffff;stroke-width:0.25px;stroke-miterlimit:10" /><g
           id="Pylon-7"
           data-name="Pylon"><line
             id="Pylon_Beam_Rear-4"
             data-name="Pylon Beam Rear"
             class="cls-6"
             x1="705.35999"
             y1="409.53"
             x2="712.65997"
             y2="409.53"
             style="fill:none;stroke:#ffffff;stroke-width:0.25px;stroke-miterlimit:10" /><line
             id="Pylon_Beam_Front-4"
             data-name="Pylon Beam Front"
             class="cls-6"
             x1="705.35999"
             y1="396.85001"
             x2="712.31"
             y2="396.85001"
             style="fill:none;stroke:#ffffff;stroke-width:0.25px;stroke-miterlimit:10" /><path
             id="Pylon-8"
             data-name="Pylon"
             class="cls-4"
             d="m 705.19,433.56 c 0,0 0.17,-37.27 0.17,-37.36 0,-3.82 0.21,-10.05 3.43,-10.05 v 0 c 3.22,0 3.51,6.23 3.51,10.05 0,0.08 1.19,43.44 1.19,43.44"
             style="fill:none;stroke:#ffffff;stroke-width:0.5px;stroke-miterlimit:10" /></g><path
           id="Housing-4"
           data-name="Housing"
           class="cls-2"
           d="m 688.61,421.39 c 0,0 -1.76,-12.18 -1.76,-21 0,-19.22 3.01,-26.97 4.15,-27.47 3.69,-1.19 29.97,-1.08 34.17,0 1.32,0.43 4.15,8.25 4.15,27.47 0,19.22 -3.39,32.89 -4.06,32.89 -0.08,0.08 -12.46,0.04 -12.46,0.04"
           style="fill:none;stroke:#ffffff;stroke-width:0.75px;stroke-miterlimit:10" /></g><g
         id="Slats_Droop-2-2"
         data-name="Slats &amp;amp; Droop"><g
           id="Droop_Flaps-2"
           data-name="Droop Flaps"><polyline
             id="Droop_Box-2"
             data-name="Droop Box"
             class="cls-6"
             points="513.12 285.62 512.93 296.71 582.64 353.33 587.46 346.52"
             style="fill:none;stroke:#ffffff;stroke-width:0.25px;stroke-miterlimit:10" /><line
             id="Line-2"
             data-name="Line"
             class="cls-6"
             x1="549.81"
             y1="315.57999"
             x2="544.82001"
             y2="322.60999"
             style="fill:none;stroke:#ffffff;stroke-width:0.25px;stroke-miterlimit:10" /></g><g
           id="R_Slats_Left"
           data-name="R Slats Left"><polyline
             id="Left_Slats_Box-2"
             data-name="Left Slats Box"
             class="cls-6"
             points="601.51 357.44 601.51 370.22 697.06 440.42 703.06 432"
             style="fill:none;stroke:#ffffff;stroke-width:0.25px;stroke-miterlimit:10" /><line
             id="Right_Line-4"
             data-name="Right Line"
             class="cls-6"
             x1="670.21997"
             y1="408.07999"
             x2="664.35999"
             y2="416.39999"
             style="fill:none;stroke:#ffffff;stroke-width:0.25px;stroke-miterlimit:10" /><line
             id="Left_Line-4"
             data-name="Left Line"
             class="cls-6"
             x1="637.46997"
             y1="383.82999"
             x2="631.13"
             y2="391.98999"
             style="fill:none;stroke:#ffffff;stroke-width:0.25px;stroke-miterlimit:10" /></g><g
           id="R_Slats_Right"
           data-name="R Slats Right"><polyline
             id="Right_Slats_Box-2"
             data-name="Right Slats Box"
             class="cls-6"
             points="719.08 443.76 719.08 456.25 840.33 542.94 845 536.11"
             style="fill:none;stroke:#ffffff;stroke-width:0.25px;stroke-miterlimit:10" /><line
             id="Right_Line-5"
             data-name="Right Line"
             class="cls-6"
             x1="800.66998"
             y1="503.94"
             x2="795.72998"
             y2="511.04999"
             style="fill:none;stroke:#ffffff;stroke-width:0.25px;stroke-miterlimit:10" /><line
             id="Left_Line-5"
             data-name="Left Line"
             class="cls-6"
             x1="762.16998"
             y1="475.56"
             x2="756.23999"
             y2="482.82001"
             style="fill:none;stroke:#ffffff;stroke-width:0.25px;stroke-miterlimit:10" /></g></g><g
         id="Ailerons-2-3"
         data-name="Ailerons"><polyline
           id="Box-2"
           data-name="Box"
           class="cls-4"
           points="806.64 566.78 806.64 556.5 719.08 511.05 716.13 515.08 716.13 527.15"
           style="fill:none;stroke:#ffffff;stroke-width:0.5px;stroke-miterlimit:10" /><polyline
           id="Right_Line-6"
           data-name="Right Line"
           class="cls-6"
           points="766.44 549.18 766.44 538.92 767.74 536.31"
           style="fill:none;stroke:#ffffff;stroke-width:0.25px;stroke-miterlimit:10" /><polyline
           id="Left_Line-6"
           data-name="Left Line"
           class="cls-6"
           points="737.82 536.65 737.93 525.67 740.01 521.92"
           style="fill:none;stroke:#ffffff;stroke-width:0.25px;stroke-miterlimit:10" /></g><g
         id="Flap_Fairings-2-2"
         data-name="Flap Fairings"><path
           id="Right_Flap_Fairing_5"
           data-name="Right Flap Fairing 5"
           class="cls-4"
           d="m 538.66,457.77 c -0.51,6.22 -2.29,9.62 -3.06,10.83 -0.16,0.25 -0.54,0.24 -0.67,-0.03 -0.62,-1.21 -1.98,-4.65 -2.7,-12.53"
           style="fill:none;stroke:#ffffff;stroke-width:0.5px;stroke-miterlimit:10" /><path
           id="Right_Flap_Fairing_4"
           data-name="Right Flap Fairing 4"
           class="cls-4"
           d="m 581.56,472.71 c -0.43,6.81 -1.92,9.99 -2.56,11.07 -0.15,0.25 -0.5,0.28 -0.68,0.05 -0.88,-1.07 -2.94,-4.55 -2.48,-13.42"
           style="fill:none;stroke:#ffffff;stroke-width:0.5px;stroke-miterlimit:10" /><path
           id="Right_Flap_Fairing_3"
           data-name="Right Flap Fairing 3"
           class="cls-4"
           d="m 625.59,490.37 c -0.29,15.36 -2.22,23.87 -2.96,26.6 -0.09,0.34 -0.57,0.37 -0.7,0.04 -1.15,-2.83 -4.29,-12.18 -4.29,-29.83"
           style="fill:none;stroke:#ffffff;stroke-width:0.5px;stroke-miterlimit:10" /><path
           id="Right_Flap_Fairing_2"
           data-name="Right Flap Fairing 2"
           class="cls-4"
           d="m 670.2,508.46 c 0.3,15.88 -1.6,22.51 -2.24,24.88 -0.11,0.42 -0.68,0.47 -0.88,0.08 -1.3,-2.67 -3.47,-8.69 -3.8,-27.93"
           style="fill:none;stroke:#ffffff;stroke-width:0.5px;stroke-miterlimit:10" /><path
           id="Right_Flap_Fairing_1"
           data-name="Right Flap Fairing 1"
           class="cls-4"
           d="m 716.13,527.15 c -0.74,11.93 -2.2,14.39 -2.81,15.27 -0.13,0.19 -0.42,0.21 -0.57,0.04 -0.73,-0.84 -2.31,-6.08 -2.69,-17.97"
           style="fill:none;stroke:#ffffff;stroke-width:0.5px;stroke-miterlimit:10" /></g><g
         id="Flaps_Spoilers-2-4"
         data-name="Flaps &amp;amp; Spoilers"><polyline
           id="Spoilers_Box-2-1"
           data-name="Spoilers Box"
           class="cls-4"
           points="481.47 442.37 481.47 409.67 557.22 430.42 706.39 503.75 707.52 523.38"
           style="fill:none;stroke:#ffffff;stroke-width:0.5px;stroke-miterlimit:10" /><polyline
           id="Flaps_Box-2-5"
           data-name="Flaps Box"
           class="cls-4"
           points="706.87 512.1 557.36 444.65 481.47 425.22"
           style="fill:none;stroke:#ffffff;stroke-width:0.5px;stroke-miterlimit:10" /><line
           id="Right_Spoiler_Line_1"
           data-name="Right Spoiler Line 1"
           class="cls-6"
           x1="673.13"
           y1="487.39999"
           x2="670.32001"
           y2="495.60999"
           style="fill:none;stroke:#ffffff;stroke-width:0.25px;stroke-miterlimit:10" /><polyline
           id="Right_Spoiler_and_Flap_Line-2"
           data-name="Right Spoiler and Flap Line"
           class="cls-6"
           points="647.25 474.67 642.98 483.28 642.98 497.34"
           style="fill:none;stroke:#ffffff;stroke-width:0.25px;stroke-miterlimit:10" /><line
           id="Right_Spoiler_Line_2"
           data-name="Right Spoiler Line 2"
           class="cls-6"
           x1="621.60999"
           y1="462.07001"
           x2="617.42999"
           y2="471.75"
           style="fill:none;stroke:#ffffff;stroke-width:0.25px;stroke-miterlimit:10" /><line
           id="Right_Spoiler_Line_3"
           data-name="Right Spoiler Line 3"
           class="cls-6"
           x1="601.28998"
           y1="452.07999"
           x2="596.47998"
           y2="462.29999"
           style="fill:none;stroke:#ffffff;stroke-width:0.25px;stroke-miterlimit:10" /><line
           id="Right_Spoiler_Line_4"
           data-name="Right Spoiler Line 4"
           class="cls-6"
           x1="577.06"
           y1="440.17001"
           x2="571.23999"
           y2="450.91"
           style="fill:none;stroke:#ffffff;stroke-width:0.25px;stroke-miterlimit:10" /><polyline
           id="Left_Spoiler_and_Flap_Line-2"
           data-name="Left Spoiler and Flap Line"
           class="cls-6"
           points="557.22 430.42 557.36 444.65 557.36 462.95"
           style="fill:none;stroke:#ffffff;stroke-width:0.25px;stroke-miterlimit:10" /><line
           id="Right_Spoiler_Line_5"
           data-name="Right Spoiler Line 5"
           class="cls-6"
           x1="534.56"
           y1="424.20999"
           x2="530.91998"
           y2="437.95001"
           style="fill:none;stroke:#ffffff;stroke-width:0.25px;stroke-miterlimit:10" /><line
           id="Right_Spoiler_Line_6-8"
           data-name="Right Spoiler Line 6"
           class="cls-6"
           x1="508.22"
           y1="416.98999"
           x2="504.03"
           y2="431.03"
           style="fill:none;stroke:#ffffff;stroke-width:0.25px;stroke-miterlimit:10" /></g><path
         id="Walk_Zone-2-3"
         data-name="Walk Zone"
         class="cls-6"
         d="m 473,268.25 28.31,22.08 v 29.25 c 0,0 79.42,39.67 79.42,39.67 l 266.92,190.92 -8.33,15.17 -276.33,-141.32 -63.83,-17.85 c 3.17,-11.42 0.64,-18.81 -21.1,-26.86"
         style="fill:none;stroke:#ffffff;stroke-width:0.25px;stroke-miterlimit:10" /><path
         id="Right_Wing-2-6"
         data-name="Right Wing"
         class="cls-2"
         d="m 479.06,441.72 76.75,20.67 147.41,59.11 154.56,67.67 c 1.53,7.08 2.78,20.56 3,20.56 0.47,0 -0.15,-18.57 -1.64,-46.72 -0.39,-6.33 -4.08,-19.17 -11.25,-24.67 L 594.56,352.34 490.39,267.01 475.28,251.29 473,241.68"
         style="fill:none;stroke:#ffffff;stroke-width:0.75px;stroke-miterlimit:10" /></g></g><g
     id="Cockpit_Windows-9"
     data-name="Cockpit Windows"><path
       class="cls-6"
       d="m 417.25,76.04 4.2,0.2 c 0.07,0 0.13,-0.03 0.17,-0.08 l 1.23,-1.78 c 0,0 0.02,-0.02 0.03,-0.04 l 1.34,-1.19 c 0.08,-0.07 0.09,-0.19 0.02,-0.27 l -1.69,-2.04 c -0.05,-0.06 -0.13,-0.08 -0.2,-0.06 l -1.54,0.4 c 0,0 -0.08,0.03 -0.1,0.07 l -3.61,4.48 c -0.1,0.13 -0.02,0.31 0.14,0.32 z"
       id="path2876"
       style="fill:none;stroke:#ffffff;stroke-width:0.25px;stroke-miterlimit:10" /><path
       class="cls-6"
       d="m 425.48,71.79 7,-3.72 c 0.06,-0.03 0.1,-0.1 0.1,-0.17 v -2.86 c 0,-0.13 -0.12,-0.22 -0.24,-0.19 l -3.33,0.77 c 0,0 -0.05,0.02 -0.07,0.03 l -4.76,3.46 c -0.06,0.04 -0.09,0.12 -0.08,0.19 l 0.25,1.64 c 0,0 0.03,0.09 0.07,0.12 l 0.84,0.7 c 0.06,0.05 0.15,0.06 0.22,0.02 z"
       id="path2878"
       style="fill:none;stroke:#ffffff;stroke-width:0.25px;stroke-miterlimit:10" /><path
       class="cls-6"
       d="m 415.75,77.88 3.43,-0.46 c 0.51,-0.07 0.84,0.54 0.49,0.92 l -1.69,1.89 c 0,0 -0.05,0.05 -0.08,0.07 l -3.97,3.06 c -0.33,0.25 -0.81,0.07 -0.89,-0.33 l -0.2,-1 c -0.03,-0.15 0,-0.3 0.09,-0.43 l 2.42,-3.49 c 0.09,-0.13 0.23,-0.21 0.38,-0.24 z"
       id="path2880"
       style="fill:none;stroke:#ffffff;stroke-width:0.25px;stroke-miterlimit:10" /><path
       class="cls-6"
       d="m 449.64,76.04 -4.2,0.2 c -0.07,0 -0.13,-0.03 -0.17,-0.08 l -1.23,-1.78 c 0,0 -0.02,-0.02 -0.03,-0.04 l -1.34,-1.19 c -0.08,-0.07 -0.09,-0.19 -0.02,-0.27 l 1.69,-2.04 c 0.05,-0.06 0.13,-0.08 0.2,-0.06 l 1.54,0.4 c 0,0 0.08,0.03 0.1,0.07 l 3.61,4.48 c 0.1,0.13 0.02,0.31 -0.14,0.32 z"
       id="path2882"
       style="fill:none;stroke:#ffffff;stroke-width:0.25px;stroke-miterlimit:10" /><path
       class="cls-6"
       d="m 441.41,71.79 -7,-3.72 c -0.06,-0.03 -0.1,-0.1 -0.1,-0.17 v -2.86 c 0,-0.13 0.12,-0.22 0.24,-0.19 l 3.33,0.77 c 0,0 0.05,0.02 0.07,0.03 l 4.76,3.46 c 0.06,0.04 0.09,0.12 0.08,0.19 l -0.25,1.64 c 0,0 -0.03,0.09 -0.07,0.12 l -0.84,0.7 c -0.06,0.05 -0.15,0.06 -0.22,0.02 z"
       id="path2884"
       style="fill:none;stroke:#ffffff;stroke-width:0.25px;stroke-miterlimit:10" /><path
       class="cls-6"
       d="m 451.14,77.88 -3.43,-0.46 c -0.51,-0.07 -0.84,0.54 -0.49,0.92 l 1.69,1.89 c 0,0 0.05,0.05 0.08,0.07 l 3.97,3.06 c 0.33,0.25 0.81,0.07 0.89,-0.33 l 0.2,-1 c 0.03,-0.15 0,-0.3 -0.09,-0.43 l -2.42,-3.49 c -0.09,-0.13 -0.23,-0.21 -0.38,-0.24 z"
       id="path2886"
       style="fill:none;stroke:#ffffff;stroke-width:0.25px;stroke-miterlimit:10" /></g><polygon
     id="Transparent_White_Fill"
     data-name="Transparent White Fill"
     class="cls-7"
     points="467.22,571 467.22,158.33 461.25,104.78 405.08,104.78 399.67,158.33 399.67,571 402.92,624.56 462.78,624.56 "
     style="fill-rule:evenodd;clip-rule:evenodd;stroke-linecap:round;stroke-linejoin:round;stroke-miterlimit:10;opacity:0.08;fill:#ffffff" /><g
     id="Aft_Upper_Doors"
     data-name="Aft Upper Doors"
     style="fill-rule:evenodd;clip-rule:evenodd;stroke-linecap:round;stroke-linejoin:round;stroke-miterlimit:10"><path
       id="AFT-UPP_R_Door"
       data-name="AFT-UPP R Door"
       class="cls-5"
       d="m 467.22,562.27 h -6.75 c -0.92,0 -1.66,-0.58 -1.66,-1.3 v -5.71 c 0,-0.72 0.74,-1.3 1.66,-1.3 h 6.75"
       style="fill:none;stroke:#68c13a;stroke-width:2px;stroke-miterlimit:10" /><path
       id="AFT-UPP_L_Door"
       data-name="AFT-UPP L Door"
       class="cls-5"
       d="m 399.67,562.27 h 6.86 c 0.92,0 1.66,-0.58 1.66,-1.3 v -5.71 c 0,-0.72 -0.74,-1.3 -1.66,-1.3 h -6.86"
       style="fill:none;stroke:#68c13a;stroke-width:2px;stroke-miterlimit:10" /></g><g
     id="Mid_Upper_Doors"
     data-name="Mid Upper Doors"
     style="fill-rule:evenodd;clip-rule:evenodd;stroke-linecap:round;stroke-linejoin:round;stroke-miterlimit:10"><path
       id="MID-UPP_R_Door"
       data-name="MID-UPP R Door"
       class="cls-5"
       d="m 467.22,463.47 h -6.75 c -0.92,0 -1.66,-0.58 -1.66,-1.3 v -5.71 c 0,-0.72 0.74,-1.3 1.66,-1.3 h 6.75"
       style="fill:none;stroke:#68c13a;stroke-width:2px;stroke-miterlimit:10" /><path
       id="MID-UPP_L_Door"
       data-name="MID-UPP L Door"
       class="cls-5"
       d="m 399.67,463.47 h 6.86 c 0.92,0 1.66,-0.58 1.66,-1.3 v -5.71 c 0,-0.72 -0.74,-1.3 -1.66,-1.3 h -6.86"
       style="fill:none;stroke:#68c13a;stroke-width:2px;stroke-miterlimit:10" /></g><g
     id="Forward_Upper_Doors"
     data-name="Forward Upper Doors"
     style="fill-rule:evenodd;clip-rule:evenodd;stroke-linecap:round;stroke-linejoin:round;stroke-miterlimit:10"><path
       id="FWD-UPP_R_Door"
       data-name="FWD-UPP R Door"
       class="cls-5"
       d="m 467.22,250.71 h -6.75 c -0.92,0 -1.66,-0.58 -1.66,-1.3 v -5.71 c 0,-0.72 0.74,-1.3 1.66,-1.3 h 6.75"
       style="fill:none;stroke:#68c13a;stroke-width:2px;stroke-miterlimit:10" /><path
       id="FWD-UPP_L_Door"
       data-name="FWD-UPP L Door"
       class="cls-5"
       d="m 399.67,250.71 h 6.86 c 0.92,0 1.66,-0.58 1.66,-1.3 v -5.71 c 0,-0.72 -0.74,-1.3 -1.66,-1.3 h -6.86"
       style="fill:none;stroke:#68c13a;stroke-width:2px;stroke-miterlimit:10" /></g><polygon
     id="White_Outline"
     data-name="White Outline"
     class="cls-3"
     points="467.22,571 467.22,158.33 461.25,104.78 405.64,104.66 399.67,158.22 399.67,570.88 404.11,624.33 462.78,624.44 "
     style="fill-rule:evenodd;clip-rule:evenodd;stroke-linecap:round;stroke-linejoin:round;stroke-miterlimit:10;fill:none;stroke:#ffffff;stroke-width:2px" /></g></g>
</svg>
