<?xml version="1.0" encoding="UTF-8" standalone="no"?>
<!-- Copyright (c) 2023-2024 FlyByWire Simulations -->
<!-- SPDX-License-Identifier: GPL-3.0 -->

<!DOCTYPE svg PUBLIC "-//W3C//DTD SVG 1.1//EN" "http://www.w3.org/Graphics/SVG/1.1/DTD/svg11.dtd">
<svg width="100%" height="100%" viewBox="0 0 657 150" version="1.1" xmlns="http://www.w3.org/2000/svg" xmlns:xlink="http://www.w3.org/1999/xlink" xml:space="preserve" xmlns:serif="http://www.serif.com/" style="fill-rule:evenodd;clip-rule:evenodd;stroke-linecap:round;stroke-linejoin:round;stroke-miterlimit:10;">
    <g id="Plane">
        <g id="BASE_SVG" opacity="0.75">
            <path id="Fuselage" d="M747.651,74.912L747.651,77.602C735.481,81.542 717.771,86.852 705.791,88.712C693.811,90.572 657.571,92.932 633.351,99.152C594.021,110.482 553.791,112.042 534.681,112.042L132.901,112.042C124.721,112.042 87.301,109.912 56.681,103.602C26.431,97.382 3.011,82.562 3.011,72.522L3.011,72.472C3.011,62.432 26.431,47.602 56.681,41.382C87.311,35.082 124.721,32.942 132.901,32.942L534.681,32.942C553.791,32.942 594.011,34.502 633.351,45.832C657.571,52.052 693.451,54.352 705.791,56.272C717.771,58.142 735.481,63.442 747.651,67.382L747.651,70.072" style="fill:none;stroke:white;stroke-width:2px;"/>
            <g id="Wide_Fuselage">
                <path id="L_Wide_Fuselage" d="M461.291,112.052C458.071,112.732 453.451,113.812 447.821,114.532C425.041,117.442 410.181,117.922 399.781,117.892C368.821,117.812 353.341,117.772 333.571,116.942C312.431,116.052 284.761,114.592 252.061,112.052" style="fill:none;stroke:white;stroke-width:1px;"/>
                <path id="R_Wide_Fuselage" d="M461.291,32.942C458.071,32.262 453.451,31.182 447.821,30.462C425.041,27.552 410.181,27.072 399.781,27.102C368.821,27.182 353.341,27.222 333.571,28.052C312.431,28.942 284.761,30.402 252.061,32.942" style="fill:none;stroke:white;stroke-width:1px;"/>
            </g>
            <path id="Rudder" d="M574.021,72.492C574.021,70.182 597.351,63.942 633.791,63.942C651.901,63.942 784.991,72.412 784.991,72.412L784.991,72.592C784.991,72.592 651.901,81.062 633.791,81.062C597.351,81.062 574.021,74.812 574.021,72.502L574.021,72.492Z" style="fill:none;stroke:white;stroke-width:2px;"/>
            <g id="Horizontal_Stablizer">
                <g id="Left_Horizontal_Stablizer">
                    <path id="Left_idk_what_this_is" d="M653.621,95.442L709.291,172.612L728.791,161.772L686.621,91.112" style="fill:none;stroke:white;stroke-width:0.5px;"/>
                    <g id="Left_Elevator">
                    </g>
                    <path id="Left_Stablizer" d="M726.011,84.862L781.121,234.502L754.291,229.892C746.121,227.672 737.901,224.452 732.351,218.062L644.241,104.062C641.911,101.062 639.571,99.012 634.751,98.822" style="fill:none;stroke:white;stroke-width:2px;"/>
                </g>
                <g id="Right_Horizontal_Stablizer">
                    <path id="Right_idk_what_this_is" d="M653.621,49.552L709.291,-27.618L728.791,-16.778L686.621,53.882" style="fill:none;stroke:white;stroke-width:0.5px;"/>
                    <g id="Right_Elevator">
                    </g>
                    <path id="Right_Stablizer" d="M726.011,60.132L781.121,-89.508L754.291,-84.898C746.121,-82.678 737.901,-79.458 732.351,-73.068L644.241,40.932C641.911,43.932 639.571,45.982 634.751,46.172" style="fill:none;stroke:white;stroke-width:2px;"/>
                </g>
            </g>
            <g id="Wings">
                <g id="Left_Wing">
                    <g id="ENG_2">
                    </g>
                    <g id="ENG_1">
                    </g>
                    <g id="Slats_Droop">
                    </g>
                    <g id="Ailerons">
                    </g>
                    <g id="Flap_Fairings">
                    </g>
                    <g id="Flaps_Spoilers">
                        <path id="Spoilers_Box" d="M400.491,120.522L367.791,120.522L388.541,196.272L461.871,345.442L481.501,346.572" style="fill:none;stroke:white;stroke-width:1px;"/>
                        <path id="Flaps_Box" d="M470.221,345.922L402.771,196.412L383.341,120.522" style="fill:none;stroke:white;stroke-width:1px;"/>
                        <path id="Left_Spoiler_Line_6" d="M375.111,147.272L389.151,143.082" style="fill:none;stroke:white;stroke-width:0.5px;"/>
                    </g>
                    <path id="Walk_Zone" d="M226.371,112.052L248.451,140.362L277.701,140.362L317.371,219.782L508.291,486.692L523.461,478.362L382.141,202.032L364.291,138.202C352.871,141.372 345.481,138.842 337.431,117.102" style="fill:none;stroke:white;stroke-width:0.5px;"/>
                    <path id="Left_Wing-2" d="M399.841,118.112L420.511,194.862L479.621,342.272L547.291,496.832C554.371,498.362 567.851,499.612 567.851,499.832C567.851,500.302 549.281,499.682 521.131,498.192C514.801,497.802 501.961,494.112 496.461,486.942L310.461,233.612L225.131,129.442L209.411,114.332L199.801,112.052" style="fill:none;stroke:white;stroke-width:2px;"/>
                </g>
                <g id="Right_Wing">
                    <g id="ENG_3">
                    </g>
                    <g id="ENG_4">
                    </g>
                    <g id="Slats_Droop-2">
                    </g>
                    <g id="Ailerons-2">
                    </g>
                    <g id="Flap_Fairings-2">
                    </g>
                    <g id="Flaps_Spoilers-2">
                        <path id="Spoilers_Box-2" d="M400.491,24.472L367.791,24.472L388.541,-51.278L461.871,-200.448L481.501,-201.578" style="fill:none;stroke:white;stroke-width:1px;"/>
                        <path id="Flaps_Box-2" d="M470.221,-200.928L402.771,-51.418L383.341,24.472" style="fill:none;stroke:white;stroke-width:1px;"/>
                        <path id="Right_Spoiler_Line_6" d="M375.111,-2.278L389.151,1.912" style="fill:none;stroke:white;stroke-width:0.5px;"/>
                    </g>
                    <path id="Walk_Zone-2" d="M226.371,32.942L248.451,4.632L277.701,4.632L317.371,-74.788L508.291,-341.708L523.461,-333.378L382.141,-57.048L364.291,6.782C352.871,3.612 345.481,6.142 337.431,27.882" style="fill:none;stroke:white;stroke-width:0.5px;"/>
                    <path id="Right_Wing-2" d="M399.841,26.882L420.511,-49.868L479.621,-197.278L547.291,-351.838C554.371,-353.368 567.851,-354.618 567.851,-354.838C567.851,-355.308 549.281,-354.688 521.131,-353.198C514.801,-352.808 501.961,-349.118 496.461,-341.948L310.461,-88.618L225.131,15.552L209.411,30.662L199.801,32.942" style="fill:none;stroke:white;stroke-width:2px;"/>
                </g>
            </g>
            <g id="Cockpit_Windows">
                <path id="path1154" d="M34.161,88.692L34.361,84.492C34.361,84.422 34.331,84.362 34.281,84.322L32.501,83.092C32.501,83.092 32.481,83.072 32.461,83.062L31.271,81.722C31.201,81.642 31.081,81.632 31.001,81.702L28.961,83.392C28.901,83.442 28.881,83.522 28.901,83.592L29.301,85.132C29.301,85.132 29.331,85.212 29.371,85.232L33.851,88.842C33.981,88.942 34.161,88.862 34.171,88.702L34.161,88.692Z" style="fill:none;stroke:white;stroke-width:0.5px;"/>
                <path id="path1156" d="M29.911,80.462L26.191,73.462C26.161,73.402 26.091,73.362 26.021,73.362L23.161,73.362C23.031,73.362 22.941,73.482 22.971,73.602L23.741,76.932C23.741,76.932 23.761,76.982 23.771,77.002L27.231,81.762C27.271,81.822 27.351,81.852 27.421,81.842L29.061,81.592C29.061,81.592 29.151,81.562 29.181,81.522L29.881,80.682C29.931,80.622 29.941,80.532 29.901,80.462L29.911,80.462Z" style="fill:none;stroke:white;stroke-width:0.5px;"/>
                <path id="path1158" d="M36.001,90.192L35.541,86.762C35.471,86.252 36.081,85.922 36.461,86.272L38.351,87.962C38.351,87.962 38.401,88.012 38.421,88.042L41.481,92.012C41.731,92.342 41.551,92.822 41.151,92.902L40.151,93.102C40.001,93.132 39.851,93.102 39.721,93.012L36.231,90.592C36.101,90.502 36.021,90.362 35.991,90.212L36.001,90.192Z" style="fill:none;stroke:white;stroke-width:0.5px;"/>
                <path id="path1160" d="M34.161,56.302L34.361,60.502C34.361,60.572 34.331,60.632 34.281,60.672L32.501,61.902C32.501,61.902 32.481,61.922 32.461,61.932L31.271,63.272C31.201,63.352 31.081,63.362 31.001,63.292L28.961,61.602C28.901,61.552 28.881,61.472 28.901,61.402L29.301,59.862C29.301,59.862 29.331,59.782 29.371,59.762L33.851,56.152C33.981,56.052 34.161,56.132 34.171,56.292L34.161,56.302Z" style="fill:none;stroke:white;stroke-width:0.5px;"/>
                <path id="path1162" d="M29.911,64.532L26.191,71.532C26.161,71.592 26.091,71.632 26.021,71.632L23.161,71.632C23.031,71.632 22.941,71.512 22.971,71.392L23.741,68.062C23.741,68.062 23.761,68.012 23.771,67.992L27.231,63.232C27.271,63.172 27.351,63.142 27.421,63.152L29.061,63.402C29.061,63.402 29.151,63.432 29.181,63.472L29.881,64.312C29.931,64.372 29.941,64.462 29.901,64.532L29.911,64.532Z" style="fill:none;stroke:white;stroke-width:0.5px;"/>
                <path id="path1164" d="M36.001,54.802L35.541,58.232C35.471,58.742 36.081,59.072 36.461,58.722L38.351,57.032C38.351,57.032 38.401,56.982 38.421,56.952L41.481,52.982C41.731,52.652 41.551,52.172 41.151,52.092L40.151,51.892C40.001,51.862 39.851,51.892 39.721,51.982L36.231,54.402C36.101,54.492 36.021,54.632 35.991,54.782L36.001,54.802Z" style="fill:none;stroke:white;stroke-width:0.5px;"/>
            </g>
        </g>
        <g id="Aft_Doors" opacity="0.75">
            <path id="AFT_R_Door" d="M572.791,34.772L572.791,42.402C572.791,43.562 572.211,44.492 571.491,44.492L565.781,44.492C565.061,44.492 564.481,43.552 564.481,42.402L564.481,34.062" style="fill:none;stroke:rgb(104,193,58);stroke-width:2px;"/>
            <path id="AFT_L_Door" d="M572.791,110.222L572.791,102.602C572.791,101.442 572.211,100.512 571.491,100.512L565.781,100.512C565.061,100.512 564.481,101.452 564.481,102.602L564.481,110.922" style="fill:none;stroke:rgb(104,193,58);stroke-width:2px;"/>
        </g>
        <g id="Mid_Aft_Doors" opacity="0.75">
            <path id="MID-AFT_R_Door" d="M476.511,32.942L476.511,40.852C476.511,41.922 475.931,42.792 475.211,42.792L469.501,42.792C468.781,42.792 468.201,41.922 468.201,40.852L468.201,32.942" style="fill:none;stroke:rgb(104,193,58);stroke-width:2px;"/>
            <path id="MID-AFT_L_Door" d="M476.511,112.052L476.511,104.022C476.511,102.952 475.931,102.082 475.211,102.082L469.501,102.082C468.781,102.082 468.201,102.952 468.201,104.022L468.201,112.052" style="fill:none;stroke:rgb(104,193,58);stroke-width:2px;"/>
        </g>
        <g id="Mid_Foward_Doors" opacity="0.75">
            <path id="MID-FWD_R_Door" d="M179.931,32.942L179.931,40.852C179.931,41.922 179.351,42.792 178.631,42.792L172.921,42.792C172.201,42.792 171.621,41.922 171.621,40.852L171.621,32.942" style="fill:none;stroke:rgb(104,193,58);stroke-width:2px;"/>
            <path id="MID-FWD_L_Door" d="M179.931,112.052L179.931,104.022C179.931,102.952 179.351,102.082 178.631,102.082L172.921,102.082C172.201,102.082 171.621,102.952 171.621,104.022L171.621,112.052" style="fill:none;stroke:rgb(104,193,58);stroke-width:2px;"/>
        </g>
        <g id="Foward_Doors" opacity="0.75">
            <path id="FWD_R_Door" d="M74.011,38.162L74.011,43.632C74.011,44.792 73.431,45.722 72.711,45.722L67.001,45.722C66.281,45.722 65.701,44.782 65.701,43.632L65.701,39.682" style="fill:none;stroke:rgb(104,193,58);stroke-width:2px;"/>
            <path id="FWD_L_Door" d="M74.011,106.582L74.011,100.982C74.011,99.822 73.431,98.892 72.711,98.892L67.001,98.892C66.281,98.892 65.701,99.832 65.701,100.982L65.701,105.332" style="fill:none;stroke:rgb(104,193,58);stroke-width:2px;"/>
        </g>
    </g>
</svg>
