<?xml version="1.0" encoding="utf-8"?>
<!-- Copyright (c) 2023-2024 FlyByWire Simulations -->
<!-- SPDX-License-Identifier: GPL-3.0 -->

<!-- Generator: Adobe Illustrator 27.5.0, SVG Export Plug-In . SVG Version: 6.00 Build 0)  -->
<svg version="1.1" id="Lager_1" xmlns="http://www.w3.org/2000/svg" xmlns:xlink="http://www.w3.org/1999/xlink" x="0px" y="0px"
	 viewBox="0 0 136.1 136.1" style="enable-background:new 0 0 136.1 136.1;" xml:space="preserve">
<style type="text/css">
	.st0{fill-rule:evenodd;clip-rule:evenodd;fill:#DF362C;}
	.st1{fill-rule:evenodd;clip-rule:evenodd;fill:#A6302B;}
	.st2{fill-rule:evenodd;clip-rule:evenodd;fill:#9BA2AA;}
	.st3{fill-rule:evenodd;clip-rule:evenodd;fill:#D7DADF;}
</style>
<g id="Kantigare">
	<path class="st0" d="M68.1,63.2c1.4,0,19.4-17.7,19.4-19.4c0-3.1-16-43.8-19.4-43.8C64.6,21,63.9,42.1,68.1,63.2z"/>
	<path class="st1" d="M68.1,0c-2.9,0-14.8,28.7-18.5,39.7c-0.5,1.3-0.9,2.7-1.2,4.1c0,1.7,18.3,19.4,19.7,19.4V0z"/>
	<path class="st2" d="M72.9,68.2c0,1.4,17.7,19.4,19.4,19.4c3.1,0,43.8-16,43.8-19.4C115,64.6,94,63.9,72.9,68.2z"/>
	<path class="st3" d="M136.1,68.2c0-2.8-28.7-14.8-39.7-18.5c-1.3-0.5-2.7-0.9-4-1.2c-1.7,0-19.4,18.3-19.4,19.7H136.1z"/>
	<path class="st2" d="M67.9,72.9c-1.4,0-19.4,17.7-19.4,19.3c0,3.1,16,43.8,19.4,43.8C71.4,115,72.1,94,67.9,72.9z"/>
	<path class="st3" d="M67.9,136.1c2.8,0,14.8-28.7,18.6-39.7c0.5-1.3,0.9-2.7,1.1-4.1c0-1.7-18.3-19.3-19.7-19.3V136.1z"/>
	<path class="st3" d="M63.2,67.9c0-1.4-17.7-19.4-19.4-19.4C40.7,48.6,0,64.6,0,67.9C21,71.4,42.1,72.2,63.2,67.9z"/>
	<path class="st2" d="M0,67.9c0,2.8,28.7,14.8,39.7,18.6c1.3,0.5,2.7,0.9,4.1,1.2c1.7,0,19.4-18.3,19.4-19.7H0z"/>
</g>
</svg>
