{"accessors":[{"bufferView":0,"componentType":5126,"count":664,"min":[-0.5719958543777466,3.438021421432495,-13.610136032104493],"max":[0.577104926109314,3.8509674072265627,-11.07213020324707],"type":"VEC3","name":"node7.004_vertices#0_POSITION"},{"bufferView":0,"byteOffset":12,"componentType":5120,"count":664,"type":"VEC4","name":"node7.004_vertices#0_TANGENT"},{"bufferView":0,"byteOffset":16,"componentType":5120,"count":664,"type":"VEC4","name":"node7.004_vertices#0_NORMAL"},{"bufferView":0,"byteOffset":20,"componentType":5122,"count":664,"type":"VEC2","name":"node7.004_vertices#0_TEXCOORD_0"},{"bufferView":0,"byteOffset":24,"componentType":5122,"count":664,"type":"VEC2","name":"node7.004_vertices#0_TEXCOORD_1"},{"bufferView":0,"byteOffset":28,"componentType":5123,"count":664,"type":"VEC4","name":"node7.004_vertices#0_COLOR_0"},{"bufferView":1,"componentType":5123,"count":3786,"type":"SCALAR","name":"node7.004_indices#0"}],"asset":{"generator":"Khronos glTF Blender I/O v3.2.43 and Asobo Studio MSFS Blender I/O v1.1.6","version":"2.0","extensions":{"ASOBO_asset_optimized":{"BoundingBoxMax":[0.577104926109314,3.8509674072265627,-11.07213020324707],"BoundingBoxMin":[-0.5719958543777466,3.438021421432495,-13.610136032104493],"MajorVersion":4,"MinorVersion":4,"UseCheckerboardMaterialForMissingTextures":true,"UseOnlyFilenameForImageURI":true},"ASOBO_normal_map_convention":{"tangent_space_convention":"DirectX"}}},"bufferViews":[{"buffer":0,"byteLength":23904,"byteStride":36,"target":34962,"name":"BufferViewVertexND"},{"buffer":0,"byteLength":7572,"byteOffset":23904,"target":34963,"name":"BufferViewIndex"}],"extensionsRequired":["MSFT_texture_dds"],"materials":[{"name":"Jetwave","normalTexture":{"index":0},"occlusionTexture":{"index":1},"pbrMetallicRoughness":{"baseColorTexture":{"index":2},"metallicRoughnessTexture":{"index":1}}}],"meshes":[{"primitives":[{"attributes":{"COLOR_0":5,"NORMAL":2,"POSITION":0,"TANGENT":1,"TEXCOORD_0":3,"TEXCOORD_1":4},"indices":6,"material":0,"mode":4,"extras":{"ASOBO_primitive":{"PrimitiveCount":1262,"VertexType":"VTX","VertexVersion":2}}}],"name":"node7.004"}],"nodes":[{"mesh":0,"name":"HoneywellJetwave"}],"scene":0,"scenes":[{"nodes":[0],"name":"Scene"}],"textures":[{"extensions":{"MSFT_texture_dds":{"source":0}}},{"extensions":{"MSFT_texture_dds":{"source":1}}},{"extensions":{"MSFT_texture_dds":{"source":2}}}],"samplers":[{"magFilter":9729,"minFilter":9987,"wrapS":10497,"wrapT":10497}],"extensionsUsed":["ASOBO_normal_map_convention","MSFT_texture_dds","ASOBO_asset_optimized"],"buffers":[{"byteLength":31476,"uri":"HoneywellJetwave.bin"}],"images":[{"uri":"HONEYWELLJETWAVE_NORMAL.PNG.DDS","name":"HoneywellJetwave_normal","extras":"ASOBO_image_converted_meta"},{"uri":"HONEYWELLJETWAVE_METAL.PNG.DDS","name":"HoneywellJetwave_metal","extras":"ASOBO_image_converted_meta"},{"uri":"HONEYWELLJETWAVE_ALBEDO.PNG.DDS","name":"HoneywellJetwave_albedo","extras":"ASOBO_image_converted_meta"}]}
