{
  "accessors": [
    {
      "bufferView": 0,
      "componentType": 5126,
      "count": 4,
      "min": [
        -0.010167984291911125,
        -0.0036733795423060656,
        0
      ],
      "max": [
        0.010229171253740788,
        0.0037012682296335697,
        0
      ],
      "type": "VEC3",
      "name": "x0_PUSH_OVHD_ADIRS_SEQ1_vertices#0_POSITION"
    },
    {
      "bufferView": 0,
      "byteOffset": 12,
      "componentType": 5120,
      "count": 4,
      "type": "VEC4",
      "name": "x0_PUSH_OVHD_ADIRS_SEQ1_vertices#0_TANGENT"
    },
    {
      "bufferView": 0,
      "byteOffset": 16,
      "componentType": 5120,
      "count": 4,
      "type": "VEC4",
      "name": "x0_PUSH_OVHD_ADIRS_SEQ1_vertices#0_NORMAL"
    },
    {
      "bufferView": 0,
      "byteOffset": 20,
      "componentType": 5122,
      "count": 4,
      "type": "VEC2",
      "name": "x0_PUSH_OVHD_ADIRS_SEQ1_vertices#0_TEXCOORD_0"
    },
    {
      "bufferView": 0,
      "byteOffset": 24,
      "componentType": 5122,
      "count": 4,
      "type": "VEC2",
      "name": "x0_PUSH_OVHD_ADIRS_SEQ1_vertices#0_TEXCOORD_1"
    },
    {
      "bufferView": 0,
      "byteOffset": 28,
      "componentType": 5123,
      "count": 4,
      "type": "VEC4",
      "name": "x0_PUSH_OVHD_ADIRS_SEQ1_vertices#0_COLOR_0"
    },
    {
      "bufferView": 1,
      "componentType": 5123,
      "count": 6,
      "type": "SCALAR",
      "name": "x0_PUSH_OVHD_ADIRS_SEQ1_indices#0"
    }
  ],
  "asset": {
    "generator": "Extended Khronos glTF Blender I/O v1.0.0",
    "version": "2.0",
    "extensions": {
      "ASOBO_asset_optimized": {
        "BoundingBoxMax": [
          0.010229171253740788,
          0.0037012682296335697,
          0
        ],
        "BoundingBoxMin": [
          -0.010167984291911125,
          -0.0036733795423060656,
          0
        ],
        "MajorVersion": 4,
        "MinorVersion": 2
      },
      "ASOBO_normal_map_convention": {
        "tangent_space_convention": "DirectX"
      }
    }
  },
  "bufferViews": [
    {
      "buffer": 0,
      "byteLength": 144,
      "byteStride": 36,
      "target": 34962,
      "name": "BufferViewVertexND"
    },
    {
      "buffer": 0,
      "byteLength": 12,
      "byteOffset": 144,
      "target": 34963,
      "name": "BufferViewIndex"
    }
  ],
  "extensionsUsed": [
    "ASOBO_normal_map_convention",
    "ASOBO_asset_optimized"
  ],
  "materials": [],
  "meshes": [
    {
      "primitives": [
        {
          "attributes": {
            "COLOR_0": 5,
            "NORMAL": 2,
            "POSITION": 0,
            "TANGENT": 1,
            "TEXCOORD_0": 3,
            "TEXCOORD_1": 4
          },
          "indices": 6,
          "material": "TEXT",
          "mode": 4,
          "extras": {
            "ASOBO_primitive": {
              "PrimitiveCount": 2,
              "VertexType": "VTX",
              "VertexVersion": 2
            }
          }
        }
      ],
      "name": "x0_PUSH_OVHD_ADIRS_SEQ1"
    }
  ],
  "nodes": [
    {
      "translation": [
        0.31837600469589233,
        2.5597400665283203,
        10.88759994506836
      ],
      "rotation": [
        -0.5596325397491455,
        0.004121774807572365,
        -0.0025288655888289213,
        0.8287267684936523
      ],
      "mesh": 0,
      "name": "PUSH_OVHD_ADIRS_SEQ1"
    }
  ],
  "scene": 0,
  "scenes": [
    {
      "nodes": [
        0
      ],
      "name": "Scene"
    }
  ],
  "buffers": [
    {
      "byteLength": 156,
      "uri": "onbat.bin"
    }
  ]
}