<?xml version="1.0" encoding="utf-8"?>
<!-- Generator: Adobe Illustrator 24.3.0, SVG Export Plug-In . SVG Version: 6.00 Build 0)  -->
<svg version="1.1" id="Layer_1" xmlns="http://www.w3.org/2000/svg" xmlns:xlink="http://www.w3.org/1999/xlink" x="0px" y="0px"
	 viewBox="0 0 600 600" style="enable-background:new 0 0 600 600;" xml:space="preserve">
<style type="text/css">
	.st0{fill:#FFFFFF;}
	.st1{font-family:'B612-Regular';}
	.st2{font-size:22.3952px;}
	.st3{fill:#00C800;}
	.st4{fill:#00C900;}
	.st5{fill:#B85C00;}
	.st6{fill:#009595;}
	.st7{fill:#FFFFFF;stroke:#FFFFFF;stroke-width:2;stroke-miterlimit:10;}
	.st8{fill:none;stroke:#FFFFFF;stroke-miterlimit:10;}
	.st9{font-size:15.1763px;}
	.st10{fill:none;stroke:#B91313;stroke-width:4;stroke-miterlimit:10;}
	.st11{fill:none;stroke:#FFFFFF;stroke-width:2;stroke-miterlimit:10;}
	.st12{fill:none;stroke:#FFFFFF;stroke-width:4;stroke-miterlimit:10;}
	.st13{fill:none;stroke:#00B700;stroke-width:2;stroke-miterlimit:10;}
</style>
<rect x="0.2" y="0.21" width="599.8" height="599.79"/>
<text transform="matrix(1 0 0 1 17.1401 42.7261)" class="st0 st1 st2">CAB PRESS</text>
<text transform="matrix(1 0 0 1 455.1401 333.7261)" class="st0 st1 st2">SAFETY</text>
<text transform="matrix(1 0 0 1 434.1401 487.7261)" class="st0 st1 st2">PACK 2</text>
<text transform="matrix(1 0 0 1 177.1401 403.7261)" class="st0 st1 st2">VENT</text>
<text transform="matrix(1 0 0 1 80.1401 487.7261)" class="st0 st1 st2">PACK 1</text>
<text transform="matrix(1 0 0 1 184.1401 331.7261)" class="st3 st1 st2">SYS1</text>
<text transform="matrix(1 0 0 1 133.1401 427.7261)" class="st0 st1 st2">INLET OUTLET</text>
<text transform="matrix(1 0 0 1 207.1401 42.7261)" class="st0 st1 st2">LDG ELEV</text>
<text transform="matrix(1 0 0 1 136.1401 102.7261)" class="st0 st1 st2">ΔP</text>
<text transform="matrix(1 0 0 1 280.1401 102.7261)" class="st0 st1 st2">V/S</text>
<text transform="matrix(1 0 0 1 403.1401 102.7261)" class="st0 st1 st2">CAB ALT</text>
<text transform="matrix(1 0 0 1 362.1401 42.7261)" class="st4 st1 st2">AUTO</text>
<text transform="matrix(1 0 0 1 484.1401 42.7261)" class="st5 st1 st2">XXX</text>
<text transform="matrix(1 0 0 1 541.1401 43.7261)" class="st6 st1 st2">FT</text>
<text transform="matrix(1 0 0 1 437.1401 127.7261)" class="st6 st1 st2">FT</text>
<text transform="matrix(1 0 0 1 259.1401 127.7261)" class="st6 st1 st2">FT/MIN</text>
<text transform="matrix(1 0 0 1 132.1401 127.7261)" class="st6 st1 st2">PSI</text>
<line class="st7" x1="13.39" y1="48.97" x2="137" y2="48.97"/>
<path class="st8" d="M187.41,155.69c-10.13-7.65-22.74-12.19-36.41-12.19c-16.62,0-31.68,6.7-42.61,17.55
	C97.34,172.01,90.5,187.21,90.5,204c0,13.9,4.7,26.69,12.57,36.9"/>
<line class="st8" x1="112.5" y1="165.5" x2="108.39" y2="161.05"/>
<line class="st8" x1="177.5" y1="157.5" x2="180.84" y2="151.37"/>
<line class="st8" x1="104.5" y1="229.5" x2="98.59" y2="234.21"/>
<text transform="matrix(1.1151 0 0 1 166 172.6123)" class="st0 st1 st9">8</text>
<text transform="matrix(1.1151 0 0 1 299 166.6123)" class="st0 st1 st9">2</text>
<text transform="matrix(1.1151 0 0 1 298 251.6123)" class="st0 st1 st9">2</text>
<text transform="matrix(1.1151 0 0 1 251 208.6123)" class="st0 st1 st9">0</text>
<text transform="matrix(1.1151 0 0 1 107 234.6123)" class="st0 st1 st9">0</text>
<line class="st10" x1="104.5" y1="239.78" x2="110" y2="246"/>
<line class="st10" x1="187.5" y1="156.78" x2="193" y2="163"/>
<line class="st10" x1="301.1" y1="143.82" x2="309.4" y2="143.96"/>
<line class="st10" x1="300.1" y1="261.82" x2="308.4" y2="261.96"/>
<path class="st8" d="M486.41,155.69c-10.13-7.65-22.74-12.19-36.41-12.19c-16.62,0-31.68,6.7-42.61,17.55
	c-11.05,10.96-17.89,26.16-17.89,42.95c0,13.9,4.7,26.69,12.57,36.9"/>
<line class="st8" x1="411.5" y1="165.5" x2="407.39" y2="161.05"/>
<line class="st8" x1="403.5" y1="229.5" x2="397.59" y2="234.21"/>
<text transform="matrix(1.1151 0 0 1 455 172.6123)" class="st0 st1 st9">10</text>
<text transform="matrix(1.1151 0 0 1 406 234.6123)" class="st0 st1 st9">0</text>
<line class="st10" x1="403.5" y1="239.78" x2="409" y2="246"/>
<line class="st10" x1="486.5" y1="156.78" x2="492" y2="163"/>
<path class="st8" d="M299.8,256v7.5c0,0-59.8-3.5-59.8-60.5s60-60,60-60v7.5"/>
<line class="st8" x1="262" y1="240.9" x2="257.53" y2="245.96"/>
<line class="st8" x1="262" y1="166" x2="257.53" y2="160.89"/>
<line class="st8" x1="246.12" y1="203.25" x2="240" y2="203"/>
<polyline class="st11" points="144,449 144,437 104.5,437 104.5,298 494.33,298 494.33,312 "/>
<polyline class="st11" points="494.33,337 494.33,353 506.33,353 "/>
<polyline class="st11" points="506,388 494.33,388 494.33,437.33 434.67,437.33 "/>
<polyline class="st11" points="180,447 180,437.33 234.33,437.33 234.33,449 "/>
<path class="st11" d="M270,449v-11.67h104c0,0,0.88-10.65,6.06-23.01C387.21,397.28,402.53,377,435,377"/>
<line class="st11" x1="373" y1="411" x2="380.06" y2="414.33"/>
<line class="st11" x1="387" y1="390" x2="392.12" y2="394.93"/>
<line class="st11" x1="410" y1="376" x2="411.49" y2="381.28"/>
<path class="st11" d="M434.67,369.3"/>
<line class="st12" x1="434.2" y1="369.3" x2="434.2" y2="378"/>
<polygon class="st13" points="120,446.5 124.47,454.25 128.95,462 120,462 111.05,462 115.53,454.25 "/>
<polygon class="st13" points="474,446.5 478.47,454.25 482.95,462 474,462 465.05,462 469.53,454.25 "/>
</svg>
