<svg id="Layer_1" data-name="Layer 1" xmlns="http://www.w3.org/2000/svg" viewBox="0 0 575.35 548.92">
  <defs>
    <style>
      .cls-1, .cls-2, .cls-3, .cls-4, .cls-5 {
        fill: none;
        stroke-miterlimit: 10;
      }

      .cls-1, .cls-2, .cls-3, .cls-4 {
        stroke: #fff;
      }

      .cls-1 {
        stroke-width: 0.75px;
      }

      .cls-3 {
        stroke-width: 0.25px;
      }

      .cls-4 {
        stroke-width: 0.5px;
      }

      .cls-5 {
        stroke: #d43500;
      }
    </style>
  </defs>
  <polygon class="cls-1" points="29.44 288.96 21.61 274.67 29.44 274.67 35.7 287 29.44 288.96"/>
  <polygon class="cls-1" points="30.42 289.94 36.47 287.61 41.48 289.94 41.48 296.48 30.42 289.94"/>
  <polygon class="cls-1" points="42.73 296.48 42.73 290.85 48.16 292.94 50.14 295.33 50.14 299.51 42.73 296.48"/>
  <polygon class="cls-1" points="29.51 259.27 21.68 273.55 29.51 273.55 35.77 261.23 29.51 259.27"/>
  <polygon class="cls-1" points="30.49 258.29 36.54 260.61 41.55 258.29 41.55 251.74 30.49 258.29"/>
  <polygon class="cls-1" points="42.8 251.74 42.8 257.38 48.23 255.29 50.21 252.89 50.21 248.72 42.8 251.74"/>
  <path class="cls-2" d="M424.48,270.55V203.77L475.35,36l14.87-8.87h-5.48L454.22,36,334.74,266.12a33,33,0,0,1-6,2.7,33.59,33.59,0,0,1-12,1.73Z" transform="translate(-135.8 -26.66)"/>
  <path class="cls-1" d="M424.48,229.08a30.08,30.08,0,0,0,13.67-2.87,49.63,49.63,0,0,0-6.26-1.57,48.85,48.85,0,0,0-7.41-.78" transform="translate(-135.8 -26.66)"/>
  <path class="cls-1" d="M433.67,171.82a48.85,48.85,0,0,1,7.41.78,49.72,49.72,0,0,1,6.26,1.56A29.73,29.73,0,0,1,433.67,177l-1.09,0" transform="translate(-135.8 -26.66)"/>
  <path class="cls-1" d="M450.21,116.89a49.4,49.4,0,0,1,13.67,2.35,29.7,29.7,0,0,1-5.95,2.08,30.06,30.06,0,0,1-7.72.79h-1.08" transform="translate(-135.8 -26.66)"/>
  <path class="cls-1" d="M416.13,270.55q.28-33.68.58-67.36Q435.33,150.92,454,98.64l2.54-.47" transform="translate(-135.8 -26.66)"/>
  <path class="cls-1" d="M424.48,203.77l-7.77-.58" transform="translate(-135.8 -26.66)"/>
  <polyline class="cls-1" points="280.33 205.18 269.43 205.18 269.43 178.88 280.89 178.88"/>
  <polyline class="cls-1" points="282.66 171.61 272.09 168.24 306.37 73.7 316.24 77.37"/>
  <line class="cls-1" x1="308.38" y1="99.42" x2="298.23" y2="96.14"/>
  <line class="cls-1" x1="300.52" y1="121.82" x2="290.36" y2="118.54"/>
  <line class="cls-1" x1="291.96" y1="146.07" x2="281.81" y2="142.79"/>
  <polyline class="cls-1" points="310.68 24.27 314.66 24.27 321.39 11.87 326.09 8.74 324.14 7.71"/>
  <polyline class="cls-1" points="229.5 180.6 236.87 180.6 314.5 28.31 310.06 25.46"/>
  <line class="cls-1" x1="291.48" y1="61.25" x2="296.38" y2="63.85"/>
  <line class="cls-1" x1="272.29" y1="98.21" x2="277.4" y2="101.09"/>
  <line class="cls-1" x1="252.86" y1="135.62" x2="258.17" y2="138.82"/>
  <polyline class="cls-1" points="321.2 69.88 310.68 69.88 326.09 25.46 334.67 25.46"/>
  <polyline class="cls-1" points="199.37 238.63 207.13 240.4 229.5 195.47 223.57 192.03"/>
  <path class="cls-1" d="M355.14,270.55v-9.44a4.31,4.31,0,0,1,1.09-3,4.43,4.43,0,0,1,4.54-1.1h55.36" transform="translate(-135.8 -26.66)"/>
  <polyline class="cls-3" points="255.51 230.17 263.05 187.22 322.67 25.46 317.05 25.46 208.27 240.4 219.34 242.78"/>
  <path class="cls-2" d="M352.11,232.67q-8.66.69-17.63,1.17-4.25.22-8.41.39a6.43,6.43,0,0,1-9.4-.59h-2.15l-2.74-.39-.78-1.41c-.47-5.4-.77-11.28-.78-17.57s.26-12.21.72-17.63a21,21,0,0,1,2-.66,26.34,26.34,0,0,1,4.11-.79,50,50,0,0,1,7.43-.28" transform="translate(-135.8 -26.66)"/>
  <path class="cls-2" d="M322.35,196.59a22.5,22.5,0,0,1,11.35-3.36v3.36Z" transform="translate(-135.8 -26.66)"/>
  <path class="cls-2" d="M333.7,194.88c4.92.24,10.16.65,15.65,1.29,4.66.55,9.1,1.22,13.3,2v10h2.21" transform="translate(-135.8 -26.66)"/>
  <path class="cls-2" d="M311.78,233.25l-3.71-1.41a153.3,153.3,0,0,1-1-16.3,149.58,149.58,0,0,1,1-18.29l2.87-.61" transform="translate(-135.8 -26.66)"/>
  <path class="cls-2" d="M359.77,217.92h-25a11.7,11.7,0,0,1-8.51-3.65,10.84,10.84,0,0,1,8.91-3.91h28.52" transform="translate(-135.8 -26.66)"/>
  <line class="cls-3" x1="180.87" y1="206.98" x2="181.27" y2="168.53"/>
  <line class="cls-3" x1="202.21" y1="206.98" x2="203.37" y2="191.26"/>
  <line class="cls-3" x1="203.08" y1="183.7" x2="202.5" y2="168.53"/>
  <line class="cls-3" x1="181.07" y1="191.26" x2="195.36" y2="191.26"/>
  <line class="cls-3" x1="181.11" y1="183.7" x2="197.9" y2="183.68"/>
  <path class="cls-2" d="M426,331.7v66.78l50.87,167.74,14.87,8.87h-5.48l-30.52-8.87L336.22,336.13a32.83,32.83,0,0,0-6-2.7,33.45,33.45,0,0,0-12-1.73Z" transform="translate(-135.8 -26.66)"/>
  <path class="cls-1" d="M426,373.17a30.06,30.06,0,0,1,7.72.79,29.7,29.7,0,0,1,5.95,2.08A49.4,49.4,0,0,1,426,378.39" transform="translate(-135.8 -26.66)"/>
  <path class="cls-1" d="M435.15,430.43a48.85,48.85,0,0,0,7.41-.78,51,51,0,0,0,6.26-1.56,29.05,29.05,0,0,0-5.95-2.09,29.56,29.56,0,0,0-7.72-.78l-1.08,0" transform="translate(-135.8 -26.66)"/>
  <path class="cls-1" d="M451.69,485.36A49.4,49.4,0,0,0,465.36,483a29.7,29.7,0,0,0-5.95-2.08,30.06,30.06,0,0,0-7.72-.79h-1.08" transform="translate(-135.8 -26.66)"/>
  <path class="cls-1" d="M417.61,331.7q.3,33.68.58,67.36l37.25,104.55,2.55.47" transform="translate(-135.8 -26.66)"/>
  <path class="cls-1" d="M426,398.48l-7.77.58" transform="translate(-135.8 -26.66)"/>
  <polyline class="cls-1" points="281.81 343.75 270.91 343.75 270.91 370.04 282.37 370.04"/>
  <polyline class="cls-1" points="284.14 377.31 273.57 380.69 307.85 475.23 317.72 471.56"/>
  <line class="cls-1" x1="309.86" y1="449.51" x2="299.71" y2="452.78"/>
  <line class="cls-1" x1="302" y1="427.1" x2="291.85" y2="430.38"/>
  <line class="cls-1" x1="293.45" y1="402.86" x2="283.29" y2="406.13"/>
  <polyline class="cls-1" points="312.16 524.65 316.14 524.65 322.87 537.05 327.57 540.18 325.62 541.22"/>
  <polyline class="cls-1" points="230.99 368.33 238.35 368.33 315.99 520.62 311.54 523.46"/>
  <line class="cls-1" x1="292.96" y1="487.67" x2="297.87" y2="485.07"/>
  <line class="cls-1" x1="273.77" y1="450.72" x2="278.89" y2="447.84"/>
  <line class="cls-1" x1="254.34" y1="413.31" x2="259.65" y2="410.1"/>
  <polyline class="cls-1" points="322.68 479.04 312.16 479.04 327.57 523.46 336.15 523.46"/>
  <polyline class="cls-1" points="200.85 310.3 208.61 308.53 230.99 353.45 225.05 356.89"/>
  <path class="cls-1" d="M356.62,331.7v9.44a4.33,4.33,0,0,0,1.1,3,4.44,4.44,0,0,0,4.54,1.1h55.35" transform="translate(-135.8 -26.66)"/>
  <polyline class="cls-3" points="257 318.76 264.53 361.71 324.16 523.46 318.53 523.46 209.75 308.53 220.82 306.14"/>
  <path class="cls-2" d="M313.27,369a148.82,148.82,0,0,0-.85,36.61" transform="translate(-135.8 -26.66)"/>
  <path class="cls-2" d="M335.18,407.37c4.93-.24,10.16-.65,15.65-1.29,4.67-.55,9.11-1.22,13.3-2v-10h2.22" transform="translate(-135.8 -26.66)"/>
  <path class="cls-2" d="M361.25,384.33h-25a11.8,11.8,0,0,0-5.18,1.2,11.62,11.62,0,0,0-3.33,2.45,10.84,10.84,0,0,0,8.91,3.91h28.53" transform="translate(-135.8 -26.66)"/>
  <line class="cls-3" x1="182.36" y1="341.95" x2="182.75" y2="380.39"/>
  <line class="cls-3" x1="203.69" y1="341.95" x2="204.86" y2="357.67"/>
  <line class="cls-3" x1="204.56" y1="365.23" x2="203.98" y2="380.39"/>
  <line class="cls-3" x1="182.55" y1="357.67" x2="196.84" y2="357.67"/>
  <line class="cls-3" x1="182.59" y1="365.23" x2="199.38" y2="365.24"/>
  <path class="cls-2" d="M353.59,405.81Q345,406.5,336,407q-4.24.22-8.41.39a6.41,6.41,0,0,1-9.39-.58H316l-2.73-.39-.79-1.41" transform="translate(-135.8 -26.66)"/>
  <path class="cls-2" d="M312.27,369.44c.49-.19,1.18-.43,2-.67a26.76,26.76,0,0,1,4.1-.78,50.15,50.15,0,0,1,7.44-.28" transform="translate(-135.8 -26.66)"/>
  <path class="cls-2" d="M323,369.36a22.59,22.59,0,0,1,5.1-2.33,22.16,22.16,0,0,1,6.25-1v3.36Z" transform="translate(-135.8 -26.66)"/>
  <line class="cls-2" x1="217.68" y1="342.7" x2="198.55" y2="341.35"/>
  <path class="cls-2" d="M313.27,406.39,308,404.64c-.47-5.24-.77-10.94-.78-17.06,0-6.39.29-12.33.78-17.77l5.32-.81" transform="translate(-135.8 -26.66)"/>
  <path class="cls-2" d="M192.1,275.38v50.79c3.93.42,9.49.94,16.17,1.35,4.32.27,7.86.41,11.37.53,13.44.45,27.93.58,35.38.63l56.35,0H556.74c9.29-.65,19.17-1.65,29.54-3.11,9.17-1.3,17.86-2.83,26-4.5V280.79c-8.41-1.68-17.36-3.21-26.8-4.5-9.79-1.34-19.14-2.28-28-2.93H255.43c-10.43-.23-21.4-.2-32.86.19C212,273.91,201.78,274.55,192.1,275.38Z" transform="translate(-135.8 -26.66)"/>
  <path class="cls-2" d="M559.09,331.67a402.76,402.76,0,0,0,42-5.29,402.75,402.75,0,0,0,42-9.91c4.41-.56,11.1-1.34,19.3-2.09,10.64-1,13.91-1,18.78-1.57a99.51,99.51,0,0,0,28.44-8.06" transform="translate(-135.8 -26.66)"/>
  <polyline class="cls-2" points="423.29 305.01 313.02 305.01 78.16 305.01"/>
  <path class="cls-2" d="M709.61,297.37a99.26,99.26,0,0,0-28.44-8.07c-4.87-.59-8.14-.59-18.78-1.56-8.2-.75-14.89-1.54-19.3-2.09a402.72,402.72,0,0,0-84-15.21L214,270.58" transform="translate(-135.8 -26.66)"/>
  <rect class="cls-2" x="572.5" y="270.71" width="2.35" height="7.38"/>
  <path class="cls-2" d="M627.82,320.62a17.28,17.28,0,0,1,5.35,3.41,17.46,17.46,0,0,1,4.18,6.26c1.61,3.94,11.61,19.84,39.13,60.26a11.48,11.48,0,0,0,8.87,5.48H699.7l-18.53-83.22" transform="translate(-135.8 -26.66)"/>
  <line class="cls-2" x1="556.59" y1="369.37" x2="527.96" y2="287.59"/>
  <polyline class="cls-2" points="505.63 290.29 523.98 323.46 532.85 320.33 520.8 288.27"/>
  <path class="cls-2" d="M627.82,281a17.28,17.28,0,0,0,5.35-3.41,17.55,17.55,0,0,0,4.18-6.26c1.61-3.94,11.61-19.84,39.13-60.27a11.67,11.67,0,0,1,4.43-4.17,11.45,11.45,0,0,1,4.44-1.3H699.7l-18.53,83.21" transform="translate(-135.8 -26.66)"/>
  <line class="cls-2" x1="556.59" y1="178.96" x2="527.96" y2="260.74"/>
  <polyline class="cls-2" points="505.63 258.05 523.98 224.88 532.85 228.01 520.8 260.06"/>
  <path class="cls-2" d="M173.42,295" transform="translate(-135.8 -26.66)"/>
  <path class="cls-2" d="M149,313.92l3.32,1.7A119.34,119.34,0,0,0,214,331.67" transform="translate(-135.8 -26.66)"/>
  <line class="cls-4" x1="14.32" y1="261.28" x2="14.32" y2="287.61"/>
  <path class="cls-2" d="M214,270.59a119.34,119.34,0,0,0-61.62,16.05l-2.22,1.3" transform="translate(-135.8 -26.66)"/>
  <path class="cls-2" d="M150.12,314.45a33.9,33.9,0,0,1-6.86-4.15c-3.47-2.71-7.11-5.56-7-9,.1-2.15,1.71-3.71,4.92-6.72a48.31,48.31,0,0,1,8.9-6.6" transform="translate(-135.8 -26.66)"/>
  <g>
    <polygon class="cls-4" points="109.01 248.72 109.01 255.25 101.64 255.25 100.29 254.24 100.29 249.32 101.64 248.72 109.01 248.72"/>
    <polyline class="cls-4" points="109.01 250.21 107.22 250.21 107.22 253.79 109.01 253.79"/>
    <line class="cls-4" x1="106.44" y1="248.72" x2="106.44" y2="255.24"/>
    <polygon class="cls-4" points="109.01 255.92 109.01 262.44 101.64 262.44 100.29 261.44 100.29 256.52 101.64 255.92 109.01 255.92"/>
    <polyline class="cls-4" points="109.01 257.41 107.22 257.41 107.22 260.99 109.01 260.99"/>
    <line class="cls-4" x1="106.44" y1="255.92" x2="106.44" y2="262.44"/>
    <polygon class="cls-4" points="109.01 263.11 109.01 269.64 101.64 269.64 100.29 268.63 100.29 263.72 101.64 263.11 109.01 263.11"/>
    <polyline class="cls-4" points="109.01 264.61 107.22 264.61 107.22 268.19 109.01 268.19"/>
    <line class="cls-4" x1="106.44" y1="263.11" x2="106.44" y2="269.64"/>
    <polygon class="cls-4" points="109.01 279.9 109.01 286.42 101.64 286.42 100.29 285.42 100.29 280.5 101.64 279.9 109.01 279.9"/>
    <polyline class="cls-4" points="109.01 281.39 107.22 281.39 107.22 284.97 109.01 284.97"/>
    <line class="cls-4" x1="106.44" y1="279.9" x2="106.44" y2="286.42"/>
    <polygon class="cls-4" points="109.01 287.1 109.01 293.62 101.64 293.62 100.29 292.62 100.29 287.7 101.64 287.1 109.01 287.1"/>
    <polyline class="cls-4" points="109.01 288.59 107.22 288.59 107.22 292.17 109.01 292.17"/>
    <line class="cls-4" x1="106.44" y1="287.1" x2="106.44" y2="293.62"/>
    <polygon class="cls-4" points="109.01 294.29 109.01 300.82 101.64 300.82 100.29 299.81 100.29 294.89 101.64 294.29 109.01 294.29"/>
    <polyline class="cls-4" points="109.01 295.79 107.22 295.79 107.22 299.37 109.01 299.37"/>
    <line class="cls-4" x1="106.44" y1="294.29" x2="106.44" y2="300.82"/>
  </g>
  <polygon class="cls-4" points="121.31 248.72 121.31 255.25 113.93 255.25 112.59 254.24 112.59 249.32 113.93 248.72 121.31 248.72"/>
  <polyline class="cls-4" points="121.31 250.21 119.52 250.21 119.52 253.79 121.31 253.79"/>
  <line class="cls-4" x1="118.74" y1="248.72" x2="118.74" y2="255.24"/>
  <polygon class="cls-4" points="121.31 255.92 121.31 262.44 113.93 262.44 112.59 261.44 112.59 256.52 113.93 255.92 121.31 255.92"/>
  <polyline class="cls-4" points="121.31 257.41 119.52 257.41 119.52 260.99 121.31 260.99"/>
  <line class="cls-4" x1="118.74" y1="255.92" x2="118.74" y2="262.44"/>
  <polygon class="cls-4" points="121.31 263.11 121.31 269.64 113.93 269.64 112.59 268.63 112.59 263.72 113.93 263.11 121.31 263.11"/>
  <polyline class="cls-4" points="121.31 264.61 119.52 264.61 119.52 268.19 121.31 268.19"/>
  <line class="cls-4" x1="118.74" y1="263.11" x2="118.74" y2="269.64"/>
  <polygon class="cls-4" points="121.31 279.9 121.31 286.42 113.93 286.42 112.59 285.42 112.59 280.5 113.93 279.9 121.31 279.9"/>
  <polyline class="cls-4" points="121.31 281.39 119.52 281.39 119.52 284.97 121.31 284.97"/>
  <line class="cls-4" x1="118.74" y1="279.9" x2="118.74" y2="286.42"/>
  <polygon class="cls-4" points="121.31 287.1 121.31 293.62 113.93 293.62 112.59 292.62 112.59 287.7 113.93 287.1 121.31 287.1"/>
  <polyline class="cls-4" points="121.31 288.59 119.52 288.59 119.52 292.17 121.31 292.17"/>
  <line class="cls-4" x1="118.74" y1="287.1" x2="118.74" y2="293.62"/>
  <polygon class="cls-4" points="121.31 294.29 121.31 300.82 113.93 300.82 112.59 299.81 112.59 294.89 113.93 294.29 121.31 294.29"/>
  <polyline class="cls-4" points="121.31 295.79 119.52 295.79 119.52 299.37 121.31 299.37"/>
  <line class="cls-4" x1="118.74" y1="294.29" x2="118.74" y2="300.82"/>
  <polygon class="cls-4" points="133.72 248.72 133.72 255.25 126.34 255.25 125 254.24 125 249.32 126.34 248.72 133.72 248.72"/>
  <polyline class="cls-4" points="133.72 250.21 131.93 250.21 131.93 253.79 133.72 253.79"/>
  <line class="cls-4" x1="131.15" y1="248.72" x2="131.15" y2="255.24"/>
  <polygon class="cls-4" points="133.72 255.92 133.72 262.44 126.34 262.44 125 261.44 125 256.52 126.34 255.92 133.72 255.92"/>
  <polyline class="cls-4" points="133.72 257.41 131.93 257.41 131.93 260.99 133.72 260.99"/>
  <line class="cls-4" x1="131.15" y1="255.92" x2="131.15" y2="262.44"/>
  <polygon class="cls-4" points="133.72 263.11 133.72 269.64 126.34 269.64 125 268.63 125 263.72 126.34 263.11 133.72 263.11"/>
  <polyline class="cls-4" points="133.72 264.61 131.93 264.61 131.93 268.19 133.72 268.19"/>
  <line class="cls-4" x1="131.15" y1="263.11" x2="131.15" y2="269.64"/>
  <polygon class="cls-4" points="133.72 279.9 133.72 286.42 126.34 286.42 125 285.42 125 280.5 126.34 279.9 133.72 279.9"/>
  <polyline class="cls-4" points="133.72 281.39 131.93 281.39 131.93 284.97 133.72 284.97"/>
  <line class="cls-4" x1="131.15" y1="279.9" x2="131.15" y2="286.42"/>
  <polygon class="cls-4" points="133.72 287.1 133.72 293.62 126.34 293.62 125 292.62 125 287.7 126.34 287.1 133.72 287.1"/>
  <polyline class="cls-4" points="133.72 288.59 131.93 288.59 131.93 292.17 133.72 292.17"/>
  <line class="cls-4" x1="131.15" y1="287.1" x2="131.15" y2="293.62"/>
  <polygon class="cls-4" points="133.72 294.29 133.72 300.82 126.34 300.82 125 299.81 125 294.89 126.34 294.29 133.72 294.29"/>
  <polyline class="cls-4" points="133.72 295.79 131.93 295.79 131.93 299.37 133.72 299.37"/>
  <line class="cls-4" x1="131.15" y1="294.29" x2="131.15" y2="300.82"/>
  <polygon class="cls-4" points="146.13 248.72 146.13 255.25 138.75 255.25 137.41 254.24 137.41 249.32 138.75 248.72 146.13 248.72"/>
  <polyline class="cls-4" points="146.13 250.21 144.34 250.21 144.34 253.79 146.13 253.79"/>
  <line class="cls-4" x1="143.56" y1="248.72" x2="143.56" y2="255.24"/>
  <polygon class="cls-4" points="146.13 255.92 146.13 262.44 138.75 262.44 137.41 261.44 137.41 256.52 138.75 255.92 146.13 255.92"/>
  <polyline class="cls-4" points="146.13 257.41 144.34 257.41 144.34 260.99 146.13 260.99"/>
  <line class="cls-4" x1="143.56" y1="255.92" x2="143.56" y2="262.44"/>
  <polygon class="cls-4" points="146.13 263.11 146.13 269.64 138.75 269.64 137.41 268.63 137.41 263.72 138.75 263.11 146.13 263.11"/>
  <polyline class="cls-4" points="146.13 264.61 144.34 264.61 144.34 268.19 146.13 268.19"/>
  <line class="cls-4" x1="143.56" y1="263.11" x2="143.56" y2="269.64"/>
  <polygon class="cls-4" points="146.13 279.9 146.13 286.42 138.75 286.42 137.41 285.42 137.41 280.5 138.75 279.9 146.13 279.9"/>
  <polyline class="cls-4" points="146.13 281.39 144.34 281.39 144.34 284.97 146.13 284.97"/>
  <line class="cls-4" x1="143.56" y1="279.9" x2="143.56" y2="286.42"/>
  <polygon class="cls-4" points="146.13 287.1 146.13 293.62 138.75 293.62 137.41 292.62 137.41 287.7 138.75 287.1 146.13 287.1"/>
  <polyline class="cls-4" points="146.13 288.59 144.34 288.59 144.34 292.17 146.13 292.17"/>
  <line class="cls-4" x1="143.56" y1="287.1" x2="143.56" y2="293.62"/>
  <polygon class="cls-4" points="146.13 294.29 146.13 300.82 138.75 300.82 137.41 299.81 137.41 294.89 138.75 294.29 146.13 294.29"/>
  <polyline class="cls-4" points="146.13 295.79 144.34 295.79 144.34 299.37 146.13 299.37"/>
  <line class="cls-4" x1="143.56" y1="294.29" x2="143.56" y2="300.82"/>
  <polygon class="cls-4" points="158.21 248.72 158.21 255.25 150.83 255.25 149.49 254.24 149.49 249.32 150.83 248.72 158.21 248.72"/>
  <polyline class="cls-4" points="158.21 250.21 156.42 250.21 156.42 253.79 158.21 253.79"/>
  <line class="cls-4" x1="155.64" y1="248.72" x2="155.64" y2="255.24"/>
  <polygon class="cls-4" points="158.21 255.92 158.21 262.44 150.83 262.44 149.49 261.44 149.49 256.52 150.83 255.92 158.21 255.92"/>
  <polyline class="cls-4" points="158.21 257.41 156.42 257.41 156.42 260.99 158.21 260.99"/>
  <line class="cls-4" x1="155.64" y1="255.92" x2="155.64" y2="262.44"/>
  <polygon class="cls-4" points="158.21 263.11 158.21 269.64 150.83 269.64 149.49 268.63 149.49 263.72 150.83 263.11 158.21 263.11"/>
  <polyline class="cls-4" points="158.21 264.61 156.42 264.61 156.42 268.19 158.21 268.19"/>
  <line class="cls-4" x1="155.64" y1="263.11" x2="155.64" y2="269.64"/>
  <polygon class="cls-4" points="158.21 279.9 158.21 286.42 150.83 286.42 149.49 285.42 149.49 280.5 150.83 279.9 158.21 279.9"/>
  <polyline class="cls-4" points="158.21 281.39 156.42 281.39 156.42 284.97 158.21 284.97"/>
  <line class="cls-4" x1="155.64" y1="279.9" x2="155.64" y2="286.42"/>
  <polygon class="cls-4" points="158.21 287.1 158.21 293.62 150.83 293.62 149.49 292.62 149.49 287.7 150.83 287.1 158.21 287.1"/>
  <polyline class="cls-4" points="158.21 288.59 156.42 288.59 156.42 292.17 158.21 292.17"/>
  <line class="cls-4" x1="155.64" y1="287.1" x2="155.64" y2="293.62"/>
  <polygon class="cls-4" points="158.21 294.29 158.21 300.82 150.83 300.82 149.49 299.81 149.49 294.89 150.83 294.29 158.21 294.29"/>
  <polyline class="cls-4" points="158.21 295.79 156.42 295.79 156.42 299.37 158.21 299.37"/>
  <line class="cls-4" x1="155.64" y1="294.29" x2="155.64" y2="300.82"/>
  <polygon class="cls-4" points="170.5 248.72 170.5 255.25 163.13 255.25 161.78 254.24 161.78 249.32 163.13 248.72 170.5 248.72"/>
  <polyline class="cls-4" points="170.5 250.21 168.72 250.21 168.72 253.79 170.5 253.79"/>
  <line class="cls-4" x1="167.93" y1="248.72" x2="167.93" y2="255.24"/>
  <polygon class="cls-4" points="170.5 255.92 170.5 262.44 163.13 262.44 161.78 261.44 161.78 256.52 163.13 255.92 170.5 255.92"/>
  <polyline class="cls-4" points="170.5 257.41 168.72 257.41 168.72 260.99 170.5 260.99"/>
  <line class="cls-4" x1="167.93" y1="255.92" x2="167.93" y2="262.44"/>
  <polygon class="cls-4" points="170.5 263.11 170.5 269.64 163.13 269.64 161.78 268.63 161.78 263.72 163.13 263.11 170.5 263.11"/>
  <polyline class="cls-4" points="170.5 264.61 168.72 264.61 168.72 268.19 170.5 268.19"/>
  <line class="cls-4" x1="167.93" y1="263.11" x2="167.93" y2="269.64"/>
  <polygon class="cls-4" points="170.5 279.9 170.5 286.42 163.13 286.42 161.78 285.42 161.78 280.5 163.13 279.9 170.5 279.9"/>
  <polyline class="cls-4" points="170.5 281.39 168.72 281.39 168.72 284.97 170.5 284.97"/>
  <line class="cls-4" x1="167.93" y1="279.9" x2="167.93" y2="286.42"/>
  <polygon class="cls-4" points="170.5 287.1 170.5 293.62 163.13 293.62 161.78 292.62 161.78 287.7 163.13 287.1 170.5 287.1"/>
  <polyline class="cls-4" points="170.5 288.59 168.72 288.59 168.72 292.17 170.5 292.17"/>
  <line class="cls-4" x1="167.93" y1="287.1" x2="167.93" y2="293.62"/>
  <polygon class="cls-4" points="170.5 294.29 170.5 300.82 163.13 300.82 161.78 299.81 161.78 294.89 163.13 294.29 170.5 294.29"/>
  <polyline class="cls-4" points="170.5 295.79 168.72 295.79 168.72 299.37 170.5 299.37"/>
  <line class="cls-4" x1="167.93" y1="294.29" x2="167.93" y2="300.82"/>
  <polygon class="cls-4" points="182.42 248.72 182.42 255.25 175.04 255.25 173.7 254.24 173.7 249.32 175.04 248.72 182.42 248.72"/>
  <polyline class="cls-4" points="182.42 250.21 180.63 250.21 180.63 253.79 182.42 253.79"/>
  <line class="cls-4" x1="179.85" y1="248.72" x2="179.85" y2="255.24"/>
  <polygon class="cls-4" points="182.42 255.92 182.42 262.44 175.04 262.44 173.7 261.44 173.7 256.52 175.04 255.92 182.42 255.92"/>
  <polyline class="cls-4" points="182.42 257.41 180.63 257.41 180.63 260.99 182.42 260.99"/>
  <line class="cls-4" x1="179.85" y1="255.92" x2="179.85" y2="262.44"/>
  <polygon class="cls-4" points="182.42 263.11 182.42 269.64 175.04 269.64 173.7 268.63 173.7 263.72 175.04 263.11 182.42 263.11"/>
  <polyline class="cls-4" points="182.42 264.61 180.63 264.61 180.63 268.19 182.42 268.19"/>
  <line class="cls-4" x1="179.85" y1="263.11" x2="179.85" y2="269.64"/>
  <polygon class="cls-4" points="182.42 279.9 182.42 286.42 175.04 286.42 173.7 285.42 173.7 280.5 175.04 279.9 182.42 279.9"/>
  <polyline class="cls-4" points="182.42 281.39 180.63 281.39 180.63 284.97 182.42 284.97"/>
  <line class="cls-4" x1="179.85" y1="279.9" x2="179.85" y2="286.42"/>
  <polygon class="cls-4" points="182.42 287.1 182.42 293.62 175.04 293.62 173.7 292.62 173.7 287.7 175.04 287.1 182.42 287.1"/>
  <polyline class="cls-4" points="182.42 288.59 180.63 288.59 180.63 292.17 182.42 292.17"/>
  <line class="cls-4" x1="179.85" y1="287.1" x2="179.85" y2="293.62"/>
  <polygon class="cls-4" points="182.42 294.29 182.42 300.82 175.04 300.82 173.7 299.81 173.7 294.89 175.04 294.29 182.42 294.29"/>
  <polyline class="cls-4" points="182.42 295.79 180.63 295.79 180.63 299.37 182.42 299.37"/>
  <line class="cls-4" x1="179.85" y1="294.29" x2="179.85" y2="300.82"/>
  <polygon class="cls-4" points="194.43 248.72 194.43 255.25 187.05 255.25 185.71 254.24 185.71 249.32 187.05 248.72 194.43 248.72"/>
  <polyline class="cls-4" points="194.43 250.21 192.64 250.21 192.64 253.79 194.43 253.79"/>
  <line class="cls-4" x1="191.86" y1="248.72" x2="191.86" y2="255.24"/>
  <polygon class="cls-4" points="194.43 255.92 194.43 262.44 187.05 262.44 185.71 261.44 185.71 256.52 187.05 255.92 194.43 255.92"/>
  <polyline class="cls-4" points="194.43 257.41 192.64 257.41 192.64 260.99 194.43 260.99"/>
  <line class="cls-4" x1="191.86" y1="255.92" x2="191.86" y2="262.44"/>
  <polygon class="cls-4" points="194.43 263.11 194.43 269.64 187.05 269.64 185.71 268.63 185.71 263.72 187.05 263.11 194.43 263.11"/>
  <polyline class="cls-4" points="194.43 264.61 192.64 264.61 192.64 268.19 194.43 268.19"/>
  <line class="cls-4" x1="191.86" y1="263.11" x2="191.86" y2="269.64"/>
  <polygon class="cls-4" points="194.43 279.9 194.43 286.42 187.05 286.42 185.71 285.42 185.71 280.5 187.05 279.9 194.43 279.9"/>
  <polyline class="cls-4" points="194.43 281.39 192.64 281.39 192.64 284.97 194.43 284.97"/>
  <line class="cls-4" x1="191.86" y1="279.9" x2="191.86" y2="286.42"/>
  <polygon class="cls-4" points="194.43 287.1 194.43 293.62 187.05 293.62 185.71 292.62 185.71 287.7 187.05 287.1 194.43 287.1"/>
  <polyline class="cls-4" points="194.43 288.59 192.64 288.59 192.64 292.17 194.43 292.17"/>
  <line class="cls-4" x1="191.86" y1="287.1" x2="191.86" y2="293.62"/>
  <polygon class="cls-4" points="194.43 294.29 194.43 300.82 187.05 300.82 185.71 299.81 185.71 294.89 187.05 294.29 194.43 294.29"/>
  <polyline class="cls-4" points="194.43 295.79 192.64 295.79 192.64 299.37 194.43 299.37"/>
  <line class="cls-4" x1="191.86" y1="294.29" x2="191.86" y2="300.82"/>
  <polygon class="cls-4" points="206.73 248.72 206.73 255.25 199.35 255.25 198.01 254.24 198.01 249.32 199.35 248.72 206.73 248.72"/>
  <polyline class="cls-4" points="206.73 250.21 204.94 250.21 204.94 253.79 206.73 253.79"/>
  <line class="cls-4" x1="204.16" y1="248.72" x2="204.16" y2="255.24"/>
  <polygon class="cls-4" points="206.73 255.92 206.73 262.44 199.35 262.44 198.01 261.44 198.01 256.52 199.35 255.92 206.73 255.92"/>
  <polyline class="cls-4" points="206.73 257.41 204.94 257.41 204.94 260.99 206.73 260.99"/>
  <line class="cls-4" x1="204.16" y1="255.92" x2="204.16" y2="262.44"/>
  <polygon class="cls-4" points="206.73 263.11 206.73 269.64 199.35 269.64 198.01 268.63 198.01 263.72 199.35 263.11 206.73 263.11"/>
  <polyline class="cls-4" points="206.73 264.61 204.94 264.61 204.94 268.19 206.73 268.19"/>
  <line class="cls-4" x1="204.16" y1="263.11" x2="204.16" y2="269.64"/>
  <polygon class="cls-4" points="206.73 279.9 206.73 286.42 199.35 286.42 198.01 285.42 198.01 280.5 199.35 279.9 206.73 279.9"/>
  <polyline class="cls-4" points="206.73 281.39 204.94 281.39 204.94 284.97 206.73 284.97"/>
  <line class="cls-4" x1="204.16" y1="279.9" x2="204.16" y2="286.42"/>
  <polygon class="cls-4" points="206.73 287.1 206.73 293.62 199.35 293.62 198.01 292.62 198.01 287.7 199.35 287.1 206.73 287.1"/>
  <polyline class="cls-4" points="206.73 288.59 204.94 288.59 204.94 292.17 206.73 292.17"/>
  <line class="cls-4" x1="204.16" y1="287.1" x2="204.16" y2="293.62"/>
  <polygon class="cls-4" points="206.73 294.29 206.73 300.82 199.35 300.82 198.01 299.81 198.01 294.89 199.35 294.29 206.73 294.29"/>
  <polyline class="cls-4" points="206.73 295.79 204.94 295.79 204.94 299.37 206.73 299.37"/>
  <line class="cls-4" x1="204.16" y1="294.29" x2="204.16" y2="300.82"/>
  <polygon class="cls-4" points="218.8 248.72 218.8 255.25 211.42 255.25 210.08 254.24 210.08 249.32 211.42 248.72 218.8 248.72"/>
  <polyline class="cls-4" points="218.8 250.21 217.01 250.21 217.01 253.79 218.8 253.79"/>
  <line class="cls-4" x1="216.23" y1="248.72" x2="216.23" y2="255.24"/>
  <polygon class="cls-4" points="218.8 255.92 218.8 262.44 211.42 262.44 210.08 261.44 210.08 256.52 211.42 255.92 218.8 255.92"/>
  <polyline class="cls-4" points="218.8 257.41 217.01 257.41 217.01 260.99 218.8 260.99"/>
  <line class="cls-4" x1="216.23" y1="255.92" x2="216.23" y2="262.44"/>
  <polygon class="cls-4" points="218.8 263.11 218.8 269.64 211.42 269.64 210.08 268.63 210.08 263.72 211.42 263.11 218.8 263.11"/>
  <polyline class="cls-4" points="218.8 264.61 217.01 264.61 217.01 268.19 218.8 268.19"/>
  <line class="cls-4" x1="216.23" y1="263.11" x2="216.23" y2="269.64"/>
  <polygon class="cls-4" points="218.8 279.9 218.8 286.42 211.42 286.42 210.08 285.42 210.08 280.5 211.42 279.9 218.8 279.9"/>
  <polyline class="cls-4" points="218.8 281.39 217.01 281.39 217.01 284.97 218.8 284.97"/>
  <line class="cls-4" x1="216.23" y1="279.9" x2="216.23" y2="286.42"/>
  <polygon class="cls-4" points="218.8 287.1 218.8 293.62 211.42 293.62 210.08 292.62 210.08 287.7 211.42 287.1 218.8 287.1"/>
  <polyline class="cls-4" points="218.8 288.59 217.01 288.59 217.01 292.17 218.8 292.17"/>
  <line class="cls-4" x1="216.23" y1="287.1" x2="216.23" y2="293.62"/>
  <polygon class="cls-4" points="218.8 294.29 218.8 300.82 211.42 300.82 210.08 299.81 210.08 294.89 211.42 294.29 218.8 294.29"/>
  <polyline class="cls-4" points="218.8 295.79 217.01 295.79 217.01 299.37 218.8 299.37"/>
  <line class="cls-4" x1="216.23" y1="294.29" x2="216.23" y2="300.82"/>
  <polygon class="cls-4" points="232.67 248.72 232.67 255.25 225.29 255.25 223.95 254.24 223.95 249.32 225.29 248.72 232.67 248.72"/>
  <polyline class="cls-4" points="232.67 250.21 230.88 250.21 230.88 253.79 232.67 253.79"/>
  <line class="cls-4" x1="230.09" y1="248.72" x2="230.09" y2="255.24"/>
  <polygon class="cls-4" points="232.67 255.92 232.67 262.44 225.29 262.44 223.95 261.44 223.95 256.52 225.29 255.92 232.67 255.92"/>
  <polyline class="cls-4" points="232.67 257.41 230.88 257.41 230.88 260.99 232.67 260.99"/>
  <line class="cls-4" x1="230.09" y1="255.92" x2="230.09" y2="262.44"/>
  <polygon class="cls-4" points="232.67 263.11 232.67 269.64 225.29 269.64 223.95 268.63 223.95 263.72 225.29 263.11 232.67 263.11"/>
  <polyline class="cls-4" points="232.67 264.61 230.88 264.61 230.88 268.19 232.67 268.19"/>
  <line class="cls-4" x1="230.09" y1="263.11" x2="230.09" y2="269.64"/>
  <polygon class="cls-4" points="232.67 279.9 232.67 286.42 225.29 286.42 223.95 285.42 223.95 280.5 225.29 279.9 232.67 279.9"/>
  <polyline class="cls-4" points="232.67 281.39 230.88 281.39 230.88 284.97 232.67 284.97"/>
  <line class="cls-4" x1="230.09" y1="279.9" x2="230.09" y2="286.42"/>
  <polygon class="cls-4" points="232.67 287.1 232.67 293.62 225.29 293.62 223.95 292.62 223.95 287.7 225.29 287.1 232.67 287.1"/>
  <polyline class="cls-4" points="232.67 288.59 230.88 288.59 230.88 292.17 232.67 292.17"/>
  <line class="cls-4" x1="230.09" y1="287.1" x2="230.09" y2="293.62"/>
  <polygon class="cls-4" points="232.67 294.29 232.67 300.82 225.29 300.82 223.95 299.81 223.95 294.89 225.29 294.29 232.67 294.29"/>
  <polyline class="cls-4" points="232.67 295.79 230.88 295.79 230.88 299.37 232.67 299.37"/>
  <line class="cls-4" x1="230.09" y1="294.29" x2="230.09" y2="300.82"/>
  <polygon class="cls-4" points="246.08 248.72 246.08 255.25 238.7 255.25 237.36 254.24 237.36 249.32 238.7 248.72 246.08 248.72"/>
  <polyline class="cls-4" points="246.08 250.21 244.29 250.21 244.29 253.79 246.08 253.79"/>
  <line class="cls-4" x1="243.51" y1="248.72" x2="243.51" y2="255.24"/>
  <polygon class="cls-4" points="246.08 255.92 246.08 262.44 238.7 262.44 237.36 261.44 237.36 256.52 238.7 255.92 246.08 255.92"/>
  <polyline class="cls-4" points="246.08 257.41 244.29 257.41 244.29 260.99 246.08 260.99"/>
  <line class="cls-4" x1="243.51" y1="255.92" x2="243.51" y2="262.44"/>
  <polygon class="cls-4" points="246.08 263.11 246.08 269.64 238.7 269.64 237.36 268.63 237.36 263.72 238.7 263.11 246.08 263.11"/>
  <polyline class="cls-4" points="246.08 264.61 244.29 264.61 244.29 268.19 246.08 268.19"/>
  <line class="cls-4" x1="243.51" y1="263.11" x2="243.51" y2="269.64"/>
  <polygon class="cls-4" points="246.08 279.9 246.08 286.42 238.7 286.42 237.36 285.42 237.36 280.5 238.7 279.9 246.08 279.9"/>
  <polyline class="cls-4" points="246.08 281.39 244.29 281.39 244.29 284.97 246.08 284.97"/>
  <line class="cls-4" x1="243.51" y1="279.9" x2="243.51" y2="286.42"/>
  <polygon class="cls-4" points="246.08 287.1 246.08 293.62 238.7 293.62 237.36 292.62 237.36 287.7 238.7 287.1 246.08 287.1"/>
  <polyline class="cls-4" points="246.08 288.59 244.29 288.59 244.29 292.17 246.08 292.17"/>
  <line class="cls-4" x1="243.51" y1="287.1" x2="243.51" y2="293.62"/>
  <polygon class="cls-4" points="246.08 294.29 246.08 300.82 238.7 300.82 237.36 299.81 237.36 294.89 238.7 294.29 246.08 294.29"/>
  <polyline class="cls-4" points="246.08 295.79 244.29 295.79 244.29 299.37 246.08 299.37"/>
  <line class="cls-4" x1="243.51" y1="294.29" x2="243.51" y2="300.82"/>
  <polygon class="cls-4" points="257.04 248.72 257.04 255.25 249.66 255.25 248.32 254.24 248.32 249.32 249.66 248.72 257.04 248.72"/>
  <polyline class="cls-4" points="257.04 250.21 255.25 250.21 255.25 253.79 257.04 253.79"/>
  <line class="cls-4" x1="254.47" y1="248.72" x2="254.47" y2="255.24"/>
  <polygon class="cls-4" points="257.04 255.92 257.04 262.44 249.66 262.44 248.32 261.44 248.32 256.52 249.66 255.92 257.04 255.92"/>
  <polyline class="cls-4" points="257.04 257.41 255.25 257.41 255.25 260.99 257.04 260.99"/>
  <line class="cls-4" x1="254.47" y1="255.92" x2="254.47" y2="262.44"/>
  <polygon class="cls-4" points="257.04 263.11 257.04 269.64 249.66 269.64 248.32 268.63 248.32 263.72 249.66 263.11 257.04 263.11"/>
  <polyline class="cls-4" points="257.04 264.61 255.25 264.61 255.25 268.19 257.04 268.19"/>
  <line class="cls-4" x1="254.47" y1="263.11" x2="254.47" y2="269.64"/>
  <polygon class="cls-4" points="257.04 279.9 257.04 286.42 249.66 286.42 248.32 285.42 248.32 280.5 249.66 279.9 257.04 279.9"/>
  <polyline class="cls-4" points="257.04 281.39 255.25 281.39 255.25 284.97 257.04 284.97"/>
  <line class="cls-4" x1="254.47" y1="279.9" x2="254.47" y2="286.42"/>
  <polygon class="cls-4" points="257.04 287.1 257.04 293.62 249.66 293.62 248.32 292.62 248.32 287.7 249.66 287.1 257.04 287.1"/>
  <polyline class="cls-4" points="257.04 288.59 255.25 288.59 255.25 292.17 257.04 292.17"/>
  <line class="cls-4" x1="254.47" y1="287.1" x2="254.47" y2="293.62"/>
  <polygon class="cls-4" points="257.04 294.29 257.04 300.82 249.66 300.82 248.32 299.81 248.32 294.89 249.66 294.29 257.04 294.29"/>
  <polyline class="cls-4" points="257.04 295.79 255.25 295.79 255.25 299.37 257.04 299.37"/>
  <line class="cls-4" x1="254.47" y1="294.29" x2="254.47" y2="300.82"/>
  <polygon class="cls-4" points="267.71 248.72 267.71 255.25 260.33 255.25 258.99 254.24 258.99 249.32 260.33 248.72 267.71 248.72"/>
  <polyline class="cls-4" points="267.71 250.21 265.92 250.21 265.92 253.79 267.71 253.79"/>
  <line class="cls-4" x1="265.14" y1="248.72" x2="265.14" y2="255.24"/>
  <polygon class="cls-4" points="267.71 255.92 267.71 262.44 260.33 262.44 258.99 261.44 258.99 256.52 260.33 255.92 267.71 255.92"/>
  <polyline class="cls-4" points="267.71 257.41 265.92 257.41 265.92 260.99 267.71 260.99"/>
  <line class="cls-4" x1="265.14" y1="255.92" x2="265.14" y2="262.44"/>
  <polygon class="cls-4" points="267.71 263.11 267.71 269.64 260.33 269.64 258.99 268.63 258.99 263.72 260.33 263.11 267.71 263.11"/>
  <polyline class="cls-4" points="267.71 264.61 265.92 264.61 265.92 268.19 267.71 268.19"/>
  <line class="cls-4" x1="265.14" y1="263.11" x2="265.14" y2="269.64"/>
  <polygon class="cls-4" points="267.71 279.9 267.71 286.42 260.33 286.42 258.99 285.42 258.99 280.5 260.33 279.9 267.71 279.9"/>
  <polyline class="cls-4" points="267.71 281.39 265.92 281.39 265.92 284.97 267.71 284.97"/>
  <line class="cls-4" x1="265.14" y1="279.9" x2="265.14" y2="286.42"/>
  <polygon class="cls-4" points="267.71 287.1 267.71 293.62 260.33 293.62 258.99 292.62 258.99 287.7 260.33 287.1 267.71 287.1"/>
  <polyline class="cls-4" points="267.71 288.59 265.92 288.59 265.92 292.17 267.71 292.17"/>
  <line class="cls-4" x1="265.14" y1="287.1" x2="265.14" y2="293.62"/>
  <polygon class="cls-4" points="267.71 294.29 267.71 300.82 260.33 300.82 258.99 299.81 258.99 294.89 260.33 294.29 267.71 294.29"/>
  <polyline class="cls-4" points="267.71 295.79 265.92 295.79 265.92 299.37 267.71 299.37"/>
  <line class="cls-4" x1="265.14" y1="294.29" x2="265.14" y2="300.82"/>
  <polygon class="cls-4" points="278.28 248.72 278.28 255.25 270.9 255.25 269.56 254.24 269.56 249.32 270.9 248.72 278.28 248.72"/>
  <polyline class="cls-4" points="278.28 250.21 276.49 250.21 276.49 253.79 278.28 253.79"/>
  <line class="cls-4" x1="275.71" y1="248.72" x2="275.71" y2="255.24"/>
  <polygon class="cls-4" points="278.28 255.92 278.28 262.44 270.9 262.44 269.56 261.44 269.56 256.52 270.9 255.92 278.28 255.92"/>
  <polyline class="cls-4" points="278.28 257.41 276.49 257.41 276.49 260.99 278.28 260.99"/>
  <line class="cls-4" x1="275.71" y1="255.92" x2="275.71" y2="262.44"/>
  <polygon class="cls-4" points="278.28 263.11 278.28 269.64 270.9 269.64 269.56 268.63 269.56 263.72 270.9 263.11 278.28 263.11"/>
  <polyline class="cls-4" points="278.28 264.61 276.49 264.61 276.49 268.19 278.28 268.19"/>
  <line class="cls-4" x1="275.71" y1="263.11" x2="275.71" y2="269.64"/>
  <polygon class="cls-4" points="278.28 279.9 278.28 286.42 270.9 286.42 269.56 285.42 269.56 280.5 270.9 279.9 278.28 279.9"/>
  <polyline class="cls-4" points="278.28 281.39 276.49 281.39 276.49 284.97 278.28 284.97"/>
  <line class="cls-4" x1="275.71" y1="279.9" x2="275.71" y2="286.42"/>
  <polygon class="cls-4" points="278.28 287.1 278.28 293.62 270.9 293.62 269.56 292.62 269.56 287.7 270.9 287.1 278.28 287.1"/>
  <polyline class="cls-4" points="278.28 288.59 276.49 288.59 276.49 292.17 278.28 292.17"/>
  <line class="cls-4" x1="275.71" y1="287.1" x2="275.71" y2="293.62"/>
  <polygon class="cls-4" points="278.28 294.29 278.28 300.82 270.9 300.82 269.56 299.81 269.56 294.89 270.9 294.29 278.28 294.29"/>
  <polyline class="cls-4" points="278.28 295.79 276.49 295.79 276.49 299.37 278.28 299.37"/>
  <line class="cls-4" x1="275.71" y1="294.29" x2="275.71" y2="300.82"/>
  <polygon class="cls-4" points="289.56 248.72 289.56 255.25 282.18 255.25 280.84 254.24 280.84 249.32 282.18 248.72 289.56 248.72"/>
  <polyline class="cls-4" points="289.56 250.21 287.77 250.21 287.77 253.79 289.56 253.79"/>
  <line class="cls-4" x1="286.99" y1="248.72" x2="286.99" y2="255.24"/>
  <polygon class="cls-4" points="289.56 255.92 289.56 262.44 282.18 262.44 280.84 261.44 280.84 256.52 282.18 255.92 289.56 255.92"/>
  <polyline class="cls-4" points="289.56 257.41 287.77 257.41 287.77 260.99 289.56 260.99"/>
  <line class="cls-4" x1="286.99" y1="255.92" x2="286.99" y2="262.44"/>
  <polygon class="cls-4" points="289.56 263.11 289.56 269.64 282.18 269.64 280.84 268.63 280.84 263.72 282.18 263.11 289.56 263.11"/>
  <polyline class="cls-4" points="289.56 264.61 287.77 264.61 287.77 268.19 289.56 268.19"/>
  <line class="cls-4" x1="286.99" y1="263.11" x2="286.99" y2="269.64"/>
  <polygon class="cls-4" points="289.56 279.9 289.56 286.42 282.18 286.42 280.84 285.42 280.84 280.5 282.18 279.9 289.56 279.9"/>
  <polyline class="cls-4" points="289.56 281.39 287.77 281.39 287.77 284.97 289.56 284.97"/>
  <line class="cls-4" x1="286.99" y1="279.9" x2="286.99" y2="286.42"/>
  <polygon class="cls-4" points="289.56 287.1 289.56 293.62 282.18 293.62 280.84 292.62 280.84 287.7 282.18 287.1 289.56 287.1"/>
  <polyline class="cls-4" points="289.56 288.59 287.77 288.59 287.77 292.17 289.56 292.17"/>
  <line class="cls-4" x1="286.99" y1="287.1" x2="286.99" y2="293.62"/>
  <polygon class="cls-4" points="289.56 294.29 289.56 300.82 282.18 300.82 280.84 299.81 280.84 294.89 282.18 294.29 289.56 294.29"/>
  <polyline class="cls-4" points="289.56 295.79 287.77 295.79 287.77 299.37 289.56 299.37"/>
  <line class="cls-4" x1="286.99" y1="294.29" x2="286.99" y2="300.82"/>
  <polygon class="cls-4" points="300.52 248.72 300.52 255.25 293.14 255.25 291.8 254.24 291.8 249.32 293.14 248.72 300.52 248.72"/>
  <polyline class="cls-4" points="300.52 250.21 298.73 250.21 298.73 253.79 300.52 253.79"/>
  <line class="cls-4" x1="297.95" y1="248.72" x2="297.95" y2="255.24"/>
  <polygon class="cls-4" points="300.52 255.92 300.52 262.44 293.14 262.44 291.8 261.44 291.8 256.52 293.14 255.92 300.52 255.92"/>
  <polyline class="cls-4" points="300.52 257.41 298.73 257.41 298.73 260.99 300.52 260.99"/>
  <line class="cls-4" x1="297.95" y1="255.92" x2="297.95" y2="262.44"/>
  <polygon class="cls-4" points="300.52 263.11 300.52 269.64 293.14 269.64 291.8 268.63 291.8 263.72 293.14 263.11 300.52 263.11"/>
  <polyline class="cls-4" points="300.52 264.61 298.73 264.61 298.73 268.19 300.52 268.19"/>
  <line class="cls-4" x1="297.95" y1="263.11" x2="297.95" y2="269.64"/>
  <polygon class="cls-4" points="300.52 279.9 300.52 286.42 293.14 286.42 291.8 285.42 291.8 280.5 293.14 279.9 300.52 279.9"/>
  <polyline class="cls-4" points="300.52 281.39 298.73 281.39 298.73 284.97 300.52 284.97"/>
  <line class="cls-4" x1="297.95" y1="279.9" x2="297.95" y2="286.42"/>
  <polygon class="cls-4" points="300.52 287.1 300.52 293.62 293.14 293.62 291.8 292.62 291.8 287.7 293.14 287.1 300.52 287.1"/>
  <polyline class="cls-4" points="300.52 288.59 298.73 288.59 298.73 292.17 300.52 292.17"/>
  <line class="cls-4" x1="297.95" y1="287.1" x2="297.95" y2="293.62"/>
  <polygon class="cls-4" points="300.52 294.29 300.52 300.82 293.14 300.82 291.8 299.81 291.8 294.89 293.14 294.29 300.52 294.29"/>
  <polyline class="cls-4" points="300.52 295.79 298.73 295.79 298.73 299.37 300.52 299.37"/>
  <line class="cls-4" x1="297.95" y1="294.29" x2="297.95" y2="300.82"/>
  <polygon class="cls-4" points="311.26 248.72 311.26 255.25 303.88 255.25 302.54 254.24 302.54 249.32 303.88 248.72 311.26 248.72"/>
  <polyline class="cls-4" points="311.26 250.21 309.47 250.21 309.47 253.79 311.26 253.79"/>
  <line class="cls-4" x1="308.69" y1="248.72" x2="308.69" y2="255.24"/>
  <polygon class="cls-4" points="311.26 255.92 311.26 262.44 303.88 262.44 302.54 261.44 302.54 256.52 303.88 255.92 311.26 255.92"/>
  <polyline class="cls-4" points="311.26 257.41 309.47 257.41 309.47 260.99 311.26 260.99"/>
  <line class="cls-4" x1="308.69" y1="255.92" x2="308.69" y2="262.44"/>
  <polygon class="cls-4" points="311.26 263.11 311.26 269.64 303.88 269.64 302.54 268.63 302.54 263.72 303.88 263.11 311.26 263.11"/>
  <polyline class="cls-4" points="311.26 264.61 309.47 264.61 309.47 268.19 311.26 268.19"/>
  <line class="cls-4" x1="308.69" y1="263.11" x2="308.69" y2="269.64"/>
  <polygon class="cls-4" points="311.26 279.9 311.26 286.42 303.88 286.42 302.54 285.42 302.54 280.5 303.88 279.9 311.26 279.9"/>
  <polyline class="cls-4" points="311.26 281.39 309.47 281.39 309.47 284.97 311.26 284.97"/>
  <line class="cls-4" x1="308.69" y1="279.9" x2="308.69" y2="286.42"/>
  <polygon class="cls-4" points="311.26 287.1 311.26 293.62 303.88 293.62 302.54 292.62 302.54 287.7 303.88 287.1 311.26 287.1"/>
  <polyline class="cls-4" points="311.26 288.59 309.47 288.59 309.47 292.17 311.26 292.17"/>
  <line class="cls-4" x1="308.69" y1="287.1" x2="308.69" y2="293.62"/>
  <polygon class="cls-4" points="311.26 294.29 311.26 300.82 303.88 300.82 302.54 299.81 302.54 294.89 303.88 294.29 311.26 294.29"/>
  <polyline class="cls-4" points="311.26 295.79 309.47 295.79 309.47 299.37 311.26 299.37"/>
  <line class="cls-4" x1="308.69" y1="294.29" x2="308.69" y2="300.82"/>
  <polygon class="cls-4" points="322.19 248.72 322.19 255.25 314.81 255.25 313.46 254.24 313.46 249.32 314.81 248.72 322.19 248.72"/>
  <polyline class="cls-4" points="322.19 250.21 320.4 250.21 320.4 253.79 322.19 253.79"/>
  <line class="cls-4" x1="319.61" y1="248.72" x2="319.61" y2="255.24"/>
  <polygon class="cls-4" points="322.19 255.92 322.19 262.44 314.81 262.44 313.46 261.44 313.46 256.52 314.81 255.92 322.19 255.92"/>
  <polyline class="cls-4" points="322.19 257.41 320.4 257.41 320.4 260.99 322.19 260.99"/>
  <line class="cls-4" x1="319.61" y1="255.92" x2="319.61" y2="262.44"/>
  <polygon class="cls-4" points="322.19 263.11 322.19 269.64 314.81 269.64 313.46 268.63 313.46 263.72 314.81 263.11 322.19 263.11"/>
  <polyline class="cls-4" points="322.19 264.61 320.4 264.61 320.4 268.19 322.19 268.19"/>
  <line class="cls-4" x1="319.61" y1="263.11" x2="319.61" y2="269.64"/>
  <polygon class="cls-4" points="322.19 279.9 322.19 286.42 314.81 286.42 313.46 285.42 313.46 280.5 314.81 279.9 322.19 279.9"/>
  <polyline class="cls-4" points="322.19 281.39 320.4 281.39 320.4 284.97 322.19 284.97"/>
  <line class="cls-4" x1="319.61" y1="279.9" x2="319.61" y2="286.42"/>
  <polygon class="cls-4" points="322.19 287.1 322.19 293.62 314.81 293.62 313.46 292.62 313.46 287.7 314.81 287.1 322.19 287.1"/>
  <polyline class="cls-4" points="322.19 288.59 320.4 288.59 320.4 292.17 322.19 292.17"/>
  <line class="cls-4" x1="319.61" y1="287.1" x2="319.61" y2="293.62"/>
  <polygon class="cls-4" points="322.19 294.29 322.19 300.82 314.81 300.82 313.46 299.81 313.46 294.89 314.81 294.29 322.19 294.29"/>
  <polyline class="cls-4" points="322.19 295.79 320.4 295.79 320.4 299.37 322.19 299.37"/>
  <line class="cls-4" x1="319.61" y1="294.29" x2="319.61" y2="300.82"/>
  <polygon class="cls-4" points="332.88 248.72 332.88 255.25 325.5 255.25 324.16 254.24 324.16 249.32 325.5 248.72 332.88 248.72"/>
  <polyline class="cls-4" points="332.88 250.21 331.09 250.21 331.09 253.79 332.88 253.79"/>
  <line class="cls-4" x1="330.3" y1="248.72" x2="330.3" y2="255.24"/>
  <polygon class="cls-4" points="332.88 255.92 332.88 262.44 325.5 262.44 324.16 261.44 324.16 256.52 325.5 255.92 332.88 255.92"/>
  <polyline class="cls-4" points="332.88 257.41 331.09 257.41 331.09 260.99 332.88 260.99"/>
  <line class="cls-4" x1="330.3" y1="255.92" x2="330.3" y2="262.44"/>
  <polygon class="cls-4" points="332.88 263.11 332.88 269.64 325.5 269.64 324.16 268.63 324.16 263.72 325.5 263.11 332.88 263.11"/>
  <polyline class="cls-4" points="332.88 264.61 331.09 264.61 331.09 268.19 332.88 268.19"/>
  <line class="cls-4" x1="330.3" y1="263.11" x2="330.3" y2="269.64"/>
  <polygon class="cls-4" points="332.88 279.9 332.88 286.42 325.5 286.42 324.16 285.42 324.16 280.5 325.5 279.9 332.88 279.9"/>
  <polyline class="cls-4" points="332.88 281.39 331.09 281.39 331.09 284.97 332.88 284.97"/>
  <line class="cls-4" x1="330.3" y1="279.9" x2="330.3" y2="286.42"/>
  <polygon class="cls-4" points="332.88 287.1 332.88 293.62 325.5 293.62 324.16 292.62 324.16 287.7 325.5 287.1 332.88 287.1"/>
  <polyline class="cls-4" points="332.88 288.59 331.09 288.59 331.09 292.17 332.88 292.17"/>
  <line class="cls-4" x1="330.3" y1="287.1" x2="330.3" y2="293.62"/>
  <polygon class="cls-4" points="332.88 294.29 332.88 300.82 325.5 300.82 324.16 299.81 324.16 294.89 325.5 294.29 332.88 294.29"/>
  <polyline class="cls-4" points="332.88 295.79 331.09 295.79 331.09 299.37 332.88 299.37"/>
  <line class="cls-4" x1="330.3" y1="294.29" x2="330.3" y2="300.82"/>
  <polygon class="cls-4" points="343.91 248.72 343.91 255.25 336.53 255.25 335.19 254.24 335.19 249.32 336.53 248.72 343.91 248.72"/>
  <polyline class="cls-4" points="343.91 250.21 342.12 250.21 342.12 253.79 343.91 253.79"/>
  <line class="cls-4" x1="341.34" y1="248.72" x2="341.34" y2="255.24"/>
  <polygon class="cls-4" points="343.91 255.92 343.91 262.44 336.53 262.44 335.19 261.44 335.19 256.52 336.53 255.92 343.91 255.92"/>
  <polyline class="cls-4" points="343.91 257.41 342.12 257.41 342.12 260.99 343.91 260.99"/>
  <line class="cls-4" x1="341.34" y1="255.92" x2="341.34" y2="262.44"/>
  <polygon class="cls-4" points="343.91 263.11 343.91 269.64 336.53 269.64 335.19 268.63 335.19 263.72 336.53 263.11 343.91 263.11"/>
  <polyline class="cls-4" points="343.91 264.61 342.12 264.61 342.12 268.19 343.91 268.19"/>
  <line class="cls-4" x1="341.34" y1="263.11" x2="341.34" y2="269.64"/>
  <polygon class="cls-4" points="343.91 279.9 343.91 286.42 336.53 286.42 335.19 285.42 335.19 280.5 336.53 279.9 343.91 279.9"/>
  <polyline class="cls-4" points="343.91 281.39 342.12 281.39 342.12 284.97 343.91 284.97"/>
  <line class="cls-4" x1="341.34" y1="279.9" x2="341.34" y2="286.42"/>
  <polygon class="cls-4" points="343.91 287.1 343.91 293.62 336.53 293.62 335.19 292.62 335.19 287.7 336.53 287.1 343.91 287.1"/>
  <polyline class="cls-4" points="343.91 288.59 342.12 288.59 342.12 292.17 343.91 292.17"/>
  <line class="cls-4" x1="341.34" y1="287.1" x2="341.34" y2="293.62"/>
  <polygon class="cls-4" points="343.91 294.29 343.91 300.82 336.53 300.82 335.19 299.81 335.19 294.89 336.53 294.29 343.91 294.29"/>
  <polyline class="cls-4" points="343.91 295.79 342.12 295.79 342.12 299.37 343.91 299.37"/>
  <line class="cls-4" x1="341.34" y1="294.29" x2="341.34" y2="300.82"/>
  <polygon class="cls-4" points="354.87 248.72 354.87 255.25 347.49 255.25 346.14 254.24 346.14 249.32 347.49 248.72 354.87 248.72"/>
  <polyline class="cls-4" points="354.87 250.21 353.08 250.21 353.08 253.79 354.87 253.79"/>
  <line class="cls-4" x1="352.29" y1="248.72" x2="352.29" y2="255.24"/>
  <polygon class="cls-4" points="354.87 255.92 354.87 262.44 347.49 262.44 346.14 261.44 346.14 256.52 347.49 255.92 354.87 255.92"/>
  <polyline class="cls-4" points="354.87 257.41 353.08 257.41 353.08 260.99 354.87 260.99"/>
  <line class="cls-4" x1="352.29" y1="255.92" x2="352.29" y2="262.44"/>
  <polygon class="cls-4" points="354.87 263.11 354.87 269.64 347.49 269.64 346.14 268.63 346.14 263.72 347.49 263.11 354.87 263.11"/>
  <polyline class="cls-4" points="354.87 264.61 353.08 264.61 353.08 268.19 354.87 268.19"/>
  <line class="cls-4" x1="352.29" y1="263.11" x2="352.29" y2="269.64"/>
  <polygon class="cls-4" points="354.87 279.9 354.87 286.42 347.49 286.42 346.14 285.42 346.14 280.5 347.49 279.9 354.87 279.9"/>
  <polyline class="cls-4" points="354.87 281.39 353.08 281.39 353.08 284.97 354.87 284.97"/>
  <line class="cls-4" x1="352.29" y1="279.9" x2="352.29" y2="286.42"/>
  <polygon class="cls-4" points="354.87 287.1 354.87 293.62 347.49 293.62 346.14 292.62 346.14 287.7 347.49 287.1 354.87 287.1"/>
  <polyline class="cls-4" points="354.87 288.59 353.08 288.59 353.08 292.17 354.87 292.17"/>
  <line class="cls-4" x1="352.29" y1="287.1" x2="352.29" y2="293.62"/>
  <polygon class="cls-4" points="354.87 294.29 354.87 300.82 347.49 300.82 346.14 299.81 346.14 294.89 347.49 294.29 354.87 294.29"/>
  <polyline class="cls-4" points="354.87 295.79 353.08 295.79 353.08 299.37 354.87 299.37"/>
  <line class="cls-4" x1="352.29" y1="294.29" x2="352.29" y2="300.82"/>
  <polygon class="cls-4" points="365.6 248.72 365.6 255.25 358.22 255.25 356.88 254.24 356.88 249.32 358.22 248.72 365.6 248.72"/>
  <polyline class="cls-4" points="365.6 250.21 363.81 250.21 363.81 253.79 365.6 253.79"/>
  <line class="cls-4" x1="363.03" y1="248.72" x2="363.03" y2="255.24"/>
  <polygon class="cls-4" points="365.6 255.92 365.6 262.44 358.22 262.44 356.88 261.44 356.88 256.52 358.22 255.92 365.6 255.92"/>
  <polyline class="cls-4" points="365.6 257.41 363.81 257.41 363.81 260.99 365.6 260.99"/>
  <line class="cls-4" x1="363.03" y1="255.92" x2="363.03" y2="262.44"/>
  <polygon class="cls-4" points="365.6 263.11 365.6 269.64 358.22 269.64 356.88 268.63 356.88 263.72 358.22 263.11 365.6 263.11"/>
  <polyline class="cls-4" points="365.6 264.61 363.81 264.61 363.81 268.19 365.6 268.19"/>
  <line class="cls-4" x1="363.03" y1="263.11" x2="363.03" y2="269.64"/>
  <polygon class="cls-4" points="365.6 279.9 365.6 286.42 358.22 286.42 356.88 285.42 356.88 280.5 358.22 279.9 365.6 279.9"/>
  <polyline class="cls-4" points="365.6 281.39 363.81 281.39 363.81 284.97 365.6 284.97"/>
  <line class="cls-4" x1="363.03" y1="279.9" x2="363.03" y2="286.42"/>
  <polygon class="cls-4" points="365.6 287.1 365.6 293.62 358.22 293.62 356.88 292.62 356.88 287.7 358.22 287.1 365.6 287.1"/>
  <polyline class="cls-4" points="365.6 288.59 363.81 288.59 363.81 292.17 365.6 292.17"/>
  <line class="cls-4" x1="363.03" y1="287.1" x2="363.03" y2="293.62"/>
  <polygon class="cls-4" points="365.6 294.29 365.6 300.82 358.22 300.82 356.88 299.81 356.88 294.89 358.22 294.29 365.6 294.29"/>
  <polyline class="cls-4" points="365.6 295.79 363.81 295.79 363.81 299.37 365.6 299.37"/>
  <line class="cls-4" x1="363.03" y1="294.29" x2="363.03" y2="300.82"/>
  <polygon class="cls-4" points="376.78 248.72 376.78 255.25 369.4 255.25 368.06 254.24 368.06 249.32 369.4 248.72 376.78 248.72"/>
  <polyline class="cls-4" points="376.78 250.21 374.99 250.21 374.99 253.79 376.78 253.79"/>
  <line class="cls-4" x1="374.21" y1="248.72" x2="374.21" y2="255.24"/>
  <polygon class="cls-4" points="376.78 255.92 376.78 262.44 369.4 262.44 368.06 261.44 368.06 256.52 369.4 255.92 376.78 255.92"/>
  <polyline class="cls-4" points="376.78 257.41 374.99 257.41 374.99 260.99 376.78 260.99"/>
  <line class="cls-4" x1="374.21" y1="255.92" x2="374.21" y2="262.44"/>
  <polygon class="cls-4" points="376.78 263.11 376.78 269.64 369.4 269.64 368.06 268.63 368.06 263.72 369.4 263.11 376.78 263.11"/>
  <polyline class="cls-4" points="376.78 264.61 374.99 264.61 374.99 268.19 376.78 268.19"/>
  <line class="cls-4" x1="374.21" y1="263.11" x2="374.21" y2="269.64"/>
  <polygon class="cls-4" points="376.78 279.9 376.78 286.42 369.4 286.42 368.06 285.42 368.06 280.5 369.4 279.9 376.78 279.9"/>
  <polyline class="cls-4" points="376.78 281.39 374.99 281.39 374.99 284.97 376.78 284.97"/>
  <line class="cls-4" x1="374.21" y1="279.9" x2="374.21" y2="286.42"/>
  <polygon class="cls-4" points="376.78 287.1 376.78 293.62 369.4 293.62 368.06 292.62 368.06 287.7 369.4 287.1 376.78 287.1"/>
  <polyline class="cls-4" points="376.78 288.59 374.99 288.59 374.99 292.17 376.78 292.17"/>
  <line class="cls-4" x1="374.21" y1="287.1" x2="374.21" y2="293.62"/>
  <polygon class="cls-4" points="376.78 294.29 376.78 300.82 369.4 300.82 368.06 299.81 368.06 294.89 369.4 294.29 376.78 294.29"/>
  <polyline class="cls-4" points="376.78 295.79 374.99 295.79 374.99 299.37 376.78 299.37"/>
  <line class="cls-4" x1="374.21" y1="294.29" x2="374.21" y2="300.82"/>
  <polygon class="cls-4" points="387.29 248.72 387.29 255.25 379.91 255.25 378.57 254.24 378.57 249.32 379.91 248.72 387.29 248.72"/>
  <polyline class="cls-4" points="387.29 250.21 385.5 250.21 385.5 253.79 387.29 253.79"/>
  <line class="cls-4" x1="384.72" y1="248.72" x2="384.72" y2="255.24"/>
  <polygon class="cls-4" points="387.29 255.92 387.29 262.44 379.91 262.44 378.57 261.44 378.57 256.52 379.91 255.92 387.29 255.92"/>
  <polyline class="cls-4" points="387.29 257.41 385.5 257.41 385.5 260.99 387.29 260.99"/>
  <line class="cls-4" x1="384.72" y1="255.92" x2="384.72" y2="262.44"/>
  <polygon class="cls-4" points="387.29 263.11 387.29 269.64 379.91 269.64 378.57 268.63 378.57 263.72 379.91 263.11 387.29 263.11"/>
  <polyline class="cls-4" points="387.29 264.61 385.5 264.61 385.5 268.19 387.29 268.19"/>
  <line class="cls-4" x1="384.72" y1="263.11" x2="384.72" y2="269.64"/>
  <polygon class="cls-4" points="387.29 279.9 387.29 286.42 379.91 286.42 378.57 285.42 378.57 280.5 379.91 279.9 387.29 279.9"/>
  <polyline class="cls-4" points="387.29 281.39 385.5 281.39 385.5 284.97 387.29 284.97"/>
  <line class="cls-4" x1="384.72" y1="279.9" x2="384.72" y2="286.42"/>
  <polygon class="cls-4" points="387.29 287.1 387.29 293.62 379.91 293.62 378.57 292.62 378.57 287.7 379.91 287.1 387.29 287.1"/>
  <polyline class="cls-4" points="387.29 288.59 385.5 288.59 385.5 292.17 387.29 292.17"/>
  <line class="cls-4" x1="384.72" y1="287.1" x2="384.72" y2="293.62"/>
  <polygon class="cls-4" points="387.29 294.29 387.29 300.82 379.91 300.82 378.57 299.81 378.57 294.89 379.91 294.29 387.29 294.29"/>
  <polyline class="cls-4" points="387.29 295.79 385.5 295.79 385.5 299.37 387.29 299.37"/>
  <line class="cls-4" x1="384.72" y1="294.29" x2="384.72" y2="300.82"/>
  <polygon class="cls-4" points="398.24 248.72 398.24 255.25 390.87 255.25 389.52 254.24 389.52 249.32 390.87 248.72 398.24 248.72"/>
  <polyline class="cls-4" points="398.24 250.21 396.45 250.21 396.45 253.79 398.24 253.79"/>
  <line class="cls-4" x1="395.67" y1="248.72" x2="395.67" y2="255.24"/>
  <polygon class="cls-4" points="398.24 255.92 398.24 262.44 390.87 262.44 389.52 261.44 389.52 256.52 390.87 255.92 398.24 255.92"/>
  <polyline class="cls-4" points="398.24 257.41 396.45 257.41 396.45 260.99 398.24 260.99"/>
  <line class="cls-4" x1="395.67" y1="255.92" x2="395.67" y2="262.44"/>
  <polygon class="cls-4" points="398.24 263.11 398.24 269.64 390.87 269.64 389.52 268.63 389.52 263.72 390.87 263.11 398.24 263.11"/>
  <polyline class="cls-4" points="398.24 264.61 396.45 264.61 396.45 268.19 398.24 268.19"/>
  <line class="cls-4" x1="395.67" y1="263.11" x2="395.67" y2="269.64"/>
  <polygon class="cls-4" points="398.24 279.9 398.24 286.42 390.87 286.42 389.52 285.42 389.52 280.5 390.87 279.9 398.24 279.9"/>
  <polyline class="cls-4" points="398.24 281.39 396.45 281.39 396.45 284.97 398.24 284.97"/>
  <line class="cls-4" x1="395.67" y1="279.9" x2="395.67" y2="286.42"/>
  <polygon class="cls-4" points="398.24 287.1 398.24 293.62 390.87 293.62 389.52 292.62 389.52 287.7 390.87 287.1 398.24 287.1"/>
  <polyline class="cls-4" points="398.24 288.59 396.45 288.59 396.45 292.17 398.24 292.17"/>
  <line class="cls-4" x1="395.67" y1="287.1" x2="395.67" y2="293.62"/>
  <polygon class="cls-4" points="398.24 294.29 398.24 300.82 390.87 300.82 389.52 299.81 389.52 294.89 390.87 294.29 398.24 294.29"/>
  <polyline class="cls-4" points="398.24 295.79 396.45 295.79 396.45 299.37 398.24 299.37"/>
  <line class="cls-4" x1="395.67" y1="294.29" x2="395.67" y2="300.82"/>
  <polygon class="cls-4" points="409.2 248.72 409.2 255.25 401.82 255.25 400.48 254.24 400.48 249.32 401.82 248.72 409.2 248.72"/>
  <polyline class="cls-4" points="409.2 250.21 407.41 250.21 407.41 253.79 409.2 253.79"/>
  <line class="cls-4" x1="406.63" y1="248.72" x2="406.63" y2="255.24"/>
  <polygon class="cls-4" points="409.2 255.92 409.2 262.44 401.82 262.44 400.48 261.44 400.48 256.52 401.82 255.92 409.2 255.92"/>
  <polyline class="cls-4" points="409.2 257.41 407.41 257.41 407.41 260.99 409.2 260.99"/>
  <line class="cls-4" x1="406.63" y1="255.92" x2="406.63" y2="262.44"/>
  <polygon class="cls-4" points="409.2 263.11 409.2 269.64 401.82 269.64 400.48 268.63 400.48 263.72 401.82 263.11 409.2 263.11"/>
  <polyline class="cls-4" points="409.2 264.61 407.41 264.61 407.41 268.19 409.2 268.19"/>
  <line class="cls-4" x1="406.63" y1="263.11" x2="406.63" y2="269.64"/>
  <polygon class="cls-4" points="409.2 279.9 409.2 286.42 401.82 286.42 400.48 285.42 400.48 280.5 401.82 279.9 409.2 279.9"/>
  <polyline class="cls-4" points="409.2 281.39 407.41 281.39 407.41 284.97 409.2 284.97"/>
  <line class="cls-4" x1="406.63" y1="279.9" x2="406.63" y2="286.42"/>
  <polygon class="cls-4" points="409.2 287.1 409.2 293.62 401.82 293.62 400.48 292.62 400.48 287.7 401.82 287.1 409.2 287.1"/>
  <polyline class="cls-4" points="409.2 288.59 407.41 288.59 407.41 292.17 409.2 292.17"/>
  <line class="cls-4" x1="406.63" y1="287.1" x2="406.63" y2="293.62"/>
  <polygon class="cls-4" points="409.2 294.29 409.2 300.82 401.82 300.82 400.48 299.81 400.48 294.89 401.82 294.29 409.2 294.29"/>
  <polyline class="cls-4" points="409.2 295.79 407.41 295.79 407.41 299.37 409.2 299.37"/>
  <line class="cls-4" x1="406.63" y1="294.29" x2="406.63" y2="300.82"/>
  <polygon class="cls-4" points="420.05 248.72 420.05 255.25 412.67 255.25 411.32 254.24 411.32 249.32 412.67 248.72 420.05 248.72"/>
  <polyline class="cls-4" points="420.05 250.21 418.26 250.21 418.26 253.79 420.05 253.79"/>
  <line class="cls-4" x1="417.47" y1="248.72" x2="417.47" y2="255.24"/>
  <polygon class="cls-4" points="420.05 255.92 420.05 262.44 412.67 262.44 411.32 261.44 411.32 256.52 412.67 255.92 420.05 255.92"/>
  <polyline class="cls-4" points="420.05 257.41 418.26 257.41 418.26 260.99 420.05 260.99"/>
  <line class="cls-4" x1="417.47" y1="255.92" x2="417.47" y2="262.44"/>
  <polygon class="cls-4" points="420.05 263.11 420.05 269.64 412.67 269.64 411.32 268.63 411.32 263.72 412.67 263.11 420.05 263.11"/>
  <polyline class="cls-4" points="420.05 264.61 418.26 264.61 418.26 268.19 420.05 268.19"/>
  <line class="cls-4" x1="417.47" y1="263.11" x2="417.47" y2="269.64"/>
  <polygon class="cls-4" points="420.05 279.9 420.05 286.42 412.67 286.42 411.32 285.42 411.32 280.5 412.67 279.9 420.05 279.9"/>
  <polyline class="cls-4" points="420.05 281.39 418.26 281.39 418.26 284.97 420.05 284.97"/>
  <line class="cls-4" x1="417.47" y1="279.9" x2="417.47" y2="286.42"/>
  <polygon class="cls-4" points="420.05 287.1 420.05 293.62 412.67 293.62 411.32 292.62 411.32 287.7 412.67 287.1 420.05 287.1"/>
  <polyline class="cls-4" points="420.05 288.59 418.26 288.59 418.26 292.17 420.05 292.17"/>
  <line class="cls-4" x1="417.47" y1="287.1" x2="417.47" y2="293.62"/>
  <polygon class="cls-4" points="420.05 294.29 420.05 300.82 412.67 300.82 411.32 299.81 411.32 294.89 412.67 294.29 420.05 294.29"/>
  <polyline class="cls-4" points="420.05 295.79 418.26 295.79 418.26 299.37 420.05 299.37"/>
  <line class="cls-4" x1="417.47" y1="294.29" x2="417.47" y2="300.82"/>
  <polygon class="cls-4" points="431.01 249.43 431.01 255.74 423.88 255.74 422.59 254.77 422.59 250.01 423.88 249.43 431.01 249.43"/>
  <polyline class="cls-4" points="431.01 250.88 429.28 250.88 429.28 254.34 431.01 254.34"/>
  <line class="cls-4" x1="428.53" y1="249.43" x2="428.53" y2="255.74"/>
  <polygon class="cls-4" points="431.01 256.39 431.01 262.7 423.88 262.7 422.59 261.72 422.59 256.97 423.88 256.39 431.01 256.39"/>
  <polyline class="cls-4" points="431.01 257.83 429.28 257.83 429.28 261.29 431.01 261.29"/>
  <line class="cls-4" x1="428.53" y1="256.39" x2="428.53" y2="262.7"/>
  <polygon class="cls-4" points="431.01 263.34 431.01 269.65 423.88 269.65 422.59 268.68 422.59 263.93 423.88 263.34 431.01 263.34"/>
  <polyline class="cls-4" points="431.01 264.79 429.28 264.79 429.28 268.25 431.01 268.25"/>
  <line class="cls-4" x1="428.53" y1="263.34" x2="428.53" y2="269.65"/>
  <polygon class="cls-4" points="431.01 279.56 431.01 285.87 423.88 285.87 422.59 284.9 422.59 280.14 423.88 279.56 431.01 279.56"/>
  <polyline class="cls-4" points="431.01 281.01 429.28 281.01 429.28 284.47 431.01 284.47"/>
  <line class="cls-4" x1="428.53" y1="279.56" x2="428.53" y2="285.87"/>
  <polygon class="cls-4" points="431.01 286.52 431.01 292.83 423.88 292.83 422.59 291.86 422.59 287.1 423.88 286.52 431.01 286.52"/>
  <polyline class="cls-4" points="431.01 287.97 429.28 287.97 429.28 291.42 431.01 291.42"/>
  <line class="cls-4" x1="428.53" y1="286.52" x2="428.53" y2="292.83"/>
  <polygon class="cls-4" points="431.01 293.48 431.01 299.79 423.88 299.79 422.59 298.81 422.59 294.06 423.88 293.48 431.01 293.48"/>
  <polyline class="cls-4" points="431.01 294.92 429.28 294.92 429.28 298.38 431.01 298.38"/>
  <line class="cls-4" x1="428.53" y1="293.48" x2="428.53" y2="299.78"/>
  <polygon class="cls-4" points="441.62 250.21 441.62 256.74 434.24 256.74 432.9 255.74 432.9 250.82 434.24 250.21 441.62 250.21"/>
  <polyline class="cls-4" points="441.62 251.71 439.83 251.71 439.83 255.29 441.62 255.29"/>
  <line class="cls-4" x1="439.05" y1="250.21" x2="439.05" y2="256.74"/>
  <polygon class="cls-4" points="441.62 257.41 441.62 263.94 434.24 263.94 432.9 262.93 432.9 258.01 434.24 257.41 441.62 257.41"/>
  <polyline class="cls-4" points="441.62 258.91 439.83 258.91 439.83 262.49 441.62 262.49"/>
  <line class="cls-4" x1="439.05" y1="257.41" x2="439.05" y2="263.94"/>
  <polygon class="cls-4" points="441.62 264.61 441.62 271.14 434.24 271.14 432.9 270.13 432.9 265.21 434.24 264.61 441.62 264.61"/>
  <polyline class="cls-4" points="441.62 266.11 439.83 266.11 439.83 269.68 441.62 269.68"/>
  <line class="cls-4" x1="439.05" y1="264.61" x2="439.05" y2="271.14"/>
  <polygon class="cls-4" points="441.62 278.13 441.62 284.66 434.24 284.66 432.9 283.65 432.9 278.73 434.24 278.13 441.62 278.13"/>
  <polyline class="cls-4" points="441.62 279.63 439.83 279.63 439.83 283.2 441.62 283.2"/>
  <line class="cls-4" x1="439.05" y1="278.13" x2="439.05" y2="284.66"/>
  <polygon class="cls-4" points="441.62 285.33 441.62 291.86 434.24 291.86 432.9 290.85 432.9 285.93 434.24 285.33 441.62 285.33"/>
  <polyline class="cls-4" points="441.62 286.82 439.83 286.82 439.83 290.4 441.62 290.4"/>
  <line class="cls-4" x1="439.05" y1="285.33" x2="439.05" y2="291.86"/>
  <polygon class="cls-4" points="441.62 292.53 441.62 299.05 434.24 299.05 432.9 298.05 432.9 293.13 434.24 292.53 441.62 292.53"/>
  <polyline class="cls-4" points="441.62 294.02 439.83 294.02 439.83 297.6 441.62 297.6"/>
  <line class="cls-4" x1="439.05" y1="292.53" x2="439.05" y2="299.05"/>
  <line class="cls-1" x1="461.53" y1="251.41" x2="461.53" y2="296.65"/>
  <line class="cls-1" x1="476.5" y1="255.92" x2="461.53" y2="255.92"/>
  <line class="cls-1" x1="476.5" y1="266.38" x2="461.53" y2="266.38"/>
  <line class="cls-1" x1="476.5" y1="276.71" x2="461.53" y2="276.71"/>
  <line class="cls-1" x1="476.5" y1="290.4" x2="461.53" y2="290.36"/>
  <path class="cls-5" d="M596.73,275l-1.08,8.42a22,22,0,0,1-13.29-2.4v-8.18" transform="translate(-135.8 -26.66)"/>
  <path class="cls-5" d="M596.73,327.45,595.65,319a22.14,22.14,0,0,0-7.38.27,21.73,21.73,0,0,0-5.91,2.14v8.18" transform="translate(-135.8 -26.66)"/>
  <path class="cls-5" d="M354.6,270.58v3.84a17.81,17.81,0,0,0,3.8.44,18.36,18.36,0,0,0,4.25-.44v-3.9" transform="translate(-135.8 -26.66)"/>
  <path class="cls-5" d="M367.57,270.58v3.84a17.83,17.83,0,0,0,3.81.44,18.43,18.43,0,0,0,4.25-.44v-3.9" transform="translate(-135.8 -26.66)"/>
  <path class="cls-5" d="M354.6,332.26v-3.84a18.17,18.17,0,0,1,8,0v3.9" transform="translate(-135.8 -26.66)"/>
  <path class="cls-5" d="M367.57,332.26v-3.84a18.22,18.22,0,0,1,8.06,0v3.9" transform="translate(-135.8 -26.66)"/>
  <path class="cls-5" d="M207,270.69l1.12,11.22a48.71,48.71,0,0,0,7.05.11,47,47,0,0,0,7.38-1V270.44" transform="translate(-135.8 -26.66)"/>
  <path class="cls-5" d="M207,331.61l1.12-11.22a48.71,48.71,0,0,1,7.05-.11,47,47,0,0,1,7.38,1v10.57" transform="translate(-135.8 -26.66)"/>
  <polyline class="cls-2" points="69.77 248.72 69.77 275.14 56.3 275.14"/>
  <polyline class="cls-2" points="56.3 282.64 69.77 282.64 69.77 300.68"/>
  <polyline class="cls-2" points="94.03 247.64 94.03 270.7 87.66 270.7 87.66 246.86"/>
  <polyline class="cls-2" points="94.03 301.67 94.03 281.81 87.66 281.81 87.66 301.51"/>
</svg>
