<?xml version="1.0" encoding="utf-8"?>
<svg version="1.1" xmlns="http://www.w3.org/2000/svg" xmlns:xlink="http://www.w3.org/1999/xlink" x="0px" y="0px"
	 viewBox="0 0 657 301.7" style="enable-background:new 0 0 657 301.7;" xml:space="preserve">
	<style type="text/css">
		.st0{display:none;}
		.st1{display:inline;}
		.st2{clip-path:url(#SVGID_2_);fill:none;stroke:#FFFFFF;stroke-width:0.75;stroke-miterlimit:10;}
		.st3{clip-path:url(#SVGID_2_);fill:none;stroke:#FFFFFF;stroke-miterlimit:10;}
		.st4{clip-path:url(#SVGID_2_);fill:none;stroke:#FFFFFF;stroke-width:0.25;stroke-miterlimit:10;}
		.st5{clip-path:url(#SVGID_2_);fill:none;stroke:#FFFFFF;stroke-width:0.5;stroke-miterlimit:10;}
		.st6{clip-path:url(#SVGID_2_);fill:none;stroke:#D43500;stroke-miterlimit:10;}
	</style>
	<g>
		<defs>
			<rect id="SVGID_1_" width="657" height="301.7"/>
		</defs>
		<clipPath id="SVGID_2_">
			<use xlink:href="#SVGID_1_"  style="overflow:visible;"/>
		</clipPath>
		<polygon class="st2" points="40.5,170.5 29.8,151 40.5,151 49,167.8 		"/>
		<polygon class="st2" points="41.8,171.8 50,168.7 56.9,171.8 56.9,180.8 		"/>
		<polygon class="st2" points="58.6,180.8 58.6,173.1 66,175.9 68.7,179.2 68.7,184.9 		"/>
		<polygon class="st2" points="40.6,130 29.9,149.5 40.6,149.5 49.1,132.7 		"/>
		<polygon class="st2" points="41.9,128.7 50.1,131.8 57,128.7 57,119.7 		"/>
		<polygon class="st2" points="58.7,119.7 58.7,127.4 66.1,124.6 68.8,121.3 68.8,115.6 		"/>
		<path class="st3" d="M394.1,109V17.9l69.4-228.8l20.3-12.1h-7.5l-41.6,12.1L271.7,103c-2.6,1.5-5.3,2.7-8.2,3.7
			c-5.3,1.8-10.8,2.6-16.4,2.4L394.1,109z"/>
		<path class="st2" d="M394.1,52.5c6.4,0.2,12.8-1.2,18.6-3.9c-2.8-0.9-5.6-1.6-8.5-2.1c-3.3-0.6-6.7-1-10.1-1.1"/>
		<path class="st2" d="M406.6-25.6c3.4,0.1,6.8,0.5,10.1,1.1c2.9,0.5,5.7,1.2,8.5,2.1c-5.8,2.8-12.2,4.1-18.6,3.9h-1.5"/>
		<path class="st2" d="M429.2-100.6c6.3,0.2,12.6,1.3,18.6,3.2c-2.6,1.2-5.3,2.2-8.1,2.8c-3.4,0.8-7,1.2-10.5,1.1h-1.5"/>
		<path class="st2" d="M382.7,109c0.3-30.6,0.5-61.3,0.8-91.9c16.9-47.5,33.9-95.1,50.9-142.6l3.5-0.6"/>
		<path class="st2" d="M394.1,17.9l-10.6-0.8"/>
		<polyline class="st2" points="382.7,56.2 367.8,56.2 367.8,20.4 383.4,20.4 		"/>
		<polyline class="st2" points="385.9,10.4 371.4,5.8 418.2,-123.1 431.7,-118.1 		"/>
		<line class="st2" x1="420.9" y1="-88" x2="407.1" y2="-92.5"/>
		<line class="st2" x1="410.2" y1="-57.5" x2="396.4" y2="-61.9"/>
		<line class="st2" x1="398.5" y1="-24.4" x2="384.7" y2="-28.9"/>
		<polyline class="st2" points="424.1,-190.5 429.5,-190.5 438.7,-207.4 445.1,-211.7 442.4,-213.1 		"/>
		<polyline class="st2" points="313.3,22.7 323.4,22.7 429.3,-185 423.2,-188.9 		"/>
		<line class="st2" x1="397.9" y1="-140.1" x2="404.6" y2="-136.5"/>
		<line class="st2" x1="371.7" y1="-89.7" x2="378.7" y2="-85.7"/>
		<line class="st2" x1="345.2" y1="-38.6" x2="352.5" y2="-34.3"/>
		<polyline class="st2" points="438.4,-128.3 424.1,-128.3 445.1,-188.9 456.8,-188.9 		"/>
		<polyline class="st2" points="272.2,101.9 282.8,104.3 313.3,43 305.3,38.3 		"/>
		<path class="st2" d="M299.5,109V96.2c0-1.5,0.5-3,1.5-4.1c1.6-1.6,4-2.2,6.2-1.5h75.5"/>
		<polyline class="st4" points="348.8,90.3 359.1,31.7 440.4,-188.9 432.8,-188.9 284.4,104.3 299.5,107.5 		"/>
		<path class="st3" d="M295.4,57.4c-7.9,0.6-15.9,1.2-24,1.6c-3.9,0.2-7.7,0.4-11.5,0.5c-3.5,3.3-9.1,3.2-12.4-0.3
			c-0.1-0.2-0.3-0.3-0.4-0.5h-2.9l-3.7-0.5l-1.1-1.9c-0.6-7.4-1.1-15.4-1.1-24c0-8.6,0.4-16.7,1-24c0.9-0.3,1.8-0.6,2.7-0.9
			c1.8-0.5,3.7-0.9,5.6-1.1c3.4-0.4,6.8-0.5,10.1-0.4"/>
		<path class="st3" d="M254.8,8.2c4.7-2.9,10-4.5,15.5-4.6v4.6H254.8z"/>
		<path class="st3" d="M270.2,5.8c6.7,0.3,13.9,0.9,21.3,1.8c6.4,0.8,12.4,1.7,18.1,2.7v13.6h3"/>
		<path class="st3" d="M240.3,58.2l-5.1-1.9c-0.8-7.4-1.3-14.8-1.4-22.2c-0.1-8.3,0.4-16.7,1.4-24.9l3.9-0.8"/>
		<path class="st3" d="M305.8,37.2h-34.1c-4.4,0-8.6-1.8-11.6-5c3-3.6,7.5-5.6,12.2-5.3h38.9"/>
		<line class="st4" x1="247" y1="58.7" x2="247.6" y2="6.2"/>
		<line class="st4" x1="276.1" y1="58.7" x2="277.7" y2="37.2"/>
		<line class="st4" x1="277.3" y1="26.9" x2="276.5" y2="6.2"/>
		<line class="st4" x1="247.3" y1="37.2" x2="266.8" y2="37.2"/>
		<line class="st4" x1="247.3" y1="26.9" x2="270.2" y2="26.9"/>
		<path class="st3" d="M396.1,192.4v91.1l69.4,228.8l20.3,12.1h-7.5l-41.6-12.1l-163-313.8c-2.6-1.5-5.3-2.7-8.2-3.7
			c-5.3-1.8-10.8-2.6-16.4-2.4L396.1,192.4z"/>
		<path class="st2" d="M396.1,249c3.5-0.1,7.1,0.3,10.5,1.1c2.8,0.7,5.5,1.6,8.1,2.8c-6,1.9-12.3,3-18.6,3.2"/>
		<path class="st2" d="M408.6,327.1c3.4-0.1,6.8-0.5,10.1-1.1c2.9-0.5,5.7-1.2,8.5-2.1c-2.6-1.2-5.3-2.2-8.1-2.9
			c-3.4-0.8-7-1.2-10.5-1.1h-1.5"/>
		<path class="st2" d="M431.2,402c6.3-0.2,12.6-1.3,18.6-3.2c-2.6-1.2-5.3-2.2-8.1-2.8c-3.4-0.8-7-1.2-10.5-1.1h-1.5"/>
		<path class="st2" d="M384.7,192.4c0.3,30.6,0.5,61.3,0.8,91.9l50.8,142.6l3.5,0.6"/>
		<path class="st2" d="M396.1,283.5l-10.6,0.8"/>
		<polyline class="st2" points="384.7,245.2 369.8,245.2 369.8,281.1 385.5,281.1 		"/>
		<polyline class="st2" points="387.9,291 373.5,295.6 420.2,424.6 433.7,419.6 		"/>
		<line class="st2" x1="423" y1="389.5" x2="409.1" y2="394"/>
		<line class="st2" x1="412.2" y1="358.9" x2="398.4" y2="363.4"/>
		<line class="st2" x1="400.6" y1="325.9" x2="386.7" y2="330.3"/>
		<polyline class="st2" points="426.1,492 431.5,492 440.7,508.9 447.1,513.2 444.5,514.6 		"/>
		<polyline class="st2" points="315.4,278.8 325.4,278.8 431.3,486.5 425.2,490.4 		"/>
		<line class="st2" x1="399.9" y1="441.6" x2="406.6" y2="438"/>
		<line class="st2" x1="373.7" y1="391.2" x2="380.7" y2="387.2"/>
		<line class="st2" x1="347.2" y1="340.1" x2="354.5" y2="335.7"/>
		<polyline class="st2" points="440.4,429.8 426.1,429.8 447.1,490.4 458.8,490.4 		"/>
		<polyline class="st2" points="274.3,199.6 284.9,197.2 315.4,258.5 307.3,263.2 		"/>
		<path class="st2" d="M301.5,192.4v12.9c0,1.5,0.5,3,1.5,4.1c1.6,1.6,4,2.2,6.2,1.5h75.5"/>
		<polyline class="st4" points="350.9,211.2 361.1,269.7 442.5,490.4 434.8,490.4 286.4,197.2 301.5,193.9 		"/>
		<path class="st3" d="M242.4,243.3c-2.4,16.5-2.8,33.3-1.2,49.9"/>
		<path class="st3" d="M272.3,295.7c6.7-0.3,13.9-0.9,21.3-1.8c6.4-0.8,12.4-1.7,18.1-2.7v-13.6h3"/>
		<path class="st3" d="M307.8,264.2h-34.1c-2.4,0-4.9,0.6-7.1,1.6c-1.7,0.8-3.2,2-4.5,3.3c3,3.6,7.5,5.6,12.2,5.3h38.9"/>
		<line class="st4" x1="249" y1="242.8" x2="249.6" y2="295.2"/>
		<line class="st4" x1="278.1" y1="242.8" x2="279.7" y2="264.2"/>
		<line class="st4" x1="279.3" y1="274.5" x2="278.5" y2="295.2"/>
		<line class="st4" x1="249.3" y1="264.2" x2="268.8" y2="264.2"/>
		<line class="st4" x1="249.4" y1="274.5" x2="272.3" y2="274.6"/>
		<path class="st3" d="M297.4,293.5c-7.8,0.6-15.8,1.2-24,1.6c-3.9,0.2-7.7,0.4-11.5,0.5c-3.5,3.3-9,3.2-12.4-0.3
			c-0.2-0.2-0.3-0.3-0.4-0.5h-3l-3.7-0.5l-1.1-1.9"/>
		<path class="st3" d="M241,243.9c0.7-0.3,1.6-0.6,2.7-0.9c1.8-0.5,3.7-0.9,5.6-1.1c3.4-0.4,6.8-0.5,10.1-0.4"/>
		<path class="st3" d="M255.6,243.8c2.2-1.3,4.5-2.4,7-3.2c2.8-0.9,5.6-1.3,8.5-1.4v4.6L255.6,243.8z"/>
		<line class="st3" x1="297.2" y1="243.8" x2="271.1" y2="242"/>
		<path class="st3" d="M242.4,294.3l-7.2-2.4c-0.6-7.1-1.1-14.9-1.1-23.3c0-8.7,0.4-16.8,1.1-24.2l7.3-1.1"/>
		<path class="st3" d="M77.1,115.6v69.3c5.4,0.6,12.9,1.3,22.1,1.8c5.9,0.4,10.7,0.6,15.5,0.7c18.3,0.6,38.1,0.8,48.3,0.9h76.9
			h334.7c12.7-0.9,26.1-2.3,40.3-4.2c12.5-1.8,24.4-3.9,35.5-6.1V123c-11.5-2.3-23.7-4.4-36.6-6.1c-13.4-1.8-26.1-3.1-38.2-4h-412
			c-14.2-0.3-29.2-0.3-44.8,0.3C104.2,113.6,90.3,114.5,77.1,115.6z"/>
		<path class="st3" d="M577.7,192.4c19.2-1.4,38.3-3.8,57.3-7.2c19.3-3.5,38.4-8,57.3-13.5c6-0.8,15.1-1.8,26.3-2.9
			c14.5-1.4,19-1.4,25.6-2.1c13.4-1.7,26.5-5.4,38.8-11"/>
		<polyline class="st3" points="577.7,192.4 427.3,192.4 106.9,192.4 		"/>
		<path class="st3" d="M783,145.6c-12.3-5.6-25.4-9.3-38.8-11c-6.6-0.8-11.1-0.8-25.6-2.1c-11.2-1-20.3-2.1-26.3-2.9
			c-37.3-11-75.8-17.9-114.6-20.7L107,109.1"/>
		<rect x="781.2" y="145.6" class="st3" width="3.2" height="10.1"/>
		<path class="st3" d="M671.4,177.3c2.7,1.1,5.2,2.7,7.3,4.7c2.5,2.4,4.4,5.3,5.7,8.5c2.2,5.4,15.8,27.1,53.4,82.2
			c2.6,4.3,7.1,7.1,12.1,7.5h19.6l-25.3-113.5"/>
		<line class="st3" x1="759.5" y1="280.2" x2="720.4" y2="168.6"/>
		<polyline class="st3" points="690,172.3 715,217.6 727.1,213.3 710.7,169.6 		"/>
		<path class="st3" d="M671.4,123.3c2.7-1.1,5.2-2.7,7.3-4.7c2.5-2.4,4.4-5.3,5.7-8.5c2.2-5.4,15.8-27.1,53.4-82.2
			c1.5-2.4,3.6-4.4,6-5.7c1.9-1,3.9-1.6,6.1-1.8h19.6l-25.3,113.5"/>
		<line class="st3" x1="759.5" y1="20.5" x2="720.4" y2="132"/>
		<polyline class="st3" points="690,128.3 715,83.1 727.1,87.4 710.7,131.1 		"/>
		<path class="st3" d="M51.6,142.4"/>
		<path class="st3" d="M18.3,168.2l4.5,2.3c25.5,14.8,54.6,22.4,84.1,21.9"/>
		<line class="st5" x1="19.8" y1="132.8" x2="19.8" y2="168.7"/>
		<path class="st3" d="M107,109.1c-29.5-0.4-58.5,7.1-84.1,21.9l-3,1.8"/>
		<path class="st3" d="M19.8,168.9c-3.3-1.5-6.5-3.4-9.4-5.7c-4.7-3.7-9.7-7.6-9.5-12.3c0.1-2.9,2.3-5.1,6.7-9.2
			c3.7-3.5,7.8-6.5,12.1-9"/>
		<line class="st2" x1="629.8" y1="119.3" x2="629.8" y2="181"/>
		<line class="st2" x1="650.3" y1="125.4" x2="629.8" y2="125.4"/>
		<line class="st2" x1="650.3" y1="139.7" x2="629.8" y2="139.7"/>
		<line class="st2" x1="650.3" y1="153.8" x2="629.8" y2="153.8"/>
		<line class="st2" x1="650.3" y1="172.5" x2="629.8" y2="172.4"/>
		<path class="st6" d="M629,115.1l-1.5,11.5c-6.2,0.8-12.6-0.3-18.1-3.3v-11.2"/>
		<path class="st6" d="M629,186.6l-1.5-11.5c-3.4-0.4-6.8-0.3-10.1,0.4c-2.8,0.6-5.5,1.6-8.1,2.9v11.2"/>
		<path class="st6" d="M298.7,109.1v5.2c1.7,0.4,3.4,0.6,5.2,0.6c1.9,0,3.9-0.2,5.8-0.6V109"/>
		<path class="st6" d="M316.4,109.1v5.2c1.7,0.4,3.4,0.6,5.2,0.6c1.9,0,3.9-0.2,5.8-0.6V109"/>
		<path class="st6" d="M298.7,193.2V188c3.6-0.8,7.3-0.8,10.9,0v5.3"/>
		<path class="st6" d="M316.4,193.2V188c3.6-0.8,7.4-0.8,11,0v5.3"/>
		<path class="st6" d="M97.4,109.2l1.5,15.3c3.2,0.3,6.4,0.3,9.6,0.2c3.4-0.2,6.8-0.6,10.1-1.4v-14.4"/>
		<path class="st6" d="M97.4,192.3l1.5-15.3c3.2-0.3,6.4-0.3,9.6-0.2c3.4,0.2,6.8,0.6,10.1,1.4v14.4"/>
		<polyline class="st3" points="95.5,115.6 95.5,151.7 77.1,151.7 		"/>
		<polyline class="st3" points="77.1,161.9 95.5,161.9 95.5,186.5 		"/>
		<polyline class="st3" points="128.6,114.1 128.6,145.6 119.9,145.6 119.9,113.1 		"/>
		<polyline class="st3" points="128.6,187.8 128.6,160.8 119.9,160.8 119.9,187.6 		"/>
	</g>
</svg>
