<?xml version="1.0" encoding="UTF-8" standalone="no"?>
<svg
   xmlns:dc="http://purl.org/dc/elements/1.1/"
   xmlns:cc="http://creativecommons.org/ns#"
   xmlns:rdf="http://www.w3.org/1999/02/22-rdf-syntax-ns#"
   xmlns:svg="http://www.w3.org/2000/svg"
   xmlns="http://www.w3.org/2000/svg"
   xmlns:sodipodi="http://sodipodi.sourceforge.net/DTD/sodipodi-0.dtd"
   xmlns:inkscape="http://www.inkscape.org/namespaces/inkscape"
   version="1.1"
   id="Layer_1"
   x="0px"
   y="0px"
   viewBox="0 0 1920 1080"
   style="enable-background:new 0 0 1920 1080;"
   xml:space="preserve"
   sodipodi:docname="cfm_leap1-a.svg"
   inkscape:version="1.0.1 (3bc2e813f5, 2020-09-07)"><metadata
   id="metadata97"><rdf:RDF><cc:Work
       rdf:about=""><dc:format>image/svg+xml</dc:format><dc:type
         rdf:resource="http://purl.org/dc/dcmitype/StillImage" /></cc:Work></rdf:RDF></metadata><defs
   id="defs95" /><sodipodi:namedview
   pagecolor="#ffffff"
   bordercolor="#666666"
   borderopacity="1"
   objecttolerance="10"
   gridtolerance="10"
   guidetolerance="10"
   inkscape:pageopacity="0"
   inkscape:pageshadow="2"
   inkscape:window-width="1722"
   inkscape:window-height="1062"
   id="namedview93"
   showgrid="false"
   inkscape:zoom="0.54270833"
   inkscape:cx="994.94379"
   inkscape:cy="549.67937"
   inkscape:window-x="0"
   inkscape:window-y="371"
   inkscape:window-maximized="0"
   inkscape:current-layer="Layer_1" />
<style
   type="text/css"
   id="style2">
	.st0{fill:none;stroke:#fff;stroke-width:7;stroke-miterlimit:10;}
</style>
<path
   class="st0"
   d="m 1075.3993,77.3753 c 78.973,16.497262 147.7116,83.40283 147.7116,83.40283 97.7615,-3.05505 239.8213,74.84868 239.8213,74.84868 0,0 171.0827,94.7065 190.9405,271.89932 19.8578,177.19281 -47.3532,265.78922 -47.3532,265.78922 0,0 -58.0459,125.25699 -206.2158,172.61024 -148.1698,47.35325 -415.48662,35.13306 -415.48662,35.13306 -267.31672,30.55045 -407.84895,-80.95879 -407.84895,-80.95879 0,0 19.09405,20.62158 80.19502,16.03901 18.48305,-1.37478 74.84869,-9.16515 74.84869,-9.16515 l 160.39005,-12.22019 c 35.13306,-16.80277 76.68172,-71.48814 76.68172,-71.48814 0,0 109.67629,-122.50744 76.07069,-311.92045 -33.6055,-189.41301 -161.91756,-256.62408 -161.91756,-256.62408 -96.23403,12.2202 -114.56432,4.58258 -114.56432,4.58258 l -53.46335,-19.85782 c 53.46335,-35.13305 139.00471,-50.4083 139.00471,-50.4083 l 41.24316,-3.05504 c 30.55048,-18.3303 108.91246,-25.20415 108.91246,-25.20415 h 218.7415"
   id="path4" />
<path
   class="st0"
   d="M 999.17578,77.3753 896.98446,101.96844 V 89.595494 c 0,0 -15.27524,1.680277 -30.55049,18.483046 V 97.385868 l -9.16514,9.165142 -4.88808,-29.17571"
   id="path6" />
<path
   class="st0"
   d="M 896.98446,101.96844 848.10368,123.35378 1055.236,77.3753 c 0,0 22.1491,2.444039 11.3037,83.40283"
   id="path8" />
<path
   class="st0"
   d="m 576.96813,900.09986 31.31425,-8.40138 c 0,0 -106.9267,-58.04592 -143.58728,-209.27082 0,0 -19.85782,-32.07801 -24.44039,-54.99088 0,0 -26.57892,-18.78855 -30.85599,-28.41195"
   id="path10" />
<path
   class="st0"
   d="m 420.39689,585.42987 c 0,6.7211 -4.42982,12.06744 -10.08166,12.8312 -0.45826,0 -0.91651,0.15275 -1.37477,0.15275 -6.26285,0 -11.45643,-5.80459 -11.45643,-12.98395 0,-7.17937 5.19358,-12.98396 11.45643,-12.98396 6.26285,0 11.45643,5.80459 11.45643,12.98396 z"
   id="path12" />
<path
   class="st0"
   d="m 410.31523,598.26107 26.88443,-1.37477 c 0,0 10.69267,-4.58258 9.16514,-13.74772 -1.52752,-9.16515 -4.58257,-10.69267 -9.16514,-12.2202 -4.58257,-1.52752 -28.2592,0.61101 -28.2592,0.61101"
   id="path14" />
<path
   class="st0"
   d="m 427.72901,617.96613 c 0,0 33.91104,-7.33211 32.38351,-28.71745 -1.52752,-21.38534 1.52753,-27.49544 -27.49543,-41.24316 0,0 -16.80277,3.51331 -23.67663,22.30185"
   id="path16" />
<path
   class="st0"
   d="m 432.61709,548.00552 96.23402,-73.32116 c 0,0 30.55049,18.33029 64.15602,19.85781 0,0 46.13124,34.6748 36.04958,104.48266 -10.08166,69.65511 -78.82026,97.15054 -78.82026,97.15054 L 440.25471,627.43678"
   id="path18" />
<path
   class="st0"
   d="m 991.53818,981.36415 c 0,0 13.90052,-54.53261 -99.13629,-86.61062"
   id="path20" />
<ellipse
   transform="rotate(-38.593593)"
   class="st0"
   cx="293.78479"
   cy="1368.6285"
   rx="42.007442"
   ry="27.495781"
   id="ellipse22" />
<path
   class="st0"
   d="m 464.6951,682.42766 c 0,0 54.99087,91.65145 149.69737,59.57344 94.70651,-32.07801 102.34413,-135.94966 102.34413,-135.94966 0,0 10.69267,-80.95878 -36.66058,-142.05975 0,0 -44.29821,30.55048 -77.90374,29.02296 0,0 38.64636,25.96791 37.5771,92.41522 -1.06927,66.4473 -60.48997,103.10788 -60.48997,103.10788 0,0 -10.69267,9.16515 -19.85781,12.2202 l -9.16515,-4.58258 79.43127,39.71563"
   id="path24" />
<line
   class="st0"
   x1="593.00714"
   y1="494.54218"
   x2="602.17224"
   y2="493.01465"
   id="line26" />
<path
   class="st0"
   d="m 1076.9268,982.43342 c 0,0 297.8672,-80.04227 265.1782,-487.89125 0,0 -3.2078,-232.18369 -270.83,-333.76404"
   id="path28" />
<path
   class="st0"
   d="m 1407.1776,291.38145 c -3.0551,-76.37621 -84.0139,-85.54136 -84.0139,-85.54136 l -67.211,68.43308 151.2249,17.10828 1.5275,-3.05505 7.6376,13.74772 -152.7524,-18.3303 -7.6376,-9.47065 -4.5826,-5.80459 h 9.1651"
   id="path30" />
<path
   class="st0"
   d="m 528.85111,738.7933 c 0,0 87.06889,78.05649 195.52311,-12.06744 0,0 93.17898,-102.34413 41.24315,-229.12864 0,0 -10.69267,-35.13306 -36.66058,-58.04592 l -48.88077,24.44039"
   id="path32" />
<polyline
   class="st0"
   points="534.5,353.5 523.5,341.5 495.5,355.5 505.2,368.1 "
   id="polyline34"
   transform="matrix(1.5275243,0,0,1.5275243,-87.504927,-100.42853)" />
<polygon
   class="st0"
   points="586.5,303.5 578.5,278.5 534.5,310.7 523.5,331.5 523.5,341.5 "
   id="polygon36"
   transform="matrix(1.5275243,0,0,1.5275243,-87.504927,-100.42853)" />
<path
   class="st0"
   d="m 582.77272,765.83048 c 0,0 107.99597,63.2395 159.93179,44.90921 0,0 157.335,-21.38534 172.61024,-216.90844 0,0 15.27524,-129.83956 -106.9267,-230.65616"
   id="path38" />
<path
   class="st0"
   d="m 528.85111,474.68436 c 0,0 -105.39917,-67.21107 -177.19281,-48.88078 0,0 -4.58258,70.26612 51.93583,61.10097 0,0 39.71563,-1.52752 59.57344,-27.49544 v 16.80277 c 0,0 -26.27342,44.2982 -21.53809,64.91978"
   id="path40" />
<path
   class="st0"
   d="m 669.38335,442.60635 -7.63763,6.11009 c 0,0 -16.80276,24.44039 -50.4083,27.49544 0,0 -24.44038,7.63762 -93.17898,-15.27524 l -68.12758,-24.13489"
   id="path42" />
<path
   class="st0"
   d="m 367.85006,421.22101 -57.43492,-99.28908 139.61572,3.05505 111.96753,11.60918 49.33903,5.19359 67.21107,6.11009 c 0,0 20.31607,24.28764 26.27342,74.69594"
   id="path44" />
<polygon
   class="st0"
   points="520.5,242.5 520.5,255.4 437.2,287.4 425.2,286.1 424.5,281.5 459.5,264.5 482.5,260.5 "
   id="polygon46"
   transform="matrix(1.5275243,0,0,1.5275243,-87.504927,-100.42853)" />
<polyline
   class="st0"
   points="260.5,276.5 248.5,256.5 313.5,256.5 311.6,266.5 336.5,270.5 339,278.2 "
   id="polyline48"
   transform="matrix(1.5275243,0,0,1.5275243,-87.504927,-100.42853)" />
<path
   class="st0"
   d="m 777.68482,338.58195 c 0,0 -19.70507,-39.56288 -33.45279,-48.72803 v -8.85964 h -22.91286 l -13.74772,8.70689"
   id="path50" />
<polyline
   class="st0"
   points="313.5,256.5 321.5,200.5 334.5,196.5 414.7,196.5 "
   id="polyline52"
   transform="matrix(1.5275243,0,0,1.5275243,-87.504927,-100.42853)" />
<polyline
   class="st0"
   points="438.8,193.9 579.5,182.5 584.1,196.5 "
   id="polyline54"
   transform="matrix(1.5275243,0,0,1.5275243,-87.504927,-100.42853)" />
<ellipse
   class="st0"
   cx="565.51166"
   cy="239.44563"
   rx="30.550486"
   ry="51.935825"
   id="ellipse56" />
<line
   class="st0"
   x1="292.08484"
   y1="291.38147"
   x2="210.51506"
   y2="158.6396"
   id="line58" />
<polyline
   class="st0"
   points="257.5,256.5 202.5,167.5 195.1,161.5 "
   id="polyline60"
   transform="matrix(1.5275243,0,0,1.5275243,-87.504927,-100.42853)" />
<path
   class="st0"
   d="m 854.21378,189.03732 -65.68354,-56.51839 c 0,0 -128.15929,51.93582 -294.04842,56.51839 -165.88914,4.58258 -272.66308,-33.60553 -272.66308,-33.60553"
   id="path62" />
<path
   class="st0"
   d="M 403.59413,205.84009"
   id="path64" />
<path
   class="st0"
   d="m 444.83728,121.82626 c 0,0 -5.80459,35.13305 -35.74407,65.68354"
   id="path66" />
<path
   class="st0"
   d="m 629.66772,95.858344 c 0,0 -10.53992,48.422516 -51.17207,86.916126"
   id="path68" />
<path
   class="st0"
   d="m 721.01367,77.3753 c 0,0 0.45825,34.06379 -31.00875,85.0831"
   id="path70" />
<path
   class="st0"
   d="m 807.47154,77.3753 c 0,0 5.19358,17.719282 -6.1101,66.29455"
   id="path72" />
<path
   class="st0"
   d="m 891.94363,113.57763 -4.88808,73.01566 c 0,0 107.69043,42.15966 301.68605,32.99452"
   id="path74" />
<path
   class="st0"
   d="m 1182.4788,160.77813 c 0,0 3.2078,-22.14911 -7.4849,-38.18811"
   id="path76" />
<path
   class="st0"
   d="m 1382.4317,951.27192 c 0,0 216.1447,-76.37621 219.8107,-378.82601 3.6661,-302.4498 -250.0557,-385.85262 -250.0557,-385.85262"
   id="path78" />
<path
   class="st0"
   d="m 1500.5093,895.05903 -16.9555,1.22202 c 0,0 82.4863,-84.01383 93.179,-119.14689 0,0 3.055,-6.1101 19.8578,-6.1101 16.8027,0 113.6478,-274.64886 -29.3285,-448.48112"
   id="path80" />
<path
   class="st0"
   d="m 1410.9964,588.48491 c 0,0 1.5275,53.46335 -12.2202,93.17898 0,0 -2.2913,8.40139 11.4564,8.40139 13.7477,0 36.6606,-1.52753 36.6606,-1.52753 0,0 6.1101,-1.52752 7.6376,-9.16514 1.5275,-7.63762 6.1101,-9.16515 9.1652,-87.06889 0,0 3.055,-10.69267 -7.6377,-10.69267 -10.6926,0 -41.3959,0 -41.3959,0 0,0 -4.4298,0 -3.666,6.87386 z"
   id="path82" />
<line
   class="st0"
   x1="1582.8429"
   y1="711.60333"
   x2="1625.0026"
   y2="705.79877"
   id="line84" />
<path
   class="st0"
   d="m 258.17381,77.3753 c 0,0 65.22529,17.719282 101.88587,20.77433"
   id="path86" />
<path
   class="st0"
   d="m 281.39218,77.3753 c 0,0 33.60553,12.372947 78.6675,14.664233"
   id="path88" />
<path
   class="st0"
   d="m 357.31014,77.3753 3.97156,33.91104 7.63762,8.70689 c 0,0 87.6799,15.27524 355.30215,-42.61793"
   id="path90" />
</svg>
