<?xml version="1.0" encoding="utf-8"?>
<!-- Generator: Adobe Illustrator 24.1.2, SVG Export Plug-In . SVG Version: 6.00 Build 0)  -->
<svg version="1.1" id="Layer_1" xmlns="http://www.w3.org/2000/svg" xmlns:xlink="http://www.w3.org/1999/xlink" x="0px" y="0px"
	 viewBox="0 0 674.6 296.8" style="enable-background:new 0 0 674.6 296.8;" xml:space="preserve">
<style type="text/css">
	.st0{fill:none;stroke:#FFFFFF;stroke-width:1.75px;stroke-miterlimit:10;}
</style>
<path class="st0" d="M172.3,281.1c12.6,1.8,37.9,4.2,50.5,5.3c69.4,5.8,81.4,5.7,111.1,6.9c166.1,6.9,342,1.8,342,1.8l-2.6-269.5
	H392.7l-24.5,1.6L375,0h-4.2l-19.3,27.9c0,0-65.5,2.1-129.1,18.1c-43.2,10.9-85.6,28.1-106,55.5l-25.8,26.6c0,0-88.7,30.2-90.5,71.7
	C-0.2,205.8-7.1,255.9,172.3,281.1z"/>
<polygon class="st0" points="98,129.6 119.5,126.5 142,101.7 142,98.7 116.4,101.5 92.1,126.5 "/>
<polygon class="st0" points="152.3,98.1 131.2,123.5 131.2,126.1 149.3,131.7 168.2,131.7 169.9,129.1 169.9,99.2 167.8,97.3 "/>
<polygon class="st0" points="178,130.3 180.6,133.4 205.7,133.4 208.5,130.3 208.5,107.5 200.1,98.7 180.9,98.7 178,101.1 "/>
<polygon class="st0" points="203.1,138.9 178,138.9 173.7,134.8 173.7,97.8 178.5,93.9 203.1,93.9 213,104.2 213,132.4 211.4,136.5
	207.5,138.9 "/>
<line class="st0" x1="173.7" y1="61.8" x2="173.7" y2="97.8"/>
<polyline class="st0" points="222.5,286.3 222.5,280.8 222.4,46 "/>
<polyline class="st0" points="50.1,146.4 60.6,168.5 60.6,255.3 "/>
<path class="st0" d="M7.7,222.1l4.6-3.8c0,0,30.8,24.5,48.3,24"/>
<line class="st0" x1="13.1" y1="200.9" x2="60.6" y2="198.2"/>
<path class="st0" d="M13.1,186c0,0,21.4-19,43.1-26.7"/>
<path class="st0" d="M60.6,218.3c0,0,86.9,7.6,161.8,7.6h235v68"/>
<line class="st0" x1="457.4" y1="253" x2="675.6" y2="253"/>
<polyline class="st0" points="457.4,25.5 457.4,147.5 457.4,225.9 "/>
<line class="st0" x1="674.6" y1="147.5" x2="457.4" y2="147.5"/>
<line class="st0" x1="457.4" y1="37.5" x2="673.5" y2="37.5"/>
<path class="st0" d="M222.5,57.9c0,0,30.9-10.2,234.9-11.9"/>
<polygon class="st0" points="436.1,31.4 441,32.2 442.7,27.1 440.8,27.1 "/>
<path class="st0" d="M300.1,63.1c0,0-3.9,39.9-2.6,117.1c0,0,0,0.7,0.5,1.7c0.7,1.7,2.4,4.4,6.6,6.9h50.9c0,0,6.3,0.8,6.5-7.3
	s-3.2-69.6,3.1-118.4c0,0-1.6-5.7-5.2-6.5s-50.3,0-50.3,0S304.5,55.3,300.1,63.1z"/>
<polygon class="st0" points="292.3,182.6 292.3,188.9 299.1,194.6 363.5,194.6 370.3,190.2 370.3,182.6 361.9,181.5 361,185.8
	359.1,188.1 354.2,188.9 304.5,188.8 300,185.3 298,182 "/>
<polyline class="st0" points="299.3,73.2 304.4,73.2 306.9,68.8 306.9,64.7 309.1,63.7 356.3,63.7 358,64.7 358,68.5 359.6,72.1
	364,72.3 "/>
<circle class="st0" cx="344.1" cy="115.6" r="6.1"/>
<polyline class="st0" points="322.2,128.5 319.1,128.5 317.7,125.7 317.7,122.6 320.4,120.2 320.4,112 318.9,110.3 318.9,106.3
	325.5,106.3 325.5,110.3 324,112 324,120.2 326.7,122.6 326.7,125.7 325.3,128.5 322.2,128.5 "/>
<path class="st0" d="M256.5,243.1h22.7c0,0,2.9,0.6,3.7,4.1v24.5c0,0,0.3,4-4.5,4.1s-22.3,0-22.3,0s-3.5,0.2-3.5-4.3
	c0-4.5,0-24.7,0-24.7S252.6,243.3,256.5,243.1z"/>
<path class="st0" d="M209.7,243.1h6.3c0,0,2,0.2,2.2,2.7c0.1,2.5,0,24.8,0,24.8s-0.3,2.6-3.3,2.7c-3,0.1-5.6,0-5.6,0
	s-2.9-0.6-2.8-2.7c0.1-2.2,0-25.8,0-25.8S206.3,243.1,209.7,243.1z"/>
<polygon class="st0" points="189.2,240.9 185.2,243.6 178,243.6 178,245.1 192.3,245.1 195.5,242.4 194.5,240.9 "/>
<polygon class="st0" points="194.7,265.8 199.5,265.8 200.2,267.4 196.5,270.8 183.9,270.8 183.9,269.3 191,269.3 "/>
<circle class="st0" cx="440" cy="215.6" r="7.5"/>
<line class="st0" x1="436.3" y1="215.6" x2="443.9" y2="215.6"/>
<path class="st0" d="M420.6,247.6v22.5c0,0-0.6,4.7,5.5,4.7s26.2,0,26.2,0s5.1,1,5.1-4.3c0-5.3,0-23.9,0-23.9s-0.4-3.3-5.5-3.5
	c-5.1-0.2-27.2,0-27.2,0S420.6,243.5,420.6,247.6z"/>
<path class="st0" d="M431.6,253c0,0-4.7-0.1-4.7,5s4.7,6.1,4.7,6.1h16.8c0,0,3.3-1.6,3.5-5.5c0.2-3.9-4.4-5.5-4.4-5.5L431.6,253z"/>
<circle class="st0" cx="434.1" cy="258.6" r="1.6"/>
<circle class="st0" cx="444.1" cy="258.6" r="1.6"/>
<polygon class="st0" points="271.4,259.5 267.7,259.5 258.2,261.1 258.2,262.4 267.7,263.3 271.4,263.3 273.2,261.4 "/>
<path class="st0" d="M98.2,190.1v21.5c0,0,0.4,4,6.1,4.2c5.7,0.2,15.1,0,15.1,0s6.1-0.5,6.1-5s0-20.3,0-20.3s-0.2-4.7-5.5-4.6
	c-5.3,0.1-16.5,0-16.5,0S98.2,185.9,98.2,190.1z"/>
<circle class="st0" cx="111.8" cy="201" r="9.2"/>
<circle class="st0" cx="111.8" cy="201" r="1.8"/>
<ellipse class="st0" cx="398.2" cy="260.6" rx="7.1" ry="4.5"/>
</svg>
