<?xml version="1.0" encoding="UTF-8"?>
<svg width="548.96" height="236.38" data-name="Layer 1" version="1.1" viewBox="0 0 548.96 236.38" xmlns="http://www.w3.org/2000/svg" xmlns:cc="http://creativecommons.org/ns#" xmlns:dc="http://purl.org/dc/elements/1.1/" xmlns:rdf="http://www.w3.org/1999/02/22-rdf-syntax-ns#">
 <metadata>
  <rdf:RDF>
   <cc:Work rdf:about="">
    <dc:format>image/svg+xml</dc:format>
    <dc:type rdf:resource="http://purl.org/dc/dcmitype/StillImage"/>
    <dc:title>320neo_outline_fuel</dc:title>
   </cc:Work>
  </rdf:RDF>
 </metadata>
 <defs>
  <style>.cls-1, .cls-2, .cls-3, .cls-4, .cls-5, .cls-6 {
        fill: none;
        stroke: #fff;
        stroke-miterlimit: 10;
      }

      .cls-2 {
        stroke-width: 0.75px;
      }

      .cls-3 {
        stroke-width: 0.25px;
      }

      .cls-4 {
        stroke-width: 0.9px;
      }

      .cls-5 {
        stroke-width: 2px;
      }

      .cls-6 {
        stroke-width: 1.89px;
      }</style>
 </defs>
 <title>320neo_outline_fuel</title>
 <g transform="rotate(90 284.89 264.04)">
  <path class="cls-1" d="m143.48 243.89v-66.78l50.87-167.77 14.87-8.87h-5.48l-30.52 8.87-119.48 230.12a33 33 0 0 1-6 2.7 33.59 33.59 0 0 1-12 1.73z"/>
  <path class="cls-2" d="m143.48 202.42a30.08 30.08 0 0 0 13.67-2.87 49.63 49.63 0 0 0-6.26-1.57 48.85 48.85 0 0 0-7.41-0.78"/>
  <path class="cls-2" d="m152.67 145.16a48.85 48.85 0 0 1 7.41 0.78 49.72 49.72 0 0 1 6.26 1.56 29.73 29.73 0 0 1-13.67 2.84h-1.09"/>
  <path class="cls-2" d="m169.21 90.23a49.4 49.4 0 0 1 13.67 2.35 29.7 29.7 0 0 1-5.95 2.08 30.06 30.06 0 0 1-7.72 0.79h-1.08"/>
  <path class="cls-1" d="m71.11 206.01q-8.66 0.69-17.63 1.17-4.25 0.22-8.41 0.39a6.43 6.43 0 0 1-9.4-0.59h-2.15l-2.74-0.39-0.78-1.41c-0.47-5.4-0.77-11.28-0.78-17.57s0.26-12.21 0.72-17.63a21 21 0 0 1 2-0.66 26.34 26.34 0 0 1 4.11-0.79 50 50 0 0 1 7.43-0.28"/>
  <path class="cls-1" d="m41.35 169.93a22.5 22.5 0 0 1 11.35-3.36v3.36z"/>
  <path class="cls-1" d="m52.7 168.22c4.92 0.24 10.16 0.65 15.65 1.29 4.66 0.55 9.1 1.22 13.3 2v10h2.21"/>
  <path class="cls-1" d="m30.78 206.59-3.71-1.41a153.3 153.3 0 0 1-1-16.3 149.58 149.58 0 0 1 1-18.29l2.87-0.61"/>
  <path class="cls-1" d="m78.77 191.26h-25a11.7 11.7 0 0 1-8.51-3.65 10.84 10.84 0 0 1 8.91-3.91h28.52"/>
  <line class="cls-3" x1="35.67" x2="36.07" y1="206.98" y2="168.53"/>
  <line class="cls-3" x1="57.01" x2="58.17" y1="206.98" y2="191.26"/>
  <line class="cls-3" x1="57.88" x2="57.3" y1="183.7" y2="168.53"/>
  <line class="cls-3" x1="35.87" x2="50.16" y1="191.26" y2="191.26"/>
  <line class="cls-3" x1="35.91" x2="52.7" y1="183.7" y2="183.68"/>
  <path class="cls-1" d="m145 305.04v66.78l50.87 167.74 14.87 8.87h-5.48l-30.52-8.87-119.52-230.09a32.83 32.83 0 0 0-6-2.7 33.45 33.45 0 0 0-12-1.73z"/>
  <path class="cls-2" d="m145 346.51a30.06 30.06 0 0 1 7.72 0.79 29.7 29.7 0 0 1 5.95 2.08 49.4 49.4 0 0 1-13.67 2.35"/>
  <path class="cls-2" d="m154.15 403.77a48.85 48.85 0 0 0 7.41-0.78 51 51 0 0 0 6.26-1.56 29.05 29.05 0 0 0-5.95-2.09 29.56 29.56 0 0 0-7.72-0.78h-1.08"/>
  <path class="cls-2" d="m170.69 458.7a49.4 49.4 0 0 0 13.67-2.36 29.7 29.7 0 0 0-5.95-2.08 30.06 30.06 0 0 0-7.72-0.79h-1.08"/>
  <path class="cls-1" d="m32.27 342.34a148.82 148.82 0 0 0-0.85 36.61"/>
  <path class="cls-1" d="m54.18 380.71c4.93-0.24 10.16-0.65 15.65-1.29 4.67-0.55 9.11-1.22 13.3-2v-10h2.22"/>
  <path class="cls-1" d="m80.25 357.67h-25a11.8 11.8 0 0 0-5.18 1.2 11.62 11.62 0 0 0-3.33 2.45 10.84 10.84 0 0 0 8.91 3.91h28.53"/>
  <line class="cls-3" x1="37.16" x2="37.55" y1="341.95" y2="380.39"/>
  <line class="cls-3" x1="58.49" x2="59.66" y1="341.95" y2="357.67"/>
  <line class="cls-3" x1="59.36" x2="58.78" y1="365.23" y2="380.39"/>
  <line class="cls-3" x1="37.35" x2="51.64" y1="357.67" y2="357.67"/>
  <line class="cls-3" x1="37.39" x2="54.18" y1="365.23" y2="365.24"/>
  <path class="cls-1" d="m72.59 379.15q-8.59 0.69-17.59 1.19-4.24 0.22-8.41 0.39a6.41 6.41 0 0 1-9.39-0.58h-2.2l-2.73-0.39-0.79-1.41"/>
  <path class="cls-1" d="m31.27 342.78c0.49-0.19 1.18-0.43 2-0.67a26.76 26.76 0 0 1 4.1-0.78 50.15 50.15 0 0 1 7.44-0.28"/>
  <path class="cls-1" d="m42 342.7a22.59 22.59 0 0 1 5.1-2.33 22.16 22.16 0 0 1 6.25-1v3.36z"/>
  <line class="cls-1" x1="72.48" x2="53.35" y1="342.7" y2="341.35"/>
  <polyline class="cls-4" transform="matrix(.85 0 0 1 20.857 0)" points="278.09 305.01 189.24 305.01 0 305.01"/>
  <path class="cls-1" d="m257.23 243.77-236.38 0.12544" stroke-width=".98456"/>
  <path class="cls-1" d="m32.57 378.95-3.72-1.41a152.6 152.6 0 0 1 0-34.59l2.87-0.61"/>
  <path class="cls-5" d="m64.06 243.87 114.33-230.21 9.39-0.3-76.78 230.67z"/>
  <path class="cls-5" d="m171.92 59.34-16.5 0.52z"/>
  <path class="cls-5" d="m130 111.91 24.5-0.77z"/>
  <rect class="cls-6" x="64.06" y="245.16" width="46.94" height="58.43"/>
  <path class="cls-5" d="m64.06 305.11 114.33 230.23 9.39 0.29-76.78-230.69z"/>
  <path class="cls-5" d="m171.92 489.6-16.5-0.52z"/>
  <path class="cls-5" d="m130 437.06 24.5 0.77z"/>
 </g>
</svg>
