<svg xmlns="http://www.w3.org/2000/svg" viewBox="0 0 335.06 287.23">
  <defs>
    <style>
      .cls-1 {
        fill: #01c2cb;
      }

      .cls-2 {
        fill: #649aae;
      }
    </style>
  </defs>
  <g id="Layer_2" data-name="Layer 2">
    <g id="Layer_1-2" data-name="Layer 1">
      <g id="g114">
        <path id="path67" class="cls-1" d="M199.89,287c-.73.09-1.46.23-2.19.26H5.68c-1.47,0-2.94-.06-4.42-.1A1.37,1.37,0,0,1,.08,286c0-.15-.07-.29-.08-.43V272.75a1.87,1.87,0,0,1,1.5-1.91l10.19-3c10.47-3.06,20.82-6.47,31-10.55A205.39,205.39,0,0,0,83.5,235.46a182.28,182.28,0,0,0,31.14-27.36,198.94,198.94,0,0,0,25-34.71q11.09-19.38,21.43-39.18,25.41-48.33,50.73-96.68c3.21-6.14,6.39-12.29,9.61-18.42.75-1.44,1.51-2.88,2.39-4.24A31.13,31.13,0,0,1,246.1.47a36.64,36.64,0,0,1,5.73-.41h38.93a11.72,11.72,0,0,1,4,.29c.23,1.85-.63,3.46-1.18,5.12q-7,21.17-14.08,42.31L201.08,282.69C200.62,284.1,200.29,285.54,199.89,287Z"/>
        <path id="path69" class="cls-2" d="M199.89,287c.4-1.41.73-2.85,1.19-4.24L279.5,47.8q7-21.15,14.08-42.31c.55-1.66,1.41-3.27,1.18-5.12a17.63,17.63,0,0,1,2.6-.34h34.95a8.08,8.08,0,0,1,2.13.38c.23.06.43.39.53.64a1.78,1.78,0,0,1,.06.86c-.95,5.66-1.93,11.31-2.87,17l-3,18.31c-.72,4.35-1.49,8.7-2.22,13.05S325.5,59,324.78,63.34s-1.43,8.71-2.16,13.06-1.48,8.71-2.22,13.06c-.81,4.79-1.63,9.57-2.42,14.37l-3,18.3c-.72,4.35-1.49,8.7-2.22,13s-1.43,8.72-2.16,13.07l-2.27,13.5c-.72,4.35-1.43,8.71-2.16,13.06l-2.27,13.5-2.16,13.07c-.72,4.35-1.43,8.71-2.16,13.06l-2.26,13.5L295.15,241l-2.26,13.5-2.17,13.07q-1.12,6.75-2.27,13.49c-.19,1.16-.47,2.31-.64,3.48-.39,2.59-.66,2.75-3.5,2.74H204.24A43.08,43.08,0,0,1,199.89,287Z"/>
      </g>
    </g>
  </g>
</svg>
