<svg version="1.1" x="0px" y="0px" viewBox="0 0 98 122.5" style="enable-background:new 0 0 98 98;" xml:space="preserve">
    <path d="M63.2,36.7L44.1,54.9l-9.1-9.4c-1.2-1.2-3.1-1.2-4.2-0.1c-1.2,1.2-1.2,3.1-0.1,4.2l11.2,11.5c0.6,0.6,1.4,0.9,2.1,0.9 c0.7,0,1.5-0.3,2.1-0.8l21.3-20.2c1.2-1.1,1.3-3,0.1-4.2C66.3,35.6,64.4,35.6,63.2,36.7z"/>
    <path d="M49,12c-20.4,0-37,16.6-37,37c0,20.4,16.6,37,37,37c20.4,0,37-16.6,37-37C86,28.6,69.4,12,49,12z M49,80 c-17.1,0-31-13.9-31-31c0-17.1,13.9-31,31-31c17.1,0,31,13.9,31,31C80,66.1,66.1,80,49,80z"/>
</svg>
