<?xml version="1.0" encoding="utf-8"?>
<svg version="1.1" id="Plane" xmlns="http://www.w3.org/2000/svg" xmlns:xlink="http://www.w3.org/1999/xlink" x="0px" y="0px"
	 viewBox="0 0 657 150" style="enable-background:new 0 0 657 150;" xml:space="preserve">
<style type="text/css">
	.st0{fill:none;stroke:#D2D3D4;stroke-width:0.5;stroke-miterlimit:10;}
	.st1{fill:none;stroke:#FFFFFF;stroke-width:0.5;stroke-miterlimit:10;}
	.st2{fill:none;stroke:#CCCCCC;stroke-width:0.5;stroke-miterlimit:10;}
	.st3{fill:none;stroke:#D1D3D4;stroke-width:0.5;stroke-miterlimit:10;}
	.st4{fill:none;stroke:#69BD45;stroke-miterlimit:10;}
	.st5{fill:none;stroke:#FFFFFF;stroke-miterlimit:10;}
	.st6{fill:none;stroke:#FFFFFF;stroke-width:2;stroke-miterlimit:10;}
</style>
<g id="GALLEY___LAVATORY___WALLS">
	<line id="Cockpit_Door" class="st0" x1="86.7" y1="82.1" x2="86.7" y2="67.9"/>
	<g id="Walls">
		<line id="Aft_Wall" class="st1" x1="681.4" y1="105.1" x2="681.4" y2="45"/>
		<polyline id="Fwd_Right_Wall" class="st1" points="119.4,33 119.4,67.9 117.6,67.9 117.6,33 		"/>
		<polyline id="Fwd_Left_Wall" class="st1" points="117.6,117.1 117.6,81.9 119.4,81.9 119.4,117.1 		"/>
	</g>
	<g id="Lavatories">
		<polyline id="Aft_Left_Lavatory" class="st0" points="610.8,116.3 610.8,81.9 632.5,81.9 632.5,96.7 629.4,96.7 629.4,114.1 		"/>
		<polyline id="Aft_Right_Lavatory" class="st0" points="629.4,36 629.4,53.4 632.5,53.4 632.5,68.2 610.8,68.2 610.8,33.7 		"/>
		<polyline id="Fwd_Lavatory" class="st0" points="78,113.5 78,81.9 101.4,81.9 101.4,101.4 98.1,101.4 98.1,116.3 		"/>
	</g>
	<g id="Galleys">
		<polyline id="Aft_Galley" class="st1" points="654.2,110.2 654.2,97.9 657.5,97.9 657.5,49.9 654.2,49.9 654.2,39.8 		"/>
		<polyline id="Fwd_Galley" class="st0" points="97.7,33.8 97.7,67.9 79.3,67.9 79.3,36.3 		"/>
	</g>
</g>
<g id="SVG">
	<g id="SVG_Detail_Lines">
		<g id="Engines">
			<g id="ENG_1">
				<g id="Strakes">
					<path id="Outer_Strake" class="st2" d="M264,217.6l21.3-1.4l0.4,6.7C277.2,222.3,269.3,220.7,264,217.6L264,217.6z"/>
					<path id="Inner_Strake" class="st2" d="M264,186.4l21.3,1.4l0.4-6.7C277.2,181.7,269.3,183.3,264,186.4L264,186.4z"/>
				</g>
				<g id="Reverser_Door">
					<path id="Outer_Side" class="st2" d="M294.1,206.3c0,7.9-0.1,14.4-0.7,19.8"/>
					<path id="Inner_Side" class="st2" d="M294.1,197.7c0-7.9-0.1-14.4-0.7-19.8"/>
				</g>
				<g id="Engine_Mount">
					<g id="Connections">
						<path id="Fan_Connection" class="st3" d="M260.1,224.9l-2.3-0.4c-1.5-15-1.5-30,0-45l2.3-0.4"/>
						<line id="Middle_Connection" class="st3" x1="250.8" y1="202" x2="256.6" y2="202"/>
					</g>
					<g id="Mounts">
						<line id="Left_Mount" class="st2" x1="294.1" y1="208.2" x2="256.6" y2="208.2"/>
						<line id="Right_Mount" class="st2" x1="294.1" y1="195.9" x2="256.7" y2="195.9"/>
						<line id="Front_Mount" class="st2" x1="258.9" y1="208.2" x2="258.9" y2="195.9"/>
					</g>
				</g>
				<polyline id="Wing_Mount" class="st2" points="320,190.6 324,198.2 333.6,208.2 				"/>
			</g>
			<g id="ENG_2">
				<g id="Strakes-2">
					<path id="Outer_Strake-2" class="st2" d="M264-67.7l21.3,1.4l0.4-6.7C277.2-72.4,269.3-70.8,264-67.7L264-67.7z"/>
					<path id="Inner_Strake-2" class="st2" d="M264-36.6l21.3-1.4l0.4,6.7C277.2-31.9,269.3-33.5,264-36.6L264-36.6z"/>
				</g>
				<g id="Reverser_Door-2">
					<path id="Outer_Side-2" class="st2" d="M294.1-56.5c0-7.9-0.1-14.4-0.7-19.8"/>
					<path id="Inner_Side-2" class="st2" d="M294.1-47.8c0,7.9-0.1,14.4-0.7,19.8"/>
				</g>
				<g id="Engine_Mount-2">
					<g id="Connections-2">
						<path id="Fan_Connection-2" class="st3" d="M260.1-75l-2.3,0.4c-1.5,15-1.5,30,0,45l2.3,0.4"/>
						<line id="Middle_Connection-2" class="st3" x1="250.8" y1="-52.1" x2="256.6" y2="-52.1"/>
					</g>
					<g id="Mounts-2">
						<line id="Right_Mount-2" class="st2" x1="294.1" y1="-58.3" x2="256.6" y2="-58.3"/>
						<line id="Left_Mount-2" class="st2" x1="294.1" y1="-46" x2="256.7" y2="-46"/>
						<line id="Front_Mount-2" class="st2" x1="258.9" y1="-58.3" x2="258.9" y2="-46"/>
					</g>
				</g>
				<polyline id="Wing_Mount-2" class="st2" points="320,-40.7 324,-48.3 332.6,-57.5 				"/>
			</g>
		</g>
		<g id="Emergency_Lines">
			<path id="Left_Emergency_Marks" class="st2" d="M305.2,117.1v20.5c0,3.5,2.8,6.3,6.3,6.3h84.6"/>
			<path id="Right_Emergency_Marks" class="st2" d="M305.2,33.1V12.5c0-3.5,2.8-6.3,6.3-6.3h84.6"/>
		</g>
		<g id="Wing_Layers">
			<polyline id="Left_Wing_Markings" class="st2" points="290.5,117.1 448,427.9 459.9,427.9 372.5,208 360.3,143.9 			"/>
			<polyline id="Right_Wing_Markings" class="st2" points="290.9,33.1 449,-279 460.4,-279 372.5,-57.9 360.3,6.2 			"/>
		</g>
		<g id="Doors">
			<g id="Rear_Doors">
				<path id="AFT_Left_PS_PSS" class="st4" d="M648.4,111.2v-5.1c0-1.5-1.4-2.7-2.9-2.5l-11.8,1.5c-1.3,0.2-2.2,1.3-2.2,2.5v6.2"/>
				<path id="AFT_Right_CAT" class="st4" d="M648.4,38.8v5.1c0,1.5-1.4,2.7-2.9,2.5l-11.8-1.5c-1.3-0.2-2.2-1.3-2.2-2.5v-6.2"/>
			</g>
			<g id="Emergency_Doors">
				<path id="AFT_Left_EMG" class="st4" d="M335.8,117.1v-3.1c0-1-0.8-1.7-1.7-1.7h-7.6c-1,0-1.7,0.8-1.7,1.7v3.1"/>
				<path id="FWD_Left_EMG" class="st4" d="M317.5,117.1v-3.1c0-1-0.8-1.7-1.7-1.7h-7.6c-1,0-1.7,0.8-1.7,1.7v3.1"/>
				<path id="AFT_Right_EMG" class="st4" d="M335.8,33v3.1c0,1-0.8,1.7-1.7,1.7h-7.6c-1,0-1.7-0.8-1.7-1.7V33"/>
				<path id="FWD_Right_EMG" class="st4" d="M317.5,33v3.1c0,1-0.8,1.7-1.7,1.7h-7.6c-1,0-1.7-0.8-1.7-1.7V33"/>
			</g>
			<g id="Front_Doors">
				<path id="FWD_Right_CAT" class="st4" d="M116.3,33v9.1c0,1.5-1.2,2.7-2.7,2.7h-11.7c-1.5,0-2.7-1.2-2.7-2.7v-8.4"/>
				<path id="FWD_Left_PS_PSS" class="st4" d="M116.3,117.1V108c0-1.5-1.2-2.7-2.7-2.7h-11.7c-1.5,0-2.7,1.2-2.7,2.7v8.4"/>
			</g>
		</g>
	</g>
	<g id="SVG_Main_Lines">
		<g id="Rear_Stablizer">
			<g id="Right_Fin">
				<polyline id="Right_Elevator" class="st5" points="767.9,53.5 746.5,50.4 785.1,-59.5 				"/>
				<path id="Right_Fin_Outline" class="st6" d="M767.5,58.2c-0.1-3.3,0.7-7.1,1-8.2c1-4,24.5-109.6,24.5-109.6h-12.3
					c-6.2,0-14.4,1.2-18,6.9c0.2-0.1-55.2,86.6-55.2,86.6c-3.3,5.1-6.8,10.2-16.6,12.7"/>
			</g>
			<g id="Left_Fin">
				<polyline id="Left_Elevator" class="st5" points="767.9,96.6 746.5,99.6 785.1,209.6 				"/>
				<path id="Left_Fin_Outline" class="st6" d="M767.5,91.8c-0.1,3.3,0.7,7.1,1,8.2c1,4,24.5,109.6,24.5,109.6h-12.3
					c-6.2,0-14.4-1.2-18-6.9c0.2,0.1-55.2-86.6-55.2-86.6c-3.3-5.1-6.8-10.2-16.6-12.7"/>
			</g>
		</g>
		<g id="Wings">
			<g id="Right_Wing">
				<g id="Right_Slats">
					<polyline id="Inner_Slats" class="st5" points="281.7,26.9 292.1,26.9 325.2,-37.2 317.4,-41.8 					"/>
					<g id="Main_Slats">
						<line id="Outer_Divider" class="st5" x1="421.7" y1="-228.8" x2="416.1" y2="-232.1"/>
						<line id="Middle_Divider" class="st5" x1="393.9" y1="-173.8" x2="387.8" y2="-177.6"/>
						<line id="Inner_Divider" class="st5" x1="366.3" y1="-119.2" x2="359.4" y2="-122.8"/>
						<polyline id="Main_Slats_Outline" class="st5" points="439.5,-277.1 444.4,-273.8 335.1,-57.5 325.4,-57.5 						"/>
					</g>
				</g>
				<g id="Right_Wing_Flap_Fairings">
					<path id="Outer" class="st5" d="M445.3-182.1c8.9,0.4,18.1-2.8,18.1-2.8s-8.9-2.6-16.3-2.9"/>
					<path id="Middle" class="st5" d="M420.3-102.3c6.8,0.2,17.3-3,17.3-3s-10.9-3-15.4-3.2"/>
					<path id="Inner" class="st5" d="M408.1-27.2c6.6,0,15.3-3.2,15.3-3.2s-9.3-2.7-15.3-2.7"/>
				</g>
				<g id="Right_Flaps">
					<line id="Flap_Divider" class="st5" x1="408.3" y1="-63.8" x2="397" y2="-63.8"/>
					<polyline id="Flap_Outline" class="st5" points="396.1,33 396.1,-61.5 452.7,-217.6 456.3,-217.6 					"/>
				</g>
				<g id="Right_Spoilers">
					<polyline id="Inner_Spoiler" class="st5" points="396.1,-31.1 382.2,-31.1 382.2,-61.5 396.1,-61.5 					"/>
					<g id="Main_Spoilers">
						<line id="Outer_Divider-2" class="st5" x1="437.6" y1="-176" x2="423.8" y2="-181"/>
						<line id="Middle_Divider-2" class="st5" x1="425.9" y1="-143.6" x2="412.2" y2="-148.9"/>
						<line id="Inner_Divider-2" class="st5" x1="412.7" y1="-107.2" x2="399" y2="-112.5"/>
						<polyline id="Main_Spoiler_Outline" class="st5" points="399.6,-71.2 386.4,-77.6 435.5,-213.4 449.5,-208.7 						"/>
					</g>
				</g>
				<polyline id="Right_Aileron" class="st5" points="475.2,-279 461.8,-279 441.6,-222.8 444.4,-221.4 457.1,-221.4 				"/>
				<g id="ENG_2-2">
					<path id="Engine_Mount-3" class="st5" d="M320.1-47.8h-47.4c-5.5,0-10.5-1.3-10.5-4.3v0c0-3,5-4.3,10.5-4.3h51.9"/>
					<path id="Engine" class="st6" d="M318.3-56.5V-72c0-0.6-0.4-1.2-1-1.3c-3.8-0.7-17.8-3.1-34.2-3.1c-19.3,0-31,1.9-32.5,3
						c-2.3,1.7-3.9,4.6-3.9,21.2v0.2c0,16.6,1.7,19.5,3.9,21.2c1.5,1.1,13.2,3,32.5,3c11.3,0,21.4-1.1,27.8-2.1"/>
					<path id="Exhaust" class="st5" d="M318.3-66.8c0,0,8.4,2,10,3.3"/>
					<line id="Engine_Inner_end" class="st6" x1="318.3" y1="-44.2" x2="318.3" y2="-47.8"/>
					<path id="Cowling" class="st5" d="M253.9-30.3c-4.1,0-4.1-43.6,0-43.6"/>
				</g>
				<path id="Right_Wing_Outliine" class="st6" d="M408.1,33v-96.1l70.3-225c0,0,14.2-4,14.2-5.7s-29.4,3.6-30.6,3.7
					c0,0-17.5,2.7-23.3,13.8S281.1,27.6,281.1,27.6c-1.6,2.6-30,5.4-30,5.4"/>
			</g>
			<g id="Left_Wing">
				<g id="Left_Slats">
					<polyline id="Inner_Slats-2" class="st5" points="281.7,123.6 292.1,123.6 325.2,187.8 317.4,192.3 					"/>
					<g id="Main_Slats-2">
						<line id="Outer_Divider-3" class="st5" x1="421.7" y1="379.3" x2="416.1" y2="382.6"/>
						<line id="Middle_Divider-3" class="st5" x1="393.9" y1="324.4" x2="387.8" y2="328.1"/>
						<line id="Inner_Divider-3" class="st5" x1="366.3" y1="269.7" x2="359.4" y2="273.4"/>
						<polyline id="Main_Slats_Outline-2" class="st5" points="439.5,427.6 444.4,424.3 335.1,208 325.4,208 						"/>
					</g>
				</g>
				<g id="Left_Wing_Flap_Fairings">
					<path id="Outer-2" class="st5" d="M445.3,332.1c8.9-0.4,18.1,2.8,18.1,2.8s-8.9,2.6-16.3,2.9"/>
					<path id="Middle-2" class="st5" d="M420.3,252.3c6.8-0.1,17.3,3,17.3,3s-10.9,3-15.4,3.2"/>
					<path id="Inner-2" class="st5" d="M408.1,177.2c6.6,0,15.3,3.2,15.3,3.2s-9.3,2.7-15.3,2.7"/>
				</g>
				<g id="Left_Flaps">
					<line id="Flap_Divider-2" class="st5" x1="408.3" y1="213.8" x2="397" y2="213.8"/>
					<polyline id="Flap_Outline-2" class="st5" points="396.1,117.1 396.1,211.5 452.7,367.6 456.3,367.6 					"/>
				</g>
				<g id="Left_Spoilers">
					<polyline id="Inner_Spoiler-2" class="st5" points="396.1,181.1 382.2,181.1 382.2,211.4 396.1,211.5 					"/>
					<g id="Main_Spoilers-2">
						<line id="Outer_Divider-4" class="st5" x1="437.6" y1="326" x2="423.8" y2="331"/>
						<line id="Middle_Divider-4" class="st5" x1="425.9" y1="293.6" x2="412.2" y2="298.9"/>
						<line id="Inner_Divider-4" class="st5" x1="412.7" y1="257.2" x2="399" y2="262.5"/>
						<polyline id="Main_Spoilers_Outline" class="st5" points="399.6,221.2 386.4,227.6 435.5,363.3 449.5,358.7 						"/>
					</g>
				</g>
				<polyline id="Left_Aileron" class="st5" points="475.2,427.9 461.8,427.9 441.6,371.6 444.4,370.3 457.1,370.3 				"/>
				<g id="ENG_1-2">
					<path id="Engine_Mount-4" class="st5" d="M320.1,197.7h-47.4c-5.5,0-10.5,1.3-10.5,4.3v0c0,3,5,4.3,10.5,4.3h51.9"/>
					<path id="Engine-2" class="st6" d="M318.3,206.3v15.5c0,0.6-0.4,1.1-1,1.3c-3.8,0.7-17.8,3.1-34.2,3.1c-19.3,0-31-1.9-32.5-3
						c-2.3-1.7-3.9-4.6-3.9-21.2v-0.1c0-16.6,1.7-19.5,3.9-21.2c1.5-1.1,13.2-3,32.5-3c11.3,0,21.4,1.1,27.8,2.1"/>
					<path id="Exhaust-2" class="st5" d="M318.3,216.7c0,0,8.4-2,10-3.3"/>
					<line id="Engine_Inner_end-2" class="st6" x1="318.3" y1="194.1" x2="318.3" y2="197.7"/>
					<path id="Cowling-2" class="st5" d="M253.9,223.8c-4.1,0-4.1-43.6,0-43.6"/>
				</g>
				<path id="Left_Wing_Outline" class="st6" d="M408.1,117.1v96.1l70.3,225c0,0,14.2,4,14.2,5.7s-29.4-3.6-30.6-3.7
					c0,0-17.5-2.6-23.3-13.8c-5.8-11.2-157.6-303.8-157.6-303.8c-1.6-2.6-30-5.4-30-5.4"/>
			</g>
		</g>
		<g id="Fuselage">
			<path id="APU_Exhaust" class="st5" d="M808,78.9l-0.1-0.6c-0.3-2.3-0.3-4.7,0.1-7v-0.1"/>
			<g id="Cockpit_Windows">
				<g id="Cockpit_Windows_Left">
					<path class="st5" d="M45.4,89.8l-6.9-12.2c-0.2-0.4-0.6-0.6-1-0.6h-7c-0.9,0-1.5,1-1,1.8l10,14.7c0.4,0.6,1.2,0.8,1.8,0.3
						l3.8-2.7C45.5,90.8,45.6,90.2,45.4,89.8L45.4,89.8z"/>
					<path class="st5" d="M42.8,96.1l2.5-2.1c0.3-0.2,0.6-0.3,0.9-0.3h2.4c0.3,0,0.6,0.1,0.9,0.2l5.7,3.4c0.4,0.2,0.7,0.7,0.7,1.1
						v3.7c0,0.6-0.5,1.1-1.1,1.1h-0.5c-0.3,0-0.6-0.1-0.8-0.2l-10.5-5.5C42.3,97.3,42.3,96.5,42.8,96.1L42.8,96.1z"/>
					<path class="st5" d="M59.5,98.9l6.5,2.6c0.2,0.1,0.3,0.2,0.5,0.3l3.5,3c0.6,0.5,1,1.3,1,2.1v1.2c0,0.9-0.9,1.5-1.7,1.2
						l-10.1-4.2c-0.4-0.2-0.7-0.6-0.7-1.1v-4.4C58.5,99.1,59,98.7,59.5,98.9L59.5,98.9z"/>
				</g>
				<g id="Cockpit_Windows_Right">
					<path class="st5" d="M45.4,60.3l-6.9,12.2c-0.2,0.4-0.6,0.6-1,0.6h-7c-0.9,0-1.5-1-1-1.8l10-14.7c0.4-0.6,1.2-0.8,1.8-0.3
						l3.8,2.7C45.5,59.3,45.6,59.9,45.4,60.3L45.4,60.3z"/>
					<path class="st5" d="M42.8,54l2.5,2.1c0.3,0.2,0.6,0.3,0.9,0.3h2.4c0.3,0,0.6-0.1,0.9-0.2l5.7-3.4c0.4-0.2,0.7-0.7,0.7-1.1
						v-3.7c0-0.6-0.5-1.1-1.1-1.1h-0.5c-0.3,0-0.6,0.1-0.8,0.2l-10.5,5.5C42.3,52.8,42.3,53.6,42.8,54L42.8,54z"/>
					<path class="st5" d="M59.5,51.2l6.5-2.6c0.2-0.1,0.3-0.2,0.5-0.3l3.5-3c0.6-0.5,1-1.3,1-2.1V42c0-0.9-0.9-1.5-1.7-1.2L59.2,45
						c-0.4,0.2-0.7,0.6-0.7,1.1v4.4C58.5,51,59,51.4,59.5,51.2L59.5,51.2z"/>
				</g>
			</g>
			<path id="Fuselage_Outline" class="st6" d="M1.2,75c0-3.8,3.3-8.5,10.7-13.4c17.9-11.9,36.9-18.4,58.2-23.5
				C87.8,34,104.4,33,117.5,33h478.7c34.5,0,114,18,114,18l19.2,3.7c0.5,0.1,1,0.2,1.6,0.2l16.3,0.6c9.8,0.6,20.1,2.6,32.6,6
				c11.4,3.1,24.1,5.9,30.1,11.1c0.1,0.1,0.2,0.3,0.2,0.5v4c0,0.2-0.1,0.4-0.2,0.5c-6,5.2-18.7,8-30.1,11.1
				c-12.4,3.4-22.7,5.4-32.6,6L731,95.2c-0.5,0-1,0.1-1.6,0.2l-19.2,3.7c0,0-79.5,18-114,18H117.5c-13,0-29.7-1-47.3-5.2
				c-21.3-5.1-40.3-11.6-58.2-23.5C4.5,83.5,1.2,78.9,1.2,75L1.2,75L1.2,75z"/>
		</g>
	</g>
</g>
</svg>
