{
    "accessors": [
        {
            "bufferView": 0,
            "componentType": 5126,
            "count": 25,
            "min": [
                -0.026266098022460938,
                -0.01591336727142334,
                0.0011162757873535156
            ],
            "max": [
                -0.0041904449462890625,
                0.009233593940734863,
                0.021563053131103516
            ],
            "type": "VEC3",
            "name": "LIGHT_ASOBO_NavigationRedInboard_vertices#0_POSITION"
        },
        {
            "bufferView": 0,
            "byteOffset": 12,
            "componentType": 5120,
            "count": 25,
            "type": "VEC4",
            "name": "LIGHT_ASOBO_NavigationRedInboard_vertices#0_TANGENT"
        },
        {
            "bufferView": 0,
            "byteOffset": 16,
            "componentType": 5120,
            "count": 25,
            "type": "VEC4",
            "name": "LIGHT_ASOBO_NavigationRedInboard_vertices#0_NORMAL"
        },
        {
            "bufferView": 0,
            "byteOffset": 20,
            "componentType": 5122,
            "count": 25,
            "type": "VEC2",
            "name": "LIGHT_ASOBO_NavigationRedInboard_vertices#0_TEXCOORD_0"
        },
        {
            "bufferView": 0,
            "byteOffset": 24,
            "componentType": 5122,
            "count": 25,
            "type": "VEC2",
            "name": "LIGHT_ASOBO_NavigationRedInboard_vertices#0_TEXCOORD_1"
        },
        {
            "bufferView": 0,
            "byteOffset": 28,
            "componentType": 5123,
            "count": 25,
            "type": "VEC4",
            "name": "LIGHT_ASOBO_NavigationRedInboard_vertices#0_COLOR_0"
        },
        {
            "bufferView": 1,
            "componentType": 5123,
            "count": 120,
            "type": "SCALAR",
            "name": "LIGHT_ASOBO_NavigationRedInboard_indices#0"
        },
        {
            "bufferView": 0,
            "byteOffset": 900,
            "componentType": 5126,
            "count": 27,
            "min": [
                -0.026266098022460938,
                -0.00928807258605957,
                -0.021564960479736328
            ],
            "max": [
                -0.0038166046142578125,
                0.01591336727142334,
                -0.0013289451599121094
            ],
            "type": "VEC3",
            "name": "LIGHT_ASOBO_NavigationGreen_vertices#0_POSITION"
        },
        {
            "bufferView": 0,
            "byteOffset": 912,
            "componentType": 5120,
            "count": 27,
            "type": "VEC4",
            "name": "LIGHT_ASOBO_NavigationGreen_vertices#0_TANGENT"
        },
        {
            "bufferView": 0,
            "byteOffset": 916,
            "componentType": 5120,
            "count": 27,
            "type": "VEC4",
            "name": "LIGHT_ASOBO_NavigationGreen_vertices#0_NORMAL"
        },
        {
            "bufferView": 0,
            "byteOffset": 920,
            "componentType": 5122,
            "count": 27,
            "type": "VEC2",
            "name": "LIGHT_ASOBO_NavigationGreen_vertices#0_TEXCOORD_0"
        },
        {
            "bufferView": 0,
            "byteOffset": 924,
            "componentType": 5122,
            "count": 27,
            "type": "VEC2",
            "name": "LIGHT_ASOBO_NavigationGreen_vertices#0_TEXCOORD_1"
        },
        {
            "bufferView": 0,
            "byteOffset": 928,
            "componentType": 5123,
            "count": 27,
            "type": "VEC4",
            "name": "LIGHT_ASOBO_NavigationGreen_vertices#0_COLOR_0"
        },
        {
            "bufferView": 1,
            "byteOffset": 240,
            "componentType": 5123,
            "count": 120,
            "type": "SCALAR",
            "name": "LIGHT_ASOBO_NavigationGreen_indices#0"
        },
        {
            "bufferView": 0,
            "byteOffset": 1872,
            "componentType": 5126,
            "count": 25,
            "min": [
                0.0041904449462890625,
                -0.01591324806213379,
                0.0011153221130371094
            ],
            "max": [
                0.02626800537109375,
                0.009233832359313965,
                0.021562576293945312
            ],
            "type": "VEC3",
            "name": "LIGHT_ASOBO_NavigationGreenInboard_vertices#0_POSITION"
        },
        {
            "bufferView": 0,
            "byteOffset": 1884,
            "componentType": 5120,
            "count": 25,
            "type": "VEC4",
            "name": "LIGHT_ASOBO_NavigationGreenInboard_vertices#0_TANGENT"
        },
        {
            "bufferView": 0,
            "byteOffset": 1888,
            "componentType": 5120,
            "count": 25,
            "type": "VEC4",
            "name": "LIGHT_ASOBO_NavigationGreenInboard_vertices#0_NORMAL"
        },
        {
            "bufferView": 0,
            "byteOffset": 1892,
            "componentType": 5122,
            "count": 25,
            "type": "VEC2",
            "name": "LIGHT_ASOBO_NavigationGreenInboard_vertices#0_TEXCOORD_0"
        },
        {
            "bufferView": 0,
            "byteOffset": 1896,
            "componentType": 5122,
            "count": 25,
            "type": "VEC2",
            "name": "LIGHT_ASOBO_NavigationGreenInboard_vertices#0_TEXCOORD_1"
        },
        {
            "bufferView": 0,
            "byteOffset": 1900,
            "componentType": 5123,
            "count": 25,
            "type": "VEC4",
            "name": "LIGHT_ASOBO_NavigationGreenInboard_vertices#0_COLOR_0"
        },
        {
            "bufferView": 1,
            "byteOffset": 480,
            "componentType": 5123,
            "count": 120,
            "type": "SCALAR",
            "name": "LIGHT_ASOBO_NavigationGreenInboard_indices#0"
        },
        {
            "bufferView": 0,
            "byteOffset": 2772,
            "componentType": 5126,
            "count": 27,
            "min": [
                0.0038166046142578125,
                -0.009288191795349121,
                -0.021564483642578125
            ],
            "max": [
                0.02626800537109375,
                0.01591348648071289,
                -0.0013284683227539062
            ],
            "type": "VEC3",
            "name": "LIGHT_ASOBO_NavigationRed_vertices#0_POSITION"
        },
        {
            "bufferView": 0,
            "byteOffset": 2784,
            "componentType": 5120,
            "count": 27,
            "type": "VEC4",
            "name": "LIGHT_ASOBO_NavigationRed_vertices#0_TANGENT"
        },
        {
            "bufferView": 0,
            "byteOffset": 2788,
            "componentType": 5120,
            "count": 27,
            "type": "VEC4",
            "name": "LIGHT_ASOBO_NavigationRed_vertices#0_NORMAL"
        },
        {
            "bufferView": 0,
            "byteOffset": 2792,
            "componentType": 5122,
            "count": 27,
            "type": "VEC2",
            "name": "LIGHT_ASOBO_NavigationRed_vertices#0_TEXCOORD_0"
        },
        {
            "bufferView": 0,
            "byteOffset": 2796,
            "componentType": 5122,
            "count": 27,
            "type": "VEC2",
            "name": "LIGHT_ASOBO_NavigationRed_vertices#0_TEXCOORD_1"
        },
        {
            "bufferView": 0,
            "byteOffset": 2800,
            "componentType": 5123,
            "count": 27,
            "type": "VEC4",
            "name": "LIGHT_ASOBO_NavigationRed_vertices#0_COLOR_0"
        },
        {
            "bufferView": 1,
            "byteOffset": 720,
            "componentType": 5123,
            "count": 120,
            "type": "SCALAR",
            "name": "LIGHT_ASOBO_NavigationRed_indices#0"
        }
    ],
    "asset": {
        "generator": "Khronos glTF Blender I/O v3.6.28 and Asobo Studio MSFS Blender I/O v1.3.3",
        "version": "2.0",
        "extensions": {
            "ASOBO_asset_optimized": {
                "BoundingBoxMax": [
                    0.02626800537109375,
                    0.01591348648071289,
                    0.021563053131103516
                ],
                "BoundingBoxMin": [
                    -0.026266098022460938,
                    -0.01591336727142334,
                    -0.021564960479736328
                ],
                "MajorVersion": 4,
                "MinorVersion": 4,
                "UseCheckerboardMaterialForMissingTextures": true,
                "UseOnlyFilenameForImageURI": true
            },
            "ASOBO_normal_map_convention": {
                "tangent_space_convention": "DirectX"
            }
        }
    },
    "bufferViews": [
        {
            "buffer": 0,
            "byteLength": 3744,
            "byteStride": 36,
            "target": 34962,
            "name": "BufferViewVertexND"
        },
        {
            "buffer": 0,
            "byteLength": 960,
            "byteOffset": 3744,
            "target": 34963,
            "name": "BufferViewIndex"
        }
    ],
    "extensionsRequired": [
        "MSFT_texture_dds"
    ],
    "materials": [
        {
            "name": "LIGHTS",
            "normalTexture": {
                "index": 1
            },
            "occlusionTexture": {
                "index": 2
            },
            "emissiveTexture": {
                "index": 0
            },
            "emissiveFactor": [
                1,
                1,
                1
            ],
            "pbrMetallicRoughness": {
                "baseColorTexture": {
                    "index": 3
                },
                "metallicRoughnessTexture": {
                    "index": 2
                }
            }
        }
    ],
    "meshes": [
        {
            "primitives": [
                {
                    "attributes": {
                        "COLOR_0": 5,
                        "NORMAL": 2,
                        "POSITION": 0,
                        "TANGENT": 1,
                        "TEXCOORD_0": 3,
                        "TEXCOORD_1": 4
                    },
                    "indices": 6,
                    "material": 0,
                    "mode": 4,
                    "extras": {
                        "ASOBO_primitive": {
                            "PrimitiveCount": 40,
                            "VertexType": "VTX",
                            "VertexVersion": 2
                        }
                    }
                }
            ],
            "name": "LIGHT_ASOBO_NavigationRedInboard"
        },
        {
            "primitives": [
                {
                    "attributes": {
                        "COLOR_0": 12,
                        "NORMAL": 9,
                        "POSITION": 7,
                        "TANGENT": 8,
                        "TEXCOORD_0": 10,
                        "TEXCOORD_1": 11
                    },
                    "indices": 13,
                    "material": 0,
                    "mode": 4,
                    "extras": {
                        "ASOBO_primitive": {
                            "PrimitiveCount": 40,
                            "VertexType": "VTX",
                            "VertexVersion": 2
                        }
                    }
                }
            ],
            "name": "LIGHT_ASOBO_NavigationGreen"
        },
        {
            "primitives": [
                {
                    "attributes": {
                        "COLOR_0": 19,
                        "NORMAL": 16,
                        "POSITION": 14,
                        "TANGENT": 15,
                        "TEXCOORD_0": 17,
                        "TEXCOORD_1": 18
                    },
                    "indices": 20,
                    "material": 0,
                    "mode": 4,
                    "extras": {
                        "ASOBO_primitive": {
                            "PrimitiveCount": 40,
                            "VertexType": "VTX",
                            "VertexVersion": 2
                        }
                    }
                }
            ],
            "name": "LIGHT_ASOBO_NavigationGreenInboard"
        },
        {
            "primitives": [
                {
                    "attributes": {
                        "COLOR_0": 26,
                        "NORMAL": 23,
                        "POSITION": 21,
                        "TANGENT": 22,
                        "TEXCOORD_0": 24,
                        "TEXCOORD_1": 25
                    },
                    "indices": 27,
                    "material": 0,
                    "mode": 4,
                    "extras": {
                        "ASOBO_primitive": {
                            "PrimitiveCount": 40,
                            "VertexType": "VTX",
                            "VertexVersion": 2
                        }
                    }
                }
            ],
            "name": "LIGHT_ASOBO_NavigationRed"
        }
    ],
    "nodes": [
        {
            "mesh": 0,
            "translation": [
                0.179847717,
                0.00557994843,
                0.7857666
            ],
            "rotation": [
                -0.00693558436,
                -0.1588638,
                -0.0430643372,
                0.9863365
            ],
            "scale": [
                0.999999344,
                0.9999995,
                0.99999994
            ],
            "extensions": {
                "ASOBO_unique_id": {
                    "id": "LIGHT_ASOBO_NavigationRedInboard"
                }
            },
            "name": "LIGHT_ASOBO_NavigationRedInboard"
        },
        {
            "mesh": 1,
            "translation": [
                -0.1794281,
                -0.00552403927,
                -0.785871148
            ],
            "rotation": [
                -0.9863365,
                0.0430627577,
                -0.158863887,
                -0.00693561
            ],
            "scale": [
                0.999999762,
                0.999999762,
                0.999999762
            ],
            "extensions": {
                "ASOBO_unique_id": {
                    "id": "LIGHT_ASOBO_NavigationGreen"
                }
            },
            "name": "LIGHT_ASOBO_NavigationGreen"
        },
        {
            "mesh": 2,
            "translation": [
                -0.1794281,
                -0.00552403927,
                -0.785871148
            ],
            "rotation": [
                -0.9863365,
                0.0430627577,
                -0.158863887,
                -0.00693561
            ],
            "scale": [
                0.999999762,
                0.999999762,
                0.999999762
            ],
            "extensions": {
                "ASOBO_unique_id": {
                    "id": "LIGHT_ASOBO_NavigationGreenInboard"
                }
            },
            "name": "LIGHT_ASOBO_NavigationGreenInboard"
        },
        {
            "mesh": 3,
            "translation": [
                0.179847717,
                0.00557994843,
                0.7857666
            ],
            "rotation": [
                -0.00693558436,
                -0.1588638,
                -0.0430643372,
                0.9863365
            ],
            "scale": [
                0.999999344,
                0.9999995,
                0.99999994
            ],
            "extensions": {
                "ASOBO_unique_id": {
                    "id": "LIGHT_ASOBO_NavigationRed"
                }
            },
            "name": "LIGHT_ASOBO_NavigationRed"
        }
    ],
    "scene": 0,
    "scenes": [
        {
            "nodes": [
                0,
                1,
                2,
                3
            ],
            "name": "Scene"
        }
    ],
    "textures": [
        {
            "extensions": {
                "MSFT_texture_dds": {
                    "source": 0
                }
            }
        },
        {
            "extensions": {
                "MSFT_texture_dds": {
                    "source": 1
                }
            }
        },
        {
            "extensions": {
                "MSFT_texture_dds": {
                    "source": 2
                }
            }
        },
        {
            "extensions": {
                "MSFT_texture_dds": {
                    "source": 3
                }
            }
        }
    ],
    "samplers": [
        {
            "magFilter": 9729,
            "minFilter": 9987,
            "wrapS": 10497,
            "wrapT": 10497
        }
    ],
    "extensionsUsed": [
        "ASOBO_normal_map_convention",
        "ASOBO_unique_id",
        "MSFT_texture_dds",
        "ASOBO_asset_optimized"
    ],
    "buffers": [
        {
            "byteLength": 4704,
            "uri": "nav_lights.bin"
        }
    ],
    "images": [
        {
            "uri": "A320NEO_AIRFRAME_LIGHTS_EMIS.PNG.DDS",
            "name": "A320NEO_AIRFRAME_LIGHTS_EMIS",
            "extras": "ASOBO_image_converted_meta"
        },
        {
            "uri": "A320NEO_AIRFRAME_LIGHTS_NORM.PNG.DDS",
            "name": "A320NEO_AIRFRAME_LIGHTS_NORM",
            "extras": "ASOBO_image_converted_meta"
        },
        {
            "uri": "A320NEO_AIRFRAME_LIGHTS_COMP.PNG.DDS",
            "name": "A320NEO_AIRFRAME_LIGHTS_COMP",
            "extras": "ASOBO_image_converted_meta"
        },
        {
            "uri": "A320NEO_AIRFRAME_LIGHTS_ALBD.PNG.DDS",
            "name": "A320NEO_AIRFRAME_LIGHTS_ALBD",
            "extras": "ASOBO_image_converted_meta"
        }
    ]
}
