{"accessors":[{"bufferView":0,"componentType":5126,"count":2,"min":[0.041666666666666667],"max":[0.08333333333333333],"type":"SCALAR"},{"bufferView":1,"componentType":5126,"count":2,"type":"VEC4"},{"bufferView":2,"componentType":5126,"count":2,"type":"VEC4"},{"bufferView":3,"componentType":5126,"count":2,"type":"VEC4"},{"bufferView":4,"componentType":5126,"count":82,"min":[-0.03800240531563759,-0.004683066159486771,-0.004237588495016098],"max":[0.03800240531563759,0.004683067090809345,0.047954440116882327],"type":"VEC3","name":"x0_OVHD_APU_MOUSE_vertices#0_POSITION"},{"bufferView":4,"byteOffset":12,"componentType":5120,"count":82,"type":"VEC4","name":"x0_OVHD_APU_MOUSE_vertices#0_TANGENT"},{"bufferView":4,"byteOffset":16,"componentType":5120,"count":82,"type":"VEC4","name":"x0_OVHD_APU_MOUSE_vertices#0_NORMAL"},{"bufferView":4,"byteOffset":20,"componentType":5122,"count":82,"type":"VEC2","name":"x0_OVHD_APU_MOUSE_vertices#0_TEXCOORD_0"},{"bufferView":4,"byteOffset":24,"componentType":5122,"count":82,"type":"VEC2","name":"x0_OVHD_APU_MOUSE_vertices#0_TEXCOORD_1"},{"bufferView":4,"byteOffset":28,"componentType":5123,"count":82,"type":"VEC4","name":"x0_OVHD_APU_MOUSE_vertices#0_COLOR_0"},{"bufferView":5,"componentType":5123,"count":108,"type":"SCALAR","name":"x0_OVHD_APU_MOUSE_indices#0"},{"bufferView":4,"byteOffset":2952,"componentType":5126,"count":82,"min":[-0.03800240531563759,-0.004683066159486771,-0.004237588495016098],"max":[0.03800240531563759,0.004683067090809345,0.047954440116882327],"type":"VEC3","name":"x0_OVHD_ENG1_MOUSE_vertices#0_POSITION"},{"bufferView":4,"byteOffset":2964,"componentType":5120,"count":82,"type":"VEC4","name":"x0_OVHD_ENG1_MOUSE_vertices#0_TANGENT"},{"bufferView":4,"byteOffset":2968,"componentType":5120,"count":82,"type":"VEC4","name":"x0_OVHD_ENG1_MOUSE_vertices#0_NORMAL"},{"bufferView":4,"byteOffset":2972,"componentType":5122,"count":82,"type":"VEC2","name":"x0_OVHD_ENG1_MOUSE_vertices#0_TEXCOORD_0"},{"bufferView":4,"byteOffset":2976,"componentType":5122,"count":82,"type":"VEC2","name":"x0_OVHD_ENG1_MOUSE_vertices#0_TEXCOORD_1"},{"bufferView":4,"byteOffset":2980,"componentType":5123,"count":82,"type":"VEC4","name":"x0_OVHD_ENG1_MOUSE_vertices#0_COLOR_0"},{"bufferView":5,"byteOffset":216,"componentType":5123,"count":108,"type":"SCALAR","name":"x0_OVHD_ENG1_MOUSE_indices#0"},{"bufferView":4,"byteOffset":5904,"componentType":5126,"count":82,"min":[-0.03800240531563759,-0.004683066159486771,-0.004237588495016098],"max":[0.03800240531563759,0.004683067090809345,0.047954440116882327],"type":"VEC3","name":"x0_OVHD_ENG2_MOUSE_vertices#0_POSITION"},{"bufferView":4,"byteOffset":5916,"componentType":5120,"count":82,"type":"VEC4","name":"x0_OVHD_ENG2_MOUSE_vertices#0_TANGENT"},{"bufferView":4,"byteOffset":5920,"componentType":5120,"count":82,"type":"VEC4","name":"x0_OVHD_ENG2_MOUSE_vertices#0_NORMAL"},{"bufferView":4,"byteOffset":5924,"componentType":5122,"count":82,"type":"VEC2","name":"x0_OVHD_ENG2_MOUSE_vertices#0_TEXCOORD_0"},{"bufferView":4,"byteOffset":5928,"componentType":5122,"count":82,"type":"VEC2","name":"x0_OVHD_ENG2_MOUSE_vertices#0_TEXCOORD_1"},{"bufferView":4,"byteOffset":5932,"componentType":5123,"count":82,"type":"VEC4","name":"x0_OVHD_ENG2_MOUSE_vertices#0_COLOR_0"},{"bufferView":5,"byteOffset":432,"componentType":5123,"count":108,"type":"SCALAR","name":"x0_OVHD_ENG2_MOUSE_indices#0"}],"animations":[{"name":"LOCK_OVHD_APU_MOUSE","channels":[{"sampler":0,"target":{"node":0,"path":"rotation"}}],"samplers":[{"input":0,"output":1,"interpolation":"LINEAR"}]},{"name":"LOCK_OVHD_ENG1_MOUSE","channels":[{"sampler":0,"target":{"node":1,"path":"rotation"}}],"samplers":[{"input":0,"output":2,"interpolation":"LINEAR"}]},{"name":"LOCK_OVHD_ENG2_MOUSE","channels":[{"sampler":0,"target":{"node":2,"path":"rotation"}}],"samplers":[{"input":0,"output":3,"interpolation":"LINEAR"}]}],"asset":{"generator":"Khronos glTF Blender I/O v3.3.36 and Asobo Studio MSFS Blender I/O v1.3.0","version":"2.0","extensions":{"ASOBO_asset_optimized":{"BoundingBoxMax":[0.03800240531563759,0.004683067090809345,0.047954440116882327],"BoundingBoxMin":[-0.03800240531563759,-0.004683066159486771,-0.004237588495016098],"MajorVersion":4,"MinorVersion":4,"UseCheckerboardMaterialForMissingTextures":true,"UseOnlyFilenameForImageURI":true},"ASOBO_normal_map_convention":{"tangent_space_convention":"DirectX"}}},"bufferViews":[{"buffer":0,"byteLength":8},{"buffer":0,"byteLength":32,"byteOffset":8},{"buffer":0,"byteLength":32,"byteOffset":40},{"buffer":0,"byteLength":32,"byteOffset":72},{"buffer":0,"byteLength":8856,"byteStride":36,"byteOffset":104,"target":34962,"name":"BufferViewVertexND"},{"buffer":0,"byteLength":648,"byteOffset":8960,"target":34963,"name":"BufferViewIndex"}],"materials":[{"name":"MouseCollision","pbrMetallicRoughness":{"baseColorFactor":[0.800000011920929,0.0,0.0,0.10000000149011612]},"extensions":{"ASOBO_material_invisible":{},"ASOBO_tags":{"tags":["Collision"]}}}],"meshes":[{"primitives":[{"attributes":{"COLOR_0":9,"NORMAL":6,"POSITION":4,"TANGENT":5,"TEXCOORD_0":7,"TEXCOORD_1":8},"indices":10,"material":0,"mode":4,"extras":{"ASOBO_primitive":{"PrimitiveCount":36,"VertexType":"VTX","VertexVersion":2}}}],"name":"x0_OVHD_APU_MOUSE"},{"primitives":[{"attributes":{"COLOR_0":16,"NORMAL":13,"POSITION":11,"TANGENT":12,"TEXCOORD_0":14,"TEXCOORD_1":15},"indices":17,"material":0,"mode":4,"extras":{"ASOBO_primitive":{"PrimitiveCount":36,"VertexType":"VTX","VertexVersion":2}}}],"name":"x0_OVHD_ENG1_MOUSE"},{"primitives":[{"attributes":{"COLOR_0":23,"NORMAL":20,"POSITION":18,"TANGENT":19,"TEXCOORD_0":21,"TEXCOORD_1":22},"indices":24,"material":0,"mode":4,"extras":{"ASOBO_primitive":{"PrimitiveCount":36,"VertexType":"VTX","VertexVersion":2}}}],"name":"x0_OVHD_ENG2_MOUSE"}],"nodes":[{"translation":[0.0002289999974891543,2.557270050048828,10.895299911499024],"rotation":[0.19080904126167298,0.0,0.0,0.9816271662712096],"mesh":0,"name":"LOCK_OVHD_APU_MOUSE"},{"translation":[0.12951700389385224,2.5535199642181398,10.904600143432616],"rotation":[0.19080904126167298,0.0,0.0,0.9816271662712096],"mesh":1,"name":"LOCK_OVHD_ENG1_MOUSE"},{"translation":[-0.12956200540065766,2.5535199642181398,10.904600143432616],"rotation":[0.19080904126167298,0.0,0.0,0.9816271662712096],"mesh":2,"name":"LOCK_OVHD_ENG2_MOUSE"}],"scene":0,"scenes":[{"nodes":[0,1,2],"name":"Scene"}],"extensionsUsed":["ASOBO_normal_map_convention","ASOBO_material_invisible","ASOBO_material_shadow_options","ASOBO_tags","ASOBO_asset_optimized"],"buffers":[{"byteLength":9608,"uri":"fire-button.bin"}]}
