{
    "accessors": [
        {
            "bufferView": 0,
            "componentType": 5126,
            "count": 1870,
            "min": [
                -0.1477229744195938,
                -0.07922861725091934,
                -0.11134228110313416
            ],
            "max": [
                0.14770261943340302,
                0.1216055229306221,
                0.1119232326745987
            ],
            "type": "VEC3",
            "name": "CHOCK_vertices#0_POSITION"
        },
        {
            "bufferView": 0,
            "byteOffset": 12,
            "componentType": 5120,
            "count": 1870,
            "type": "VEC4",
            "name": "CHOCK_vertices#0_TANGENT"
        },
        {
            "bufferView": 0,
            "byteOffset": 16,
            "componentType": 5120,
            "count": 1870,
            "type": "VEC4",
            "name": "CHOCK_vertices#0_NORMAL"
        },
        {
            "bufferView": 0,
            "byteOffset": 20,
            "componentType": 5122,
            "count": 1870,
            "type": "VEC2",
            "name": "CHOCK_vertices#0_TEXCOORD_0"
        },
        {
            "bufferView": 0,
            "byteOffset": 24,
            "componentType": 5122,
            "count": 1870,
            "type": "VEC2",
            "name": "CHOCK_vertices#0_TEXCOORD_1"
        },
        {
            "bufferView": 0,
            "byteOffset": 28,
            "componentType": 5123,
            "count": 1870,
            "type": "VEC4",
            "name": "CHOCK_vertices#0_COLOR_0"
        },
        {
            "bufferView": 1,
            "componentType": 5123,
            "count": 4344,
            "type": "SCALAR",
            "name": "CHOCK_indices#0"
        }
    ],
    "asset": {
        "generator": "Khronos glTF Blender I/O v1.8.2",
        "version": "2.0",
        "extensions": {
            "ASOBO_asset_optimized": {
                "BoundingBoxMax": [
                    0.14770261943340302,
                    0.1216055229306221,
                    0.1119232326745987
                ],
                "BoundingBoxMin": [
                    -0.1477229744195938,
                    -0.07922861725091934,
                    -0.11134228110313416
                ],
                "MajorVersion": 4,
                "MinorVersion": 3,
                "UseCheckerboardMaterialForMissingTextures": true
            }
        }
    },
    "bufferViews": [
        {
            "buffer": 0,
            "byteLength": 67320,
            "byteStride": 36,
            "target": 34962,
            "name": "BufferViewVertexND"
        },
        {
            "buffer": 0,
            "byteLength": 8688,
            "byteOffset": 67320,
            "target": 34963,
            "name": "BufferViewIndex"
        }
    ],
    "extensionsRequired": [
        "MSFT_texture_dds"
    ],
    "materials": [
        {
            "name": "CHOCK",
            "normalTexture": {
                "index": 0
            },
            "occlusionTexture": {
                "index": 1
            },
            "pbrMetallicRoughness": {
                "baseColorTexture": {
                    "index": 2
                },
                "metallicRoughnessTexture": {
                    "index": 1
                }
            }
        }
    ],
    "meshes": [
        {
            "primitives": [
                {
                    "attributes": {
                        "COLOR_0": 5,
                        "NORMAL": 2,
                        "POSITION": 0,
                        "TANGENT": 1,
                        "TEXCOORD_0": 3,
                        "TEXCOORD_1": 4
                    },
                    "indices": 6,
                    "material": 0,
                    "mode": 4,
                    "extras": {
                        "ASOBO_primitive": {
                            "PrimitiveCount": 1448,
                            "VertexType": "VTX",
                            "VertexVersion": 2
                        }
                    }
                }
            ],
            "name": "CHOCK"
        }
    ],
    "nodes": [
        {
          "translation": [-4.33451, -2.55, -3.1459],
          "scale": [1.25, 1.25, 1.25],
          "mesh": 0,
          "name": "CHOCK_MAINGEAR_RIGHT_FRONT"
        },
        {
          "translation": [-4.33451, -2.55, -4.17],
          "scale": [1.25, 1.25, 1.25],
          "mesh": 0,
          "name": "CHOCK_MAINGEAR_RIGHT_BACK"
        },
        {
          "translation": [4.3351, -2.55, -3.1459],
          "scale": [1.25, 1.25, 1.25],
          "mesh": 0,
          "name": "CHOCK_MAINGEAR_LEFT_FRONT"
        },
        {
          "translation": [4.3351, -2.55, -4.17],
          "scale": [1.25, 1.25, 1.25],
          "mesh": 0,
          "name": "CHOCK_MAINGEAR_LEFT_BACK"
        },
        {
          "translation": [0.25, -2.495, 8.576],
          "scale": [0.8, 0.8, 0.8],
          "mesh": 0,
          "name": "CHOCK_NOSEGEAR_FRONT"
        },
        {
          "translation": [0.25, -2.495, 7.865],
          "scale": [0.8, 0.8, 0.8],
          "mesh": 0,
          "name": "CHOCK_NOSEGEAR_BACK"
        }
    ],
    "scene": 0,
    "scenes": [
        {
            "nodes": [
                0, 1, 2, 3, 4, 5
            ],
            "name": "Scene"
        }
    ],
    "textures": [
        {
            "extensions": {
                "MSFT_texture_dds": {
                    "source": 0
                }
            }
        },
        {
            "extensions": {
                "MSFT_texture_dds": {
                    "source": 1
                }
            }
        },
        {
            "extensions": {
                "MSFT_texture_dds": {
                    "source": 2
                }
            }
        }
    ],
    "samplers": [
        {
            "magFilter": 9729,
            "minFilter": 9987,
            "wrapS": 10497,
            "wrapT": 10497
        }
    ],
    "extensionsUsed": [
        "MSFT_texture_dds",
        "ASOBO_asset_optimized"
    ],
    "buffers": [
        {
            "byteLength": 76008,
            "uri": "chock.bin"
        }
    ],
    "images": [
        {
            "uri": "CHOCK_NORM.PNG.DDS",
            "name": "CHOCK_NORM",
            "extras": "ASOBO_image_converted_meta"
        },
        {
            "uri": "CHOCK_COMP.PNG.DDS",
            "name": "CHOCK_COMP",
            "extras": "ASOBO_image_converted_meta"
        },
        {
            "uri": "CHOCK_ALBD.PNG.DDS",
            "name": "CHOCK_ALBD",
            "extras": "ASOBO_image_converted_meta"
        }
    ]
}
