<svg id="Lager_1" data-name="Lager 1" xmlns="http://www.w3.org/2000/svg" viewBox="0 0 577.39 136.06"><defs><style>.cls-1{fill:#df362c;}.cls-1,.cls-2,.cls-3,.cls-4,.cls-5{fill-rule:evenodd;}.cls-2{fill:#a6302b;}.cls-3{fill:#9ba2aa;}.cls-4{fill:#d7dadf;}.cls-5,.cls-6{fill:#fff;}</style></defs><g id="Kantigare"><path class="cls-1" d="M68.87,63.16c1.36,0,19.36-17.67,19.36-19.35C88.23,40.74,72.26,0,68.87,0,65.33,21,64.61,42.09,68.87,63.16Z" transform="translate(-0.73 0)"/><path class="cls-2" d="M68.87,0C66,0,54.08,28.7,50.32,39.74a20.42,20.42,0,0,0-1.15,4.07c0,1.68,18.34,19.36,19.7,19.35Z" transform="translate(-0.73 0)"/><path class="cls-3" d="M73.62,68.16c0,1.36,17.68,19.36,19.36,19.36,3.07,0,43.81-16,43.81-19.36C115.75,64.62,94.69,63.9,73.62,68.16Z" transform="translate(-0.73 0)"/><path class="cls-4" d="M136.79,68.16c0-2.84-28.7-14.79-39.74-18.55A20.61,20.61,0,0,0,93,48.46c-1.68,0-19.36,18.34-19.36,19.7Z" transform="translate(-0.73 0)"/><path class="cls-3" d="M68.62,72.9c-1.36,0-19.36,17.68-19.36,19.35,0,3.07,16,43.81,19.36,43.81C72.16,115,72.88,94,68.62,72.9Z" transform="translate(-0.73 0)"/><path class="cls-4" d="M68.62,136.06c2.84,0,14.79-28.7,18.55-39.73a20.62,20.62,0,0,0,1.15-4.08c0-1.68-18.34-19.35-19.7-19.35Z" transform="translate(-0.73 0)"/><path class="cls-4" d="M63.89,67.91c0-1.36-17.68-19.36-19.36-19.36-3.06,0-43.8,16-43.8,19.36C21.77,71.45,42.82,72.17,63.89,67.91Z" transform="translate(-0.73 0)"/><path class="cls-3" d="M.73,67.91c0,2.84,28.7,14.79,39.73,18.55a20.8,20.8,0,0,0,4.07,1.15c1.68,0,19.36-18.34,19.36-19.7Z" transform="translate(-0.73 0)"/></g><g id="Navigraph-Logotype--Group-"><g id="Curves"><path class="cls-5" d="M179,31.9h11l30.21,42.42V31.9H231.1V92.23H220.21L190,49.81V92.23H179Z" transform="translate(-0.73 0)"/><path class="cls-5" d="M260.14,45.77c6,0,10.72,1.76,14.23,5.19s5.27,8.16,5.27,14V92.23h-7.73l-2.72-5.44a17.15,17.15,0,0,1-6.33,4.74,18.5,18.5,0,0,1-8,1.76,19.71,19.71,0,0,1-8.69-1.85,14.33,14.33,0,0,1-6.06-5.09A13.64,13.64,0,0,1,240.47,71a17,17,0,0,1,6.67-5.36,21.53,21.53,0,0,1,9.31-1.93,34.87,34.87,0,0,1,12.74,2.46V64.92a10.84,10.84,0,0,0-2.64-7.38c-1.84-2-4.65-3-8.52-3-3.6,0-7.72,1.14-12.29,3.42V50.52C248.64,47.79,254.52,45.77,260.14,45.77Zm-2.9,39.7a15.47,15.47,0,0,0,7.64-2A8.77,8.77,0,0,0,269.19,78V72.91A35,35,0,0,0,258,71.15a11.57,11.57,0,0,0-6.85,2,6.46,6.46,0,0,0-2.81,5.27,6,6,0,0,0,2.55,5.1A9.92,9.92,0,0,0,257.24,85.47Z" transform="translate(-0.73 0)"/><path class="cls-5" d="M281.34,46.83h11.32l13.18,33,12.91-33h11.41l-19.23,45.4h-10.1Z" transform="translate(-0.73 0)"/><rect class="cls-6" x="336.28" y="46.83" width="10.71" height="45.4"/><circle class="cls-6" cx="341.64" cy="34.08" r="5.36"/><path class="cls-5" d="M401.25,46.83V87.4a18.32,18.32,0,0,1-3,10.36,20.16,20.16,0,0,1-8.44,7,29,29,0,0,1-12.29,2.55,33.91,33.91,0,0,1-10.8-1.67,27.83,27.83,0,0,1-8.7-4.39l3.87-7.82A17,17,0,0,0,368.14,97,26,26,0,0,0,376,98.2c4.48,0,8-1,10.63-3a9.77,9.77,0,0,0,4-8.17V81.17a18.78,18.78,0,0,1-6.68,5.7,20.67,20.67,0,0,1-19.32-.79,19.21,19.21,0,0,1-7.37-7.64,23.19,23.19,0,0,1-2.64-11.15,23.19,23.19,0,0,1,2.64-11.15,19.21,19.21,0,0,1,7.37-7.64A19.93,19.93,0,0,1,375,45.77a19.3,19.3,0,0,1,9,2.11,18.2,18.2,0,0,1,6.59,5.71l3.33-6.76ZM376.66,79.76a12.12,12.12,0,0,0,9-3.51,12.39,12.39,0,0,0-9-21.34,11.87,11.87,0,0,0-12.38,12.38,12.41,12.41,0,0,0,3.42,9A11.86,11.86,0,0,0,376.66,79.76Z" transform="translate(-0.73 0)"/><path class="cls-5" d="M419.39,55.59a16.52,16.52,0,0,1,6.47-7.17,17.91,17.91,0,0,1,9.7-2.62v9.09c-4.81,0-8.74,1.32-11.71,3.94a13.21,13.21,0,0,0-4.46,10.4V92.06H408.72V46.85h6.47Z" transform="translate(-0.73 0)"/><path class="cls-5" d="M456.78,45.77c6,0,10.72,1.76,14.23,5.19s5.27,8.16,5.27,14V92.23h-7.73l-2.72-5.44a17.19,17.19,0,0,1-6.32,4.74,18.55,18.55,0,0,1-8,1.76,19.77,19.77,0,0,1-8.69-1.85,14.33,14.33,0,0,1-6.06-5.09A13.69,13.69,0,0,1,437.11,71a17,17,0,0,1,6.68-5.36,21.5,21.5,0,0,1,9.31-1.93,34.82,34.82,0,0,1,12.73,2.46V64.92a10.84,10.84,0,0,0-2.64-7.38c-1.84-2-4.65-3-8.51-3-3.6,0-7.73,1.14-12.3,3.42V50.52C445.28,47.79,451.16,45.77,456.78,45.77Zm-2.89,39.7a15.5,15.5,0,0,0,7.64-2,8.79,8.79,0,0,0,4.3-5.45V72.91a35,35,0,0,0-11.15-1.76,11.53,11.53,0,0,0-6.85,2A6.44,6.44,0,0,0,445,78.44a6,6,0,0,0,2.54,5.1A9.93,9.93,0,0,0,453.89,85.47Z" transform="translate(-0.73 0)"/><path class="cls-5" d="M509.64,45.77a19.5,19.5,0,0,1,10.71,3,21.22,21.22,0,0,1,7.47,8.43,27.88,27.88,0,0,1,2.63,12.3,27.86,27.86,0,0,1-2.63,12.29,21.22,21.22,0,0,1-7.47,8.43,18.85,18.85,0,0,1-10.71,3.08A18.87,18.87,0,0,1,493.83,85v22.31H483.12V46.83h7.2l3.51,7.2a19.76,19.76,0,0,1,6.76-6.15A19.41,19.41,0,0,1,509.64,45.77Zm-2,38.38A12.14,12.14,0,0,0,517,80a15.1,15.1,0,0,0,3.69-10.53A15.26,15.26,0,0,0,517,59a12.37,12.37,0,0,0-9.39-4,11.88,11.88,0,0,0-9.22,4,15.2,15.2,0,0,0-3.6,10.54c0,4.3,1.14,7.81,3.6,10.53A11.66,11.66,0,0,0,507.62,84.15Z" transform="translate(-0.73 0)"/><path class="cls-5" d="M561.25,45.77A17.2,17.2,0,0,1,570,48a16.22,16.22,0,0,1,6,6.24,19.36,19.36,0,0,1,2.11,9.13V92.23H567.75V65.45a11.2,11.2,0,0,0-2.64-7.64,9.1,9.1,0,0,0-6.93-2.9,11.31,11.31,0,0,0-7.82,2.9,8.82,8.82,0,0,0-3.25,6.93V92.23H536.4V30.84h10.71V53.06A15.18,15.18,0,0,1,553,47.71,17.58,17.58,0,0,1,561.25,45.77Z" transform="translate(-0.73 0)"/></g></g></svg>