<?xml version="1.0" encoding="UTF-8" standalone="no"?>
<svg
   xmlns:dc="http://purl.org/dc/elements/1.1/"
   xmlns:cc="http://creativecommons.org/ns#"
   xmlns:rdf="http://www.w3.org/1999/02/22-rdf-syntax-ns#"
   xmlns:svg="http://www.w3.org/2000/svg"
   xmlns="http://www.w3.org/2000/svg"
   xmlns:sodipodi="http://sodipodi.sourceforge.net/DTD/sodipodi-0.dtd"
   xmlns:inkscape="http://www.inkscape.org/namespaces/inkscape"
   inkscape:export-ydpi="96"
   inkscape:export-xdpi="96"
   inkscape:export-filename="C:\Users\Prier\a32nx\flybywire-aircraft-a320-neo\html_ui\Pages\VCockpit\Instruments\Airliners\FlyByWire_A320_Neo\MFD\Images\A32NX_DECEL.png"
   sodipodi:docname="A32NX_DECEL_FBW.svg"
   inkscape:version="1.0 (4035a4fb49, 2020-05-01)"
   id="svg8"
   version="1.1"
   viewBox="0 0 33.866666 33.866668"
   height="128"
   width="128">
  <defs
     id="defs2" />
  <sodipodi:namedview
     inkscape:document-rotation="0"
     inkscape:window-maximized="1"
     inkscape:window-y="-6"
     inkscape:window-x="-6"
     inkscape:window-height="1018"
     inkscape:window-width="1920"
     inkscape:measure-end="0,0"
     inkscape:measure-start="0,0"
     units="px"
     showgrid="false"
     inkscape:current-layer="layer1"
     inkscape:document-units="mm"
     inkscape:cy="67.976835"
     inkscape:cx="22.799366"
     inkscape:zoom="3.8596652"
     inkscape:pageshadow="2"
     inkscape:pageopacity="0.0"
     borderopacity="1.0"
     bordercolor="#666666"
     pagecolor="#ffffff"
     id="base" />
  <metadata
     id="metadata5">
    <rdf:RDF>
      <cc:Work
         rdf:about="">
        <dc:format>image/svg+xml</dc:format>
        <dc:type
           rdf:resource="http://purl.org/dc/dcmitype/StillImage" />
        <dc:title></dc:title>
      </cc:Work>
    </rdf:RDF>
  </metadata>
  <g
     transform="translate(0,-263.13332)"
     id="layer1"
     inkscape:groupmode="layer"
     inkscape:label="Calque 1">
    <g
       style="stroke:#000000;stroke-opacity:1;stroke-width:0.5;stroke-miterlimit:4;stroke-dasharray:none;fill:#ff94ff;fill-opacity:1"
       id="g881">
      <g
         style="stroke:#000000;stroke-opacity:1;stroke-width:0.44514909;stroke-miterlimit:4;stroke-dasharray:none;fill:#ff94ff;fill-opacity:1"
         id="V1_G1000_CONTOUR"
         transform="matrix(1.1232192,0,0,1.1232192,-19.009681,244.12364)" />
      <g
         style="stroke:#000000;stroke-opacity:1;stroke-width:0.44514909;stroke-miterlimit:4;stroke-dasharray:none;fill:#ff94ff;fill-opacity:1"
         id="g9"
         transform="matrix(1.1232192,0,0,1.1232192,-19.795935,243.95516)">
        <path
           transform="matrix(0.23555806,0,0,0.23555806,17.624285,17.074281)"
           d="M 64 2.0195312 C 29.613573 2.0195312 2.0195312 29.613573 2.0195312 64 C 2.0195313 98.386427 29.613573 125.98047 64 125.98047 C 97.961903 125.98047 125.98047 97.961903 125.98047 64 C 125.98047 29.613573 98.386427 2.0195312 64 2.0195312 z M 64 12.632812 C 92.443094 12.632812 115.36719 35.556906 115.36719 64 C 115.36719 92.443094 92.443094 115.36719 64 115.36719 C 35.556906 115.36719 12.632812 92.443094 12.632812 64 C 12.632812 35.556906 35.556906 12.632812 64 12.632812 z M 40.226562 30.675781 L 40.226562 97.324219 L 46.59375 97.324219 L 51.263672 97.324219 L 61.876953 97.324219 C 67.395762 97.324219 72.066005 96.476135 75.886719 94.353516 C 79.707433 92.65542 82.678162 89.6833 84.800781 86.287109 C 86.9234 82.890919 87.773438 78.64702 87.773438 73.552734 L 87.773438 54.447266 C 87.773438 49.777504 86.9234 45.109081 84.800781 41.712891 C 82.678162 38.3167 79.707433 35.34458 75.886719 33.646484 C 72.066005 31.523865 67.395762 30.675781 61.876953 30.675781 L 51.263672 30.675781 L 46.59375 30.675781 L 40.226562 30.675781 z M 51.263672 41.287109 L 62.302734 41.287109 C 66.972496 41.287109 70.36692 42.560975 72.914062 44.683594 C 75.461205 47.230737 76.736328 50.202028 76.736328 54.447266 L 76.736328 73.976562 C 76.736328 78.2218 75.461205 81.617615 72.914062 83.740234 C 70.36692 85.862853 66.972496 87.136719 62.302734 87.136719 L 51.263672 87.136719 L 51.263672 41.287109 z "
           style="stroke-width:1.88976376;stroke:#000000;stroke-opacity:1;stroke-miterlimit:4;stroke-dasharray:none;fill:#ff94ff;fill-opacity:1"
           id="path7" />
      </g>
    </g>
  </g>
</svg>
