<?xml version="1.0" encoding="UTF-8" standalone="no"?>
<svg
   xmlns:dc="http://purl.org/dc/elements/1.1/"
   xmlns:cc="http://creativecommons.org/ns#"
   xmlns:rdf="http://www.w3.org/1999/02/22-rdf-syntax-ns#"
   xmlns:svg="http://www.w3.org/2000/svg"
   xmlns="http://www.w3.org/2000/svg"
   xmlns:sodipodi="http://sodipodi.sourceforge.net/DTD/sodipodi-0.dtd"
   xmlns:inkscape="http://www.inkscape.org/namespaces/inkscape"
   inkscape:export-ydpi="96"
   inkscape:export-xdpi="96"
   inkscape:export-filename="D:\KittyHawk\SRC\KittyHawk\html_UI\Pages\VCockpit\Panels\Instruments\GlassCockpits\Airliners\Shared\MFD\Images\ICON_MAP_PLANE_AS1000.png"
   sodipodi:docname="ICON_MAP_PLANE_A320.svg"
   inkscape:version="1.0 (4035a4fb49, 2020-05-01)"
   id="svg8"
   version="1.1"
   viewBox="0 0 33.866666 33.866668"
   height="128"
   width="128">
  <defs
     id="defs2">
    <inkscape:path-effect
       hide_knots="true"
       only_selected="true"
       apply_with_radius="true"
       apply_no_radius="true"
       use_knot_distance="true"
       flexible="false"
       chamfer_steps="1"
       radius="2.5"
       mode="F"
       method="auto"
       unit="mm"
       satellites_param="F,0,1,1,1,2.5,0,1 @ F,0,0,1,1,0,0,1 @ F,0,1,1,1,2.5,0,1 @ F,0,1,1,1,2.5,0,1 @ F,0,0,1,1,0,0,1 @ F,0,0,1,1,0,0,1 @ F,0,1,1,1,2.5,0,1 @ F,0,1,1,1,2.5,0,1 @ F,0,0,1,1,0,0,1 @ F,0,1,1,1,2.5,0,1 @ F,0,1,1,1,2.5,0,1 @ F,0,0,1,1,0,0,1 @ F,0,1,1,1,2.5,0,1 @ F,0,1,1,1,2.5,0,1 @ F,0,0,1,1,0,0,1 @ F,0,0,1,1,0,0,1 @ F,0,1,1,1,2.5,0,1 @ F,0,1,1,1,2.5,0,1 @ F,0,0,1,1,0,0,1 @ F,0,1,1,1,2.5,0,1"
       lpeversion="1"
       is_visible="true"
       id="path-effect840"
       effect="fillet_chamfer" />
  </defs>
  <sodipodi:namedview
     inkscape:document-rotation="0"
     inkscape:window-maximized="1"
     inkscape:window-y="-6"
     inkscape:window-x="-6"
     inkscape:window-height="1018"
     inkscape:window-width="1920"
     inkscape:measure-end="0,0"
     inkscape:measure-start="0,0"
     units="px"
     showgrid="false"
     inkscape:current-layer="layer1"
     inkscape:document-units="mm"
     inkscape:cy="89.260325"
     inkscape:cx="54.207148"
     inkscape:zoom="5.4583908"
     inkscape:pageshadow="2"
     inkscape:pageopacity="0.0"
     borderopacity="1.0"
     bordercolor="#666666"
     pagecolor="#ffffff"
     id="base" />
  <metadata
     id="metadata5">
    <rdf:RDF>
      <cc:Work
         rdf:about="">
        <dc:format>image/svg+xml</dc:format>
        <dc:type
           rdf:resource="http://purl.org/dc/dcmitype/StillImage" />
        <dc:title />
      </cc:Work>
    </rdf:RDF>
  </metadata>
  <g
     transform="translate(0,-263.13332)"
     id="layer1"
     inkscape:groupmode="layer"
     inkscape:label="Calque 1">
    <path
       inkscape:export-ydpi="96"
       inkscape:export-xdpi="96"
       inkscape:original-d="M 61.283203,40.09375 V 61.283203 H 20.4375 v 5.433594 H 61.283203 V 108.91211 H 49.871094 v 5.43359 h 11.412109 v 12.875 h 5.433594 v -12.875 h 11.412109 v -5.43359 H 66.716797 V 66.716797 H 107.5625 V 61.283203 H 66.716797 V 40.09375 Z"
       inkscape:path-effect="#path-effect840"
       transform="matrix(0.26458333,0,0,0.26458333,0,263.13332)"
       d="M 61.283203,42.59375 V 61.283203 H 22.9375 a 2.5,2.5 135 0 0 -2.5,2.5 v 0.433594 a 2.5,2.5 45 0 0 2.5,2.5 h 38.345703 v 42.195313 h -8.912109 a 2.5,2.5 135 0 0 -2.5,2.5 v 0.43359 a 2.5,2.5 45 0 0 2.5,2.5 h 8.912109 v 10.375 a 2.5,2.5 45 0 0 2.5,2.5 h 0.433594 a 2.5,2.5 135 0 0 2.5,-2.5 v -10.375 h 8.912109 a 2.5,2.5 135 0 0 2.5,-2.5 v -0.43359 a 2.5,2.5 45 0 0 -2.5,-2.5 H 66.716797 V 66.716797 H 105.0625 a 2.5,2.5 135 0 0 2.5,-2.5 v -0.433594 a 2.5,2.5 45 0 0 -2.5,-2.5 H 66.716797 V 42.59375 a 2.5,2.5 45 0 0 -2.5,-2.5 h -0.433594 a 2.5,2.5 135 0 0 -2.5,2.5 z"
       style="fill:#ffff00;fill-opacity:1;fill-rule:nonzero;stroke:#000000;stroke-width:1.8897638;stroke-linecap:round;stroke-linejoin:round;stroke-miterlimit:4;stroke-dasharray:none;stroke-dashoffset:0;stroke-opacity:1;paint-order:stroke fill markers;opacity:0.999"
       id="rect822" />
  </g>
</svg>
