<?xml version="1.0" encoding="UTF-8" standalone="no"?>
<svg
   xmlns:dc="http://purl.org/dc/elements/1.1/"
   xmlns:cc="http://creativecommons.org/ns#"
   xmlns:rdf="http://www.w3.org/1999/02/22-rdf-syntax-ns#"
   xmlns:svg="http://www.w3.org/2000/svg"
   xmlns="http://www.w3.org/2000/svg"
   xmlns:sodipodi="http://sodipodi.sourceforge.net/DTD/sodipodi-0.dtd"
   xmlns:inkscape="http://www.inkscape.org/namespaces/inkscape"
   inkscape:export-ydpi="96"
   inkscape:export-xdpi="96"
   inkscape:export-filename="C:\Users\Prier\a32nx\flybywire-aircraft-a320-neo\html_ui\Pages\VCockpit\Instruments\Airliners\FlyByWire_A320_Neo\MFD\Images\ICON_MAP_AIRPORT8.png"
   sodipodi:docname="ICON_MAP_AIRPORT_FBW.svg"
   inkscape:version="1.0 (4035a4fb49, 2020-05-01)"
   id="svg8"
   version="1.1"
   viewBox="0 0 33.866666 33.866668"
   height="128"
   width="128">
  <defs
     id="defs2" />
  <sodipodi:namedview
     inkscape:document-rotation="0"
     inkscape:window-maximized="1"
     inkscape:window-y="-6"
     inkscape:window-x="-6"
     inkscape:window-height="1018"
     inkscape:window-width="1920"
     inkscape:measure-end="0,0"
     inkscape:measure-start="0,0"
     units="px"
     showgrid="false"
     inkscape:current-layer="layer1"
     inkscape:document-units="mm"
     inkscape:cy="67.976835"
     inkscape:cx="74.617332"
     inkscape:zoom="3.8596652"
     inkscape:pageshadow="2"
     inkscape:pageopacity="0.0"
     borderopacity="1.0"
     bordercolor="#666666"
     pagecolor="#ffffff"
     id="base" />
  <metadata
     id="metadata5">
    <rdf:RDF>
      <cc:Work
         rdf:about="">
        <dc:format>image/svg+xml</dc:format>
        <dc:type
           rdf:resource="http://purl.org/dc/dcmitype/StillImage" />
        <dc:title></dc:title>
      </cc:Work>
    </rdf:RDF>
  </metadata>
  <g
     transform="translate(0,-263.13332)"
     id="layer1"
     inkscape:groupmode="layer"
     inkscape:label="Calque 1">
    <g
       transform="matrix(1.0000427,0,0,0.99999935,-7.237943e-4,1.8680073e-4)"
       id="g847">
      <g
         id="g838"
         transform="matrix(0.96981186,0,0,0.96983644,0.5111856,8.447807)">
        <g
           style="opacity:1"
           transform="matrix(0.27281924,0,0,0.27281232,-0.5270977,262.60666)"
           id="g851">
          <path
             d="M 60.326172,5.0957031 V 55.130859 L 24.947266,19.751953 19.751953,24.947266 55.130859,60.326172 H 5.0976562 v 7.347656 H 55.130859 l -35.378906,35.378902 5.195313,5.19532 35.378906,-35.378909 V 122.9043 h 7.347656 V 72.869141 l 35.378902,35.378909 5.19532,-5.19532 L 72.869141,67.673828 H 122.90234 V 60.326172 H 72.869141 L 108.24805,24.947266 103.05273,19.751953 67.673828,55.130859 V 5.0957031 Z m 0,-1.8320312 A 1.8329232,1.8329232 0 0 0 58.494141,5.0957031 V 50.705078 l -32.25,-32.25 a 1.8329232,1.8329232 0 0 0 -2.59375,0 l -5.195313,5.195313 a 1.8329232,1.8329232 0 0 0 0,2.59375 l 32.25,32.25 H 5.0976562 A 1.8329232,1.8329232 0 0 0 3.265625,60.326172 v 7.347656 a 1.8329232,1.8329232 0 0 0 1.8320312,1.832031 H 50.705078 l -32.25,32.250001 a 1.8329232,1.8329232 0 0 0 0,2.59375 l 5.195313,5.19531 a 1.8329232,1.8329232 0 0 0 2.59375,0 l 32.25,-32.249998 V 122.9043 a 1.8329232,1.8329232 0 0 0 1.832031,1.83203 h 7.347656 a 1.8329232,1.8329232 0 0 0 1.832031,-1.83203 V 77.294922 l 32.250001,32.249998 a 1.8329232,1.8329232 0 0 0 2.59375,0 l 5.19531,-5.19531 a 1.8329232,1.8329232 0 0 0 0,-2.59375 L 77.294922,69.505859 h 45.607418 a 1.8329232,1.8329232 0 0 0 1.83204,-1.832031 v -7.347656 a 1.8329232,1.8329232 0 0 0 -1.83204,-1.832031 H 77.294922 l 32.249998,-32.25 a 1.8329232,1.8329232 0 0 0 0,-2.59375 l -5.19531,-5.195313 a 1.8329232,1.8329232 0 0 0 -2.59375,0 l -32.250001,32.25 V 5.0957031 A 1.8329232,1.8329232 0 0 0 67.673828,3.2636719 Z m 1.832031,3.6640625 h 3.683594 V 55.130859 a 1.8329232,1.8329232 0 0 0 3.128906,1.296875 L 103.05273,22.34375 105.6543,24.947266 71.572266,59.029297 a 1.8329232,1.8329232 0 0 0 1.296875,3.128906 h 48.201169 v 3.683594 H 72.869141 a 1.8329232,1.8329232 0 0 0 -1.296875,3.128906 L 105.6543,103.05273 103.05273,105.6543 68.970703,71.572266 a 1.8329232,1.8329232 0 0 0 -3.128906,1.296875 V 121.07227 H 62.158203 V 72.869141 A 1.8329232,1.8329232 0 0 0 59.029297,71.572266 L 24.947266,105.6543 22.34375,103.05273 56.427734,68.970703 A 1.8329232,1.8329232 0 0 0 55.130859,65.841797 H 6.9296875 V 62.158203 H 55.130859 a 1.8329232,1.8329232 0 0 0 1.296875,-3.128906 L 22.345703,24.947266 24.947266,22.345703 59.029297,56.427734 a 1.8329232,1.8329232 0 0 0 3.128906,-1.296875 z"
             style="color:#000000;font-style:normal;font-variant:normal;font-weight:normal;font-stretch:normal;font-size:medium;line-height:normal;font-family:sans-serif;font-variant-ligatures:normal;font-variant-position:normal;font-variant-caps:normal;font-variant-numeric:normal;font-variant-alternates:normal;font-variant-east-asian:normal;font-feature-settings:normal;font-variation-settings:normal;text-indent:0;text-align:start;text-decoration:none;text-decoration-line:none;text-decoration-style:solid;text-decoration-color:#000000;letter-spacing:normal;word-spacing:normal;text-transform:none;writing-mode:lr-tb;direction:ltr;text-orientation:mixed;dominant-baseline:auto;baseline-shift:baseline;text-anchor:start;white-space:normal;shape-padding:0;shape-margin:0;inline-size:0;clip-rule:nonzero;display:inline;overflow:visible;visibility:visible;isolation:auto;mix-blend-mode:normal;color-interpolation:sRGB;color-interpolation-filters:linearRGB;solid-color:#000000;solid-opacity:1;vector-effect:none;fill:#ff94ff;fill-opacity:1;fill-rule:nonzero;stroke:#000000;stroke-width:3.77953;stroke-linecap:round;stroke-linejoin:round;stroke-miterlimit:4;stroke-dasharray:none;stroke-dashoffset:0;stroke-opacity:1;paint-order:markers stroke fill;color-rendering:auto;image-rendering:auto;shape-rendering:auto;text-rendering:auto;enable-background:accumulate;stop-color:#000000;stop-opacity:1"
             id="path855" />
        </g>
      </g>
    </g>
  </g>
</svg>
