{
    "accessors": [
        {
            "bufferView": 1,
            "byteOffset": 28,
            "componentType": 5123,
            "count": 16,
            "type": "VEC4",
            "name": "x0_SCREEN_HUD_L_vertices#0_COLOR_0"
        },
        {
            "bufferView": 1,
            "byteOffset": 16,
            "componentType": 5120,
            "count": 16,
            "type": "VEC4",
            "name": "x0_SCREEN_HUD_L_vertices#0_NORMAL"
        },
        {
            "bufferView": 1,
            "componentType": 5126,
            "count": 16,
            "min": [
                0.4484272003173828,
                2.0122554302215576,
                11.394580841064453
            ],
            "max": [
                0.688427209854126,
                2.191816806793213,
                11.407136917114258
            ],
            "type": "VEC3",
            "name": "x0_SCREEN_HUD_L_vertices#0_POSITION"
        },
        {
            "bufferView": 1,
            "byteOffset": 12,
            "componentType": 5120,
            "count": 16,
            "type": "VEC4",
            "name": "x0_SCREEN_HUD_L_vertices#0_TANGENT"
        },
        {
            "bufferView": 1,
            "byteOffset": 20,
            "componentType": 5122,
            "count": 16,
            "type": "VEC2",
            "name": "x0_SCREEN_HUD_L_vertices#0_TEXCOORD_0"
        },
        {
            "bufferView": 1,
            "byteOffset": 24,
            "componentType": 5122,
            "count": 16,
            "type": "VEC2",
            "name": "x0_SCREEN_HUD_L_vertices#0_TEXCOORD_1"
        },
        {
            "bufferView": 0,
            "componentType": 5123,
            "count": 42,
            "type": "SCALAR",
            "name": "x0_SCREEN_HUD_L_indices#0"
        },
        {
            "bufferView": 1,
            "byteOffset": 604,
            "componentType": 5123,
            "count": 213,
            "type": "VEC4",
            "name": "x0_HUD_L_vertices#0_COLOR_0"
        },
        {
            "bufferView": 1,
            "byteOffset": 592,
            "componentType": 5120,
            "count": 213,
            "type": "VEC4",
            "name": "x0_HUD_L_vertices#0_NORMAL"
        },
        {
            "bufferView": 1,
            "byteOffset": 576,
            "componentType": 5126,
            "count": 213,
            "min": [
                0.4484272003173828,
                2.0104150772094727,
                11.394582748413086
            ],
            "max": [
                0.688427209854126,
                2.1903598308563232,
                11.412620544433594
            ],
            "type": "VEC3",
            "name": "x0_HUD_L_vertices#0_POSITION"
        },
        {
            "bufferView": 1,
            "byteOffset": 588,
            "componentType": 5120,
            "count": 213,
            "type": "VEC4",
            "name": "x0_HUD_L_vertices#0_TANGENT"
        },
        {
            "bufferView": 1,
            "byteOffset": 596,
            "componentType": 5122,
            "count": 213,
            "type": "VEC2",
            "name": "x0_HUD_L_vertices#0_TEXCOORD_0"
        },
        {
            "bufferView": 1,
            "byteOffset": 600,
            "componentType": 5122,
            "count": 213,
            "type": "VEC2",
            "name": "x0_HUD_L_vertices#0_TEXCOORD_1"
        },
        {
            "bufferView": 0,
            "byteOffset": 84,
            "componentType": 5123,
            "count": 468,
            "type": "SCALAR",
            "name": "x0_HUD_L_indices#0"
        },
        {
            "bufferView": 1,
            "byteOffset": 8272,
            "componentType": 5123,
            "count": 3943,
            "type": "VEC4",
            "name": "Cube.011_vertices#0_COLOR_0"
        },
        {
            "bufferView": 1,
            "byteOffset": 8260,
            "componentType": 5120,
            "count": 3943,
            "type": "VEC4",
            "name": "Cube.011_vertices#0_NORMAL"
        },
        {
            "bufferView": 1,
            "byteOffset": 8244,
            "componentType": 5126,
            "count": 3943,
            "min": [
                0.44310638308525085,
                2.0725255012512207,
                11.403609275817871
            ],
            "max": [
                0.6752625703811646,
                2.1897993087768555,
                11.453615188598633
            ],
            "type": "VEC3",
            "name": "Cube.011_vertices#0_POSITION"
        },
        {
            "bufferView": 1,
            "byteOffset": 8264,
            "componentType": 5122,
            "count": 3943,
            "type": "VEC2",
            "name": "Cube.011_vertices#0_TEXCOORD_0"
        },
        {
            "bufferView": 1,
            "byteOffset": 8268,
            "componentType": 5122,
            "count": 3943,
            "type": "VEC2",
            "name": "Cube.011_vertices#0_TEXCOORD_1"
        },
        {
            "bufferView": 0,
            "byteOffset": 1020,
            "componentType": 5123,
            "count": 6156,
            "type": "SCALAR",
            "name": "Cube.011_indices#0"
        }
    ],
    "asset": {
        "generator": "Khronos glTF Blender I/O v1.7.5",
        "version": "2.0",
        "extensions": {
            "ASOBO_asset_optimized": {
                "BoundingBoxMax": [
                    0.688427209854126,
                    2.191816806793213,
                    11.453615188598633
                ],
                "BoundingBoxMin": [
                    0,
                    0,
                    0
                ],
                "MajorVersion": 4,
                "MinorVersion": 2
            },
            "ASOBO_normal_map_convention": {
                "tangent_space_convention": "DirectX"
            }
        }
    },
    "bufferViews": [
        {
            "buffer": 0,
            "byteLength": 13332,
            "byteOffset": 0,
            "target": 34963,
            "name": "BufferViewIndex"
        },
        {
            "buffer": 0,
            "byteLength": 150192,
            "byteStride": 36,
            "byteOffset": 13332,
            "target": 34962,
            "name": "BufferViewVertexND"
        }
    ],
    "extensionsUsed": [
        "MSFT_texture_dds",
        "ASOBO_asset_optimized",
        "ASOBO_normal_map_convention"
    ],
    "extensionsRequired": [
        "MSFT_texture_dds"
    ],
    "materials": [
        {
            "name": "$HUD",
            "emissiveFactor": [
                1,
                1,
                1
            ],
            "pbrMetallicRoughness": {
                "baseColorFactor": [
                    0,
                    0,
                    0,
                    1
                ],
                "roughnessFactor": 0
            }
        },
        {
            "name": "HUDOFF",
            "alphaMode": "BLEND",
            "pbrMetallicRoughness": {
                "baseColorFactor": [
                    0.03741001337766647,
                    0.03741001337766647,
                    0.03741001337766647,
                    0.20000001788139343
                ],
                "metallicFactor": 0,
                "roughnessFactor": 0
            }
        },
        {
            "name": "BLACK_MAT",
            "doubleSided": true,
            "pbrMetallicRoughness": {
                "baseColorFactor": [
                    0.01341040339320898,
                    0.01341040339320898,
                    0.01341040339320898,
                    1
                ],
                "metallicFactor": 0,
                "roughnessFactor": 0.5
            }
        }
    ],
    "meshes": [
        {
            "primitives": [
                {
                    "attributes": {
                        "COLOR_0": 0,
                        "NORMAL": 1,
                        "POSITION": 2,
                        "TANGENT": 3,
                        "TEXCOORD_0": 4,
                        "TEXCOORD_1": 5
                    },
                    "indices": 6,
                    "material": 0,
                    "mode": 4,
                    "extras": {
                        "ASOBO_primitive": {
                            "PrimitiveCount": 14,
                            "VertexType": "VTX",
                            "VertexVersion": 2
                        }
                    }
                }
            ],
            "name": "x0_SCREEN_HUD_L"
        },
        {
            "primitives": [
                {
                    "attributes": {
                        "COLOR_0": 7,
                        "NORMAL": 8,
                        "POSITION": 9,
                        "TANGENT": 10,
                        "TEXCOORD_0": 11,
                        "TEXCOORD_1": 12
                    },
                    "indices": 13,
                    "material": 1,
                    "mode": 4,
                    "extras": {
                        "ASOBO_primitive": {
                            "PrimitiveCount": 156,
                            "VertexType": "VTX",
                            "VertexVersion": 2
                        }
                    }
                }
            ],
            "name": "x0_HUD_L"
        },
        {
            "primitives": [
                {
                    "attributes": {
                        "COLOR_0": 14,
                        "NORMAL": 15,
                        "POSITION": 16,
                        "TEXCOORD_0": 17,
                        "TEXCOORD_1": 18
                    },
                    "indices": 19,
                    "material": 2,
                    "mode": 4,
                    "extras": {
                        "ASOBO_primitive": {
                            "PrimitiveCount": 2052,
                            "VertexType": "VTX",
                            "VertexVersion": 2
                        }
                    }
                }
            ],
            "name": "Cube.011"
        }
    ],
    "nodes": [
        {
            "translation": [
                0,
                -0.026633279398083687,
                0.01993786357343197
            ],
            "mesh": 0,
            "name": "SCREEN_HUD_L"
        },
        {
            "translation": [
                0,
                -0.025176286697387695,
                0.01993560791015625
            ],
            "mesh": 1,
            "name": "HUD_L"
        },
        {
            "mesh": 2,
            "name": "Cube.001"
        }
    ],
    "scene": 0,
    "scenes": [
        {
            "name": "Scene",
            "nodes": [
                0,
                1,
                2
            ]
        }
    ],
    "buffers": [
        {
            "byteLength": 163524,
            "uri": "hud.bin"
        }
    ]
}
