{
    "accessors": [
        {
            "bufferView": 1,
            "byteOffset": 28,
            "componentType": 5123,
            "count": 4,
            "type": "VEC4",
            "name": "INOP_MAINPANEL-CA_vertices#0_COLOR_0"
        },
        {
            "bufferView": 1,
            "byteOffset": 16,
            "componentType": 5120,
            "count": 4,
            "type": "VEC4",
            "name": "INOP_MAINPANEL-CA_vertices#0_NORMAL"
        },
        {
            "bufferView": 1,
            "componentType": 5126,
            "count": 4,
            "min": [
                -0.012659518979489803,
                -0.00537836691364646,
                -0.0016322954325005412
            ],
            "max": [
                0.012659449130296707,
                0.005388803314417601,
                0.0015974093694239855
            ],
            "type": "VEC3",
            "name": "INOP_MAINPANEL-CA_vertices#0_POSITION"
        },
        {
            "bufferView": 1,
            "byteOffset": 12,
            "componentType": 5120,
            "count": 4,
            "type": "VEC4",
            "name": "INOP_MAINPANEL-CA_vertices#0_TANGENT"
        },
        {
            "bufferView": 1,
            "byteOffset": 20,
            "componentType": 5122,
            "count": 4,
            "type": "VEC2",
            "name": "INOP_MAINPANEL-CA_vertices#0_TEXCOORD_0"
        },
        {
            "bufferView": 1,
            "byteOffset": 24,
            "componentType": 5122,
            "count": 4,
            "type": "VEC2",
            "name": "INOP_MAINPANEL-CA_vertices#0_TEXCOORD_1"
        },
        {
            "bufferView": 0,
            "componentType": 5123,
            "count": 6,
            "type": "SCALAR",
            "name": "INOP_MAINPANEL-CA_indices#0"
        },
        {
            "bufferView": 1,
            "byteOffset": 172,
            "componentType": 5123,
            "count": 4,
            "type": "VEC4",
            "name": "INOP_PEDESTAL_vertices#0_COLOR_0"
        },
        {
            "bufferView": 1,
            "byteOffset": 160,
            "componentType": 5120,
            "count": 4,
            "type": "VEC4",
            "name": "INOP_PEDESTAL_vertices#0_NORMAL"
        },
        {
            "bufferView": 1,
            "byteOffset": 144,
            "componentType": 5126,
            "count": 4,
            "min": [
                -0.012713061645627022,
                -0.0017711149994283915,
                -0.005498543381690979
            ],
            "max": [
                0.012713169679045677,
                0.0006983692292124033,
                0.005734344944357872
            ],
            "type": "VEC3",
            "name": "INOP_PEDESTAL_vertices#0_POSITION"
        },
        {
            "bufferView": 1,
            "byteOffset": 156,
            "componentType": 5120,
            "count": 4,
            "type": "VEC4",
            "name": "INOP_PEDESTAL_vertices#0_TANGENT"
        },
        {
            "bufferView": 1,
            "byteOffset": 164,
            "componentType": 5122,
            "count": 4,
            "type": "VEC2",
            "name": "INOP_PEDESTAL_vertices#0_TEXCOORD_0"
        },
        {
            "bufferView": 1,
            "byteOffset": 168,
            "componentType": 5122,
            "count": 4,
            "type": "VEC2",
            "name": "INOP_PEDESTAL_vertices#0_TEXCOORD_1"
        },
        {
            "bufferView": 0,
            "byteOffset": 12,
            "componentType": 5123,
            "count": 6,
            "type": "SCALAR",
            "name": "INOP_PEDESTAL_indices#0"
        },
        {
            "bufferView": 1,
            "byteOffset": 316,
            "componentType": 5123,
            "count": 4,
            "type": "VEC4",
            "name": "INOP_MAINPANEL-FO_vertices#0_COLOR_0"
        },
        {
            "bufferView": 1,
            "byteOffset": 304,
            "componentType": 5120,
            "count": 4,
            "type": "VEC4",
            "name": "INOP_MAINPANEL-FO_vertices#0_NORMAL"
        },
        {
            "bufferView": 1,
            "byteOffset": 288,
            "componentType": 5126,
            "count": 4,
            "min": [
                -0.012798890471458435,
                -0.00475455354899168,
                -0.004959593992680311
            ],
            "max": [
                0.012792014516890049,
                0.00668797641992569,
                -0.0015834703808650374
            ],
            "type": "VEC3",
            "name": "INOP_MAINPANEL-FO_vertices#0_POSITION"
        },
        {
            "bufferView": 1,
            "byteOffset": 300,
            "componentType": 5120,
            "count": 4,
            "type": "VEC4",
            "name": "INOP_MAINPANEL-FO_vertices#0_TANGENT"
        },
        {
            "bufferView": 1,
            "byteOffset": 308,
            "componentType": 5122,
            "count": 4,
            "type": "VEC2",
            "name": "INOP_MAINPANEL-FO_vertices#0_TEXCOORD_0"
        },
        {
            "bufferView": 1,
            "byteOffset": 312,
            "componentType": 5122,
            "count": 4,
            "type": "VEC2",
            "name": "INOP_MAINPANEL-FO_vertices#0_TEXCOORD_1"
        },
        {
            "bufferView": 0,
            "byteOffset": 24,
            "componentType": 5123,
            "count": 6,
            "type": "SCALAR",
            "name": "INOP_MAINPANEL-FO_indices#0"
        }
    ],
    "asset": {
        "generator": "Khronos glTF Blender I/O v1.7.5",
        "version": "2.0",
        "extensions": {
            "ASOBO_asset_optimized": {
                "BoundingBoxMax": [
                    0.012792014516890049,
                    0.00668797641992569,
                    0.005734344944357872
                ],
                "BoundingBoxMin": [
                    -0.012798890471458435,
                    -0.00537836691364646,
                    -0.005498543381690979
                ],
                "MajorVersion": 4,
                "MinorVersion": 2
            },
            "ASOBO_normal_map_convention": {
                "tangent_space_convention": "DirectX"
            }
        }
    },
    "bufferViews": [
        {
            "buffer": 0,
            "byteLength": 36,
            "byteOffset": 0,
            "target": 34963,
            "name": "BufferViewIndex"
        },
        {
            "buffer": 0,
            "byteLength": 432,
            "byteStride": 36,
            "byteOffset": 36,
            "target": 34962,
            "name": "BufferViewVertexND"
        }
    ],
    "extensionsUsed": ["ASOBO_asset_optimized", "ASOBO_normal_map_convention"],
    "materials": [],
    "meshes": [
        {
            "primitives": [
                {
                    "attributes": {
                        "COLOR_0": 0,
                        "NORMAL": 1,
                        "POSITION": 2,
                        "TANGENT": 3,
                        "TEXCOORD_0": 4,
                        "TEXCOORD_1": 5
                    },
                    "indices": 6,
                    "material": "TEXT_NoEmi",
                    "mode": 4,
                    "extras": {
                        "ASOBO_primitive": {
                            "PrimitiveCount": 2,
                            "VertexType": "VTX",
                            "VertexVersion": 2
                        }
                    }
                }
            ],
            "name": "INOP_MAINPANEL-CA"
        },
        {
            "primitives": [
                {
                    "attributes": {
                        "COLOR_0": 7,
                        "NORMAL": 8,
                        "POSITION": 9,
                        "TANGENT": 10,
                        "TEXCOORD_0": 11,
                        "TEXCOORD_1": 12
                    },
                    "indices": 13,
                    "material": "TEXT_NoEmi",
                    "mode": 4,
                    "extras": {
                        "ASOBO_primitive": {
                            "PrimitiveCount": 2,
                            "VertexType": "VTX",
                            "VertexVersion": 2
                        }
                    }
                }
            ],
            "name": "INOP_PEDESTAL"
        },
        {
            "primitives": [
                {
                    "attributes": {
                        "COLOR_0": 14,
                        "NORMAL": 15,
                        "POSITION": 16,
                        "TANGENT": 17,
                        "TEXCOORD_0": 18,
                        "TEXCOORD_1": 19
                    },
                    "indices": 20,
                    "material": "TEXT_NoEmi",
                    "mode": 4,
                    "extras": {
                        "ASOBO_primitive": {
                            "PrimitiveCount": 2,
                            "VertexType": "VTX",
                            "VertexVersion": 2
                        }
                    }
                }
            ],
            "name": "INOP_MAINPANEL-FO"
        }
    ],
    "nodes": [
        {
            "translation": [
                0.2407613843679428,
                1.537426233291626,
                11.848071098327637
            ],
            "mesh": 0,
            "name": "INOP_MAINPANEL-CA"
        },
        {
            "translation": [
                0.2568877339363098,
                1.2179856300354004,
                11.231157302856445
            ],
            "mesh": 1,
            "name": "INOP_PEDESTAL"
        },
        {
            "translation": [
                -0.24920707941055298,
                1.6395668983459473,
                11.87914752960205
            ],
            "mesh": 2,
            "name": "INOP_MAINPANEL-FO"
        }
    ],
    "scene": 0,
    "scenes": [
        {
            "name": "Scene",
            "nodes": [0, 1, 2]
        }
    ],
    "textures": [],
    "buffers": [
        {
            "byteLength": 468,
            "uri": "inop.bin"
        }
    ],
    "images": [],
    "samplers": []
}
