{
    "accessors": [
      {
        "bufferView": 0,
        "componentType": 5126,
        "count": 207,
        "min": [
          -0.07141599804162979,
          -0.09884800016880035,
          -0.002360000042244792
        ],
        "max": [
          0.071383997797966,
          0.09923199564218521,
          0.002360000042244792
        ],
        "type": "VEC3",
        "name": "x0_EFB_vertices#0_POSITION"
      },
      {
        "bufferView": 0,
        "byteOffset": 12,
        "componentType": 5120,
        "count": 207,
        "type": "VEC4",
        "name": "x0_EFB_vertices#0_TANGENT"
      },
      {
        "bufferView": 0,
        "byteOffset": 16,
        "componentType": 5120,
        "count": 207,
        "type": "VEC4",
        "name": "x0_EFB_vertices#0_NORMAL"
      },
      {
        "bufferView": 0,
        "byteOffset": 20,
        "componentType": 5122,
        "count": 207,
        "type": "VEC2",
        "name": "x0_EFB_vertices#0_TEXCOORD_0"
      },
      {
        "bufferView": 0,
        "byteOffset": 24,
        "componentType": 5122,
        "count": 207,
        "type": "VEC2",
        "name": "x0_EFB_vertices#0_TEXCOORD_1"
      },
      {
        "bufferView": 0,
        "byteOffset": 28,
        "componentType": 5123,
        "count": 207,
        "type": "VEC4",
        "name": "x0_EFB_vertices#0_COLOR_0"
      },
      {
        "bufferView": 1,
        "componentType": 5123,
        "count": 444,
        "type": "SCALAR",
        "name": "x0_EFB_indices#0"
      },
      {
        "bufferView": 0,
        "byteOffset": 7452,
        "componentType": 5126,
        "count": 72,
        "min": [
          -0.07189600169658661,
          -0.07945600152015686,
          -0.0011360000353306532
        ],
        "max": [
          -0.07084000110626221,
          -0.06559199839830399,
          0.0016079999040812254
        ],
        "type": "VEC3",
        "name": "x0_PUSH_EFB_SIDE_vertices#0_POSITION"
      },
      {
        "bufferView": 0,
        "byteOffset": 7464,
        "componentType": 5120,
        "count": 72,
        "type": "VEC4",
        "name": "x0_PUSH_EFB_SIDE_vertices#0_TANGENT"
      },
      {
        "bufferView": 0,
        "byteOffset": 7468,
        "componentType": 5120,
        "count": 72,
        "type": "VEC4",
        "name": "x0_PUSH_EFB_SIDE_vertices#0_NORMAL"
      },
      {
        "bufferView": 0,
        "byteOffset": 7472,
        "componentType": 5122,
        "count": 72,
        "type": "VEC2",
        "name": "x0_PUSH_EFB_SIDE_vertices#0_TEXCOORD_0"
      },
      {
        "bufferView": 0,
        "byteOffset": 7476,
        "componentType": 5122,
        "count": 72,
        "type": "VEC2",
        "name": "x0_PUSH_EFB_SIDE_vertices#0_TEXCOORD_1"
      },
      {
        "bufferView": 0,
        "byteOffset": 7480,
        "componentType": 5123,
        "count": 72,
        "type": "VEC4",
        "name": "x0_PUSH_EFB_SIDE_vertices#0_COLOR_0"
      },
      {
        "bufferView": 1,
        "byteOffset": 888,
        "componentType": 5123,
        "count": 138,
        "type": "SCALAR",
        "name": "x0_PUSH_EFB_SIDE_indices#0"
      },
      {
        "bufferView": 0,
        "byteOffset": 10044,
        "componentType": 5126,
        "count": 72,
        "min": [
          0.044335998594760895,
          -0.09923199564218521,
          -0.0011360000353306532
        ],
        "max": [
          0.05629599839448929,
          -0.0981760025024414,
          0.0016079999040812254
        ],
        "type": "VEC3",
        "name": "x0_PUSH_EFB_UPPER_vertices#0_POSITION"
      },
      {
        "bufferView": 0,
        "byteOffset": 10056,
        "componentType": 5120,
        "count": 72,
        "type": "VEC4",
        "name": "x0_PUSH_EFB_UPPER_vertices#0_TANGENT"
      },
      {
        "bufferView": 0,
        "byteOffset": 10060,
        "componentType": 5120,
        "count": 72,
        "type": "VEC4",
        "name": "x0_PUSH_EFB_UPPER_vertices#0_NORMAL"
      },
      {
        "bufferView": 0,
        "byteOffset": 10064,
        "componentType": 5122,
        "count": 72,
        "type": "VEC2",
        "name": "x0_PUSH_EFB_UPPER_vertices#0_TEXCOORD_0"
      },
      {
        "bufferView": 0,
        "byteOffset": 10068,
        "componentType": 5122,
        "count": 72,
        "type": "VEC2",
        "name": "x0_PUSH_EFB_UPPER_vertices#0_TEXCOORD_1"
      },
      {
        "bufferView": 0,
        "byteOffset": 10072,
        "componentType": 5123,
        "count": 72,
        "type": "VEC4",
        "name": "x0_PUSH_EFB_UPPER_vertices#0_COLOR_0"
      },
      {
        "bufferView": 1,
        "byteOffset": 1164,
        "componentType": 5123,
        "count": 138,
        "type": "SCALAR",
        "name": "x0_PUSH_EFB_UPPER_indices#0"
      },
      {
        "bufferView": 0,
        "byteOffset": 12636,
        "componentType": 5126,
        "count": 64,
        "min": [
          0.07084000110626221,
          -0.05987199768424034,
          -0.0011360000353306532
        ],
        "max": [
          0.07189600169658661,
          -0.047919996082782745,
          0.0016079999040812254
        ],
        "type": "VEC3",
        "name": "x0_PUSH_EFB_VOLUME_DOWN_vertices#0_POSITION"
      },
      {
        "bufferView": 0,
        "byteOffset": 12648,
        "componentType": 5120,
        "count": 64,
        "type": "VEC4",
        "name": "x0_PUSH_EFB_VOLUME_DOWN_vertices#0_TANGENT"
      },
      {
        "bufferView": 0,
        "byteOffset": 12652,
        "componentType": 5120,
        "count": 64,
        "type": "VEC4",
        "name": "x0_PUSH_EFB_VOLUME_DOWN_vertices#0_NORMAL"
      },
      {
        "bufferView": 0,
        "byteOffset": 12656,
        "componentType": 5122,
        "count": 64,
        "type": "VEC2",
        "name": "x0_PUSH_EFB_VOLUME_DOWN_vertices#0_TEXCOORD_0"
      },
      {
        "bufferView": 0,
        "byteOffset": 12660,
        "componentType": 5122,
        "count": 64,
        "type": "VEC2",
        "name": "x0_PUSH_EFB_VOLUME_DOWN_vertices#0_TEXCOORD_1"
      },
      {
        "bufferView": 0,
        "byteOffset": 12664,
        "componentType": 5123,
        "count": 64,
        "type": "VEC4",
        "name": "x0_PUSH_EFB_VOLUME_DOWN_vertices#0_COLOR_0"
      },
      {
        "bufferView": 1,
        "byteOffset": 1440,
        "componentType": 5123,
        "count": 138,
        "type": "SCALAR",
        "name": "x0_PUSH_EFB_VOLUME_DOWN_indices#0"
      },
      {
        "bufferView": 0,
        "byteOffset": 14940,
        "componentType": 5126,
        "count": 64,
        "min": [
          0.07084000110626221,
          -0.07497599720954895,
          -0.0011360000353306532
        ],
        "max": [
          0.07189600169658661,
          -0.06302399933338165,
          0.0016079999040812254
        ],
        "type": "VEC3",
        "name": "x0_PUSH_EFB_VOLUME_UP_vertices#0_POSITION"
      },
      {
        "bufferView": 0,
        "byteOffset": 14952,
        "componentType": 5120,
        "count": 64,
        "type": "VEC4",
        "name": "x0_PUSH_EFB_VOLUME_UP_vertices#0_TANGENT"
      },
      {
        "bufferView": 0,
        "byteOffset": 14956,
        "componentType": 5120,
        "count": 64,
        "type": "VEC4",
        "name": "x0_PUSH_EFB_VOLUME_UP_vertices#0_NORMAL"
      },
      {
        "bufferView": 0,
        "byteOffset": 14960,
        "componentType": 5122,
        "count": 64,
        "type": "VEC2",
        "name": "x0_PUSH_EFB_VOLUME_UP_vertices#0_TEXCOORD_0"
      },
      {
        "bufferView": 0,
        "byteOffset": 14964,
        "componentType": 5122,
        "count": 64,
        "type": "VEC2",
        "name": "x0_PUSH_EFB_VOLUME_UP_vertices#0_TEXCOORD_1"
      },
      {
        "bufferView": 0,
        "byteOffset": 14968,
        "componentType": 5123,
        "count": 64,
        "type": "VEC4",
        "name": "x0_PUSH_EFB_VOLUME_UP_vertices#0_COLOR_0"
      },
      {
        "bufferView": 1,
        "byteOffset": 1716,
        "componentType": 5123,
        "count": 138,
        "type": "SCALAR",
        "name": "x0_PUSH_EFB_VOLUME_UP_indices#0"
      },
      {
        "bufferView": 0,
        "byteOffset": 17244,
        "componentType": 5126,
        "count": 20,
        "min": [
          -0.06401866674423218,
          -0.0914086103439331,
          -0.0018916621338576078
        ],
        "max": [
          0.0639813244342804,
          0.09179139137268066,
          -0.0018916621338576078
        ],
        "type": "VEC3",
        "name": "x0_SCREEN_EFB_vertices#0_POSITION"
      },
      {
        "bufferView": 0,
        "byteOffset": 17256,
        "componentType": 5120,
        "count": 20,
        "type": "VEC4",
        "name": "x0_SCREEN_EFB_vertices#0_TANGENT"
      },
      {
        "bufferView": 0,
        "byteOffset": 17260,
        "componentType": 5120,
        "count": 20,
        "type": "VEC4",
        "name": "x0_SCREEN_EFB_vertices#0_NORMAL"
      },
      {
        "bufferView": 0,
        "byteOffset": 17264,
        "componentType": 5122,
        "count": 20,
        "type": "VEC2",
        "name": "x0_SCREEN_EFB_vertices#0_TEXCOORD_0"
      },
      {
        "bufferView": 0,
        "byteOffset": 17268,
        "componentType": 5122,
        "count": 20,
        "type": "VEC2",
        "name": "x0_SCREEN_EFB_vertices#0_TEXCOORD_1"
      },
      {
        "bufferView": 0,
        "byteOffset": 17272,
        "componentType": 5123,
        "count": 20,
        "type": "VEC4",
        "name": "x0_SCREEN_EFB_vertices#0_COLOR_0"
      },
      {
        "bufferView": 1,
        "byteOffset": 1992,
        "componentType": 5123,
        "count": 54,
        "type": "SCALAR",
        "name": "x0_SCREEN_EFB_indices#0"
      }
    ],
    "asset": {
      "generator": "Khronos glTF Blender I/O v1.3.48",
      "version": "2.0",
      "extensions": {
        "ASOBO_asset_optimized": {
          "BoundingBoxMax": [
            0.07189600169658661,
            0.09923199564218521,
            0.002360000042244792
          ],
          "BoundingBoxMin": [
            -0.07189600169658661,
            -0.09923199564218521,
            -0.002360000042244792
          ],
          "MajorVersion": 4,
          "MinorVersion": 2
        }
      }
    },
    "bufferViews": [
      {
        "buffer": 0,
        "byteLength": 17964,
        "byteStride": 36,
        "target": 34962,
        "name": "BufferViewVertexND"
      },
      {
        "buffer": 0,
        "byteLength": 2100,
        "byteOffset": 17964,
        "target": 34963,
        "name": "BufferViewIndex"
      }
    ],
    "extensionsUsed": [
      "MSFT_texture_dds",
      "ASOBO_asset_optimized"
    ],
    "extensionsRequired": [
      "MSFT_texture_dds"
    ],
    "materials": [
      {
        "name": "flypad",
        "normalTexture": {
          "index": 0
        },
        "occlusionTexture": {
          "index": 2
        },
        "pbrMetallicRoughness": {
          "baseColorTexture": {
            "index": 1
          },
          "metallicRoughnessTexture": {
            "index": 2
          }
        }
      },
      {
        "name": "$EFB",
        "pbrMetallicRoughness": {
          "metallicFactor": 0
        }
      }
    ],
    "meshes": [
      {
        "primitives": [
          {
            "attributes": {
              "COLOR_0": 12,
              "NORMAL": 9,
              "POSITION": 7,
              "TANGENT": 8,
              "TEXCOORD_0": 10,
              "TEXCOORD_1": 11
            },
            "indices": 13,
            "material": 0,
            "mode": 4,
            "extras": {
              "ASOBO_primitive": {
                "PrimitiveCount": 46,
                "VertexType": "VTX",
                "VertexVersion": 2
              }
            }
          }
        ],
        "name": "x0_PUSH_EFB_SIDE"
      },
      {
        "primitives": [
          {
            "attributes": {
              "COLOR_0": 19,
              "NORMAL": 16,
              "POSITION": 14,
              "TANGENT": 15,
              "TEXCOORD_0": 17,
              "TEXCOORD_1": 18
            },
            "indices": 20,
            "material": 0,
            "mode": 4,
            "extras": {
              "ASOBO_primitive": {
                "PrimitiveCount": 46,
                "VertexType": "VTX",
                "VertexVersion": 2
              }
            }
          }
        ],
        "name": "x0_PUSH_EFB_UPPER"
      },
      {
        "primitives": [
          {
            "attributes": {
              "COLOR_0": 26,
              "NORMAL": 23,
              "POSITION": 21,
              "TANGENT": 22,
              "TEXCOORD_0": 24,
              "TEXCOORD_1": 25
            },
            "indices": 27,
            "material": 0,
            "mode": 4,
            "extras": {
              "ASOBO_primitive": {
                "PrimitiveCount": 46,
                "VertexType": "VTX",
                "VertexVersion": 2
              }
            }
          }
        ],
        "name": "x0_PUSH_EFB_VOLUME_DOWN"
      },
      {
        "primitives": [
          {
            "attributes": {
              "COLOR_0": 33,
              "NORMAL": 30,
              "POSITION": 28,
              "TANGENT": 29,
              "TEXCOORD_0": 31,
              "TEXCOORD_1": 32
            },
            "indices": 34,
            "material": 0,
            "mode": 4,
            "extras": {
              "ASOBO_primitive": {
                "PrimitiveCount": 46,
                "VertexType": "VTX",
                "VertexVersion": 2
              }
            }
          }
        ],
        "name": "x0_PUSH_EFB_VOLUME_UP"
      },
      {
        "primitives": [
          {
            "attributes": {
              "COLOR_0": 40,
              "NORMAL": 37,
              "POSITION": 35,
              "TANGENT": 36,
              "TEXCOORD_0": 38,
              "TEXCOORD_1": 39
            },
            "indices": 41,
            "material": 1,
            "mode": 4,
            "extras": {
              "ASOBO_primitive": {
                "PrimitiveCount": 18,
                "VertexType": "VTX",
                "VertexVersion": 2
              }
            }
          }
        ],
        "name": "x0_SCREEN_EFB"
      },
      {
        "primitives": [
          {
            "attributes": {
              "COLOR_0": 5,
              "NORMAL": 2,
              "POSITION": 0,
              "TANGENT": 1,
              "TEXCOORD_0": 3,
              "TEXCOORD_1": 4
            },
            "indices": 6,
            "material": 0,
            "mode": 4,
            "extras": {
              "ASOBO_primitive": {
                "PrimitiveCount": 148,
                "VertexType": "VTX",
                "VertexVersion": 2
              }
            }
          }
        ],
        "name": "x0_EFB"
      }
    ],
    "nodes": [
      {
        "mesh": 0,
        "name": "PUSH_EFB_SIDE"
      },
      {
        "mesh": 1,
        "name": "PUSH_EFB_UPPER"
      },
      {
        "mesh": 2,
        "name": "PUSH_EFB_VOLUME_DOWN"
      },
      {
        "mesh": 3,
        "name": "PUSH_EFB_VOLUME_UP"
      },
      {
        "translation": [
          -0.000006258487701416016,
          0.00000476837158203125,
          -0.001002788543701172
        ],
        "mesh": 4,
        "name": "SCREEN_EFB"
      },
      {
        "translation": [
          1.02971,
          1.78654,
          11.3013
        ],
        "rotation": [
          -0.33943283557891846,
          0.3600738257884979,
          -0.6950100741386414,
          0.5078191757202148
        ],
        "scale": [
            1.025,
            1.025,
            1.025
        ],
        "mesh": 5,
        "name": "EFB",
        "children": [
          0,
          1,
          2,
          3,
          4
        ]
      }
    ],
    "scene": 0,
    "scenes": [
      {
        "nodes": [
          5
        ],
        "name": "Scene"
      }
    ],
    "textures": [
      {
        "extensions": {
          "MSFT_texture_dds": {
            "source": 0
          }
        }
      },
      {
        "extensions": {
          "MSFT_texture_dds": {
            "source": 1
          }
        }
      },
      {
        "extensions": {
          "MSFT_texture_dds": {
            "source": 2
          }
        }
      }
    ],
    "buffers": [
      {
        "byteLength": 20064,
        "uri": "flypad.bin"
      }
    ],
    "images": [
      {
        "uri": "FLYPAD_NORM.PNG.DDS",
        "name": "flypad_norm",
        "extras": "ASOBO_image_converted_meta"
      },
      {
        "uri": "FLYPAD_ALB.PNG.DDS",
        "name": "flypad_alb",
        "extras": "ASOBO_image_converted_meta"
      },
      {
        "uri": "FLYPAD_COMP.PNG.DDS",
        "name": "flypad_comp",
        "extras": "ASOBO_image_converted_meta"
      }
    ]
  }