{
    "accessors": [
        {
            "bufferView": 0,
            "componentType": 5126,
            "count": 204,
            "min": [
                -0.07320139557123184,
                -0.10131920129060745,
                -0.0024190000258386137
            ],
            "max": [
                0.07316859811544419,
                0.10171279311180115,
                0.0024190000258386137
            ],
            "type": "VEC3",
            "name": "x0_EFB_vertices#0_POSITION"
        },
        {
            "bufferView": 0,
            "byteOffset": 12,
            "componentType": 5120,
            "count": 204,
            "type": "VEC4",
            "name": "x0_EFB_vertices#0_TANGENT"
        },
        {
            "bufferView": 0,
            "byteOffset": 16,
            "componentType": 5120,
            "count": 204,
            "type": "VEC4",
            "name": "x0_EFB_vertices#0_NORMAL"
        },
        {
            "bufferView": 0,
            "byteOffset": 20,
            "componentType": 5122,
            "count": 204,
            "type": "VEC2",
            "name": "x0_EFB_vertices#0_TEXCOORD_0"
        },
        {
            "bufferView": 0,
            "byteOffset": 24,
            "componentType": 5122,
            "count": 204,
            "type": "VEC2",
            "name": "x0_EFB_vertices#0_TEXCOORD_1"
        },
        {
            "bufferView": 0,
            "byteOffset": 28,
            "componentType": 5123,
            "count": 204,
            "type": "VEC4",
            "name": "x0_EFB_vertices#0_COLOR_0"
        },
        {
            "bufferView": 1,
            "componentType": 5123,
            "count": 510,
            "type": "SCALAR",
            "name": "x0_EFB_indices#0"
        },
        {
            "bufferView": 0,
            "byteOffset": 7344,
            "componentType": 5126,
            "count": 20,
            "min": [
                -0.06561639904975891,
                -0.09369319677352905,
                -0.0024190000258386137
            ],
            "max": [
                0.06558359414339066,
                0.09408680349588394,
                -0.0024190000258386137
            ],
            "type": "VEC3",
            "name": "x0_EFB.001_vertices#0_POSITION"
        },
        {
            "bufferView": 0,
            "byteOffset": 7356,
            "componentType": 5120,
            "count": 20,
            "type": "VEC4",
            "name": "x0_EFB.001_vertices#0_TANGENT"
        },
        {
            "bufferView": 0,
            "byteOffset": 7360,
            "componentType": 5120,
            "count": 20,
            "type": "VEC4",
            "name": "x0_EFB.001_vertices#0_NORMAL"
        },
        {
            "bufferView": 0,
            "byteOffset": 7364,
            "componentType": 5122,
            "count": 20,
            "type": "VEC2",
            "name": "x0_EFB.001_vertices#0_TEXCOORD_0"
        },
        {
            "bufferView": 0,
            "byteOffset": 7368,
            "componentType": 5122,
            "count": 20,
            "type": "VEC2",
            "name": "x0_EFB.001_vertices#0_TEXCOORD_1"
        },
        {
            "bufferView": 0,
            "byteOffset": 7372,
            "componentType": 5123,
            "count": 20,
            "type": "VEC4",
            "name": "x0_EFB.001_vertices#0_COLOR_0"
        },
        {
            "bufferView": 1,
            "byteOffset": 1020,
            "componentType": 5123,
            "count": 54,
            "type": "SCALAR",
            "name": "x0_EFB.001_indices#0"
        },
        {
            "bufferView": 0,
            "byteOffset": 8064,
            "componentType": 5126,
            "count": 72,
            "min": [
                -0.0736934244632721,
                -0.08144241571426392,
                -0.001164400251582265
            ],
            "max": [
                -0.07261102646589279,
                -0.06723181158304215,
                0.0016482002101838589
            ],
            "type": "VEC3",
            "name": "x0_PUSH_EFB_SIDE_vertices#0_POSITION"
        },
        {
            "bufferView": 0,
            "byteOffset": 8076,
            "componentType": 5120,
            "count": 72,
            "type": "VEC4",
            "name": "x0_PUSH_EFB_SIDE_vertices#0_TANGENT"
        },
        {
            "bufferView": 0,
            "byteOffset": 8080,
            "componentType": 5120,
            "count": 72,
            "type": "VEC4",
            "name": "x0_PUSH_EFB_SIDE_vertices#0_NORMAL"
        },
        {
            "bufferView": 0,
            "byteOffset": 8084,
            "componentType": 5122,
            "count": 72,
            "type": "VEC2",
            "name": "x0_PUSH_EFB_SIDE_vertices#0_TEXCOORD_0"
        },
        {
            "bufferView": 0,
            "byteOffset": 8088,
            "componentType": 5122,
            "count": 72,
            "type": "VEC2",
            "name": "x0_PUSH_EFB_SIDE_vertices#0_TEXCOORD_1"
        },
        {
            "bufferView": 0,
            "byteOffset": 8092,
            "componentType": 5123,
            "count": 72,
            "type": "VEC4",
            "name": "x0_PUSH_EFB_SIDE_vertices#0_COLOR_0"
        },
        {
            "bufferView": 1,
            "byteOffset": 1128,
            "componentType": 5123,
            "count": 138,
            "type": "SCALAR",
            "name": "x0_PUSH_EFB_SIDE_indices#0"
        },
        {
            "bufferView": 0,
            "byteOffset": 10656,
            "componentType": 5126,
            "count": 72,
            "min": [
                0.045444414019584659,
                -0.10171281546354294,
                -0.001164400251582265
            ],
            "max": [
                0.0577034167945385,
                -0.10063042491674423,
                0.0016482002101838589
            ],
            "type": "VEC3",
            "name": "x0_PUSH_EFB_UPPER_vertices#0_POSITION"
        },
        {
            "bufferView": 0,
            "byteOffset": 10668,
            "componentType": 5120,
            "count": 72,
            "type": "VEC4",
            "name": "x0_PUSH_EFB_UPPER_vertices#0_TANGENT"
        },
        {
            "bufferView": 0,
            "byteOffset": 10672,
            "componentType": 5120,
            "count": 72,
            "type": "VEC4",
            "name": "x0_PUSH_EFB_UPPER_vertices#0_NORMAL"
        },
        {
            "bufferView": 0,
            "byteOffset": 10676,
            "componentType": 5122,
            "count": 72,
            "type": "VEC2",
            "name": "x0_PUSH_EFB_UPPER_vertices#0_TEXCOORD_0"
        },
        {
            "bufferView": 0,
            "byteOffset": 10680,
            "componentType": 5122,
            "count": 72,
            "type": "VEC2",
            "name": "x0_PUSH_EFB_UPPER_vertices#0_TEXCOORD_1"
        },
        {
            "bufferView": 0,
            "byteOffset": 10684,
            "componentType": 5123,
            "count": 72,
            "type": "VEC4",
            "name": "x0_PUSH_EFB_UPPER_vertices#0_COLOR_0"
        },
        {
            "bufferView": 1,
            "byteOffset": 1404,
            "componentType": 5123,
            "count": 138,
            "type": "SCALAR",
            "name": "x0_PUSH_EFB_UPPER_indices#0"
        },
        {
            "bufferView": 0,
            "byteOffset": 13248,
            "componentType": 5126,
            "count": 64,
            "min": [
                0.07261102646589279,
                -0.06136881187558174,
                -0.001164400251582265
            ],
            "max": [
                0.0736934244632721,
                -0.049118004739284518,
                0.0016482002101838589
            ],
            "type": "VEC3",
            "name": "x0_PUSH_EFB_VOLUME_DOWN_vertices#0_POSITION"
        },
        {
            "bufferView": 0,
            "byteOffset": 13260,
            "componentType": 5120,
            "count": 64,
            "type": "VEC4",
            "name": "x0_PUSH_EFB_VOLUME_DOWN_vertices#0_TANGENT"
        },
        {
            "bufferView": 0,
            "byteOffset": 13264,
            "componentType": 5120,
            "count": 64,
            "type": "VEC4",
            "name": "x0_PUSH_EFB_VOLUME_DOWN_vertices#0_NORMAL"
        },
        {
            "bufferView": 0,
            "byteOffset": 13268,
            "componentType": 5122,
            "count": 64,
            "type": "VEC2",
            "name": "x0_PUSH_EFB_VOLUME_DOWN_vertices#0_TEXCOORD_0"
        },
        {
            "bufferView": 0,
            "byteOffset": 13272,
            "componentType": 5122,
            "count": 64,
            "type": "VEC2",
            "name": "x0_PUSH_EFB_VOLUME_DOWN_vertices#0_TEXCOORD_1"
        },
        {
            "bufferView": 0,
            "byteOffset": 13276,
            "componentType": 5123,
            "count": 64,
            "type": "VEC4",
            "name": "x0_PUSH_EFB_VOLUME_DOWN_vertices#0_COLOR_0"
        },
        {
            "bufferView": 1,
            "byteOffset": 1680,
            "componentType": 5123,
            "count": 138,
            "type": "SCALAR",
            "name": "x0_PUSH_EFB_VOLUME_DOWN_indices#0"
        },
        {
            "bufferView": 0,
            "byteOffset": 15552,
            "componentType": 5126,
            "count": 64,
            "min": [
                0.07261102646589279,
                -0.07685041427612305,
                -0.001164400251582265
            ],
            "max": [
                0.0736934244632721,
                -0.06459961086511612,
                0.0016482002101838589
            ],
            "type": "VEC3",
            "name": "x0_PUSH_EFB_VOLUME_UP_vertices#0_POSITION"
        },
        {
            "bufferView": 0,
            "byteOffset": 15564,
            "componentType": 5120,
            "count": 64,
            "type": "VEC4",
            "name": "x0_PUSH_EFB_VOLUME_UP_vertices#0_TANGENT"
        },
        {
            "bufferView": 0,
            "byteOffset": 15568,
            "componentType": 5120,
            "count": 64,
            "type": "VEC4",
            "name": "x0_PUSH_EFB_VOLUME_UP_vertices#0_NORMAL"
        },
        {
            "bufferView": 0,
            "byteOffset": 15572,
            "componentType": 5122,
            "count": 64,
            "type": "VEC2",
            "name": "x0_PUSH_EFB_VOLUME_UP_vertices#0_TEXCOORD_0"
        },
        {
            "bufferView": 0,
            "byteOffset": 15576,
            "componentType": 5122,
            "count": 64,
            "type": "VEC2",
            "name": "x0_PUSH_EFB_VOLUME_UP_vertices#0_TEXCOORD_1"
        },
        {
            "bufferView": 0,
            "byteOffset": 15580,
            "componentType": 5123,
            "count": 64,
            "type": "VEC4",
            "name": "x0_PUSH_EFB_VOLUME_UP_vertices#0_COLOR_0"
        },
        {
            "bufferView": 1,
            "byteOffset": 1956,
            "componentType": 5123,
            "count": 138,
            "type": "SCALAR",
            "name": "x0_PUSH_EFB_VOLUME_UP_indices#0"
        },
        {
            "bufferView": 0,
            "byteOffset": 17856,
            "componentType": 5126,
            "count": 20,
            "min": [
                -0.06561639904975891,
                -0.09369319677352905,
                -0.0024190000258386137
            ],
            "max": [
                0.06558359414339066,
                0.09408680349588394,
                -0.0024190000258386137
            ],
            "type": "VEC3",
            "name": "x0_SCREEN_EFB_vertices#0_POSITION"
        },
        {
            "bufferView": 0,
            "byteOffset": 17868,
            "componentType": 5120,
            "count": 20,
            "type": "VEC4",
            "name": "x0_SCREEN_EFB_vertices#0_TANGENT"
        },
        {
            "bufferView": 0,
            "byteOffset": 17872,
            "componentType": 5120,
            "count": 20,
            "type": "VEC4",
            "name": "x0_SCREEN_EFB_vertices#0_NORMAL"
        },
        {
            "bufferView": 0,
            "byteOffset": 17876,
            "componentType": 5122,
            "count": 20,
            "type": "VEC2",
            "name": "x0_SCREEN_EFB_vertices#0_TEXCOORD_0"
        },
        {
            "bufferView": 0,
            "byteOffset": 17880,
            "componentType": 5122,
            "count": 20,
            "type": "VEC2",
            "name": "x0_SCREEN_EFB_vertices#0_TEXCOORD_1"
        },
        {
            "bufferView": 0,
            "byteOffset": 17884,
            "componentType": 5123,
            "count": 20,
            "type": "VEC4",
            "name": "x0_SCREEN_EFB_vertices#0_COLOR_0"
        },
        {
            "bufferView": 1,
            "byteOffset": 2232,
            "componentType": 5123,
            "count": 54,
            "type": "SCALAR",
            "name": "x0_SCREEN_EFB_indices#0"
        }
    ],
    "asset": {
        "generator": "Khronos glTF Blender I/O v1.4.40",
        "version": "2.0",
        "extensions": {
            "ASOBO_asset_optimized": {
                "BoundingBoxMax": [
                    0.0736934244632721,
                    0.10171279311180115,
                    0.0024190000258386137
                ],
                "BoundingBoxMin": [
                    -0.0736934244632721,
                    -0.10171281546354294,
                    -0.0024190000258386137
                ],
                "MajorVersion": 4,
                "MinorVersion": 2
            }
        }
    },
    "bufferViews": [
        {
            "buffer": 0,
            "byteLength": 18576,
            "byteStride": 36,
            "target": 34962,
            "name": "BufferViewVertexND"
        },
        {
            "buffer": 0,
            "byteLength": 2340,
            "byteOffset": 18576,
            "target": 34963,
            "name": "BufferViewIndex"
        }
    ],
    "extensionsUsed": ["MSFT_texture_dds", "ASOBO_asset_optimized"],
    "extensionsRequired": ["MSFT_texture_dds"],
    "materials": [
        {
            "name": "flypad",
            "alphaMode": "BLEND",
            "normalTexture": { "index": 0 },
            "occlusionTexture": { "index": 2 },
            "pbrMetallicRoughness": {
                "baseColorTexture": { "index": 1 },
                "metallicRoughnessTexture": { "index": 2 }
            }
        },
        { "name": "$EFB" },
        {
            "name": "flypad-opaque",
            "normalTexture": { "index": 2 },
            "pbrMetallicRoughness": { "baseColorTexture": { "index": 3 } }
        }
    ],
    "meshes": [
        {
            "primitives": [
                {
                    "attributes": {
                        "COLOR_0": 12,
                        "NORMAL": 9,
                        "POSITION": 7,
                        "TANGENT": 8,
                        "TEXCOORD_0": 10,
                        "TEXCOORD_1": 11
                    },
                    "indices": 13,
                    "material": 0,
                    "mode": 4,
                    "extras": {
                        "ASOBO_primitive": {
                            "PrimitiveCount": 18,
                            "VertexType": "VTX",
                            "VertexVersion": 2
                        }
                    }
                }
            ],
            "name": "x0_EFB.001"
        },
        {
            "primitives": [
                {
                    "attributes": {
                        "COLOR_0": 19,
                        "NORMAL": 16,
                        "POSITION": 14,
                        "TANGENT": 15,
                        "TEXCOORD_0": 17,
                        "TEXCOORD_1": 18
                    },
                    "indices": 20,
                    "material": 0,
                    "mode": 4,
                    "extras": {
                        "ASOBO_primitive": {
                            "PrimitiveCount": 46,
                            "VertexType": "VTX",
                            "VertexVersion": 2
                        }
                    }
                }
            ],
            "name": "x0_PUSH_EFB_SIDE"
        },
        {
            "primitives": [
                {
                    "attributes": {
                        "COLOR_0": 26,
                        "NORMAL": 23,
                        "POSITION": 21,
                        "TANGENT": 22,
                        "TEXCOORD_0": 24,
                        "TEXCOORD_1": 25
                    },
                    "indices": 27,
                    "material": 0,
                    "mode": 4,
                    "extras": {
                        "ASOBO_primitive": {
                            "PrimitiveCount": 46,
                            "VertexType": "VTX",
                            "VertexVersion": 2
                        }
                    }
                }
            ],
            "name": "x0_PUSH_EFB_UPPER"
        },
        {
            "primitives": [
                {
                    "attributes": {
                        "COLOR_0": 33,
                        "NORMAL": 30,
                        "POSITION": 28,
                        "TANGENT": 29,
                        "TEXCOORD_0": 31,
                        "TEXCOORD_1": 32
                    },
                    "indices": 34,
                    "material": 0,
                    "mode": 4,
                    "extras": {
                        "ASOBO_primitive": {
                            "PrimitiveCount": 46,
                            "VertexType": "VTX",
                            "VertexVersion": 2
                        }
                    }
                }
            ],
            "name": "x0_PUSH_EFB_VOLUME_DOWN"
        },
        {
            "primitives": [
                {
                    "attributes": {
                        "COLOR_0": 40,
                        "NORMAL": 37,
                        "POSITION": 35,
                        "TANGENT": 36,
                        "TEXCOORD_0": 38,
                        "TEXCOORD_1": 39
                    },
                    "indices": 41,
                    "material": 0,
                    "mode": 4,
                    "extras": {
                        "ASOBO_primitive": {
                            "PrimitiveCount": 46,
                            "VertexType": "VTX",
                            "VertexVersion": 2
                        }
                    }
                }
            ],
            "name": "x0_PUSH_EFB_VOLUME_UP"
        },
        {
            "primitives": [
                {
                    "attributes": {
                        "COLOR_0": 47,
                        "NORMAL": 44,
                        "POSITION": 42,
                        "TANGENT": 43,
                        "TEXCOORD_0": 45,
                        "TEXCOORD_1": 46
                    },
                    "indices": 48,
                    "material": 1,
                    "mode": 4,
                    "extras": {
                        "ASOBO_primitive": {
                            "PrimitiveCount": 18,
                            "VertexType": "VTX",
                            "VertexVersion": 2
                        }
                    }
                }
            ],
            "name": "x0_SCREEN_EFB"
        },
        {
            "primitives": [
                {
                    "attributes": {
                        "COLOR_0": 5,
                        "NORMAL": 2,
                        "POSITION": 0,
                        "TANGENT": 1,
                        "TEXCOORD_0": 3,
                        "TEXCOORD_1": 4
                    },
                    "indices": 6,
                    "material": 2,
                    "mode": 4,
                    "extras": {
                        "ASOBO_primitive": {
                            "PrimitiveCount": 170,
                            "VertexType": "VTX",
                            "VertexVersion": 2
                        }
                    }
                }
            ],
            "name": "x0_EFB"
        }
    ],
    "nodes": [
        { "mesh": 0, "name": "EFB_GLASS_L" },
        { "mesh": 1, "name": "PUSH_EFB_SIDE_L" },
        { "mesh": 2, "name": "PUSH_EFB_UPPER_L" },
        { "mesh": 3, "name": "PUSH_EFB_VOLUME_DOWN_L" },
        { "mesh": 4, "name": "PUSH_EFB_VOLUME_UP_L" },
        { "mesh": 5, "name": "SCREEN_EFB_L" },
        {
            "translation": [
                1.0275403261184693,
                1.7874257564544678,
                11.300901412963868
            ],
            "rotation": [
                -0.33974143862724306,
                0.3646560609340668,
                -0.6969953179359436,
                0.5155572891235352
            ],
            "mesh": 6,
            "name": "EFB_L",
            "children": [0, 1, 2, 3, 4, 5]
        },
        { "mesh": 0, "name": "EFB_GLASS_R" },
        { "mesh": 1, "name": "PUSH_EFB_SIDE_R" },
        { "mesh": 2, "name": "PUSH_EFB_UPPER_R" },
        { "mesh": 3, "name": "PUSH_EFB_VOLUME_DOWN_R" },
        { "mesh": 4, "name": "PUSH_EFB_VOLUME_UP_R" },
        { "mesh": 5, "name": "SCREEN_EFB_R" },
        {
        "translation": [-1.0278, 1.78712, 11.3004],
        "rotation": [0.365031, -0.327998, -0.514771, 0.70298],
        "mesh": 6,
        "name": "EFB_R",
        "children": [7, 8, 9, 10, 11, 12]
        }
    ],
    "scene": 0,
    "scenes": [{ "nodes": [6, 13], "name": "Scene" }],
    "textures": [
        { "extensions": { "MSFT_texture_dds": { "source": 0 } } },
        { "extensions": { "MSFT_texture_dds": { "source": 1 } } },
        { "extensions": { "MSFT_texture_dds": { "source": 0 } } },
        { "extensions": { "MSFT_texture_dds": { "source": 1 } } }
    ],
    "buffers": [{ "byteLength": 20916, "uri": "flypad.bin" }],
    "images": [
        {
            "uri": "FLYPAD_NORM.PNG.DDS",
            "name": "flypad_norm",
            "extras": "ASOBO_image_converted_meta"
        },
        {
            "uri": "FLYPAD_ALBEDO.TIF.DDS",
            "name": "flypad_low_albedo",
            "extras": "ASOBO_image_converted_meta"
        },
        {
            "uri": "FLYPAD_COMP.PNG.DDS",
            "name": "flypad_comp",
            "extras": "ASOBO_image_converted_meta"
        }
    ]
}
