{
    "accessors": [
        {
            "bufferView": 0,
            "componentType": 5126,
            "count": 393,
            "min": [
                -0.04081349819898605,
                -0.045096009969711304,
                -0.07059099525213242
            ],
            "max": [
                0.04937799647450447,
                0.04509599134325981,
                0.07059100270271301
            ],
            "type": "VEC3",
            "name": "x0_COCKPIT_COFFEE_L_vertices#0_POSITION"
        },
        {
            "bufferView": 0,
            "byteOffset": 12,
            "componentType": 5120,
            "count": 393,
            "type": "VEC4",
            "name": "x0_COCKPIT_COFFEE_L_vertices#0_TANGENT"
        },
        {
            "bufferView": 0,
            "byteOffset": 16,
            "componentType": 5120,
            "count": 393,
            "type": "VEC4",
            "name": "x0_COCKPIT_COFFEE_L_vertices#0_NORMAL"
        },
        {
            "bufferView": 0,
            "byteOffset": 20,
            "componentType": 5122,
            "count": 393,
            "type": "VEC2",
            "name": "x0_COCKPIT_COFFEE_L_vertices#0_TEXCOORD_0"
        },
        {
            "bufferView": 0,
            "byteOffset": 24,
            "componentType": 5122,
            "count": 393,
            "type": "VEC2",
            "name": "x0_COCKPIT_COFFEE_L_vertices#0_TEXCOORD_1"
        },
        {
            "bufferView": 0,
            "byteOffset": 28,
            "componentType": 5123,
            "count": 393,
            "type": "VEC4",
            "name": "x0_COCKPIT_COFFEE_L_vertices#0_COLOR_0"
        },
        {
            "bufferView": 1,
            "componentType": 5123,
            "count": 1074,
            "type": "SCALAR",
            "name": "x0_COCKPIT_COFFEE_L_indices#0"
        },
        {
            "bufferView": 0,
            "byteOffset": 14148,
            "componentType": 5126,
            "count": 393,
            "min": [
                -0.04081349819898605,
                -0.045096009969711304,
                -0.07059099525213242
            ],
            "max": [
                0.04937799647450447,
                0.04509599134325981,
                0.07059100270271301
            ],
            "type": "VEC3",
            "name": "x0_COCKPIT_COFFEE_R_vertices#0_POSITION"
        },
        {
            "bufferView": 0,
            "byteOffset": 14160,
            "componentType": 5120,
            "count": 393,
            "type": "VEC4",
            "name": "x0_COCKPIT_COFFEE_R_vertices#0_TANGENT"
        },
        {
            "bufferView": 0,
            "byteOffset": 14164,
            "componentType": 5120,
            "count": 393,
            "type": "VEC4",
            "name": "x0_COCKPIT_COFFEE_R_vertices#0_NORMAL"
        },
        {
            "bufferView": 0,
            "byteOffset": 14168,
            "componentType": 5122,
            "count": 393,
            "type": "VEC2",
            "name": "x0_COCKPIT_COFFEE_R_vertices#0_TEXCOORD_0"
        },
        {
            "bufferView": 0,
            "byteOffset": 14172,
            "componentType": 5122,
            "count": 393,
            "type": "VEC2",
            "name": "x0_COCKPIT_COFFEE_R_vertices#0_TEXCOORD_1"
        },
        {
            "bufferView": 0,
            "byteOffset": 14176,
            "componentType": 5123,
            "count": 393,
            "type": "VEC4",
            "name": "x0_COCKPIT_COFFEE_R_vertices#0_COLOR_0"
        },
        {
            "bufferView": 1,
            "byteOffset": 2148,
            "componentType": 5123,
            "count": 1074,
            "type": "SCALAR",
            "name": "x0_COCKPIT_COFFEE_R_indices#0"
        },
        {
            "bufferView": 0,
            "byteOffset": 28296,
            "componentType": 5126,
            "count": 48,
            "min": [
                -0.03999999910593033,
                -0.06499999761581421,
                -0.03999999910593033
            ],
            "max": [
                0.03999999910593033,
                0.06499999761581421,
                0.03999999910593033
            ],
            "type": "VEC3",
            "name": "x0_COCKPIT_COFFEE_L_CLICKZONE_vertices#0_POSITION"
        },
        {
            "bufferView": 0,
            "byteOffset": 28308,
            "componentType": 5120,
            "count": 48,
            "type": "VEC4",
            "name": "x0_COCKPIT_COFFEE_L_CLICKZONE_vertices#0_TANGENT"
        },
        {
            "bufferView": 0,
            "byteOffset": 28312,
            "componentType": 5120,
            "count": 48,
            "type": "VEC4",
            "name": "x0_COCKPIT_COFFEE_L_CLICKZONE_vertices#0_NORMAL"
        },
        {
            "bufferView": 0,
            "byteOffset": 28316,
            "componentType": 5122,
            "count": 48,
            "type": "VEC2",
            "name": "x0_COCKPIT_COFFEE_L_CLICKZONE_vertices#0_TEXCOORD_0"
        },
        {
            "bufferView": 0,
            "byteOffset": 28320,
            "componentType": 5122,
            "count": 48,
            "type": "VEC2",
            "name": "x0_COCKPIT_COFFEE_L_CLICKZONE_vertices#0_TEXCOORD_1"
        },
        {
            "bufferView": 0,
            "byteOffset": 28324,
            "componentType": 5123,
            "count": 48,
            "type": "VEC4",
            "name": "x0_COCKPIT_COFFEE_L_CLICKZONE_vertices#0_COLOR_0"
        },
        {
            "bufferView": 1,
            "byteOffset": 4296,
            "componentType": 5123,
            "count": 84,
            "type": "SCALAR",
            "name": "x0_COCKPIT_COFFEE_L_CLICKZONE_indices#0"
        },
        {
            "bufferView": 0,
            "byteOffset": 30024,
            "componentType": 5126,
            "count": 48,
            "min": [
                -0.03999999910593033,
                -0.06499999761581421,
                -0.03999999910593033
            ],
            "max": [
                0.03999999910593033,
                0.06499999761581421,
                0.03999999910593033
            ],
            "type": "VEC3",
            "name": "x0_COCKPIT_COFFEE_CLICKZONE_R_vertices#0_POSITION"
        },
        {
            "bufferView": 0,
            "byteOffset": 30036,
            "componentType": 5120,
            "count": 48,
            "type": "VEC4",
            "name": "x0_COCKPIT_COFFEE_CLICKZONE_R_vertices#0_TANGENT"
        },
        {
            "bufferView": 0,
            "byteOffset": 30040,
            "componentType": 5120,
            "count": 48,
            "type": "VEC4",
            "name": "x0_COCKPIT_COFFEE_CLICKZONE_R_vertices#0_NORMAL"
        },
        {
            "bufferView": 0,
            "byteOffset": 30044,
            "componentType": 5122,
            "count": 48,
            "type": "VEC2",
            "name": "x0_COCKPIT_COFFEE_CLICKZONE_R_vertices#0_TEXCOORD_0"
        },
        {
            "bufferView": 0,
            "byteOffset": 30048,
            "componentType": 5122,
            "count": 48,
            "type": "VEC2",
            "name": "x0_COCKPIT_COFFEE_CLICKZONE_R_vertices#0_TEXCOORD_1"
        },
        {
            "bufferView": 0,
            "byteOffset": 30052,
            "componentType": 5123,
            "count": 48,
            "type": "VEC4",
            "name": "x0_COCKPIT_COFFEE_CLICKZONE_R_vertices#0_COLOR_0"
        },
        {
            "bufferView": 1,
            "byteOffset": 4464,
            "componentType": 5123,
            "count": 84,
            "type": "SCALAR",
            "name": "x0_COCKPIT_COFFEE_CLICKZONE_R_indices#0"
        }
    ],
    "asset": {
        "generator": "Extended Khronos glTF Blender I/O v1.0.0",
        "version": "2.0",
        "extensions": {
            "ASOBO_asset_optimized": {
                "BoundingBoxMax": [
                    0.04937799647450447,
                    0.06499999761581421,
                    0.07059100270271301
                ],
                "BoundingBoxMin": [
                    -0.04081349819898605,
                    -0.06499999761581421,
                    -0.07059099525213242
                ],
                "MajorVersion": 4,
                "MinorVersion": 2
            },
            "ASOBO_normal_map_convention": {
                "tangent_space_convention": "DirectX"
            }
        }
    },
    "bufferViews": [
        {
            "buffer": 0,
            "byteLength": 31752,
            "byteStride": 36,
            "target": 34962,
            "name": "BufferViewVertexND"
        },
        {
            "buffer": 0,
            "byteLength": 4632,
            "byteOffset": 31752,
            "target": 34963,
            "name": "BufferViewIndex"
        }
    ],
    "extensionsUsed": [
        "ASOBO_normal_map_convention",
        "ASOBO_material_invisible",
        "MSFT_texture_dds",
        "ASOBO_asset_optimized"
    ],
    "extensionsRequired": [
        "MSFT_texture_dds"
    ],
    "materials": [
        {
            "name": "CUP",
            "normalTexture": {
                "index": 0
            },
            "occlusionTexture": {
                "index": 1
            },
            "pbrMetallicRoughness": {
                "baseColorTexture": {
                    "index": 2
                },
                "metallicRoughnessTexture": {
                    "index": 1
                }
            }
        },
        {
            "name": "CupClickzone",
            "pbrMetallicRoughness": {
                "baseColorFactor": [
                    0.800000011920929,
                    0,
                    0,
                    1
                ]
            },
            "extensions": {
                "ASOBO_material_invisible": {}
            }
        }
    ],
    "meshes": [
        {
            "primitives": [
                {
                    "attributes": {
                        "COLOR_0": 5,
                        "NORMAL": 2,
                        "POSITION": 0,
                        "TANGENT": 1,
                        "TEXCOORD_0": 3,
                        "TEXCOORD_1": 4
                    },
                    "indices": 6,
                    "material": 0,
                    "mode": 4,
                    "extras": {
                        "ASOBO_primitive": {
                            "PrimitiveCount": 358,
                            "VertexType": "VTX",
                            "VertexVersion": 2
                        }
                    }
                }
            ],
            "name": "x0_COCKPIT_COFFEE_L"
        },
        {
            "primitives": [
                {
                    "attributes": {
                        "COLOR_0": 12,
                        "NORMAL": 9,
                        "POSITION": 7,
                        "TANGENT": 8,
                        "TEXCOORD_0": 10,
                        "TEXCOORD_1": 11
                    },
                    "indices": 13,
                    "material": 0,
                    "mode": 4,
                    "extras": {
                        "ASOBO_primitive": {
                            "PrimitiveCount": 358,
                            "VertexType": "VTX",
                            "VertexVersion": 2
                        }
                    }
                }
            ],
            "name": "x0_COCKPIT_COFFEE_R"
        },
        {
            "primitives": [
                {
                    "attributes": {
                        "COLOR_0": 19,
                        "NORMAL": 16,
                        "POSITION": 14,
                        "TANGENT": 15,
                        "TEXCOORD_0": 17,
                        "TEXCOORD_1": 18
                    },
                    "indices": 20,
                    "material": 1,
                    "mode": 4,
                    "extras": {
                        "ASOBO_primitive": {
                            "PrimitiveCount": 28,
                            "VertexType": "VTX",
                            "VertexVersion": 2
                        }
                    }
                }
            ],
            "name": "x0_COCKPIT_COFFEE_L_CLICKZONE"
        },
        {
            "primitives": [
                {
                    "attributes": {
                        "COLOR_0": 26,
                        "NORMAL": 23,
                        "POSITION": 21,
                        "TANGENT": 22,
                        "TEXCOORD_0": 24,
                        "TEXCOORD_1": 25
                    },
                    "indices": 27,
                    "material": 1,
                    "mode": 4,
                    "extras": {
                        "ASOBO_primitive": {
                            "PrimitiveCount": 28,
                            "VertexType": "VTX",
                            "VertexVersion": 2
                        }
                    }
                }
            ],
            "name": "x0_COCKPIT_COFFEE_CLICKZONE_R"
        }
    ],
    "nodes": [
        {
            "translation": [
                1.175320029258728,
                1.7097400426864624,
                11.128999710083008
            ],
            "rotation": [
                0.2914457321166992,
                -0.6442509889602661,
                0.6442511081695557,
                0.29144567251205444
            ],
            "scale": [
                0.8999999761581421,
                0.8999999761581421,
                0.8999999761581421
            ],
            "mesh": 0,
            "name": "COCKPIT_COFFEE_L"
        },
        {
            "translation": [
                -1.1685899496078491,
                1.7097400426864624,
                11.13510036468506
            ],
            "rotation": [
                0.2914457321166992,
                0.6442509889602661,
                -0.6442511081695557,
                0.29144567251205444
            ],
            "scale": [
                0.8999999761581421,
                0.8999999761581421,
                0.8999999761581421
            ],
            "mesh": 1,
            "name": "COCKPIT_COFFEE_R"
        },
        {
            "translation": [
                1.171525239944458,
                1.7097400426864624,
                11.12972354888916
            ],
            "mesh": 2,
            "name": "COCKPIT_COFFEE_L_CLICKZONE"
        },
        {
            "translation": [
                -1.17153000831604,
                1.7097400426864624,
                11.12972354888916
            ],
            "mesh": 3,
            "name": "COCKPIT_COFFEE_R_CLICKZONE"
        }
    ],
    "scene": 0,
    "scenes": [
        {
            "nodes": [
                0,
                1,
                2,
                3
            ],
            "name": "Scene"
        }
    ],
    "textures": [
        {
            "extensions": {
                "MSFT_texture_dds": {
                    "source": 0
                }
            }
        },
        {
            "extensions": {
                "MSFT_texture_dds": {
                    "source": 1
                }
            }
        },
        {
            "extensions": {
                "MSFT_texture_dds": {
                    "source": 2
                }
            }
        }
    ],
    "buffers": [
        {
            "byteLength": 36384,
            "uri": "cup.bin"
        }
    ],
    "images": [
        {
            "uri": "CUP_LOW2_NORMAL.PNG.DDS",
            "name": "cup_low2_normal",
            "extras": "ASOBO_image_converted_meta"
        },
        {
            "uri": "CUP_LOW2_METAL.PNG.DDS",
            "name": "cup_low2_metal",
            "extras": "ASOBO_image_converted_meta"
        },
        {
            "uri": "CUP_LOW2_ALBEDO.PNG.DDS",
            "name": "cup_low2_albedo",
            "extras": "ASOBO_image_converted_meta"
        }
    ]
}