<svg xmlns="http://www.w3.org/2000/svg" viewBox="0 0 64 64"><defs><style>.cls-1{fill:#ed008c;}.cls-2{fill:#3f3f3f;}.cls-3{fill:#fff;}</style></defs><title>ICON_MAP_AIRPORT_NON_TOWERED_NON_SERVICED_PINK</title><g id="V1_G1000_CONTOUR" data-name="V1_G1000 CONTOUR"><path class="cls-1" d="M32,45.25A13.25,13.25,0,1,1,45.25,32,13.26,13.26,0,0,1,32,45.25Zm0-23.41A10.16,10.16,0,1,0,42.16,32,10.17,10.17,0,0,0,32,21.84Z"/><path class="cls-2" d="M32,46.5A14.5,14.5,0,1,1,46.5,32,14.51,14.51,0,0,1,32,46.5ZM32,20A12,12,0,1,0,44,32,12,12,0,0,0,32,20Zm0,23.41A11.41,11.41,0,1,1,43.41,32,11.42,11.42,0,0,1,32,43.41Zm0-20.32A8.91,8.91,0,1,0,40.91,32,8.92,8.92,0,0,0,32,23.09Z"/><circle class="cls-1" cx="32" cy="32" r="11.91"/><rect class="cls-3" x="23.8" y="30.58" width="16.4" height="2.84" transform="translate(-13.25 32.31) rotate(-45.4)"/></g></svg>