<svg xmlns="http://www.w3.org/2000/svg" viewBox="0 0 64 64"><defs><style>.cls-1{fill:#00aeef;}.cls-2{fill:#3f3f3f;}.cls-3{fill:#ed008c;}.cls-4{fill:#fff;}</style></defs><title>ICON_MAP_AIRPORT_NON_TOWERED_SERVICED_PINK</title><g id="V1_G1000_CONTOUR" data-name="V1_G1000 CONTOUR"><path class="cls-1" d="M49.49,30l0,3.76L45,33.8A13,13,0,0,1,34,44.94l0,4.55-3.76,0,0-4.55A13,13,0,0,1,19.06,34l-4.55,0,0-3.76,4.55,0A13,13,0,0,1,30,19.06l0-4.55,3.76,0,0,4.55A13,13,0,0,1,44.94,30Z"/><path class="cls-2" d="M29,50.77,29,46A14.24,14.24,0,0,1,18,35.22l-4.76,0,0-6.26L18,29A14.24,14.24,0,0,1,28.78,18l0-4.76,6.27,0L35,18A14.24,14.24,0,0,1,46,28.78l4.76,0,0,6.26L46,35A14.24,14.24,0,0,1,35.22,46l0,4.76ZM20.13,32.7l.17,1.07a11.76,11.76,0,0,0,10.07,9.95l1.07.15,0,4.38h1.26l0-4.38,1.07-.17a11.76,11.76,0,0,0,9.95-10.07l.15-1.07,4.38,0V31.27l-4.38,0-.17-1.07a11.76,11.76,0,0,0-10.07-9.95l-1.07-.15,0-4.38H31.27l0,4.38-1.07.17a11.76,11.76,0,0,0-9.95,10.07l-.15,1.07-4.38,0v1.26Z"/><path class="cls-1" d="M30.12,14.5h3.76v4.55A13,13,0,0,1,45,30.12H49.5v3.76H45A13,13,0,0,1,33.88,45V49.5H30.12V45A13,13,0,0,1,19.05,33.88H14.5V30.12h4.55A13,13,0,0,1,30.12,19.05Z"/><path class="cls-2" d="M35.13,50.75H28.87V46A14.24,14.24,0,0,1,18,35.13H13.25V28.87H18A14.24,14.24,0,0,1,28.87,18V13.25h6.26V18A14.24,14.24,0,0,1,46,28.87h4.76v6.26H46A14.24,14.24,0,0,1,35.13,46Zm-3.76-2.5h1.26V43.87l1.07-.16a11.75,11.75,0,0,0,10-10l.16-1.07h4.38V31.37H43.87l-.16-1.07a11.75,11.75,0,0,0-10-10l-1.07-.16V15.75H31.37v4.38l-1.07.16a11.75,11.75,0,0,0-10,10l-.16,1.07H15.75v1.26h4.38l.16,1.07a11.75,11.75,0,0,0,10,10l1.07.16Z"/><path class="cls-3" d="M49.5,30.1v3.76H45A13,13,0,0,1,33.9,45V49.5H30.14V45A13,13,0,0,1,19.05,33.9H14.5V30.14h4.55A13,13,0,0,1,30.1,19.05V14.5h3.76v4.55A13,13,0,0,1,45,30.1Z"/><path class="cls-2" d="M29.14,50.5V45.79A14,14,0,0,1,18.21,34.9H13.5V29.14h4.71A14,14,0,0,1,29.1,18.22V13.5h5.76v4.71A14,14,0,0,1,45.79,29.1H50.5v5.76H45.79A14,14,0,0,1,34.9,45.78V50.5ZM19.92,32.9l.12.85A12,12,0,0,0,30.28,44l.86.13V48.5H32.9V44.08l.85-.12A12,12,0,0,0,44,33.72l.13-.85H48.5V31.1H44.08L44,30.25A12,12,0,0,0,33.72,20l-.86-.13V15.5H31.1v4.42l-.85.12A12,12,0,0,0,20,30.28l-.13.85H15.5V32.9Z"/><rect class="cls-4" x="23.34" y="30.5" width="17.32" height="3" transform="translate(-13.25 32.3) rotate(-45.38)"/><rect class="cls-4" x="23.34" y="30.5" width="17.32" height="3" transform="translate(-13.25 32.3) rotate(-45.38)"/></g></svg>