<svg xmlns="http://www.w3.org/2000/svg" viewBox="0 0 64 64"><defs><style>.cls-1{fill:#3f3f3f;}.cls-2{fill:#99dbdc;}</style></defs><title>ICON_MAP_VOR</title><g id="V1_G1000_CONTOUR" data-name="V1_G1000 CONTOUR"><path class="cls-1" d="M38.37,24h0V21.14H25.69V24l-5.85,8,5.77,7.85v3H38.42V40l5.76-8Z"/><path class="cls-1" d="M40.92,45.36H23.11V40.72l-6.37-8.67,6.45-8.83V18.64H40.84v4.48l6.42,8.93-6.34,8.77Zm-12.81-5h7.81V39.2L41.1,32l-4-5.57H35.84V23.64H28.19v1.22L22.94,32l5.17,7Z"/><path class="cls-2" d="M38.36,24h0V21.14H25.68V24l-5.85,8L25.6,39.9v3H38.41V40l5.76-8Zm-16,8.08L26.74,26H37.33l4.37,6.08-4.35,6H26.73Z"/><polygon class="cls-2" points="37.35 38.07 37.34 38.08 26.74 38.08 26.73 38.07 37.35 38.07"/><circle class="cls-2" cx="32" cy="32.58" r="1.81"/></g></svg>