<svg xmlns="http://www.w3.org/2000/svg" viewBox="0 0 64 64"><defs><style>.cls-1{fill:#b6bbbe;}.cls-2{fill:#3f3f3f;}</style></defs><title>ICON_MAP_STATE_HIGHWAY</title><g id="V1_G1000_CONTOUR" data-name="V1_G1000 CONTOUR"><rect class="cls-1" x="2.86" y="13.71" width="58.28" height="36.58" rx="16.25"/><path class="cls-2" d="M44.89,51.79H19.11A17.77,17.77,0,0,1,1.36,34V30A17.77,17.77,0,0,1,19.11,12.21H44.89A17.77,17.77,0,0,1,62.64,30V34A17.77,17.77,0,0,1,44.89,51.79ZM19.11,15.21A14.77,14.77,0,0,0,4.36,30V34A14.77,14.77,0,0,0,19.11,48.79H44.89A14.77,14.77,0,0,0,59.64,34V30A14.77,14.77,0,0,0,44.89,15.21Z"/></g></svg>