<svg xmlns="http://www.w3.org/2000/svg" viewBox="0 0 64 64"><defs><style>.cls-1{fill:#ed008c;}.cls-2{fill:#3f3f3f;}.cls-3{fill:#fff;}</style></defs><title>ICON_MAP_AIRPORT_PRIVATE_PINK</title><g id="V1_G1000_CONTOUR" data-name="V1_G1000 CONTOUR"><path class="cls-1" d="M32,45.25A13.25,13.25,0,1,1,45.25,32,13.26,13.26,0,0,1,32,45.25Zm0-23.41A10.16,10.16,0,1,0,42.16,32,10.17,10.17,0,0,0,32,21.84Z"/><path class="cls-2" d="M32,46.5A14.5,14.5,0,1,1,46.5,32,14.51,14.51,0,0,1,32,46.5ZM32,20A12,12,0,1,0,44,32,12,12,0,0,0,32,20Zm0,23.41A11.41,11.41,0,1,1,43.41,32,11.42,11.42,0,0,1,32,43.41Zm0-20.32A8.91,8.91,0,1,0,40.91,32,8.92,8.92,0,0,0,32,23.09Z"/><circle class="cls-1" cx="32" cy="32" r="11.89"/><path class="cls-3" d="M34.35,39.22,31.72,33.4a.16.16,0,0,0-.15-.11H29.62c-.08,0-.12.05-.12.13v5.72a.33.33,0,0,1-.37.36H26.84a.32.32,0,0,1-.36-.36V24.86a.32.32,0,0,1,.36-.36h6a4.89,4.89,0,0,1,2.4.57,3.86,3.86,0,0,1,1.61,1.59A4.75,4.75,0,0,1,37.44,29a4.34,4.34,0,0,1-.73,2.51,3.92,3.92,0,0,1-2,1.48.11.11,0,0,0-.09.07.09.09,0,0,0,0,.1l2.83,5.9a.36.36,0,0,1,.06.2.23.23,0,0,1-.08.17.43.43,0,0,1-.24.06H34.78A.47.47,0,0,1,34.35,39.22Zm-4.85-12v3.59c0,.09,0,.13.12.13h2.79a2.06,2.06,0,0,0,1.46-.52,1.79,1.79,0,0,0,.57-1.38,1.85,1.85,0,0,0-.57-1.4,2,2,0,0,0-1.46-.55H29.62C29.54,27.11,29.5,27.15,29.5,27.24Z"/></g></svg>