<svg xmlns="http://www.w3.org/2000/svg" viewBox="0 0 64 64"><defs><style>.cls-1{fill:#3f3f3f;}.cls-2{fill:#c14d25;}.cls-3{fill:#fede2b;}</style></defs><title>ICON_MAP_OBSTACLE_LIGHTED_MORE_1000_AGL_YELLOW</title><g id="V1_G1000_CONTOUR" data-name="V1_G1000 CONTOUR"><polyline class="cls-1" points="32.3 36.44 39.84 59.78 24.16 59.78"/><circle class="cls-2" cx="32" cy="51.3" r="2.74"/><path class="cls-1" d="M32,56.54a5.24,5.24,0,0,1-4.66-7.61A5.24,5.24,0,1,1,32,56.54Zm0-5.48-.07,0a.2.2,0,0,0-.14.11.24.24,0,0,0,.42.22.23.23,0,0,0,0-.18.22.22,0,0,0-.11-.14A.23.23,0,0,0,32,51.06Z"/><polygon class="cls-2" points="44.91 54.41 40.9 56.45 32 38.92 23.1 56.45 19.09 54.41 29.77 33.37 29.77 20.05 34.27 20.05 34.27 33.45 44.91 54.41"/><polygon class="cls-1" points="39.8 59.81 32 44.44 24.2 59.81 15.73 55.5 27.27 32.77 27.27 17.55 36.77 17.55 36.77 32.85 48.27 55.5 39.8 59.81"/><circle class="cls-3" cx="32" cy="51.3" r="2.74"/><polygon class="cls-3" points="44.91 54.41 40.9 56.45 32 38.92 23.1 56.45 19.09 54.41 29.77 33.37 29.77 20.05 34.27 20.05 34.27 33.45 44.91 54.41"/><rect class="cls-1" x="28.8" y="11.43" width="7.49" height="6.93"/><rect class="cls-2" x="31.3" y="5.69" width="1.5" height="6.06"/><rect class="cls-1" x="29.8" y="4.19" width="4.5" height="9.06"/><rect class="cls-2" x="35.83" y="12.95" width="1.5" height="6.06" transform="translate(4.45 39.67) rotate(-60)"/><rect class="cls-1" x="34.33" y="11.45" width="4.5" height="9.06" transform="translate(4.45 39.67) rotate(-60)"/><rect class="cls-2" x="24.4" y="15.15" width="6.06" height="1.5" transform="translate(-4.27 15.35) rotate(-29.1)"/><rect class="cls-1" x="22.9" y="13.65" width="9.06" height="4.5" transform="translate(-4.27 15.35) rotate(-29.1)"/><rect class="cls-2" x="33.26" y="10.34" width="6.06" height="1.5" transform="translate(-0.68 19.63) rotate(-30)"/><rect class="cls-1" x="31.76" y="8.84" width="9.06" height="4.5" transform="matrix(0.87, -0.5, 0.5, 0.87, -0.68, 19.63)"/><rect class="cls-2" x="27.04" y="8.03" width="1.5" height="6.06" transform="translate(4.32 29.6) rotate(-60)"/><rect class="cls-1" x="25.54" y="6.53" width="4.5" height="9.06" transform="translate(4.32 29.59) rotate(-60)"/><rect class="cls-3" x="31.3" y="5.69" width="1.5" height="6.06"/><rect class="cls-3" x="35.83" y="12.95" width="1.5" height="6.06" transform="translate(4.45 39.67) rotate(-60)"/><rect class="cls-3" x="24.4" y="15.15" width="6.06" height="1.5" transform="translate(-4.27 15.35) rotate(-29.1)"/><rect class="cls-3" x="33.26" y="10.34" width="6.06" height="1.5" transform="translate(-0.68 19.63) rotate(-30)"/><rect class="cls-3" x="27.04" y="8.03" width="1.5" height="6.06" transform="translate(4.32 29.6) rotate(-60)"/></g></svg>