<svg xmlns="http://www.w3.org/2000/svg" viewBox="0 0 64 64"><defs><style>.cls-1{fill:#ed008c;}.cls-2{fill:#3f3f3f;}.cls-3{fill:#fff;}</style></defs><title>ICON_MAP_AIRPORT_UNKNOWN_PINK</title><g id="V1_G1000_CONTOUR" data-name="V1_G1000 CONTOUR"><path class="cls-1" d="M32,45.25A13.25,13.25,0,1,1,45.25,32,13.26,13.26,0,0,1,32,45.25Zm0-23.41A10.16,10.16,0,1,0,42.16,32,10.17,10.17,0,0,0,32,21.84Z"/><path class="cls-2" d="M32,46.5A14.5,14.5,0,1,1,46.5,32,14.51,14.51,0,0,1,32,46.5ZM32,20A12,12,0,1,0,44,32,12,12,0,0,0,32,20Zm0,23.41A11.41,11.41,0,1,1,43.41,32,11.42,11.42,0,0,1,32,43.41Zm0-20.32A8.91,8.91,0,1,0,40.91,32,8.92,8.92,0,0,0,32,23.09Z"/><circle class="cls-1" cx="32" cy="32" r="11.89"/><path class="cls-3" d="M30.28,34.86V34a2.72,2.72,0,0,1,.55-1.78,8.49,8.49,0,0,1,1.61-1.44,7.67,7.67,0,0,0,1.38-1.21,2,2,0,0,0,.46-1.34,1.82,1.82,0,0,0-.62-1.44,2.77,2.77,0,0,0-3.34,0,1.87,1.87,0,0,0-.64,1.47v.39a.38.38,0,0,1-.11.28.29.29,0,0,1-.26.06L27.38,29a.47.47,0,0,1-.27-.11.29.29,0,0,1-.1-.23v-.3a4.19,4.19,0,0,1,2.44-3.92,5.86,5.86,0,0,1,2.64-.57A5.18,5.18,0,0,1,35.66,25a4.39,4.39,0,0,1,1,4.89,4,4,0,0,1-.82,1.19,11.72,11.72,0,0,1-1.28,1,7.28,7.28,0,0,0-1.2,1,1.48,1.48,0,0,0-.39,1v.69a.32.32,0,0,1-.37.37H30.64A.32.32,0,0,1,30.28,34.86Zm.23,4.83a1.6,1.6,0,0,1,0-2.34,1.73,1.73,0,0,1,1.24-.49,1.79,1.79,0,0,1,1.22.49,1.56,1.56,0,0,1,0,2.34,1.78,1.78,0,0,1-1.25.49A1.65,1.65,0,0,1,30.51,39.69Z"/></g></svg>