<svg xmlns="http://www.w3.org/2000/svg" viewBox="0 0 64 64"><defs><style>.cls-1{fill:#3f3f3f;}.cls-2{fill:#99dbdc;}</style></defs><title>ICON_MAP_VOR_TACAN</title><g id="V1_G1000_CONTOUR" data-name="V1_G1000 CONTOUR"><polygon class="cls-1" points="42.56 32.64 38.17 40.25 38.27 45.72 25.97 45.72 25.97 40.24 21.71 32.64 16.84 29.74 23.09 19.29 27.9 21.96 36.46 22.15 41.34 19.25 47.22 29.89 42.56 32.64"/><path class="cls-1" d="M40.82,48.22H23.47V40.89l-3.61-6.45L13.41,30.6l8.78-14.67,6.39,3.54,7.22.16,6.48-3.85,8.31,15L44.4,34.46,40.69,40.9Zm-12.35-5h7.26l-.07-3.62,5.07-8.78L43.86,29,40.4,22.71l-3.27,1.95-9.9-.22L24,22.65l-3.72,6.22,3.29,2,4.9,8.75Z"/><path class="cls-2" d="M38.24,45.72H25.94V40.23l-4.26-7.6-4.87-2.89,6.25-10.45L27.87,22l8.56.19,4.88-2.9,5.88,10.64-4.66,2.75-4.39,7.61Zm-10.3-2H36.2l-.07-4,4.94-8.55,3.43-2L40.56,22,37,24.16,27.33,24l-3.55-2L19.55,29l3.61,2.15,4.78,8.52Z"/><circle class="cls-2" cx="32" cy="32.48" r="1.81"/></g></svg>