<svg xmlns="http://www.w3.org/2000/svg" viewBox="0 0 64 64"><defs><style>.cls-1{fill:#3f3f3f;}.cls-2{fill:#99dbdc;}</style></defs><title>ICON_MAP_VOR_DME</title><g id="V1_G1000_CONTOUR" data-name="V1_G1000 CONTOUR"><rect class="cls-1" x="14.75" y="19.88" width="34.5" height="24.24"/><path class="cls-1" d="M51.75,46.62H12.25V17.38h39.5Zm-34.5-5h29.5V22.38H17.25Z"/><rect class="cls-1" x="16.19" y="23.32" width="31.62" height="17.35"/><circle class="cls-2" cx="32" cy="32" r="1.81"/><path class="cls-2" d="M32,29.69A2.31,2.31,0,1,0,34.31,32,2.31,2.31,0,0,0,32,29.69Zm0,3.62A1.31,1.31,0,1,1,33.31,32,1.31,1.31,0,0,1,32,33.31Z"/><circle class="cls-2" cx="32" cy="32" r="2.31"/><path class="cls-2" d="M14.75,19.88V44.12h34.5V19.88ZM29.69,32A2.31,2.31,0,1,1,32,34.31,2.31,2.31,0,0,1,29.69,32Z"/><circle class="cls-1" cx="32" cy="32" r="6.55"/><path class="cls-1" d="M32,39.55A7.55,7.55,0,1,1,39.55,32,7.56,7.56,0,0,1,32,39.55Zm0-13.1A5.55,5.55,0,1,0,37.55,32,5.56,5.56,0,0,0,32,26.45Z"/><rect class="cls-1" x="31" y="15.17" width="2" height="33.66" transform="translate(-12.15 41.92) rotate(-57.67)"/><rect class="cls-1" x="15.17" y="31" width="33.66" height="2" transform="translate(-12.15 22.08) rotate(-32.33)"/><circle class="cls-2" cx="32" cy="32" r="1.81"/></g></svg>