<svg xmlns="http://www.w3.org/2000/svg" viewBox="0 0 64 64"><defs><style>.cls-1{fill:#3f3f3f;}.cls-2{fill:#c14d25;}.cls-3{fill:#94959a;}</style></defs><title>ICON_MAP_OBSTACLE_UNLIGHTED_MORE_1000_AGL_GREY</title><g id="V1_G1000_CONTOUR" data-name="V1_G1000 CONTOUR"><polyline class="cls-1" points="32.3 29.76 39.84 53.11 24.16 53.11"/><circle class="cls-2" cx="32" cy="44.62" r="2.74"/><path class="cls-1" d="M32,49.86A5.24,5.24,0,1,1,36.67,47,5.26,5.26,0,0,1,32,49.86Zm0-5.48a.23.23,0,0,0-.21.13.24.24,0,0,0,.1.32.23.23,0,0,0,.32-.1.24.24,0,0,0-.1-.32A.23.23,0,0,0,32,44.38Z"/><polygon class="cls-2" points="44.91 47.73 40.9 49.77 32 32.24 23.1 49.77 19.09 47.73 29.77 26.69 29.77 13.37 34.27 13.37 34.27 26.77 44.91 47.73"/><polygon class="cls-1" points="39.8 53.13 32 37.76 24.2 53.13 15.73 48.82 27.27 26.09 27.27 10.87 36.77 10.87 36.77 26.17 48.27 48.82 39.8 53.13"/><circle class="cls-3" cx="32" cy="44.62" r="2.74"/><polygon class="cls-3" points="44.91 47.73 40.9 49.77 32 32.24 23.1 49.77 19.09 47.73 29.77 26.69 29.77 13.37 34.27 13.37 34.27 26.77 44.91 47.73"/></g></svg>