<svg xmlns="http://www.w3.org/2000/svg" viewBox="0 0 64 64"><defs><style>.cls-1{fill:#3f3f3f;}.cls-2{fill:#9d6d9f;}</style></defs><title>ICON_MAP_NDB_WAYPOINT</title><g id="V1_G1000_CONTOUR" data-name="V1_G1000 CONTOUR"><circle class="cls-1" cx="32" cy="32" r="15.5"/><path class="cls-1" d="M32,49.25A17.25,17.25,0,1,1,49.25,32,17.27,17.27,0,0,1,32,49.25Zm0-31A13.75,13.75,0,1,0,45.75,32,13.77,13.77,0,0,0,32,18.25Z"/><path class="cls-2" d="M30.92,47a1.14,1.14,0,0,1-1.05-1.22h0a1.12,1.12,0,0,1,1.2-1.06h0A1.14,1.14,0,0,1,32.14,46h0A1.14,1.14,0,0,1,31,47h-.09Zm2.75-1.17a1.13,1.13,0,0,1,.88-1.35h0a1.14,1.14,0,0,1,1.34.88h0A1.14,1.14,0,0,1,35,46.75h0l-.23,0h0A1.12,1.12,0,0,1,33.67,45.86Zm-6.76.34a1.13,1.13,0,0,1-.69-1.45h0a1.13,1.13,0,0,1,1.45-.7h0a1.16,1.16,0,0,1,.7,1.46h0a1.16,1.16,0,0,1-1.08.76h0A1.33,1.33,0,0,1,26.91,46.2Zm10.43-1.32a1.13,1.13,0,0,1,.48-1.53h0a1.13,1.13,0,0,1,1.54.48h0a1.14,1.14,0,0,1-.49,1.54h0a1.18,1.18,0,0,1-.52.13h0A1.14,1.14,0,0,1,37.34,44.88Zm-14.07-.57A1.14,1.14,0,0,1,23,42.72h0a1.15,1.15,0,0,1,1.59-.27h0A1.14,1.14,0,0,1,24.86,44h0a1.13,1.13,0,0,1-.94.49h0A1.06,1.06,0,0,1,23.27,44.31Zm17.34-1.37a1.13,1.13,0,0,1,.06-1.61h0a1.13,1.13,0,0,1,1.6.06h0A1.14,1.14,0,0,1,42.22,43h0a1.16,1.16,0,0,1-.78.3h0A1.09,1.09,0,0,1,40.61,42.94ZM20.26,41.52h0a1.13,1.13,0,0,1,.16-1.6h0a1.14,1.14,0,0,1,1.61.16h0a1.15,1.15,0,0,1-.16,1.6h0a1.15,1.15,0,0,1-.73.26h0A1.15,1.15,0,0,1,20.26,41.52Zm23-1.32a1.14,1.14,0,0,1-.38-1.57h0a1.14,1.14,0,0,1,1.56-.38h0a1.14,1.14,0,0,1,.39,1.57h0a1.16,1.16,0,0,1-1,.55h0A1.18,1.18,0,0,1,43.24,40.2ZM18.13,38a1.15,1.15,0,0,1,.59-1.51h0a1.15,1.15,0,0,1,1.5.59h0a1.14,1.14,0,0,1-.59,1.5h0a1,1,0,0,1-.45.1h0A1.16,1.16,0,0,1,18.13,38ZM45,36.85a1.13,1.13,0,0,1-.79-1.41h0a1.14,1.14,0,0,1,1.4-.79h0a1.15,1.15,0,0,1,.79,1.41h0a1.14,1.14,0,0,1-1.1.83h0A1,1,0,0,1,45,36.85ZM17,34.08h0a1.14,1.14,0,0,1,1-1.29h0a1.15,1.15,0,0,1,1.29,1h0a1.14,1.14,0,0,1-1,1.28h-.16A1.13,1.13,0,0,1,17,34.08ZM44.72,32v0h0v0h0a1.12,1.12,0,0,1,1.13-1.14h0A1.14,1.14,0,0,1,47,31.94h0v0h0v0h0a1.15,1.15,0,0,1-1.14,1.14h0A1.14,1.14,0,0,1,44.72,32ZM18,31.26A1.13,1.13,0,0,1,17,30h0a1.14,1.14,0,0,1,1.29-1h0a1.15,1.15,0,0,1,1,1.29h0a1.15,1.15,0,0,1-1.13,1h0ZM44.23,28.5A1.15,1.15,0,0,1,45,27.09h0a1.13,1.13,0,0,1,1.4.79h0a1.12,1.12,0,0,1-.78,1.4h0a1.12,1.12,0,0,1-.31,0h0A1.15,1.15,0,0,1,44.23,28.5Zm-25.53-1a1.13,1.13,0,0,1-.59-1.5h0a1.14,1.14,0,0,1,1.49-.6h0a1.14,1.14,0,0,1,.6,1.5h0a1.14,1.14,0,0,1-1.05.69h0A1.17,1.17,0,0,1,18.7,27.53Zm24.13-2.21h0a1.14,1.14,0,0,1,.38-1.57h0a1.13,1.13,0,0,1,1.56.37h0a1.13,1.13,0,0,1-.37,1.57h0a1.18,1.18,0,0,1-.59.17h0A1.15,1.15,0,0,1,42.83,25.32ZM20.4,24.12a1.13,1.13,0,0,1-.17-1.6h0a1.14,1.14,0,0,1,1.6-.17h0A1.13,1.13,0,0,1,22,24h0a1.11,1.11,0,0,1-.88.43h0A1.08,1.08,0,0,1,20.4,24.12Zm20.22-1.5a1.15,1.15,0,0,1,0-1.61h0A1.15,1.15,0,0,1,42.18,21h0a1.13,1.13,0,0,1,0,1.61h0a1.09,1.09,0,0,1-.83.37h0A1.12,1.12,0,0,1,40.62,22.62ZM23,21.31a1.14,1.14,0,0,1,.27-1.6h0a1.14,1.14,0,0,1,1.59.28h0a1.15,1.15,0,0,1-.27,1.59h0a1.15,1.15,0,0,1-.66.21h0A1.15,1.15,0,0,1,23,21.31Zm14.83-.68h0a1.16,1.16,0,0,1-.5-1.54h0a1.15,1.15,0,0,1,1.54-.49h0a1.13,1.13,0,0,1,.49,1.53h0a1.12,1.12,0,0,1-1,.62h0A1.2,1.2,0,0,1,37.78,20.63ZM26.16,19.28a1.14,1.14,0,0,1,.69-1.46h0a1.15,1.15,0,0,1,1.46.68h0A1.14,1.14,0,0,1,27.62,20h0a1.07,1.07,0,0,1-.39.07h0A1.14,1.14,0,0,1,26.16,19.28Zm8.33.2a1.14,1.14,0,0,1-.88-1.35h0A1.14,1.14,0,0,1,35,17.24h0a1.13,1.13,0,0,1,.89,1.34h0a1.14,1.14,0,0,1-1.12.92h0ZM29.8,18.19A1.13,1.13,0,0,1,30.86,17h0A1.13,1.13,0,0,1,32.08,18h0A1.15,1.15,0,0,1,31,19.25h-.08A1.15,1.15,0,0,1,29.8,18.19Z"/><path class="cls-2" d="M29.9,44h0A1.14,1.14,0,0,1,29,42.67h0a1.15,1.15,0,0,1,1.33-.93h0a1.14,1.14,0,0,1,.92,1.32h0A1.13,1.13,0,0,1,30.1,44h0A.71.71,0,0,1,29.9,44Zm2.91-.92a1.13,1.13,0,0,1,.92-1.33h0a1.15,1.15,0,0,1,1.32.93h0A1.14,1.14,0,0,1,34.12,44h0l-.2,0h0A1.13,1.13,0,0,1,32.81,43.06Zm-6.88-.51h0A1.14,1.14,0,0,1,25.52,41h0a1.13,1.13,0,0,1,1.55-.42h0a1.14,1.14,0,0,1,.42,1.56h0a1.12,1.12,0,0,1-1,.57h0A1.21,1.21,0,0,1,25.93,42.55Zm10.6-.43A1.15,1.15,0,0,1,37,40.56h0a1.14,1.14,0,0,1,1.56.41h0a1.14,1.14,0,0,1-.42,1.56h0a1.07,1.07,0,0,1-.57.16h0A1.14,1.14,0,0,1,36.53,42.12ZM22.7,39.83a1.13,1.13,0,0,1,.13-1.6h0a1.14,1.14,0,0,1,1.61.14h0a1.13,1.13,0,0,1-.13,1.6h0a1.17,1.17,0,0,1-.74.27h0A1.11,1.11,0,0,1,22.7,39.83Zm17,.13a1.13,1.13,0,0,1-.14-1.61h0a1.12,1.12,0,0,1,1.6-.13h0a1.13,1.13,0,0,1,.14,1.6h0a1.13,1.13,0,0,1-.87.41h0A1.12,1.12,0,0,1,39.72,40ZM20.57,36.19a1.16,1.16,0,0,1,.69-1.47h0a1.14,1.14,0,0,1,1.46.68h0A1.13,1.13,0,0,1,22,36.86h0a1.07,1.07,0,0,1-.39.07h0A1.15,1.15,0,0,1,20.57,36.19Zm21.4.66a1.15,1.15,0,0,1-.68-1.47h0a1.14,1.14,0,0,1,1.46-.68h0a1.13,1.13,0,0,1,.67,1.46h0a1.13,1.13,0,0,1-1.07.76h0A1.34,1.34,0,0,1,42,36.85ZM19.84,32A1.14,1.14,0,0,1,21,30.89h0A1.15,1.15,0,0,1,22.13,32h0A1.15,1.15,0,0,1,21,33.17h0A1.15,1.15,0,0,1,19.84,32Zm22.05,0a.15.15,0,0,1,0-.06h0A1.15,1.15,0,0,1,43,30.82h0A1.14,1.14,0,0,1,44.16,32h0v0h0v0h0A1.13,1.13,0,0,1,43,33.14h0A1.13,1.13,0,0,1,41.89,32Zm-20.65-2.7a1.14,1.14,0,0,1-.68-1.46h0A1.13,1.13,0,0,1,22,27.19h0a1.12,1.12,0,0,1,.68,1.45h0a1.13,1.13,0,0,1-1.07.76h0A1.34,1.34,0,0,1,21.24,29.33Zm20-.74A1.15,1.15,0,0,1,42,27.12h0a1.14,1.14,0,0,1,1.46.68h0a1.15,1.15,0,0,1-.68,1.47h0a1.34,1.34,0,0,1-.39.07h0A1.14,1.14,0,0,1,41.28,28.59ZM22.81,25.82a1.14,1.14,0,0,1-.14-1.61h0a1.15,1.15,0,0,1,1.61-.15h0a1.14,1.14,0,0,1,.13,1.61h0a1.15,1.15,0,0,1-.88.41h0A1.16,1.16,0,0,1,22.81,25.82Zm16.74-.19A1.15,1.15,0,0,1,39.69,24h0a1.14,1.14,0,0,1,1.61.13h0a1.15,1.15,0,0,1-.14,1.61h0a1.15,1.15,0,0,1-.74.27h0A1.17,1.17,0,0,1,39.55,25.63ZM25.48,23a1.15,1.15,0,0,1,.42-1.56h0a1.15,1.15,0,0,1,1.56.41h0A1.15,1.15,0,0,1,27,23.46h0a1.18,1.18,0,0,1-.57.15h0A1.14,1.14,0,0,1,25.48,23Zm11.44.39h0a1.15,1.15,0,0,1-.43-1.56h0a1.14,1.14,0,0,1,1.56-.42h0A1.12,1.12,0,0,1,38.47,23h0a1.11,1.11,0,0,1-1,.58h0A1.12,1.12,0,0,1,36.92,23.43Zm-8-2.08A1.13,1.13,0,0,1,29.86,20h0a1.14,1.14,0,0,1,1.32.92h0a1.14,1.14,0,0,1-.92,1.32h0l-.2,0h0A1.14,1.14,0,0,1,28.94,21.35Zm4.75.92A1.14,1.14,0,0,1,32.76,21h0A1.14,1.14,0,0,1,34.08,20h0A1.13,1.13,0,0,1,35,21.33h0a1.14,1.14,0,0,1-1.12,1h-.2Z"/><path class="cls-2" d="M31.73,40.06a1.13,1.13,0,0,1,1-1.26h0a1.13,1.13,0,0,1,1.27,1h0a1.14,1.14,0,0,1-1,1.27h-.14A1.14,1.14,0,0,1,31.73,40.06Zm-3.07.48h0A1.13,1.13,0,0,1,28,39.07h0a1.13,1.13,0,0,1,1.47-.66h0a1.14,1.14,0,0,1,.66,1.47h0a1.13,1.13,0,0,1-1.06.73h0A1.18,1.18,0,0,1,28.66,40.54Zm6.83-1.32a1.13,1.13,0,0,1,.29-1.58h0a1.14,1.14,0,0,1,1.59.29h0a1.13,1.13,0,0,1-.29,1.58h0a1.21,1.21,0,0,1-.65.2h0A1.14,1.14,0,0,1,35.49,39.22ZM25.07,38.06a1.13,1.13,0,0,1,.1-1.61h0a1.13,1.13,0,0,1,1.6.1h0a1.13,1.13,0,0,1-.09,1.61h0a1.15,1.15,0,0,1-.76.28h0A1.16,1.16,0,0,1,25.07,38.06Zm13.36-1.34A1.14,1.14,0,0,1,38,35.18h0a1.14,1.14,0,0,1,1.54-.48h0A1.15,1.15,0,0,1,40,36.25h0a1.14,1.14,0,0,1-1,.61h0A1.12,1.12,0,0,1,38.43,36.72ZM23,34.2a1.15,1.15,0,0,1,.84-1.38h0a1.14,1.14,0,0,1,1.38.83h0A1.15,1.15,0,0,1,24.41,35h0a1.24,1.24,0,0,1-.27,0h0A1.15,1.15,0,0,1,23,34.2ZM38.73,32h0v0h0a1.14,1.14,0,0,1,1.14-1.14h0A1.14,1.14,0,0,1,41,32h0v0h0a1.13,1.13,0,0,1-1.13,1.14h0A1.14,1.14,0,0,1,38.73,32Zm-14.86-.79A1.14,1.14,0,0,1,23,29.84h0A1.15,1.15,0,0,1,24.41,29h0a1.15,1.15,0,0,1,.83,1.38h0a1.14,1.14,0,0,1-1.11.87h0A.78.78,0,0,1,23.87,31.21ZM37.94,28.8a1.13,1.13,0,0,1,.47-1.54h0a1.14,1.14,0,0,1,1.54.47h0a1.14,1.14,0,0,1-.47,1.55h0a1.15,1.15,0,0,1-.53.13h0A1.13,1.13,0,0,1,37.94,28.8Zm-12.8-1.22A1.15,1.15,0,0,1,25,26h0a1.15,1.15,0,0,1,1.62-.1h0a1.14,1.14,0,0,1,.09,1.61h0a1.13,1.13,0,0,1-.85.39h0A1.17,1.17,0,0,1,25.14,27.58Zm10.62-1.22h0a1.14,1.14,0,0,1-.3-1.59h0a1.15,1.15,0,0,1,1.59-.29h0a1.15,1.15,0,0,1,.29,1.59h0a1.13,1.13,0,0,1-.94.49h0A1.15,1.15,0,0,1,35.76,26.36ZM28,25a1.14,1.14,0,0,1,.66-1.48h0a1.13,1.13,0,0,1,1.47.66h0a1.14,1.14,0,0,1-.65,1.47h0a1.24,1.24,0,0,1-.41.08h0A1.16,1.16,0,0,1,28,25Zm4.72.25a1.13,1.13,0,0,1-1-1.26h0a1.13,1.13,0,0,1,1.26-1h0a1.15,1.15,0,0,1,1,1.27h0a1.14,1.14,0,0,1-1.13,1h-.14Z"/><path class="cls-2" d="M32,38.18ZM30.87,37A1.14,1.14,0,0,1,32,35.9h0A1.14,1.14,0,0,1,33.15,37h0A1.12,1.12,0,0,1,32,38.18h0A1.15,1.15,0,0,1,30.87,37Zm-3.22-.65a1.15,1.15,0,0,1,0-1.61h0a1.15,1.15,0,0,1,1.62,0h0a1.14,1.14,0,0,1,0,1.61h0a1.14,1.14,0,0,1-.82.34h0A1.15,1.15,0,0,1,27.65,36.39Zm7.11,0a1.13,1.13,0,0,1,0-1.61h0a1.13,1.13,0,0,1,1.61,0h0a1.14,1.14,0,0,1,0,1.61h0a1.15,1.15,0,0,1-.81.33h0A1.13,1.13,0,0,1,34.76,36.37ZM25.82,32A1.15,1.15,0,0,1,27,30.89h0A1.14,1.14,0,0,1,28.1,32h0A1.14,1.14,0,0,1,27,33.17h0A1.14,1.14,0,0,1,25.82,32ZM35.9,32v0h0A1.14,1.14,0,0,1,37,30.8h0a1.15,1.15,0,0,1,1.16,1.13h0v0h0v0h0A1.14,1.14,0,0,1,37,33.14h0A1.14,1.14,0,0,1,35.9,32Zm2.28-.08ZM27.61,29.28a1.13,1.13,0,0,1,0-1.61h0a1.12,1.12,0,0,1,1.61,0h0a1.14,1.14,0,0,1,0,1.61h0a1.12,1.12,0,0,1-.81.34h0A1.13,1.13,0,0,1,27.61,29.28Zm7.12-.06a1.14,1.14,0,0,1,0-1.61h0a1.13,1.13,0,0,1,1.61,0h0a1.15,1.15,0,0,1,0,1.62h0a1.17,1.17,0,0,1-.82.34h0A1.17,1.17,0,0,1,34.73,29.22ZM30.82,27a1.14,1.14,0,0,1,1.12-1.16h0A1.16,1.16,0,0,1,33.1,27h0A1.13,1.13,0,0,1,32,28.1h0A1.13,1.13,0,0,1,30.82,27Z"/><path class="cls-2" d="M32,36.61A4.61,4.61,0,1,1,36.61,32,4.62,4.62,0,0,1,32,36.61Zm0-8.46A3.85,3.85,0,1,0,35.85,32,3.86,3.86,0,0,0,32,28.15Z"/><path class="cls-2" d="M33.09,32A1.09,1.09,0,1,1,32,30.91,1.09,1.09,0,0,1,33.09,32Z"/><path class="cls-2" d="M32,33.47A1.47,1.47,0,1,1,33.47,32,1.47,1.47,0,0,1,32,33.47Zm0-2.18a.71.71,0,1,0,.71.71A.71.71,0,0,0,32,31.29Z"/></g></svg>