<svg xmlns="http://www.w3.org/2000/svg" viewBox="0 0 64 64"><defs><style>.cls-1{fill:#0b4ca1;}.cls-2{fill:#3f3f3f;}.cls-3{fill:#b6bbbe;}</style></defs><title>ICON_MAP_INTERSTATE_HIGHWAY</title><g id="V1_G1000_CONTOUR" data-name="V1_G1000 CONTOUR"><path class="cls-1" d="M13.55,42.23A31.09,31.09,0,0,0,26.19,52.61c1.39.64,4.36,1.9,5.81,1.9s4.42-1.26,5.81-1.9A31.09,31.09,0,0,0,50.45,42.23a31,31,0,0,0,4.54-24H9A31,31,0,0,0,13.55,42.23Z"/><path class="cls-2" d="M32,56h0c-1.76,0-4.79-1.27-6.44-2a32.6,32.6,0,0,1-13.24-10.9h0A32.44,32.44,0,0,1,7.55,17.9l.28-1.15H56.17l.28,1.15a32.44,32.44,0,0,1-4.77,25.18A32.6,32.6,0,0,1,38.44,54C36.79,54.74,33.76,56,32,56Zm0-3h0a17.75,17.75,0,0,0,5.18-1.76,29.57,29.57,0,0,0,12-9.88,29.48,29.48,0,0,0,4.56-21.62H10.22a29.48,29.48,0,0,0,4.56,21.62h0a29.6,29.6,0,0,0,12,9.88A18,18,0,0,0,32,53Z"/><path class="cls-3" d="M50.37,9.7a34.45,34.45,0,0,1-13.91.89c-1.54-.21-3.08-.89-4.46-.89s-2.92.68-4.46.89A34.45,34.45,0,0,1,13.63,9.7,24.58,24.58,0,0,0,9,18.25H55A24.58,24.58,0,0,0,50.37,9.7Z"/><path class="cls-2" d="M57,19.75H7l.57-1.93a26.1,26.1,0,0,1,4.89-9.06L13.09,8l.95.27a32.92,32.92,0,0,0,13.3.84,14.86,14.86,0,0,0,1.78-.4A11.15,11.15,0,0,1,32,8.2a11.15,11.15,0,0,1,2.88.5,14.86,14.86,0,0,0,1.78.4A32.92,32.92,0,0,0,50,8.26L50.91,8l.62.77a26,26,0,0,1,4.89,9.06Zm-45.86-3H52.87a22.93,22.93,0,0,0-3.08-5.35,35.9,35.9,0,0,1-13.53.67,17.76,17.76,0,0,1-2.15-.47A9.41,9.41,0,0,0,32,11.2a9.41,9.41,0,0,0-2.11.4,17.76,17.76,0,0,1-2.15.47,35.9,35.9,0,0,1-13.53-.67A22.93,22.93,0,0,0,11.13,16.75Z"/></g></svg>