<svg xmlns="http://www.w3.org/2000/svg" viewBox="0 0 64 64"><defs><style>.cls-1{fill:#3f3f3f;}.cls-2{fill:#c14d25;}.cls-3{fill:#94959a;}</style></defs><title>ICON_MAP_OBSTACLE_LIGHTED_LESS_1000_AGL_GREY</title><g id="V1_G1000_CONTOUR" data-name="V1_G1000 CONTOUR"><rect class="cls-1" x="28.75" y="17.62" width="7.49" height="6.93"/><rect class="cls-2" x="31.25" y="11.88" width="1.5" height="6.06"/><rect class="cls-1" x="29.75" y="10.39" width="4.5" height="9.06"/><rect class="cls-2" x="35.78" y="19.15" width="1.5" height="6.06" transform="translate(-0.94 42.72) rotate(-60)"/><rect class="cls-1" x="34.28" y="17.65" width="4.5" height="9.06" transform="translate(-0.94 42.73) rotate(-60)"/><rect class="cls-2" x="24.35" y="21.35" width="6.06" height="1.5" transform="translate(-7.29 16.11) rotate(-29.1)"/><rect class="cls-1" x="22.85" y="19.85" width="9.06" height="4.5" transform="translate(-7.29 16.11) rotate(-29.1)"/><rect class="cls-2" x="33.21" y="16.53" width="6.06" height="1.5" transform="translate(-3.79 20.44) rotate(-30)"/><rect class="cls-1" x="31.71" y="15.03" width="9.06" height="4.5" transform="matrix(0.87, -0.5, 0.5, 0.87, -3.79, 20.44)"/><rect class="cls-2" x="26.99" y="14.22" width="1.5" height="6.06" transform="translate(-1.07 32.65) rotate(-60)"/><rect class="cls-1" x="25.49" y="12.72" width="4.5" height="9.06" transform="translate(-1.07 32.65) rotate(-60)"/><rect class="cls-3" x="31.25" y="11.88" width="1.5" height="6.06"/><rect class="cls-3" x="35.78" y="19.15" width="1.5" height="6.06" transform="translate(-0.94 42.72) rotate(-60)"/><rect class="cls-3" x="24.35" y="21.35" width="6.06" height="1.5" transform="translate(-7.29 16.11) rotate(-29.1)"/><rect class="cls-3" x="33.21" y="16.53" width="6.06" height="1.5" transform="translate(-3.79 20.44) rotate(-30)"/><rect class="cls-3" x="26.99" y="14.22" width="1.5" height="6.06" transform="translate(-1.07 32.65) rotate(-60)"/><polyline class="cls-1" points="32.3 30.25 39.84 53.59 24.16 53.59"/><circle class="cls-2" cx="32" cy="45.1" r="2.74"/><path class="cls-1" d="M32,50.34a5.24,5.24,0,1,1,1.64-.26A5.2,5.2,0,0,1,32,50.34Zm0-5.47a.23.23,0,0,0-.21.13.23.23,0,0,0,0,.18.18.18,0,0,0,.11.13.23.23,0,0,0,.18,0,.21.21,0,0,0,.14-.12.24.24,0,0,0-.1-.32Z"/><polygon class="cls-2" points="44.91 48.21 40.9 50.25 32 32.72 23.1 50.25 19.09 48.21 29.77 27.17 29.77 25.85 34.27 25.85 34.27 27.25 44.91 48.21"/><polygon class="cls-1" points="39.8 53.62 32 38.24 24.2 53.62 15.73 49.31 27.27 26.57 27.27 23.35 36.77 23.35 36.77 26.65 48.27 49.31 39.8 53.62"/><circle class="cls-3" cx="32" cy="45.1" r="2.74"/><polygon class="cls-3" points="44.91 48.21 40.9 50.25 32 32.72 23.1 50.25 19.09 48.21 29.77 27.17 29.77 25.85 34.27 25.85 34.27 27.25 44.91 48.21"/></g></svg>