<svg xmlns="http://www.w3.org/2000/svg" viewBox="0 0 64 64"><defs><style>.cls-1{fill:#ed008c;}.cls-2{fill:#3f3f3f;}</style></defs><title>ICON_MAP_AIRPORT7</title><g id="V1_G1000_CONTOUR" data-name="V1_G1000 CONTOUR"><path class="cls-1" d="M45,30.12A13,13,0,0,0,33.88,19.05V14.5H30.12v4.55A13,13,0,0,0,19.05,30.12H14.5v3.76h4.55A13,13,0,0,0,30.12,45V49.5h3.76V45A13,13,0,0,0,45,33.88H49.5V30.12ZM32,41.32A9.32,9.32,0,1,1,41.32,32,9.33,9.33,0,0,1,32,41.32Z"/><path class="cls-2" d="M35.13,50.75H28.87V46A14.24,14.24,0,0,1,18,35.13H13.25V28.87H18A14.24,14.24,0,0,1,28.87,18V13.25h6.26V18A14.24,14.24,0,0,1,46,28.87h4.76v6.26H46A14.24,14.24,0,0,1,35.13,46Zm-3.76-2.5h1.26V43.87l1.07-.16a11.75,11.75,0,0,0,10-10l.16-1.07h4.38V31.37H43.87l-.16-1.07a11.75,11.75,0,0,0-10-10l-1.07-.16V15.75H31.37v4.38l-1.07.16a11.75,11.75,0,0,0-10,10l-.16,1.07H15.75v1.26h4.38l.16,1.07a11.75,11.75,0,0,0,10,10l1.07.16ZM32,42.57A10.57,10.57,0,1,1,42.57,32,10.58,10.58,0,0,1,32,42.57Zm0-18.64A8.07,8.07,0,1,0,40.07,32,8.08,8.08,0,0,0,32,23.93Z"/><path class="cls-1" d="M33.88,45A13,13,0,0,0,45,33.88H49.5V30.12H45A13,13,0,0,0,33.88,19.05V14.5H30.12v4.55A13,13,0,0,0,19.05,30.12H14.5v3.76h4.55A13,13,0,0,0,30.12,45V49.5h3.76ZM22.68,32A9.32,9.32,0,1,1,32,41.32,9.33,9.33,0,0,1,22.68,32Z"/><path class="cls-2" d="M35.13,50.75H28.87V46A14.24,14.24,0,0,1,18,35.13H13.25V28.87H18A14.24,14.24,0,0,1,28.87,18V13.25h6.26V18A14.24,14.24,0,0,1,46,28.87h4.76v6.26H46A14.24,14.24,0,0,1,35.13,46Zm-3.76-2.5h1.26V43.87l1.07-.16a11.76,11.76,0,0,0,10-10l.16-1.07h4.38V31.37H43.87l-.16-1.07a11.76,11.76,0,0,0-10-10l-1.07-.16V15.75H31.37v4.38l-1.07.16a11.76,11.76,0,0,0-10,10l-.16,1.07H15.75v1.26h4.38l.16,1.07a11.76,11.76,0,0,0,10,10l1.07.16ZM32,42.57A10.58,10.58,0,0,1,21.43,32h0A10.56,10.56,0,1,1,32,42.57Zm0-18.64A8.09,8.09,0,0,0,23.93,32h0A8.08,8.08,0,0,0,32,40.07,8.09,8.09,0,0,0,40.07,32,8.08,8.08,0,0,0,32,23.93Z"/><path class="cls-1" d="M30.15,19.05a13,13,0,0,0-11.1,11H14.5v3.76h4.55a13,13,0,0,0,11,11.1V49.5h3.76V45a13,13,0,0,0,11.1-11H49.5V30.16H45a13,13,0,0,0-11-11.1V14.5H30.16ZM41.32,32A9.32,9.32,0,1,1,32,22.68,9.33,9.33,0,0,1,41.32,32Z"/><path class="cls-2" d="M34.84,50.51l-5.76,0V45.78A14,14,0,0,1,18.2,34.85H13.49l0-5.76h4.71A14,14,0,0,1,29.15,18.21V13.49l5.76,0v4.71A14,14,0,0,1,45.8,29.15h4.71l0,5.76H45.78A14,14,0,0,1,34.85,45.79Zm-3.76-2h1.76V44.09l.86-.13A12,12,0,0,0,44,33.76l.12-.85H48.5V31.16H44.09L44,30.29A12,12,0,0,0,33.76,20l-.85-.12V15.5H31.16v4.41l-.86.13A12,12,0,0,0,20,30.24l-.12.85H15.5v1.76h4.41l.13.86A12,12,0,0,0,30.24,44l.85.12ZM32,42.32h0a10.32,10.32,0,0,1,0-20.64h0A10.33,10.33,0,0,1,42.32,32h0A10.33,10.33,0,0,1,32,42.32Zm0-18.64a8.32,8.32,0,0,0,0,16.64h0A8.33,8.33,0,0,0,40.32,32h0A8.33,8.33,0,0,0,32,23.68Z"/></g></svg>