<svg xmlns="http://www.w3.org/2000/svg" viewBox="0 0 64 64"><defs><style>.cls-1{fill:#00aeef;}.cls-2{fill:#3f3f3f;}.cls-3{fill:#fff;}</style></defs><title>ICON_MAP_AIRPORT_TOWERED_NON_SERVICED_BLUE</title><g id="V1_G1000_CONTOUR" data-name="V1_G1000 CONTOUR"><path class="cls-1" d="M32,45.25A13.25,13.25,0,1,1,45.25,32,13.26,13.26,0,0,1,32,45.25Zm0-23.73A10.48,10.48,0,1,0,42.48,32,10.49,10.49,0,0,0,32,21.52Z"/><path class="cls-2" d="M32,46.5A14.5,14.5,0,1,1,46.5,32,14.51,14.51,0,0,1,32,46.5ZM32,20A12,12,0,1,0,44,32,12,12,0,0,0,32,20Zm0,23.73A11.73,11.73,0,1,1,43.73,32,11.74,11.74,0,0,1,32,43.73Zm0-21A9.23,9.23,0,1,0,41.23,32,9.24,9.24,0,0,0,32,22.77Z"/><circle class="cls-1" cx="32" cy="32" r="11.86"/><rect class="cls-3" x="23.8" y="30.58" width="16.4" height="2.84" transform="translate(-13.25 32.3) rotate(-45.38)"/></g></svg>