<svg xmlns="http://www.w3.org/2000/svg" viewBox="0 0 64 64"><defs><style>.cls-1{fill:#ed008c;}.cls-2{fill:#3f3f3f;}</style></defs><title>ICON_MAP_AIRPORT8</title><g id="V1_G1000_CONTOUR" data-name="V1_G1000 CONTOUR"><path class="cls-1" d="M32,45.25A13.25,13.25,0,1,1,45.25,32,13.26,13.26,0,0,1,32,45.25Zm0-23A9.75,9.75,0,1,0,41.75,32,9.76,9.76,0,0,0,32,22.25Z"/><path class="cls-2" d="M32,46.5A14.5,14.5,0,1,1,46.5,32,14.51,14.51,0,0,1,32,46.5ZM32,20A12,12,0,1,0,44,32,12,12,0,0,0,32,20Zm0,23A11,11,0,1,1,43,32,11,11,0,0,1,32,43Zm0-19.5A8.5,8.5,0,1,0,40.5,32,8.51,8.51,0,0,0,32,23.5Z"/><path class="cls-1" d="M32,45.25A13.25,13.25,0,1,1,45.25,32,13.26,13.26,0,0,1,32,45.25Zm0-23A9.75,9.75,0,1,0,41.75,32,9.76,9.76,0,0,0,32,22.25Z"/><path class="cls-2" d="M32,46.5A14.5,14.5,0,1,1,46.5,32,14.51,14.51,0,0,1,32,46.5ZM32,20A12,12,0,1,0,44,32,12,12,0,0,0,32,20Zm0,23A11,11,0,1,1,43,32,11,11,0,0,1,32,43Zm0-19.5A8.5,8.5,0,1,0,40.5,32,8.51,8.51,0,0,0,32,23.5Z"/><path class="cls-1" d="M32,45.25A13.25,13.25,0,1,1,45.25,32,13.26,13.26,0,0,1,32,45.25Zm0-23A9.75,9.75,0,1,0,41.75,32,9.76,9.76,0,0,0,32,22.25Z"/><path class="cls-2" d="M32,46.5A14.5,14.5,0,1,1,46.5,32,14.51,14.51,0,0,1,32,46.5ZM32,20A12,12,0,1,0,44,32,12,12,0,0,0,32,20Zm0,23A11,11,0,1,1,43,32,11,11,0,0,1,32,43Zm0-19.5A8.5,8.5,0,1,0,40.5,32,8.51,8.51,0,0,0,32,23.5Z"/><path class="cls-1" d="M32,45.25A13.25,13.25,0,1,1,45.25,32,13.26,13.26,0,0,1,32,45.25Zm0-23A9.75,9.75,0,1,0,41.75,32,9.76,9.76,0,0,0,32,22.25Z"/><path class="cls-2" d="M32,46A14,14,0,1,1,46,32,14,14,0,0,1,32,46Zm0-26.5A12.5,12.5,0,1,0,44.5,32,12.52,12.52,0,0,0,32,19.5Zm0,23A10.5,10.5,0,1,1,42.5,32,10.51,10.51,0,0,1,32,42.5ZM32,23a9,9,0,1,0,9,9A9,9,0,0,0,32,23Z"/></g></svg>