<svg xmlns="http://www.w3.org/2000/svg" viewBox="0 0 64 64"><defs><style>.cls-1{fill:#3f3f3f;}.cls-2{fill:#c14d25;}</style></defs><title>ICON_MAP_OBSTACLE_UNLIGHTED_MORE_1000_AGL_RED</title><g id="V1_G1000_CONTOUR" data-name="V1_G1000 CONTOUR"><polyline class="cls-1" points="32.3 23.76 39.84 47.11 24.16 47.11"/><circle class="cls-2" cx="32" cy="38.62" r="2.74"/><path class="cls-1" d="M32,43.86A5.24,5.24,0,1,1,36.67,41,5.26,5.26,0,0,1,32,43.86Zm0-5.48a.23.23,0,0,0-.21.13.24.24,0,0,0,.1.32.23.23,0,0,0,.32-.1.24.24,0,0,0-.1-.32A.23.23,0,0,0,32,38.38Z"/><polygon class="cls-2" points="44.91 41.73 40.9 43.77 32 26.24 23.1 43.77 19.09 41.73 29.77 20.69 29.77 19.37 34.27 19.37 34.27 20.77 44.91 41.73"/><polygon class="cls-1" points="39.8 47.13 32 31.76 24.2 47.13 15.73 42.82 27.27 20.09 27.27 16.87 36.77 16.87 36.77 20.17 48.27 42.82 39.8 47.13"/><circle class="cls-2" cx="32" cy="38.62" r="2.74"/><polygon class="cls-2" points="44.91 41.73 40.9 43.77 32 26.24 23.1 43.77 19.09 41.73 29.77 20.69 29.77 19.37 34.27 19.37 34.27 20.77 44.91 41.73"/></g></svg>