{"accessors":[{"bufferView":0,"componentType":5126,"count":24,"min":[-0.9999998807907105,-1.0,-0.9999995231628418],"max":[0.9999998807907105,1.0,1.0000004768371583],"type":"VEC3","name":"SOUND_BLOWER_EXTRACT_vertices#0_POSITION"},{"bufferView":0,"byteOffset":12,"componentType":5120,"count":24,"type":"VEC4","name":"SOUND_BLOWER_EXTRACT_vertices#0_TANGENT"},{"bufferView":0,"byteOffset":16,"componentType":5120,"count":24,"type":"VEC4","name":"SOUND_BLOWER_EXTRACT_vertices#0_NORMAL"},{"bufferView":0,"byteOffset":20,"componentType":5122,"count":24,"type":"VEC2","name":"SOUND_BLOWER_EXTRACT_vertices#0_TEXCOORD_0"},{"bufferView":0,"byteOffset":24,"componentType":5122,"count":24,"type":"VEC2","name":"SOUND_BLOWER_EXTRACT_vertices#0_TEXCOORD_1"},{"bufferView":0,"byteOffset":28,"componentType":5123,"count":24,"type":"VEC4","name":"SOUND_BLOWER_EXTRACT_vertices#0_COLOR_0"},{"bufferView":1,"componentType":5123,"count":36,"type":"SCALAR","name":"SOUND_BLOWER_EXTRACT_indices#0"},{"bufferView":0,"byteOffset":864,"componentType":5126,"count":24,"min":[-1.0,-1.0000076293945313,-1.0000152587890626],"max":[1.0,0.9999923706054688,0.9999847412109375],"type":"VEC3","name":"SOUND_ENGINE_LEFT_vertices#0_POSITION"},{"bufferView":0,"byteOffset":876,"componentType":5120,"count":24,"type":"VEC4","name":"SOUND_ENGINE_LEFT_vertices#0_TANGENT"},{"bufferView":0,"byteOffset":880,"componentType":5120,"count":24,"type":"VEC4","name":"SOUND_ENGINE_LEFT_vertices#0_NORMAL"},{"bufferView":0,"byteOffset":884,"componentType":5122,"count":24,"type":"VEC2","name":"SOUND_ENGINE_LEFT_vertices#0_TEXCOORD_0"},{"bufferView":0,"byteOffset":888,"componentType":5122,"count":24,"type":"VEC2","name":"SOUND_ENGINE_LEFT_vertices#0_TEXCOORD_1"},{"bufferView":0,"byteOffset":892,"componentType":5123,"count":24,"type":"VEC4","name":"SOUND_ENGINE_LEFT_vertices#0_COLOR_0"},{"bufferView":1,"byteOffset":72,"componentType":5123,"count":36,"type":"SCALAR","name":"SOUND_ENGINE_LEFT_indices#0"},{"bufferView":0,"byteOffset":1728,"componentType":5126,"count":24,"min":[-1.0,-1.0,-1.0],"max":[1.0,1.0,1.0],"type":"VEC3","name":"SOUND_ENGINE_RIGHT_vertices#0_POSITION"},{"bufferView":0,"byteOffset":1740,"componentType":5120,"count":24,"type":"VEC4","name":"SOUND_ENGINE_RIGHT_vertices#0_TANGENT"},{"bufferView":0,"byteOffset":1744,"componentType":5120,"count":24,"type":"VEC4","name":"SOUND_ENGINE_RIGHT_vertices#0_NORMAL"},{"bufferView":0,"byteOffset":1748,"componentType":5122,"count":24,"type":"VEC2","name":"SOUND_ENGINE_RIGHT_vertices#0_TEXCOORD_0"},{"bufferView":0,"byteOffset":1752,"componentType":5122,"count":24,"type":"VEC2","name":"SOUND_ENGINE_RIGHT_vertices#0_TEXCOORD_1"},{"bufferView":0,"byteOffset":1756,"componentType":5123,"count":24,"type":"VEC4","name":"SOUND_ENGINE_RIGHT_vertices#0_COLOR_0"},{"bufferView":1,"byteOffset":144,"componentType":5123,"count":36,"type":"SCALAR","name":"SOUND_ENGINE_RIGHT_indices#0"}],"asset":{"generator":"Extended Khronos glTF Blender I/O v1.0.0","version":"2.0","extensions":{"ASOBO_asset_optimized":{"BoundingBoxMax":[1.0,1.0,1.0000004768371583],"BoundingBoxMin":[-1.0,-1.0000076293945313,-1.0000152587890626],"MajorVersion":4,"MinorVersion":2},"ASOBO_normal_map_convention":{"tangent_space_convention":"DirectX"}}},"bufferViews":[{"buffer":0,"byteLength":2592,"byteStride":36,"target":34962,"name":"BufferViewVertexND"},{"buffer":0,"byteLength":216,"byteOffset":2592,"target":34963,"name":"BufferViewIndex"}],"extensionsUsed":["ASOBO_normal_map_convention","ASOBO_asset_optimized"],"materials":[{"name":"glTFValidator_Added_Default_Material", "extensions": {"ASOBO_material_invisible": {}}}],"meshes":[{"primitives":[{"attributes":{"COLOR_0":5,"NORMAL":2,"POSITION":0,"TANGENT":1,"TEXCOORD_0":3,"TEXCOORD_1":4},"indices":6,"material":0,"mode":4,"extras":{"ASOBO_primitive":{"PrimitiveCount":12,"VertexType":"VTX","VertexVersion":2}}}],"name":"SOUND_BLOWER_EXTRACT"},{"primitives":[{"attributes":{"COLOR_0":12,"NORMAL":9,"POSITION":7,"TANGENT":8,"TEXCOORD_0":10,"TEXCOORD_1":11},"indices":13,"material":0,"mode":4,"extras":{"ASOBO_primitive":{"PrimitiveCount":12,"VertexType":"VTX","VertexVersion":2}}}],"name":"SOUND_ENGINE_LEFT"},{"primitives":[{"attributes":{"COLOR_0":19,"NORMAL":16,"POSITION":14,"TANGENT":15,"TEXCOORD_0":17,"TEXCOORD_1":18},"indices":20,"material":0,"mode":4,"extras":{"ASOBO_primitive":{"PrimitiveCount":12,"VertexType":"VTX","VertexVersion":2}}}],"name":"SOUND_ENGINE_RIGHT"}],"nodes":[{"translation":[-1.260140061378479,-0.23086783289909364,6.838709831237793],"scale":[0.010036978870630265,0.010036978870630265,0.010036978870630265],"mesh":0,"name":"SOUND_BLOWER_EXTRACT"},{"translation":[5.778567790985107,-0.8929270505905151,1.8223490715026856],"scale":[0.010036978870630265,0.010036978870630265,0.010036978870630265],"mesh":1,"name":"SOUND_ENGINE_LEFT"},{"translation":[-5.778567790985107,-0.8929262757301331,1.8223490715026856],"scale":[0.010036978870630265,0.010036978870630265,0.010036978870630265],"mesh":2,"name":"SOUND_ENGINE_RIGHT"}],"scene":0,"scenes":[{"nodes":[0,1,2],"name":"Scene"}],"buffers":[{"byteLength":2808,"uri":"sound_nodes.bin"}]}
