{
  "accessors": [
    {
      "bufferView": 0,
      "componentType": 5126,
      "count": 87,
      "min": [
        -0.027643540874123573,
        0.0004084900429006666,
        -0.027597004547715187
      ],
      "max": [
        0.027643544599413872,
        0.3816501796245575,
        0.02759690396487713
      ],
      "type": "VEC3",
      "name": "x0_Stick_Left_vertices#0_POSITION"
    },
    {
      "bufferView": 0,
      "byteOffset": 12,
      "componentType": 5120,
      "count": 87,
      "type": "VEC4",
      "name": "x0_Stick_Left_vertices#0_TANGENT"
    },
    {
      "bufferView": 0,
      "byteOffset": 16,
      "componentType": 5120,
      "count": 87,
      "type": "VEC4",
      "name": "x0_Stick_Left_vertices#0_NORMAL"
    },
    {
      "bufferView": 0,
      "byteOffset": 20,
      "componentType": 5122,
      "count": 87,
      "type": "VEC2",
      "name": "x0_Stick_Left_vertices#0_TEXCOORD_0"
    },
    {
      "bufferView": 0,
      "byteOffset": 24,
      "componentType": 5122,
      "count": 87,
      "type": "VEC2",
      "name": "x0_Stick_Left_vertices#0_TEXCOORD_1"
    },
    {
      "bufferView": 0,
      "byteOffset": 28,
      "componentType": 5123,
      "count": 87,
      "type": "VEC4",
      "name": "x0_Stick_Left_vertices#0_COLOR_0"
    },
    {
      "bufferView": 1,
      "componentType": 5123,
      "count": 294,
      "type": "SCALAR",
      "name": "x0_Stick_Left_indices#0"
    },
    {
      "bufferView": 0,
      "byteOffset": 3132,
      "componentType": 5126,
      "count": 3,
      "min": [
        -0.7500150203704834,
        0,
        -0.7499643564224243
      ],
      "max": [
        0.7500150203704834,
        0,
        0.7499643564224243
      ],
      "type": "VEC3",
      "name": "Stick_HitBox_Left_vertices#0_POSITION"
    },
    {
      "bufferView": 0,
      "byteOffset": 3144,
      "componentType": 5120,
      "count": 3,
      "type": "VEC4",
      "name": "Stick_HitBox_Left_vertices#0_TANGENT"
    },
    {
      "bufferView": 0,
      "byteOffset": 3148,
      "componentType": 5120,
      "count": 3,
      "type": "VEC4",
      "name": "Stick_HitBox_Left_vertices#0_NORMAL"
    },
    {
      "bufferView": 0,
      "byteOffset": 3152,
      "componentType": 5122,
      "count": 3,
      "type": "VEC2",
      "name": "Stick_HitBox_Left_vertices#0_TEXCOORD_0"
    },
    {
      "bufferView": 0,
      "byteOffset": 3156,
      "componentType": 5122,
      "count": 3,
      "type": "VEC2",
      "name": "Stick_HitBox_Left_vertices#0_TEXCOORD_1"
    },
    {
      "bufferView": 0,
      "byteOffset": 3160,
      "componentType": 5123,
      "count": 3,
      "type": "VEC4",
      "name": "Stick_HitBox_Left_vertices#0_COLOR_0"
    },
    {
      "bufferView": 1,
      "byteOffset": 588,
      "componentType": 5123,
      "count": 3,
      "type": "SCALAR",
      "name": "Stick_HitBox_Left_indices#0"
    },
    {
      "bufferView": 0,
      "byteOffset": 3240,
      "componentType": 5126,
      "count": 87,
      "min": [
        -0.027377445250749588,
        0.0004078660858795047,
        -0.027904797345399857
      ],
      "max": [
        0.027377448976039886,
        0.3810672461986542,
        0.027904696762561798
      ],
      "type": "VEC3",
      "name": "x0_Stick_Right_vertices#0_POSITION"
    },
    {
      "bufferView": 0,
      "byteOffset": 3252,
      "componentType": 5120,
      "count": 87,
      "type": "VEC4",
      "name": "x0_Stick_Right_vertices#0_TANGENT"
    },
    {
      "bufferView": 0,
      "byteOffset": 3256,
      "componentType": 5120,
      "count": 87,
      "type": "VEC4",
      "name": "x0_Stick_Right_vertices#0_NORMAL"
    },
    {
      "bufferView": 0,
      "byteOffset": 3260,
      "componentType": 5122,
      "count": 87,
      "type": "VEC2",
      "name": "x0_Stick_Right_vertices#0_TEXCOORD_0"
    },
    {
      "bufferView": 0,
      "byteOffset": 3264,
      "componentType": 5122,
      "count": 87,
      "type": "VEC2",
      "name": "x0_Stick_Right_vertices#0_TEXCOORD_1"
    },
    {
      "bufferView": 0,
      "byteOffset": 3268,
      "componentType": 5123,
      "count": 87,
      "type": "VEC4",
      "name": "x0_Stick_Right_vertices#0_COLOR_0"
    },
    {
      "bufferView": 1,
      "byteOffset": 594,
      "componentType": 5123,
      "count": 294,
      "type": "SCALAR",
      "name": "x0_Stick_Right_indices#0"
    },
    {
      "bufferView": 0,
      "byteOffset": 6372,
      "componentType": 5126,
      "count": 3,
      "min": [
        -0.742795467376709,
        0,
        -0.7488188743591309
      ],
      "max": [
        0.742795467376709,
        0,
        0.7488188743591309
      ],
      "type": "VEC3",
      "name": "Stick_HitBox_Right_vertices#0_POSITION"
    },
    {
      "bufferView": 0,
      "byteOffset": 6384,
      "componentType": 5120,
      "count": 3,
      "type": "VEC4",
      "name": "Stick_HitBox_Right_vertices#0_TANGENT"
    },
    {
      "bufferView": 0,
      "byteOffset": 6388,
      "componentType": 5120,
      "count": 3,
      "type": "VEC4",
      "name": "Stick_HitBox_Right_vertices#0_NORMAL"
    },
    {
      "bufferView": 0,
      "byteOffset": 6392,
      "componentType": 5122,
      "count": 3,
      "type": "VEC2",
      "name": "Stick_HitBox_Right_vertices#0_TEXCOORD_0"
    },
    {
      "bufferView": 0,
      "byteOffset": 6396,
      "componentType": 5122,
      "count": 3,
      "type": "VEC2",
      "name": "Stick_HitBox_Right_vertices#0_TEXCOORD_1"
    },
    {
      "bufferView": 0,
      "byteOffset": 6400,
      "componentType": 5123,
      "count": 3,
      "type": "VEC4",
      "name": "Stick_HitBox_Right_vertices#0_COLOR_0"
    },
    {
      "bufferView": 1,
      "byteOffset": 1182,
      "componentType": 5123,
      "count": 3,
      "type": "SCALAR",
      "name": "Stick_HitBox_Right_indices#0"
    }
  ],
  "asset": {
    "generator": "babylon.js glTF exporter for 3dsmax 2022 v1.0.8174.31295",
    "version": "2.0",
    "extensions": {
      "ASOBO_asset_optimized": {
        "BoundingBoxMax": [
          0.7500300407409668,
          0.38163238763809204,
          0.7499287724494934
        ],
        "BoundingBoxMin": [
          -0.7500300407409668,
          0,
          -0.7499287724494934
        ],
        "MajorVersion": 4,
        "MinorVersion": 4,
        "UseCheckerboardMaterialForMissingTextures": true,
        "UseOnlyFilenameForImageURI": true
      },
      "ASOBO_normal_map_convention": {
        "tangent_space_convention": "DirectX"
      }
    }
  },
  "bufferViews": [
    {
      "buffer": 0,
      "byteLength": 6480,
      "byteStride": 36,
      "target": 34962,
      "name": "BufferViewVertexND"
    },
    {
      "buffer": 0,
      "byteLength": 1188,
      "byteOffset": 6480,
      "target": 34963,
      "name": "BufferViewIndex"
    }
  ],
  "extensionsRequired": [
    "MSFT_texture_dds"
  ],
  "materials": [
    {
      "name": "Stick_Pawap",
      "normalTexture": {
        "index": 2
      },
      "occlusionTexture": {
        "index": 1
      },
      "emissiveTexture": {
        "index": 3
      },
      "emissiveFactor": [
        0.9843137860298157,
        0.9843137860298157,
        0.9843137860298157
      ],
      "pbrMetallicRoughness": {
        "baseColorTexture": {
          "index": 0
        },
        "metallicRoughnessTexture": {
          "index": 1
        }
      }
    },
    {
      "name": "Material #1",
      "pbrMetallicRoughness": {
        "baseColorFactor": [
          1,
          1,
          1,
          0.7
        ]
      },
      "extensions": {
        "ASOBO_material_invisible": {}
      }
    }
  ],
  "meshes": [
    {
      "primitives": [
        {
          "attributes": {
            "COLOR_0": 5,
            "NORMAL": 2,
            "POSITION": 0,
            "TANGENT": 1,
            "TEXCOORD_0": 3,
            "TEXCOORD_1": 4
          },
          "indices": 6,
          "material": 0,
          "mode": 4,
          "extras": {
            "ASOBO_primitive": {
              "PrimitiveCount": 98,
              "VertexType": "VTX",
              "VertexVersion": 2
            }
          }
        }
      ],
      "name": "x0_Stick_Left"
    },
    {
      "primitives": [
        {
          "attributes": {
            "COLOR_0": 12,
            "NORMAL": 9,
            "POSITION": 7,
            "TANGENT": 8,
            "TEXCOORD_0": 10,
            "TEXCOORD_1": 11
          },
          "indices": 13,
          "material": 1,
          "mode": 4,
          "extras": {
            "ASOBO_primitive": {
              "PrimitiveCount": 1,
              "VertexType": "VTX",
              "VertexVersion": 2
            }
          }
        }
      ],
      "name": "Stick_HitBox_Left"
    },
    {
      "primitives": [
        {
          "attributes": {
            "COLOR_0": 19,
            "NORMAL": 16,
            "POSITION": 14,
            "TANGENT": 15,
            "TEXCOORD_0": 17,
            "TEXCOORD_1": 18
          },
          "indices": 20,
          "material": 0,
          "mode": 4,
          "extras": {
            "ASOBO_primitive": {
              "PrimitiveCount": 98,
              "VertexType": "VTX",
              "VertexVersion": 2
            }
          }
        }
      ],
      "name": "x0_Stick_Right"
    },
    {
      "primitives": [
        {
          "attributes": {
            "COLOR_0": 26,
            "NORMAL": 23,
            "POSITION": 21,
            "TANGENT": 22,
            "TEXCOORD_0": 24,
            "TEXCOORD_1": 25
          },
          "indices": 27,
          "material": 1,
          "mode": 4,
          "extras": {
            "ASOBO_primitive": {
              "PrimitiveCount": 1,
              "VertexType": "VTX",
              "VertexVersion": 2
            }
          }
        }
      ],
      "name": "Stick_HitBox_Right"
    }
  ],
  "nodes": [
    {
      "translation": [
        1.1920929e-7,
        1.1920929e-7,
        2.98023224e-8
      ],
      "rotation": [
        7.450581e-9,
        0,
        0,
        1
      ],
      "scale": [
        0.999981165,
        1.00004876,
        0.999973834
      ],
      "extensions": {
        "ASOBO_unique_id": {
          "id": "Stick_L_CTRL"
        }
      },
      "name": "Stick_L_CTRL",
      "children": [
        1,
        2
      ]
    },
    {
      "translation": [
        -1.19213823e-7,
        -3.57612151e-7,
        -3.725429e-8
      ],
      "rotation": [
        -4.76837158e-7,
        3.16665023e-8,
        2.38418579e-7,
        1
      ],
      "scale": [
        1.00001788,
        0.999952,
        1.00002623
      ],
      "mesh": 0,
      "extensions": {
        "ASOBO_unique_id": {
          "id": "x0_Stick_Left"
        }
      },
      "name": "Stick_Left"
    },
    {
      "translation": [
        -1.19211535e-7,
        0.744731665,
        -4.09013055e-8
      ],
      "rotation": [
        0.7071068,
        0,
        0,
        0.7071067
      ],
      "scale": [
        1.00001884,
        1.00002623,
        0.9999513
      ],
      "mesh": 1,
      "extensions": {
        "ASOBO_unique_id": {
          "id": "Stick_HitBox_Left"
        }
      },
      "name": "Stick_HitBox_Left"
    },
    {
      "translation": [
        0.0000174045563,
        -0.00005686283,
        0.0000028014183
      ],
      "rotation": [
        0,
        0.000008523464,
        0,
        1
      ],
      "scale": [
        1.00971627,
        1.00159431,
        0.988959551
      ],
      "extensions": {
        "ASOBO_unique_id": {
          "id": "Stick_R_CTRL"
        }
      },
      "name": "Stick_R_CTRL",
      "children": [
        4,
        5
      ]
    },
    {
      "translation": [
        -0.0000172370255,
        0.0000565342743,
        -0.0000028405268
      ],
      "rotation": [
        -4.768392e-7,
        -0.000008583068,
        2.38414486e-7,
        1
      ],
      "scale": [
        0.9903762,
        0.9984089,
        1.01116371
      ],
      "mesh": 2,
      "extensions": {
        "ASOBO_unique_id": {
          "id": "x0_Stick_Right"
        }
      },
      "name": "Stick_Right"
    },
    {
      "translation": [
        -0.0000172370255,
        0.7436392,
        -0.00000283299255
      ],
      "rotation": [
        0.7071068,
        -0.00000606914546,
        0.00000606914546,
        0.7071067
      ],
      "scale": [
        0.9903771,
        1.01116371,
        0.998408139
      ],
      "mesh": 3,
      "extensions": {
        "ASOBO_unique_id": {
          "id": "Stick_HitBox_Right"
        }
      },
      "name": "Stick_HitBox_Right"
    }
  ],
  "scene": 0,
  "scenes": [
    {
      "nodes": [
        0,
        3
      ]
    }
  ],
  "textures": [
    {
      "extensions": {
        "MSFT_texture_dds": {
          "source": 0
        }
      }
    },
    {
      "extensions": {
        "MSFT_texture_dds": {
          "source": 1
        }
      }
    },
    {
      "extensions": {
        "MSFT_texture_dds": {
          "source": 2
        }
      }
    },
    {
      "extensions": {
        "MSFT_texture_dds": {
          "source": 3
        }
      }
    }
  ],
  "extensionsUsed": [
    "ASOBO_normal_map_convention",
    "ASOBO_unique_id",
    "ASOBO_material_invisible",
    "MSFT_texture_dds",
    "ASOBO_asset_optimized"
  ],
  "buffers": [
    {
      "byteLength": 7668,
      "uri": "ralt_probe.bin"
    }
  ],
  "images": [
    {
      "uri": "TEXTURE\\CH_TARMAC_WORKER_STICK_ALBEDO.PNG.DDS",
      "extras": "ASOBO_image_converted_meta"
    },
    {
      "uri": "TEXTURE\\CH_TARMAC_WORKER_STICK_COMP.PNG.DDS",
      "extras": "ASOBO_image_converted_meta"
    },
    {
      "uri": "TEXTURE\\CH_TARMAC_WORKER_STICK_NORMAL.PNG.DDS",
      "extras": "ASOBO_image_converted_meta"
    },
    {
      "uri": "TEXTURE\\CH_TARMAC_WORKER_STICK_EMIS.PNG.DDS",
      "extras": "ASOBO_image_converted_meta"
    }
  ]
}