<svg xmlns="http://www.w3.org/2000/svg" width="160" height="160" viewBox="-40 -40 160 160">
  <defs>
    <style>
      .cls-1 {
        fill: #009ee0;
      }
    </style>
  </defs>
  <title>ONLINE</title>
  <g id="Pilot_-_layers_-_copie" data-name="Pilot - layers - copie">
    <g>
      <path class="cls-1" d="M35.44,34.58a13.07,13.07,0,0,0-2.15,3.92h15V29.17a23.23,23.23,0,0,0-7.72,1.57A12.7,12.7,0,0,0,35.44,34.58Z"/>
      <path class="cls-1" d="M70,21.11A35.4,35.4,0,0,0,40,4.57H6A1.2,1.2,0,0,0,4.86,5.74v0a1.19,1.19,0,0,0,.2.66h0l7.34,11.33A35.5,35.5,0,0,0,10,58.89h0A35.45,35.45,0,0,0,40,75.43h0A35.5,35.5,0,0,0,75.43,40,35.42,35.42,0,0,0,70,21.11ZM54.87,53h0l-.07,0-5.65,2.83a.78.78,0,0,1-.22,0,.6.6,0,0,1-.62-.59v-10H32.1v.88A42.05,42.05,0,0,0,33.34,56a.86.86,0,0,1,0,.17.64.64,0,0,1-.37.56l-5.13,2.57a.63.63,0,0,1-.29.08.65.65,0,0,1-.61-.45A49.73,49.73,0,0,1,25.2,46.28c0-.3,0-.59,0-.88H22a.67.67,0,0,1-.5-.28l-3.62-5.64h0a.59.59,0,0,1-.12-.35.64.64,0,0,1,.61-.63h7.7a22.05,22.05,0,0,1,1.56-4.38,19.38,19.38,0,0,1,10.26-9.73,31.11,31.11,0,0,1,12.14-2.17h4.51v0a.63.63,0,0,1,.62.63s0,29.38,0,29.68A.65.65,0,0,1,54.87,53Z"/>
    </g>
  </g>
</svg>
