<svg width="35" height="31" viewBox="0 0 35 31" fill="none" xmlns="http://www.w3.org/2000/svg">
    <path fill-rule="evenodd" clip-rule="evenodd" d="M17.375 1C18.1344 1 18.75 1.61561 18.75 2.375V10.25H32.625C33.3844 10.25 34 10.8656 34 11.625C34 12.3844 33.3844 13 32.625 13H18.75V23.25H22.625C23.3844 23.25 24 23.8656 24 24.625C24 25.3844 23.3844 26 22.625 26H18.75V28.625C18.75 29.3844 18.1344 30 17.375 30C16.6156 30 16 29.3844 16 28.625V26H12.375C11.6156 26 11 25.3844 11 24.625C11 23.8656 11.6156 23.25 12.375 23.25H16L16 13H2.375C1.61561 13 1 12.3844 1 11.625C1 10.8656 1.61561 10.25 2.375 10.25H16V2.375C16 1.61561 16.6156 1 17.375 1Z" fill="#FFFF00"/>
    <path d="M18.75 10.25H18.7V10.3H18.75V10.25ZM18.75 13V12.95H18.7V13H18.75ZM18.75 23.25H18.7V23.3H18.75V23.25ZM22.625 23.25L22.625 23.2H22.625V23.25ZM22.625 26L22.625 25.95H22.625V26ZM18.75 26V25.95H18.7V26H18.75ZM16 26H16.05V25.95H16V26ZM16 23.25V23.3H16.05L16.05 23.25L16 23.25ZM16 13L16.05 13L16.05 12.95H16V13ZM16 10.25V10.3H16.05V10.25H16ZM18.8 2.375C18.8 1.58799 18.162 0.95 17.375 0.95V1.05C18.1068 1.05 18.7 1.64322 18.7 2.375H18.8ZM18.8 10.25V2.375H18.7V10.25H18.8ZM32.625 10.2H18.75V10.3H32.625V10.2ZM34.05 11.625C34.05 10.838 33.412 10.2 32.625 10.2V10.3C33.3568 10.3 33.95 10.8932 33.95 11.625H34.05ZM32.625 13.05C33.412 13.05 34.05 12.412 34.05 11.625H33.95C33.95 12.3568 33.3568 12.95 32.625 12.95V13.05ZM18.75 13.05H32.625V12.95H18.75V13.05ZM18.8 23.25V13H18.7V23.25H18.8ZM18.75 23.3H22.625V23.2H18.75V23.3ZM22.625 23.3C23.3568 23.3 23.95 23.8932 23.95 24.625H24.05C24.05 23.838 23.412 23.2 22.625 23.2L22.625 23.3ZM23.95 24.625C23.95 25.3568 23.3568 25.95 22.625 25.95L22.625 26.05C23.412 26.05 24.05 25.412 24.05 24.625H23.95ZM22.625 25.95H18.75V26.05H22.625V25.95ZM18.8 28.625V26H18.7V28.625H18.8ZM17.375 30.05C18.162 30.05 18.8 29.412 18.8 28.625H18.7C18.7 29.3568 18.1068 29.95 17.375 29.95V30.05ZM15.95 28.625C15.95 29.412 16.588 30.05 17.375 30.05V29.95C16.6432 29.95 16.05 29.3568 16.05 28.625H15.95ZM15.95 26V28.625H16.05V26H15.95ZM16 25.95H12.375V26.05H16V25.95ZM12.375 25.95C11.6432 25.95 11.05 25.3568 11.05 24.625H10.95C10.95 25.412 11.588 26.05 12.375 26.05V25.95ZM11.05 24.625C11.05 23.8932 11.6432 23.3 12.375 23.3V23.2C11.588 23.2 10.95 23.838 10.95 24.625H11.05ZM12.375 23.3H16V23.2H12.375V23.3ZM15.95 13L15.95 23.25L16.05 23.25L16.05 13L15.95 13ZM2.375 13.05H16V12.95H2.375V13.05ZM0.95 11.625C0.95 12.412 1.58799 13.05 2.375 13.05V12.95C1.64322 12.95 1.05 12.3568 1.05 11.625H0.95ZM2.375 10.2C1.58799 10.2 0.95 10.838 0.95 11.625H1.05C1.05 10.8932 1.64322 10.3 2.375 10.3V10.2ZM16 10.2H2.375V10.3H16V10.2ZM15.95 2.375V10.25H16.05V2.375H15.95ZM17.375 0.95C16.588 0.95 15.95 1.58799 15.95 2.375H16.05C16.05 1.64322 16.6432 1.05 17.375 1.05V0.95Z" fill="black"/>
</svg>
