{"accessors":[{"bufferView":0,"componentType":5126,"count":640,"min":[-1.96515691280365,1.8109376430511475,-14.178718566894532],"max":[1.9651639461517335,2.2021992206573488,7.479825496673584],"type":"VEC3","name":"A32N-WINDOW-PLUGS_vertices#0_POSITION"},{"bufferView":0,"byteOffset":12,"componentType":5120,"count":640,"type":"VEC4","name":"A32N-WINDOW-PLUGS_vertices#0_TANGENT"},{"bufferView":0,"byteOffset":16,"componentType":5120,"count":640,"type":"VEC4","name":"A32N-WINDOW-PLUGS_vertices#0_NORMAL"},{"bufferView":0,"byteOffset":20,"componentType":5122,"count":640,"type":"VEC2","name":"A32N-WINDOW-PLUGS_vertices#0_TEXCOORD_0"},{"bufferView":0,"byteOffset":24,"componentType":5122,"count":640,"type":"VEC2","name":"A32N-WINDOW-PLUGS_vertices#0_TEXCOORD_1"},{"bufferView":0,"byteOffset":28,"componentType":5123,"count":640,"type":"VEC4","name":"A32N-WINDOW-PLUGS_vertices#0_COLOR_0"},{"bufferView":1,"componentType":5123,"count":1440,"type":"SCALAR","name":"A32N-WINDOW-PLUGS_indices#0"}],"asset":{"generator":"Khronos glTF Blender I/O v3.3.36 and Asobo Studio MSFS Blender I/O v1.3.2","version":"2.0","extensions":{"ASOBO_asset_optimized":{"BoundingBoxMax":[1.9651639461517335,2.2021992206573488,7.479825496673584],"BoundingBoxMin":[-1.96515691280365,1.8109376430511475,-14.178718566894532],"MajorVersion":4,"MinorVersion":4,"UseCheckerboardMaterialForMissingTextures":true,"UseOnlyFilenameForImageURI":true},"ASOBO_normal_map_convention":{"tangent_space_convention":"DirectX"}}},"bufferViews":[{"buffer":0,"byteLength":23040,"byteStride":36,"target":34962,"name":"BufferViewVertexND"},{"buffer":0,"byteLength":2880,"byteOffset":23040,"target":34963,"name":"BufferViewIndex"}],"extensionsRequired":["MSFT_texture_dds"],"materials":[{"name":"WINDOW-PLUGS","alphaMode":"MASK","normalTexture":{"index":0},"occlusionTexture":{"index":1},"pbrMetallicRoughness":{"baseColorTexture":{"index":2},"metallicRoughnessTexture":{"index":1}}}],"meshes":[{"primitives":[{"attributes":{"COLOR_0":5,"NORMAL":2,"POSITION":0,"TANGENT":1,"TEXCOORD_0":3,"TEXCOORD_1":4},"indices":6,"material":0,"mode":4,"extras":{"ASOBO_primitive":{"PrimitiveCount":480,"VertexType":"VTX","VertexVersion":2}}}],"name":"A32N-WINDOW-PLUGS"}],"nodes":[{"mesh":0,"extensions":{"ASOBO_unique_id":{"id":"A32N-WINDOW-PLUGS"}},"name":"A32N-WINDOW-PLUGS"}],"scene":0,"scenes":[{"nodes":[0],"name":"Scene"}],"textures":[{"extensions":{"MSFT_texture_dds":{"source":0}}},{"extensions":{"MSFT_texture_dds":{"source":1}}},{"extensions":{"MSFT_texture_dds":{"source":2}}}],"samplers":[{"magFilter":9729,"minFilter":9987,"wrapS":10497,"wrapT":10497}],"extensionsUsed":["ASOBO_normal_map_convention","ASOBO_unique_id","MSFT_texture_dds","ASOBO_asset_optimized"],"buffers":[{"byteLength":25920,"uri":"A32N-WINDOW-PLUGS.bin"}],"images":[{"uri":"A320NEO_AIRFRAME_PLUGS_NORM.PNG.DDS","name":"A320NEO_AIRFRAME_PLUGS_NORM","extras":"ASOBO_image_converted_meta"},{"uri":"A320NEO_AIRFRAME_PLUGS_COMP.PNG.DDS","name":"A320NEO_AIRFRAME_PLUGS_COMP","extras":"ASOBO_image_converted_meta"},{"uri":"A320NEO_AIRFRAME_PLUGS_ALBD.PNG.DDS","name":"A320NEO_AIRFRAME_PLUGS_ALBD","extras":"ASOBO_image_converted_meta"}]}
