{
    "accessors": [
        {
            "bufferView": 0,
            "componentType": 5126,
            "count": 20,
            "min": [
                -1.63758385181427,
                -1.2281877994537354,
                -0.1342281848192215
            ],
            "max": [
                1.63758385181427,
                1.2281877994537354,
                0.1342281848192215
            ],
            "type": "VEC3",
            "name": "Cube.542_vertices#0_POSITION"
        },
        {
            "bufferView": 0,
            "byteOffset": 12,
            "componentType": 5120,
            "count": 20,
            "type": "VEC4",
            "name": "Cube.542_vertices#0_TANGENT"
        },
        {
            "bufferView": 0,
            "byteOffset": 16,
            "componentType": 5120,
            "count": 20,
            "type": "VEC4",
            "name": "Cube.542_vertices#0_NORMAL"
        },
        {
            "bufferView": 0,
            "byteOffset": 20,
            "componentType": 5122,
            "count": 20,
            "type": "VEC2",
            "name": "Cube.542_vertices#0_TEXCOORD_0"
        },
        {
            "bufferView": 0,
            "byteOffset": 24,
            "componentType": 5122,
            "count": 20,
            "type": "VEC2",
            "name": "Cube.542_vertices#0_TEXCOORD_1"
        },
        {
            "bufferView": 0,
            "byteOffset": 28,
            "componentType": 5123,
            "count": 20,
            "type": "VEC4",
            "name": "Cube.542_vertices#0_COLOR_0"
        },
        {
            "bufferView": 1,
            "componentType": 5123,
            "count": 30,
            "type": "SCALAR",
            "name": "Cube.542_indices#0"
        },
        {
            "bufferView": 0,
            "byteOffset": 720,
            "componentType": 5126,
            "count": 4,
            "min": [
                -1.63758385181427,
                -1.2281877994537354,
                -0.1342281848192215
            ],
            "max": [
                1.63758385181427,
                1.2281877994537354,
                -0.1342281848192215
            ],
            "type": "VEC3",
            "name": "Cube.543_vertices#0_POSITION"
        },
        {
            "bufferView": 0,
            "byteOffset": 732,
            "componentType": 5120,
            "count": 4,
            "type": "VEC4",
            "name": "Cube.543_vertices#0_TANGENT"
        },
        {
            "bufferView": 0,
            "byteOffset": 736,
            "componentType": 5120,
            "count": 4,
            "type": "VEC4",
            "name": "Cube.543_vertices#0_NORMAL"
        },
        {
            "bufferView": 0,
            "byteOffset": 740,
            "componentType": 5122,
            "count": 4,
            "type": "VEC2",
            "name": "Cube.543_vertices#0_TEXCOORD_0"
        },
        {
            "bufferView": 0,
            "byteOffset": 744,
            "componentType": 5122,
            "count": 4,
            "type": "VEC2",
            "name": "Cube.543_vertices#0_TEXCOORD_1"
        },
        {
            "bufferView": 0,
            "byteOffset": 748,
            "componentType": 5123,
            "count": 4,
            "type": "VEC4",
            "name": "Cube.543_vertices#0_COLOR_0"
        },
        {
            "bufferView": 1,
            "byteOffset": 60,
            "componentType": 5123,
            "count": 6,
            "type": "SCALAR",
            "name": "Cube.543_indices#0"
        }
    ],
    "asset": {
        "generator": "Khronos glTF Blender I/O v3.3.36 and Asobo Studio MSFS Blender I/O v1.3.2",
        "version": "2.0",
        "extensions": {
            "ASOBO_asset_optimized": {
                "BoundingBoxMax": [
                    2.681680917739868,
                    1.5084452629089356,
                    0.018017206341028215
                ],
                "BoundingBoxMin": [
                    -2.681680917739868,
                    -1.5084452629089356,
                    -0.018017206341028215
                ],
                "MajorVersion": 4,
                "MinorVersion": 4,
                "UseCheckerboardMaterialForMissingTextures": true,
                "UseOnlyFilenameForImageURI": true
            },
            "ASOBO_normal_map_convention": {
                "tangent_space_convention": "DirectX"
            }
        }
    },
    "bufferViews": [
        {
            "buffer": 0,
            "byteLength": 864,
            "byteStride": 36,
            "target": 34962,
            "name": "BufferViewVertexND"
        },
        {
            "buffer": 0,
            "byteLength": 72,
            "byteOffset": 864,
            "target": 34963,
            "name": "BufferViewIndex"
        }
    ],
    "materials": [
        {
            "name": "Material.001",
            "alphaMode": "BLEND",
            "pbrMetallicRoughness": {
                "baseColorFactor": [
                    0.7769784331321716,
                    0.6707727909088135,
                    0.7663578987121582,
                    0.08633093535900116
                ],
                "metallicFactor": 0.0
            },
            "extensions": {
                "ASOBO_material_kitty_glass": {
                    "glassReflectionMaskFactor": 1.0
                }
            }
        },
        {
            "name": "HUD",
            "emissiveFactor": [
                100.0,
                100.0,
                100.0
            ],
            "pbrMetallicRoughness": {
                "metallicFactor": 0.0
            },
            "extensions": {
                "ASOBO_tags": {
                    "tags": [
                        "Collision"
                    ]
                }
            }
        }
    ],
    "meshes": [
        {
            "primitives": [
                {
                    "attributes": {
                        "COLOR_0": 5,
                        "NORMAL": 2,
                        "POSITION": 0,
                        "TANGENT": 1,
                        "TEXCOORD_0": 3,
                        "TEXCOORD_1": 4
                    },
                    "indices": 6,
                    "material": 0,
                    "mode": 4,
                    "extras": {
                        "ASOBO_primitive": {
                            "PrimitiveCount": 10,
                            "VertexType": "VTX",
                            "VertexVersion": 2
                        }
                    }
                }
            ],
            "name": "Cube.542"
        },
        {
            "primitives": [
                {
                    "attributes": {
                        "COLOR_0": 12,
                        "NORMAL": 9,
                        "POSITION": 7,
                        "TANGENT": 8,
                        "TEXCOORD_0": 10,
                        "TEXCOORD_1": 11
                    },
                    "indices": 13,
                    "material": 1,
                    "mode": 4,
                    "extras": {
                        "ASOBO_primitive": {
                            "PrimitiveCount": 2,
                            "VertexType": "VTX",
                            "VertexVersion": 2
                        }
                    }
                }
            ],
            "name": "Cube.543"
        }
    ],
    "nodes": [
        {
            "translation": [
                0.5699999928474426,
                2.0999999046325685,
                11.399999618530272
            ],
            "scale": [
                0.12200000137090685,
                0.09149999916553496,
                0.009999999776482582
            ],
            "mesh": 0,
            "extensions": {
                "ASOBO_unique_id": {
                    "id": "Cube"
                }
            },
            "name": "Cube"
        },
        {
            "translation": [
                0.5699999928474426,
                2.0999999046325685,
                11.399999618530272
            ],
            "scale": [
                0.12200000137090685,
                0.09149999916553496,
                0.009999999776482582
            ],
            "mesh": 1,
            "extensions": {
                "ASOBO_unique_id": {
                    "id": "Cube.001"
                }
            },
            "name": "Cube.001"
        }
    ],
    "scene": 0,
    "scenes": [
        {
            "nodes": [
                0,
                1
            ],
            "name": "Scene"
        }
    ],
    "extensionsUsed": [
        "ASOBO_normal_map_convention",
        "ASOBO_unique_id",
        "ASOBO_material_glass",
        "ASOBO_tags",
        "ASOBO_material_kitty_glass",
        "ASOBO_asset_optimized"
    ],
    "buffers": [
        {
            "byteLength": 936,
            "uri": "hud_placeholder.bin"
        }
    ]
}
