<?xml version="1.0" encoding="utf-8"?>
<svg version="1.1" id="Layer_1" xmlns="http://www.w3.org/2000/svg" xmlns:xlink="http://www.w3.org/1999/xlink" x="0px" y="0px"
	 viewBox="0 0 64 64" style="enable-background:new 0 0 64 64;" xml:space="preserve">
<style type="text/css">
	.st0{fill: #ff94ff}
</style>
<g id="V1_G1000_CONTOUR">
	<path class="st0" d="M32,46.6c-8.1,0-14.6-6.5-14.6-14.6c0-8.1,6.5-14.6,14.6-14.6c8.1,0,14.6,6.5,14.6,14.6
		C46.6,40,40,46.6,32,46.6z M32,19.9c-6.7,0-12.1,5.4-12.1,12.1S25.3,44.1,32,44.1S44.1,38.7,44.1,32C44.1,25.3,38.7,19.9,32,19.9z"
		/>
</g>
<g>
	<path class="st0" d="M27.1,24.3h2.6v15.7h-2.6V24.3z M28.6,37.6h3.7c1.1,0,1.9-0.3,2.5-0.8c0.6-0.5,0.9-1.3,0.9-2.3v-4.6
		c0-1-0.3-1.7-0.9-2.3c-0.6-0.5-1.4-0.8-2.5-0.8h-3.7v-2.5h3.6c1.3,0,2.4,0.2,3.3,0.7c0.9,0.4,1.6,1.1,2.1,1.9
		c0.5,0.8,0.7,1.9,0.7,3v4.5c0,1.2-0.2,2.2-0.7,3c-0.5,0.8-1.2,1.5-2.1,1.9c-0.9,0.5-2,0.7-3.3,0.7h-3.6V37.6z"/>
</g>
</svg>