<svg id="Layer_1" data-name="Layer 1" xmlns="http://www.w3.org/2000/svg" viewBox="0 0 599.2 599.2"><defs><style>.cls-1,.cls-2{fill:none;stroke-miterlimit:10;stroke-width:2px;}.cls-1{stroke:#fff;}.cls-2{stroke:#00e900;}.cls-3{fill:#00e900;}</style></defs><rect width="599.2" height="599.2"/><path class="cls-1" d="M523.48,146.3Z" transform="translate(0 0)"/><path class="cls-1" d="M523.48,208.3Z" transform="translate(0 0)"/><circle class="cls-2" cx="250.66" cy="308.39" r="8.22"/><line class="cls-2" x1="270.28" y1="308.39" x2="258.88" y2="308.39"/><line class="cls-2" x1="241.56" y1="308.39" x2="230.17" y2="308.39"/><line class="cls-2" x1="250.66" y1="300.43" x2="250.66" y2="292.4"/><circle class="cls-2" cx="249.02" cy="279.57" r="3.62"/><line class="cls-2" x1="297" y1="279.57" x2="252.64" y2="279.57"/><polygon class="cls-3" points="291.42 279.57 295.29 277.33 299.16 275.1 299.16 279.57 299.16 284.04 295.29 281.8 291.42 279.57"/><line class="cls-2" x1="201.04" y1="279.57" x2="245.4" y2="279.57"/><polygon class="cls-3" points="206.62 279.57 202.75 281.8 198.88 284.04 198.88 279.57 198.88 275.1 202.75 277.33 206.62 279.57"/></svg>
